<?xml version="1.0" encoding="UTF-8" standalone="no"?><!DOCTYPE svg PUBLIC "-//W3C//DTD SVG 1.1//EN" "http://www.w3.org/Graphics/SVG/1.1/DTD/svg11.dtd"><svg width="100%" height="100%" viewBox="0 0 62 72" version="1.1" xmlns="http://www.w3.org/2000/svg" xmlns:xlink="http://www.w3.org/1999/xlink" xml:space="preserve" xmlns:serif="http://www.serif.com/" style="fill-rule:evenodd;clip-rule:evenodd;stroke-linejoin:round;stroke-miterlimit:2;"><path d="M30.658,71.997l-30.658,-17.969l0,-36.029l30.658,-17.999l30.657,17.999l0,36.029l-30.657,17.969Zm10.499,-57.298l-21.238,0c-1.95,0 -3.54,1.59 -3.54,3.54l-0,35.399c-0,1.98 1.59,3.54 3.54,3.54l21.238,-0c1.98,-0 3.54,-1.56 3.54,-3.54l-0,-35.399c-0,-1.95 -1.56,-3.54 -3.54,-3.54Zm-7.949,38.939l-5.31,0c-0.48,0 -0.9,-0.39 -0.9,-0.87c-0,-0.48 0.42,-0.9 0.9,-0.9l5.31,0c0.479,0 0.869,0.42 0.869,0.9c0,0.48 -0.39,0.87 -0.869,0.87Zm7.949,-5.31l-21.238,0l-0,-30.089l21.238,0l-0,30.089Zm-19.169,-8.639c-0.39,0.33 -0.42,0.87 -0.09,1.23c0.18,0.21 0.42,0.3 0.66,0.3c0.21,-0 0.42,-0.06 0.6,-0.21c0.39,-0.36 0.87,-0.84 1.32,-1.38c0.87,0.96 1.83,1.59 2.64,1.59c1.47,-0 2.34,-1.98 3.15,-3.9c0.06,-0.12 0.12,-0.27 0.18,-0.39c0.06,0.21 0.09,0.42 0.15,0.6c0.54,2.07 0.96,3.69 2.25,3.69c0.36,-0 1.469,-0 6.359,-5.58c0.33,-0.36 0.3,-0.93 -0.09,-1.26c-0.36,-0.33 -0.93,-0.27 -1.23,0.09c-1.8,2.04 -4.08,4.35 -4.859,4.89c-0.24,-0.51 -0.54,-1.62 -0.72,-2.28c-0.45,-1.8 -0.75,-2.91 -1.77,-2.91c-0.87,-0 -1.23,0.87 -1.92,2.46c-0.36,0.87 -1.11,2.64 -1.5,2.85c-0.3,-0.03 -0.9,-0.54 -1.53,-1.29c1.32,-1.89 2.43,-4.14 2.43,-5.79c-0,-2.58 -1.89,-3.54 -3.18,-3.54c-1.23,-0 -3.18,2.1 -3.18,4.86c0,1.26 0.72,3 1.71,4.47c-0.45,0.6 -0.93,1.11 -1.38,1.5Zm2.85,-9.06c0.06,-0 1.41,0.03 1.41,1.77c0,1.08 -0.75,2.73 -1.77,4.26c-0.57,-0.99 -1.02,-2.07 -1.02,-2.94c0,-1.89 1.2,-3 1.38,-3.09Zm14.579,-9.75c0,-0.48 -0.39,-0.9 -0.9,-0.9c-0.48,0 -0.9,0.42 -0.9,0.9c0,0.51 0.42,0.9 0.9,0.9c0.51,0 0.9,-0.39 0.9,-0.9Zm-9.779,0.9l1.8,0c0.51,0 0.9,-0.39 0.9,-0.9c-0,-0.48 -0.39,-0.9 -0.9,-0.9l-1.8,0c-0.48,0 -0.9,0.42 -0.9,0.9c-0,0.51 0.42,0.9 0.9,0.9Z" style="fill:#00617c;"/></svg>