<?xml version="1.0" encoding="UTF-8" standalone="no"?><!DOCTYPE svg PUBLIC "-//W3C//DTD SVG 1.1//EN" "http://www.w3.org/Graphics/SVG/1.1/DTD/svg11.dtd"><svg width="100%" height="100%" viewBox="0 0 62 72" version="1.1" xmlns="http://www.w3.org/2000/svg" xmlns:xlink="http://www.w3.org/1999/xlink" xml:space="preserve" xmlns:serif="http://www.serif.com/" style="fill-rule:evenodd;clip-rule:evenodd;stroke-linejoin:round;stroke-miterlimit:2;"><path d="M30.658,71.877l-30.658,-17.984l0,-35.894l30.658,-17.999l30.657,17.999l0,35.894l-30.657,17.984Zm10.315,-24.419l0.904,0c6.209,0 11.219,-5.01 11.219,-11.189c0,-3.615 -1.74,-6.795 -4.395,-8.85c-0.24,1.56 -0.765,3.015 -1.44,4.395c0.135,-0.84 0.225,-1.68 0.225,-2.55c0,-8.505 -6.899,-15.404 -15.418,-15.404c-4.995,-0 -9.42,2.384 -12.239,6.059c2.174,0.57 4.124,1.725 5.669,3.255c-1.44,-0.57 -3,-0.915 -4.65,-0.915c-6.974,0 -12.629,5.655 -12.629,12.6c0,6.959 5.655,12.599 12.629,12.599l0.469,0l-1.554,-2.012l-0.009,-0.013l-0.227,-0.403l-0.112,-0.441l0.004,-0.456l0.125,-0.448c0.014,-0.03 0.028,-0.06 0.044,-0.09l0.271,-0.374l0.352,-0.287l0.423,-0.19l0.484,-0.07l4.185,-0l0,-12.435l0.033,-0.336l0.094,-0.32l0.153,-0.292l0.204,-0.257l0.253,-0.215l0.295,-0.165l0.329,-0.104l0.349,-0.036l8.264,0l0.35,0.036l0.328,0.104l0.295,0.165l0.253,0.215l0.205,0.257l0.152,0.292l0.095,0.32l0.032,0.336l0,12.435l4.185,-0l0.485,0.07l0.429,0.196l0.361,0.305l0.262,0.398l0.149,0.448l0.018,0.479l-0.112,0.456l-0.227,0.407l-0.01,0.013l-1.554,2.012Zm-18.771,-2.535l8.943,11.581l8.943,-11.581l-4.226,0c-0.621,0 -1.125,-0.503 -1.125,-1.125l0,-13.034l-7.184,-0l-0,13.034c-0,0.622 -0.504,1.125 -1.125,1.125l-4.226,0Z" style="fill:#00617c;"/></svg>