<?xml version="1.0" encoding="UTF-8" standalone="no"?><!DOCTYPE svg PUBLIC "-//W3C//DTD SVG 1.1//EN" "http://www.w3.org/Graphics/SVG/1.1/DTD/svg11.dtd"><svg width="100%" height="100%" viewBox="0 0 62 72" version="1.1" xmlns="http://www.w3.org/2000/svg" xmlns:xlink="http://www.w3.org/1999/xlink" xml:space="preserve" xmlns:serif="http://www.serif.com/" style="fill-rule:evenodd;clip-rule:evenodd;stroke-linejoin:round;stroke-miterlimit:2;"><path d="M30.658,71.877l-30.658,-17.969l0,-35.909l30.658,-17.999l30.657,17.999l0,35.909l-30.657,17.969Zm2.805,-34.768c-8.721,-2.563 -18.497,-1.263 -26.174,3.9c-1.499,1.049 -2.429,2.759 -2.429,4.649l-0,9.72l29.077,0c0.548,0.874 1.515,1.455 2.6,1.455l18.179,-0c1.679,-0 3.075,-1.39 3.075,-3.105l-0,-23.339c-0,-1.715 -1.396,-3.105 -3.075,-3.105l-2.41,0c-0.412,-0.766 -1.223,-1.29 -2.15,-1.29l-1.712,0c-0.696,-0.813 -1.726,-1.29 -2.817,-1.29c-1.091,0 -2.122,0.477 -2.819,1.291l-1.711,-0.001c-0.927,0 -1.738,0.524 -2.15,1.29l-2.41,0c-1.679,0 -3.074,1.39 -3.074,3.105l-0,6.72Zm1.775,18.269c-0.477,-0.388 -0.786,-0.984 -0.786,-1.65l0,-23.339c0,-1.165 0.944,-2.115 2.085,-2.115l2.73,-0c0.209,-0 0.395,-0.131 0.466,-0.327c0.201,-0.56 0.738,-0.963 1.364,-0.963l1.95,0c0.157,0 0.304,-0.074 0.398,-0.2c0.507,-0.685 1.319,-1.09 2.182,-1.09c0.862,0 1.674,0.405 2.182,1.09c0.093,0.126 0.241,0.2 0.397,0.2l1.95,0c0.627,0 1.163,0.403 1.364,0.963c0.071,0.196 0.257,0.327 0.466,0.327l2.73,-0c1.141,-0 2.085,0.95 2.085,2.115l-0,23.339c-0,1.165 -0.944,2.115 -2.085,2.115l-18.179,0c-0.488,0 -0.941,-0.174 -1.299,-0.465Zm2.409,-16.699c0.41,0.772 1.217,1.295 2.13,1.295c0.11,-0 0.218,-0.008 0.323,-0.021c1.201,-0.158 2.122,-1.18 2.122,-2.424c-0,-1.354 -1.091,-2.445 -2.445,-2.445c-1.318,-0 -2.415,1.088 -2.415,2.445c0,0.416 0.104,0.808 0.285,1.15Zm6.232,5.03c-0.024,0.095 -0.037,0.196 -0.037,0.299c-0,0.313 0.118,0.598 0.314,0.806c0.202,0.215 0.487,0.349 0.811,0.349l7.799,0c0.636,0 1.125,-0.518 1.125,-1.155c-0,-0.636 -0.489,-1.155 -1.125,-1.155l-7.799,0c-0.533,0 -0.962,0.364 -1.088,0.856Zm0.338,5.926c-0.233,0.202 -0.375,0.504 -0.375,0.853c-0,0.344 0.143,0.654 0.375,0.866c0.197,0.18 0.458,0.289 0.75,0.289l7.799,0c0.636,0 1.125,-0.519 1.125,-1.155c-0,-0.643 -0.482,-1.125 -1.125,-1.125l-7.799,0c-0.294,0 -0.554,0.101 -0.75,0.272Zm-4.275,-20.536c0,0.996 0.789,1.785 1.785,1.785l7.799,-0c0.955,-0 1.785,-0.789 1.785,-1.785l0,-0.66c0,-0.63 -0.525,-1.155 -1.155,-1.155l-2.31,0c-0.045,0 -0.088,-0.028 -0.118,-0.066c-0.457,-0.783 -1.243,-1.224 -2.101,-1.224c-0.86,0 -1.647,0.443 -2.101,1.223c-0.027,0.036 -0.072,0.067 -0.119,0.067l-2.31,0c-0.63,0 -1.155,0.525 -1.155,1.155l0,0.66Zm0.99,-0l-0,-0.66c-0,-0.09 0.075,-0.165 0.165,-0.165l2.31,-0c0.369,-0 0.741,-0.204 0.952,-0.52l0.017,-0.029c0.269,-0.47 0.736,-0.741 1.251,-0.741c0.514,0 0.981,0.271 1.25,0.741l0.018,0.029c0.21,0.316 0.583,0.52 0.951,0.52l2.31,-0c0.09,-0 0.165,0.075 0.165,0.165l0,0.66c0,0.444 -0.369,0.795 -0.795,0.795l-7.799,-0c-0.444,-0 -0.795,-0.351 -0.795,-0.795Zm11.834,9.555c0.643,-0 1.125,-0.483 1.125,-1.125c-0,-0.636 -0.489,-1.155 -1.125,-1.155l-7.799,-0c-0.636,-0 -1.125,0.519 -1.125,1.155c-0,0.642 0.482,1.125 1.125,1.125l7.799,-0Zm-12.989,14.279c1.354,0 2.445,-1.091 2.445,-2.445c-0,-1.316 -1.091,-2.445 -2.445,-2.445c-1.318,0 -2.415,1.127 -2.415,2.445c0,1.356 1.097,2.445 2.415,2.445Zm0,-6.48c1.354,0 2.445,-1.09 2.445,-2.445c-0,-1.354 -1.091,-2.444 -2.445,-2.444c-1.318,-0 -2.415,1.088 -2.415,2.444c0,1.357 1.097,2.445 2.415,2.445Zm0,-7.469c-0.781,-0 -1.425,-0.652 -1.425,-1.455c0,-0.804 0.644,-1.455 1.425,-1.455c0.806,-0 1.455,0.649 1.455,1.455c-0,0.805 -0.649,1.455 -1.455,1.455Zm-7.349,-25.184c-4.38,-4.38 -11.49,-4.38 -15.869,-0c-4.38,4.379 -4.38,11.489 -0,15.869c4.379,4.38 11.489,4.38 15.869,-0c4.379,-4.38 4.379,-11.49 -0,-15.869Z" style="fill:#00617c;"/></svg>