<?xml version="1.0" encoding="UTF-8" standalone="no"?><!DOCTYPE svg PUBLIC "-//W3C//DTD SVG 1.1//EN" "http://www.w3.org/Graphics/SVG/1.1/DTD/svg11.dtd"><svg width="100%" height="100%" viewBox="0 0 62 72" version="1.1" xmlns="http://www.w3.org/2000/svg" xmlns:xlink="http://www.w3.org/1999/xlink" xml:space="preserve" xmlns:serif="http://www.serif.com/" style="fill-rule:evenodd;clip-rule:evenodd;stroke-linejoin:round;stroke-miterlimit:2;"><path d="M10.469,60.164l-10.469,-6.136l0,-36.029l30.658,-17.999l30.657,17.999l0,36.029l-30.657,17.969l-18.937,-11.099l16.957,-0l-0,-1.8c-0,-1.02 -0.81,-1.83 -1.83,-1.83l-5.46,-0l0,-1.83l10.95,0c0.99,0 1.799,-0.81 1.799,-1.83l0,-8.557c-0.762,-0.323 -1.422,-0.607 -1.851,-0.801c-0.307,-0.133 -0.585,-0.426 -0.761,-0.821l-0.017,-0.044c-0.128,-0.384 -0.122,-0.769 0.006,-1.11l0.014,-0.033c0.477,-1.039 1.658,-3.439 2.592,-5.323c-0.122,-0.878 -0.877,-1.58 -1.782,-1.58l-14.47,-0c-0.287,0.426 -0.483,0.824 -0.571,1.183c-0.072,0.289 -0.076,0.544 0.031,0.748l0.003,0.007l0.064,0.175l0.024,0.175l-0.012,0.169l-0.041,0.159l-0.069,0.148l-0.095,0.134l-0.122,0.119l-0.15,0.095c-0.038,0.02 -0.079,0.034 -0.121,0.042l-0.032,0.016l-0.185,0.044l-0.182,0.001l-0.171,-0.036l-0.156,-0.068l-0.14,-0.096l-0.121,-0.124l-0.055,-0.085l-0.025,-0.032l-0.061,-0.126l-0.012,-0.082l-0,-0.001c-0.401,-0.829 -0.672,-1.691 -0.822,-2.565l-8.038,-0c-0.989,-0 -1.829,0.84 -1.829,1.83l-0,16.439c-0,1.02 0.84,1.83 1.829,1.83l10.95,0l-0,1.83l-5.49,-0c-0.99,-0 -1.8,0.81 -1.8,1.83l0,1.066Zm37.868,-26.287c4.422,-0.31 7.879,-3.962 7.879,-8.438c-0,-2.73 -1.32,-5.16 -3.33,-6.69c-0.18,1.17 -0.57,2.28 -1.08,3.3c0.12,-0.63 0.18,-1.26 0.18,-1.92c0,-6.449 -5.219,-11.669 -11.669,-11.669c-3.78,-0 -7.139,1.83 -9.269,4.59c1.65,0.45 3.119,1.319 4.289,2.459c-1.08,-0.42 -2.279,-0.69 -3.509,-0.69c-3.887,0 -7.237,2.325 -8.734,5.646c2.074,0.6 5.195,1.51 6.436,1.917c0.35,0.092 0.638,0.373 0.857,0.725c0.013,0.019 0.024,0.04 0.033,0.061c0.169,0.381 0.203,0.763 0.118,1.101l-0.01,0.034c-0.614,1.872 -2.878,7.927 -2.998,8.245c-0.03,0.099 -0.069,0.192 -0.116,0.279c1.321,0.685 2.822,1.072 4.414,1.072l3.884,-0c0.169,-0.169 0.374,-0.299 0.592,-0.374c0.625,-0.245 1.318,-0.083 1.776,0.374l5.924,-0c0.502,-0.4 0.924,-0.799 1.259,-1.185c0.358,-0.413 0.613,-0.806 0.748,-1.168c0.103,-0.277 0.135,-0.527 0.054,-0.739l-0.014,-0.042l-0.032,-0.16l-0.004,-0.164l0.026,-0.162l0.054,-0.156l0.084,-0.145l0.11,-0.128l0.132,-0.105l0.151,-0.081l0.184,-0.056l0.183,-0.014l0.176,0.022l0.162,0.054l0.148,0.082l0.131,0.11l0.11,0.14l0.07,0.148l0.042,0.112l0.007,0.053l0,0.003c0.415,1.167 0.591,2.37 0.552,3.559Zm-32.142,4.026c-0.017,0.081 -0.015,0.166 0.01,0.249c0.063,0.209 0.256,0.351 0.474,0.351c-0.217,-0.013 -0.402,-0.167 -0.452,-0.381c-0.015,-0.063 -0.017,-0.127 -0.008,-0.188c0.019,-0.122 0.083,-0.234 0.181,-0.312l-0.007,-0.017c-0.103,0.073 -0.172,0.18 -0.198,0.298Zm17.942,6.072c2.501,1.064 6.518,2.706 6.635,2.754c0.177,0.071 0.354,0.074 0.524,0.02c0.339,-0.149 0.501,-0.531 0.384,-0.896l-0.985,-2.567c-0.097,-0.252 0.026,-0.534 0.275,-0.636c3.824,-1.56 6.239,-5.078 6.378,-8.751c0.031,-0.843 -0.057,-1.695 -0.275,-2.532c-0.058,0.387 -0.223,0.811 -0.505,1.255c-0.257,0.405 -0.616,0.836 -1.071,1.277c-1.34,1.299 -3.51,2.687 -6.351,3.791c-0.123,0.048 -0.26,0.045 -0.381,-0.009c-0.12,-0.054 -0.215,-0.154 -0.261,-0.278l-0.959,-2.548c-0.14,-0.365 -0.536,-0.546 -0.884,-0.407l-0.027,0.01c-0.143,0.048 -0.271,0.159 -0.334,0.302l-0.01,0.02c0,0 -1.097,2.193 -2.153,4.338c-0.691,1.405 -1.366,2.79 -1.703,3.524c-0.042,0.126 -0.037,0.266 0.009,0.414c0.061,0.131 0.136,0.243 0.24,0.287l0.008,0.004c0.35,0.158 0.856,0.377 1.446,0.628Zm-11.404,-22.583c-1.11,-0.321 -1.901,-0.547 -1.901,-0.547l-0.006,-0.002c-0.17,-0.051 -0.34,-0.039 -0.476,0.029c-0.347,0.174 -0.497,0.587 -0.323,0.917l0.002,0.005l1.26,2.459c0.122,0.239 0.032,0.531 -0.202,0.66c-3.944,2.164 -5.999,6.45 -5.234,10.426c0.093,0.487 0.229,0.97 0.41,1.444c0.02,-0.384 0.137,-0.812 0.36,-1.27c0.028,-0.058 0.058,-0.116 0.089,-0.174c0.905,-1.685 3.239,-3.861 6.726,-5.688c0.117,-0.062 0.253,-0.074 0.379,-0.034c0.01,0.003 0.02,0.006 0.03,0.01c0.151,0.228 0.313,0.45 0.483,0.663l1.038,2.001l0.003,0.006c0.172,0.344 0.563,0.468 0.9,0.316c0.123,-0.072 0.229,-0.162 0.287,-0.288c0.01,-0.022 0.019,-0.045 0.026,-0.068l0.01,-0.032c0,0 2.349,-6.272 2.988,-8.216c0.027,-0.127 0.004,-0.268 -0.056,-0.413c-0.069,-0.114 -0.135,-0.228 -0.248,-0.257l-0.035,-0.01c-1.247,-0.409 -4.437,-1.339 -6.51,-1.937Zm7.775,30.386l-21.869,0l0,-12.779l21.869,-0l-0,12.779Z" style="fill:#00617c;"/></svg>