<?xml version="1.0" encoding="UTF-8" standalone="no"?><!DOCTYPE svg PUBLIC "-//W3C//DTD SVG 1.1//EN" "http://www.w3.org/Graphics/SVG/1.1/DTD/svg11.dtd"><svg width="100%" height="100%" viewBox="0 0 62 72" version="1.1" xmlns="http://www.w3.org/2000/svg" xmlns:xlink="http://www.w3.org/1999/xlink" xml:space="preserve" xmlns:serif="http://www.serif.com/" style="fill-rule:evenodd;clip-rule:evenodd;stroke-linejoin:round;stroke-miterlimit:2;"><path d="M30.658,71.997l-30.658,-17.969l0,-36.029l30.658,-17.999l30.657,17.999l0,36.029l-30.657,17.969Zm22.438,-26.399l-2.94,0l0,-21.359c0,-2.13 -1.74,-3.9 -3.899,-3.9l-31.198,0c-2.13,0 -3.9,1.77 -3.9,3.9l0,21.359l-2.91,0c-0.54,0 -0.99,0.45 -0.99,0.99l0,0.96c0,2.13 1.77,3.87 3.9,3.87l38.997,0c2.16,0 3.9,-1.74 3.9,-3.87l-0,-0.96c-0,-0.54 -0.42,-0.99 -0.96,-0.99Zm-6.839,0l-10.71,0c-0.27,0 -0.51,0.12 -0.69,0.3l-0.69,0.69l-6.989,0l-0.69,-0.69c-0.18,-0.18 -0.42,-0.3 -0.69,-0.3l-10.739,0l-0,-21.359l31.198,0l-0,21.359Zm-13.679,-9.659l-3.84,-0c-0.525,-0 -0.96,0.435 -0.96,0.96l-0,5.759c-0,0.54 0.435,0.96 0.96,0.96l3.84,0c0.54,0 0.959,-0.42 0.959,-0.96l0,-5.759c0,-0.525 -0.419,-0.96 -0.959,-0.96Zm8.759,-2.04l-3.84,-0c-0.525,-0 -0.96,0.435 -0.96,0.975l0,7.784c0,0.525 0.435,0.96 0.96,0.96l3.84,0c0.54,0 0.96,-0.435 0.96,-0.96l-0,-7.784c-0,-0.54 -0.42,-0.975 -0.96,-0.975Zm-21.448,9.719l3.914,0c0.54,0 0.975,-0.42 0.975,-0.96l0,-3.839c0,-0.525 -0.435,-0.96 -0.975,-0.96l-3.914,-0c-0.54,-0 -0.99,0.435 -0.99,0.96l-0,3.839c-0,0.54 0.45,0.96 0.99,0.96Zm0.959,-9.644c0.18,-0 0.33,-0.045 0.48,-0.09l1.77,1.77c0.18,0.195 0.435,0.285 0.675,0.285c0.21,-0 0.405,-0.06 0.57,-0.18l5.46,-3.93c0.255,0.105 0.51,0.18 0.795,0.18c0.345,-0 0.645,-0.105 0.93,-0.27l3.449,2.1c0.375,0.225 0.87,0.165 1.185,-0.15l3.72,-3.75c0.15,0.045 0.3,0.105 0.465,0.105c1.08,-0 1.95,-0.885 1.95,-1.965c-0,-1.095 -0.87,-1.98 -1.95,-1.98c-1.065,0 -1.95,0.885 -1.95,1.98c0,0.165 0.06,0.315 0.105,0.48l-3.18,3.195l-2.774,-1.68l-0,-0.03c-0,-1.08 -0.87,-1.965 -1.95,-1.965c-1.065,-0 -1.95,0.885 -1.95,1.965c-0,0.06 0.03,0.105 0.045,0.165l-4.815,3.465l-1.17,-1.185c0.045,-0.15 0.09,-0.315 0.09,-0.48c0,-1.08 -0.87,-1.965 -1.95,-1.965c-1.064,-0 -1.949,0.885 -1.949,1.965c-0,1.08 0.885,1.965 1.949,1.965Z" style="fill:#00617c;"/></svg>