<?xml version="1.0" encoding="UTF-8" standalone="no"?><!DOCTYPE svg PUBLIC "-//W3C//DTD SVG 1.1//EN" "http://www.w3.org/Graphics/SVG/1.1/DTD/svg11.dtd"><svg width="100%" height="100%" viewBox="0 0 62 72" version="1.1" xmlns="http://www.w3.org/2000/svg" xmlns:xlink="http://www.w3.org/1999/xlink" xml:space="preserve" xmlns:serif="http://www.serif.com/" style="fill-rule:evenodd;clip-rule:evenodd;stroke-linejoin:round;stroke-miterlimit:2;"><path d="M30.658,71.997l-30.658,-17.984l0,-36.014l30.658,-17.999l30.657,17.999l0,36.014l-30.657,17.984Zm5.849,-23.099l5.34,0c6.224,0 11.249,-5.025 11.249,-11.234c0,-3.63 -1.74,-6.81 -4.41,-8.865c-0.24,1.56 -0.765,3.015 -1.44,4.395c0.135,-0.84 0.225,-1.68 0.225,-2.55c0,-8.535 -6.914,-15.465 -15.463,-15.465c-5.01,0 -9.45,2.4 -12.269,6.09c2.189,0.57 4.124,1.725 5.684,3.255c-1.44,-0.57 -3.015,-0.915 -4.665,-0.915c-6.989,0 -12.659,5.67 -12.659,12.645c0,6.989 5.67,12.644 12.659,12.644l4.065,0l0,-5.175l-4.185,0l-0.462,-0.062l-0.431,-0.184l-0.373,-0.302l-0.28,-0.403l-0.015,-0.032l-0.135,-0.437l-0.015,-0.465l0.12,-0.471l0.262,-0.434l9.993,-12.942l0.012,-0.015l0.272,-0.273l0.321,-0.206l0.364,-0.134l0.402,-0.049l0.405,0.052l0.356,0.135l0.313,0.204l0.269,0.271l0.012,0.015l10.019,12.975l0.01,0.013l0.227,0.405l0.112,0.454l-0.019,0.484l-0.153,0.432l-0.251,0.397l-0.381,0.321l-0.437,0.189l-0.463,0.062l-4.185,0l0,5.175Zm-9.434,-6.3l-0,13.035l7.184,0l0,-13.035c0,-0.621 0.504,-1.124 1.125,-1.124l4.215,-0l-8.932,-11.566l-8.932,11.566l4.215,-0c0.621,-0 1.125,0.503 1.125,1.124Z" style="fill:#00617c;"/></svg>