<?xml version="1.0" encoding="utf-8"?>
<!-- Generator: Adobe Illustrator 19.1.0, SVG Export Plug-In . SVG Version: 6.00 Build 0)  -->
<svg version="1.1" id="Layer_1" xmlns="http://www.w3.org/2000/svg" xmlns:xlink="http://www.w3.org/1999/xlink" x="0px" y="0px"
	 viewBox="-136 373.9 322.5 94" style="enable-background:new -136 373.9 322.5 94;" xml:space="preserve">
<style type="text/css">
	.st0{fill:url(#SVGID_2_);}
	.st1{fill:url(#SVGID_4_);}
	.st2{fill:url(#SVGID_5_);}
	.st3{fill:#444444;}
</style>
<g>
	<g>
		<g>
			<linearGradient id="SVGID_2_" gradientUnits="userSpaceOnUse" x1="-26.2" y1="420.89" x2="78.5" y2="420.89">
				<stop  offset="1" style="stop-color:#00AEEF"/>
				<stop  offset="1" style="stop-color:#00AEEF"/>
			</linearGradient>
			<path id="SVGID_1_" class="st0" d="M72.2,428.6H65c-1.8,0-3.1,0.4-4.1,1.1s-1.4,1.8-1.4,3.2c0,2.8,1.8,4.2,5.5,4.2
				c1.3,0,2.4-0.1,3.2-0.3c0.8-0.3,1.7-0.7,2.4-1.4c0.8-0.8,1.3-2.4,1.3-4.5v-2.4h0.3V428.6z M72.4,442v-2.7c-1.1,1.1-2.2,2-3.5,2.4
				s-2.7,0.7-4.6,0.7c-1.8,0-3.4-0.3-4.8-0.7c-1.4-0.4-2.5-1.1-3.4-2.1c-1.5-1.7-2.4-3.8-2.4-6.5c0-1.7,0.4-3.2,1.3-4.5
				c0.8-1.3,2-2.4,3.5-3.1c1.5-0.7,3.5-1.1,5.8-1.1h8v-2.1c0-2-0.6-3.4-1.5-4.2c-1-0.8-2.7-1.4-5.1-1.4c-1.7,0-3,0.3-3.9,0.7
				s-1.8,1.1-2.7,2.2l-3.9-3.8c1.4-1.7,3-2.8,4.5-3.4c1.7-0.7,3.8-1,6.3-1c8.3,0,12.5,3.5,12.5,10.4V442h-6v0H72.4z M48.8,436.8h2.5
				v5.2h-3.7c-1.8,0-3.4-0.4-4.5-1.1c-1.3-0.8-2.2-1.8-2.8-3.1c-0.6-1.3-1-2.7-1-4.2v-16.8H36v-4.6h3.4v-9.1h6v9.1h5.9v4.6h-5.9
				v16.3C45.4,435.7,46.5,436.8,48.8,436.8z M26.1,428.6H19c-1.8,0-3.1,0.4-4.1,1.1s-1.4,1.8-1.4,3.2c0,2.8,1.8,4.2,5.5,4.2
				c1.3,0,2.4-0.1,3.2-0.3c0.8-0.3,1.7-0.7,2.4-1.4c0.8-0.8,1.3-2.4,1.3-4.5v-2.4h0.2V428.6z M26.3,442v-2.7c-1.1,1.1-2.2,2-3.5,2.4
				s-2.7,0.7-4.6,0.7c-1.8,0-3.4-0.3-4.8-0.7c-1.4-0.4-2.5-1.1-3.4-2.1c-1.5-1.7-2.4-3.8-2.4-6.5c0-1.7,0.4-3.2,1.3-4.5
				c0.8-1.3,2-2.4,3.5-3.1c1.5-0.7,3.5-1.1,5.8-1.1h8v-2.1c0-2-0.6-3.4-1.5-4.2c-1-0.8-2.7-1.4-5.1-1.4c-1.7,0-3,0.3-3.9,0.7
				c-1,0.4-1.8,1.1-2.7,2.2l-3.9-3.8c1.4-1.7,3-2.8,4.5-3.4c1.7-0.7,3.8-1,6.3-1c8.3,0,12.5,3.5,12.5,10.4V442h-6v0H26.3z
				 M-2.4,414.7c-0.1-1.3-0.3-2.5-0.6-3.8c-0.3-1.1-0.8-2.1-1.5-3c-1.7-2-4.2-3-7.2-3h-8v31h7.9c3.1,0,5.5-1,7.2-2.8
				c1-1.1,1.7-2.7,1.8-4.5c0.3-2,0.4-4.6,0.4-8.3C-2.4,418-2.4,416.1-2.4,414.7z M3.8,428.5c-0.1,1.7-0.6,3.4-1.3,5.1
				c-0.6,1.7-1.5,3.1-2.8,4.4c-2.7,2.7-6.3,3.9-11,3.9h-14.9v-42.5h14.9c4.6,0,8.3,1.3,11,3.9c1.3,1.3,2.2,2.7,2.8,4.2
				s1,3.2,1.3,4.8c0.1,1.7,0.3,3.5,0.3,5.8v2.1v2.1C4.1,424.8,4.1,426.8,3.8,428.5z"/>
		</g>
	</g>
	<g>
		<g>
			<linearGradient id="SVGID_4_" gradientUnits="userSpaceOnUse" x1="84.5" y1="420.69" x2="170.3" y2="420.69">
				<stop  offset="1" style="stop-color:#444444"/>
				<stop  offset="1" style="stop-color:#00AEEF"/>
			</linearGradient>
			<path id="SVGID_3_" class="st1" d="M167.2,422.7c-0.1-0.6-0.4-1.4-0.7-2.4c-0.6-1.5-1.5-2.7-3-3.5c-1.5-0.8-2.8-1.3-4.5-1.3
				s-3.1,0.4-4.5,1.3s-2.4,2.1-3,3.5c-0.4,1-0.6,1.7-0.7,2.4s-0.3,1.7-0.3,3h16.9C167.3,424.4,167.3,423.3,167.2,422.7z
				 M150.5,428.2c0,3.7,0.8,6.5,2.4,8.4c1.5,2,3.9,3,6.9,3c1.7,0,3.1-0.3,4.2-0.8c1.1-0.6,2.4-1.4,3.7-2.7l2.2,1.8
				c-1.5,1.5-3.1,2.7-4.6,3.4c-1.5,0.7-3.5,1-5.8,1c-2.7,0-4.9-0.6-6.7-1.7c-1.8-1.1-3.2-2.8-4.1-4.9c-1-2.2-1.4-4.9-1.4-8.1
				c0-2.4,0.3-4.4,0.8-6.2c0.6-1.8,1.3-3.4,2.2-4.6c1-1.3,2.2-2.2,3.7-3c1.5-0.8,3.1-1,4.8-1c1.8,0,3.4,0.3,4.8,1
				c1.4,0.6,2.7,1.5,3.7,2.8s1.8,2.7,2.2,4.4c0.6,1.7,0.8,3.7,0.8,5.9v1.4h-19.8V428.2z M140.9,439.3h2.1v2.7h-2.7
				c-1.4,0-2.7-0.3-3.8-1c-1-0.7-1.8-1.5-2.4-2.7c-0.6-1.1-0.8-2.4-0.8-3.9v-19h-3.9v-2.2h3.9v-9.1h3.1v9.1h6.5v2.2h-6.5v19
				C136.4,437.6,138,439.3,140.9,439.3z M124.1,442H121v-28.8h3.1V442z M120.7,403.2v-3.8h3.8v3.8H120.7z M106.5,404.6
				c-2-1.8-4.4-2.7-7.2-2.7c-1.5,0-3,0.3-4.4,0.8s-2.7,1.4-3.7,2.4c-0.7,0.7-1.4,1.5-1.8,2.4c-0.4,0.9-0.7,1.8-1,3.1
				s-0.4,2.7-0.4,4.2s-0.1,3.5-0.1,5.8c0,3.4,0,5.9,0.1,7.7c0.1,1.8,0.4,3.2,0.8,4.5c0.4,1.3,1.1,2.4,2.1,3.2
				c1.1,1.1,2.2,1.8,3.7,2.4c1.4,0.6,2.8,0.8,4.4,0.8c1.8,0,3.7-0.4,5.2-1.1c1.5-0.7,2.8-1.8,3.9-3.4c1.1-1.4,1.8-3.1,2.2-5.1h3.1
				c-0.4,2.5-1.4,4.8-2.7,6.6c-1.3,1.8-3,3.2-5.1,4.2c-2,1-4.2,1.5-6.7,1.5c-2,0-3.9-0.4-5.8-1.1c-1.9-0.7-3.5-1.8-4.8-3.2
				c-1.3-1.3-2.1-2.5-2.7-3.9c-0.6-1.4-0.8-3-1-4.8c-0.1-1.8-0.1-4.6-0.1-8.4c0-3.8,0-6.6,0.1-8.4c0.1-1.8,0.4-3.4,1-4.8
				c0.6-1.4,1.4-2.7,2.7-3.9c1.4-1.4,3-2.4,4.8-3.2c2-0.7,3.9-1.1,6-1.1c2.5,0,4.8,0.6,6.7,1.5c2,1,3.7,2.4,5.1,4.2
				c1.3,1.8,2.2,4.1,2.7,6.6h-3.2C109.9,408.5,108.5,406.3,106.5,404.6z"/>
		</g>
	</g>
</g>
<linearGradient id="SVGID_5_" gradientUnits="userSpaceOnUse" x1="-115.2" y1="420.2756" x2="-41.8333" y2="420.2756" gradientTransform="matrix(1 0 0 -1 0 841.67)">
	<stop  offset="1" style="stop-color:#00AEEF"/>
	<stop  offset="1" style="stop-color:#004968"/>
</linearGradient>
<path class="st2" d="M-115.2,436c0.5,0.1,1,0.2,1.6,0.3c26.6,5.3,66.2-1.7,71.3-14.6c4-10.4-18.3-17.8-44.4-16.9c-0.5,0-1,0-1.5,0.1
	c13.9,1.4,26.4,6.9,21.4,15.5C-72.3,429.8-95.5,436.1-115.2,436"/>
<path class="st3" d="M-57,435.9c-4.6,28-28.8,11.3-34.5-8.2c-8.3-20.2-0.9-46.2,19.8-31c-17.1-7.8-18.9,14.9-11.6,31.1
	c6.1,13.5,19.3,22.2,25.7,8.3C-57.3,436-57.1,436-57,435.9z"/>
</svg>
