<?xml version="1.0" encoding="UTF-8" standalone="no"?>
<!DOCTYPE svg PUBLIC "-//W3C//DTD SVG 1.1//EN" "http://www.w3.org/Graphics/SVG/1.1/DTD/svg11.dtd">
<svg width="100%" height="100%" viewBox="0 0 535 448" version="1.1" xmlns="http://www.w3.org/2000/svg" xmlns:xlink="http://www.w3.org/1999/xlink" xml:space="preserve" xmlns:serif="http://www.serif.com/" style="fill-rule:evenodd;clip-rule:evenodd;stroke-linejoin:round;stroke-miterlimit:2;">
    <g id="Artboard1" transform="matrix(0.792786,0,0,0.891634,-413.655,-226.483)">
        <rect x="521.774" y="254.008" width="674.092" height="501.85" style="fill:none;"/>
        <g transform="matrix(1.26137,0,0,1.12154,-203.99,-56.5395)">
            <g transform="matrix(0.119991,0,0,0.119996,891.581,380.496)">
                <text x="-0.5px" y="0px" style="font-family:'IBMPlexSans-Regular', 'IBM Plex Sans', sans-serif;font-size:125px;fill:rgb(38,38,38);">Experiment</text>
                <g transform="matrix(125,0,0,125,513.875,125)">
                </g>
                <text x="132.25px" y="125px" style="font-family:'IBMPlexSans-Regular', 'IBM Plex Sans', sans-serif;font-size:125px;fill:rgb(38,38,38);">Design</text>
            </g>
            <g transform="matrix(0.119991,0,0,0.119996,950.054,511.743)">
                <g transform="matrix(125,0,0,125,647.125,0)">
                </g>
                <text x="0px" y="0px" style="font-family:'IBMPlexSans-Regular', 'IBM Plex Sans', sans-serif;font-size:125px;fill:rgb(38,38,38);">Experiment</text>
            </g>
            <g transform="matrix(0.119991,0,0,0.119996,878.739,616.412)">
                <text x="14.75px" y="0px" style="font-family:'IBMPlexSans-Regular', 'IBM Plex Sans', sans-serif;font-size:125px;fill:rgb(38,38,38);">Data Collection</text>
                <g transform="matrix(125,0,0,125,804.438,125)">
                </g>
                <text x="78.438px" y="125px" style="font-family:'IBMPlexSans-Regular', 'IBM Plex Sans', sans-serif;font-size:125px;fill:rgb(38,38,38);">&amp; Processing</text>
            </g>
            <g transform="matrix(0.119991,0,0,0.119996,739.309,625.499)">
                <g transform="matrix(125,0,0,125,465.5,0)">
                </g>
                <text x="0px" y="0px" style="font-family:'IBMPlexSans-Regular', 'IBM Plex Sans', sans-serif;font-size:125px;fill:rgb(38,38,38);">Analysis</text>
            </g>
            <g transform="matrix(0.119991,0,0,0.119996,661.128,502.631)">
                <text x="184.5px" y="0px" style="font-family:'IBMPlexSans-Regular', 'IBM Plex Sans', sans-serif;font-size:125px;fill:rgb(38,38,38);">Data</text>
                <g transform="matrix(125,0,0,125,630.25,125)">
                </g>
                <text x="0px" y="125px" style="font-family:'IBMPlexSans-Regular', 'IBM Plex Sans', sans-serif;font-size:125px;fill:rgb(38,38,38);">Publication</text>
            </g>
            <g transform="matrix(0.119991,0,0,0.119996,744.728,379.646)">
                <g transform="matrix(125,0,0,125,398.375,0)">
                </g>
                <text x="0px" y="0px" style="font-family:'IBMPlexSans-Regular', 'IBM Plex Sans', sans-serif;font-size:125px;fill:rgb(38,38,38);">Re-use</text>
            </g>
            <g transform="matrix(1,0,0,1,-15.4399,1.01373)">
                <path d="M953.968,352.111L923.311,334.142L923.311,298.233L953.968,280.234L984.626,298.233L984.626,334.142L953.968,352.111ZM956.773,317.343C948.052,314.78 938.277,316.08 930.6,321.243C929.1,322.292 928.17,324.002 928.17,325.892L928.17,335.612L957.248,335.612C957.796,336.486 958.763,337.067 959.848,337.067L978.027,337.067C979.705,337.067 981.101,335.677 981.101,333.962L981.101,310.623C981.101,308.908 979.705,307.518 978.027,307.518L975.617,307.518C975.205,306.752 974.394,306.228 973.467,306.228L971.755,306.228C971.059,305.415 970.028,304.938 968.937,304.938C967.846,304.938 966.815,305.415 966.119,306.229L964.408,306.228C963.481,306.228 962.67,306.752 962.258,307.518L959.848,307.518C958.169,307.518 956.773,308.908 956.773,310.623L956.773,317.343ZM958.549,335.612C958.072,335.224 957.763,334.628 957.763,333.962L957.763,310.623C957.763,309.458 958.707,308.508 959.848,308.508L962.578,308.508C962.787,308.508 962.973,308.377 963.044,308.181C963.245,307.621 963.781,307.218 964.408,307.218L966.358,307.218C966.514,307.218 966.662,307.144 966.755,307.018C967.263,306.333 968.075,305.928 968.937,305.928C969.8,305.928 970.612,306.333 971.119,307.018C971.213,307.144 971.36,307.218 971.517,307.218L973.467,307.218C974.093,307.218 974.63,307.621 974.831,308.181C974.902,308.377 975.088,308.508 975.297,308.508L978.027,308.508C979.168,308.508 980.112,309.458 980.112,310.623L980.112,333.962C980.112,335.127 979.168,336.077 978.027,336.077L959.848,336.077C959.359,336.077 958.907,335.903 958.549,335.612ZM960.958,318.913C961.367,319.685 962.174,320.208 963.088,320.208C963.197,320.208 963.305,320.2 963.411,320.187C964.611,320.029 965.533,319.007 965.533,317.763C965.533,316.409 964.442,315.318 963.088,315.318C961.769,315.318 960.673,316.406 960.673,317.763C960.673,318.179 960.776,318.571 960.958,318.913ZM967.19,323.943C967.165,324.038 967.152,324.139 967.152,324.242C967.152,324.555 967.271,324.84 967.467,325.048C967.669,325.263 967.954,325.397 968.277,325.397L976.077,325.397C976.713,325.397 977.202,324.879 977.202,324.242C977.202,323.606 976.713,323.087 976.077,323.087L968.277,323.087C967.745,323.087 967.316,323.451 967.19,323.943ZM967.527,329.869C967.295,330.071 967.152,330.373 967.152,330.722C967.152,331.066 967.295,331.376 967.527,331.588C967.724,331.768 967.985,331.877 968.277,331.877L976.077,331.877C976.713,331.877 977.202,331.358 977.202,330.722C977.202,330.079 976.72,329.597 976.077,329.597L968.277,329.597C967.984,329.597 967.723,329.698 967.527,329.869ZM963.253,309.333C963.253,310.329 964.041,311.118 965.038,311.118L972.837,311.118C973.792,311.118 974.622,310.329 974.622,309.333L974.622,308.673C974.622,308.043 974.097,307.518 973.467,307.518L971.157,307.518C971.111,307.518 971.068,307.49 971.039,307.452C970.582,306.669 969.796,306.228 968.937,306.228C968.078,306.228 967.29,306.671 966.837,307.451C966.809,307.487 966.765,307.518 966.718,307.518L964.408,307.518C963.778,307.518 963.253,308.043 963.253,308.673L963.253,309.333ZM964.243,309.333L964.243,308.673C964.243,308.583 964.318,308.508 964.408,308.508L966.718,308.508C967.086,308.508 967.459,308.304 967.669,307.988L967.687,307.959C967.955,307.489 968.423,307.218 968.937,307.218C969.451,307.218 969.919,307.489 970.187,307.959L970.205,307.988C970.416,308.304 970.788,308.508 971.157,308.508L973.467,308.508C973.557,308.508 973.632,308.583 973.632,308.673L973.632,309.333C973.632,309.777 973.262,310.128 972.837,310.128L965.038,310.128C964.594,310.128 964.243,309.777 964.243,309.333ZM976.077,318.888C976.72,318.888 977.202,318.405 977.202,317.763C977.202,317.127 976.713,316.608 976.077,316.608L968.277,316.608C967.641,316.608 967.152,317.127 967.152,317.763C967.152,318.405 967.635,318.888 968.277,318.888L976.077,318.888ZM963.088,333.167C964.442,333.167 965.533,332.076 965.533,330.722C965.533,329.406 964.442,328.277 963.088,328.277C961.769,328.277 960.673,329.404 960.673,330.722C960.673,332.078 961.769,333.167 963.088,333.167ZM963.088,326.687C964.442,326.687 965.533,325.597 965.533,324.242C965.533,322.888 964.442,321.798 963.088,321.798C961.769,321.798 960.673,322.886 960.673,324.242C960.673,325.599 961.769,326.687 963.088,326.687ZM963.088,319.218C962.306,319.218 961.663,318.566 961.663,317.763C961.663,316.959 962.306,316.308 963.088,316.308C963.894,316.308 964.543,316.957 964.543,317.763C964.543,318.568 963.894,319.218 963.088,319.218ZM955.738,294.034C951.359,289.654 944.249,289.654 939.87,294.034C935.49,298.413 935.49,305.523 939.87,309.903C944.249,314.283 951.359,314.283 955.738,309.903C960.118,305.523 960.118,298.413 955.738,294.034Z" style="fill:rgb(0,97,124);"/>
            </g>
            <path d="M1075.64,540.985L1044.98,523.015L1044.98,486.987L1075.64,468.987L1106.3,486.987L1106.3,523.015L1075.64,540.985ZM1086.14,483.687L1064.9,483.687C1062.95,483.687 1061.36,485.277 1061.36,487.227L1061.36,522.625C1061.36,524.605 1062.95,526.165 1064.9,526.165L1086.14,526.165C1088.12,526.165 1089.68,524.605 1089.68,522.625L1089.68,487.227C1089.68,485.277 1088.12,483.687 1086.14,483.687ZM1078.19,522.625L1072.88,522.625C1072.4,522.625 1071.98,522.235 1071.98,521.755C1071.98,521.275 1072.4,520.855 1072.88,520.855L1078.19,520.855C1078.67,520.855 1079.06,521.275 1079.06,521.755C1079.06,522.235 1078.67,522.625 1078.19,522.625ZM1086.14,517.315L1064.9,517.315L1064.9,487.227L1086.14,487.227L1086.14,517.315ZM1066.97,508.676C1066.58,509.006 1066.55,509.546 1066.88,509.906C1067.06,510.116 1067.3,510.206 1067.54,510.206C1067.75,510.206 1067.96,510.146 1068.14,509.996C1068.53,509.636 1069.01,509.156 1069.46,508.616C1070.33,509.576 1071.29,510.206 1072.1,510.206C1073.57,510.206 1074.44,508.226 1075.25,506.306C1075.31,506.186 1075.37,506.036 1075.43,505.916C1075.49,506.126 1075.52,506.336 1075.58,506.516C1076.12,508.586 1076.54,510.206 1077.83,510.206C1078.19,510.206 1079.3,510.206 1084.19,504.626C1084.52,504.266 1084.49,503.696 1084.1,503.366C1083.74,503.036 1083.17,503.096 1082.87,503.456C1081.07,505.496 1078.79,507.806 1078.01,508.346C1077.77,507.836 1077.47,506.726 1077.29,506.066C1076.84,504.266 1076.54,503.156 1075.52,503.156C1074.65,503.156 1074.29,504.026 1073.6,505.616C1073.24,506.486 1072.49,508.256 1072.1,508.466C1071.8,508.436 1071.2,507.926 1070.57,507.176C1071.89,505.286 1073,503.036 1073,501.386C1073,498.806 1071.11,497.846 1069.82,497.846C1068.59,497.846 1066.64,499.946 1066.64,502.706C1066.64,503.966 1067.36,505.706 1068.35,507.176C1067.9,507.776 1067.42,508.286 1066.97,508.676ZM1069.82,499.616C1069.88,499.616 1071.23,499.646 1071.23,501.386C1071.23,502.466 1070.48,504.116 1069.46,505.646C1068.89,504.656 1068.44,503.576 1068.44,502.706C1068.44,500.816 1069.64,499.706 1069.82,499.616ZM1084.4,489.866C1084.4,489.386 1084.01,488.967 1083.5,488.967C1083.02,488.967 1082.6,489.386 1082.6,489.866C1082.6,490.376 1083.02,490.766 1083.5,490.766C1084.01,490.766 1084.4,490.376 1084.4,489.866ZM1074.62,490.766L1076.42,490.766C1076.93,490.766 1077.32,490.376 1077.32,489.866C1077.32,489.386 1076.93,488.967 1076.42,488.967L1074.62,488.967C1074.14,488.967 1073.72,489.386 1073.72,489.866C1073.72,490.376 1074.14,490.766 1074.62,490.766Z" style="fill:rgb(0,97,124);"/>
            <path d="M744.104,720.018L713.446,702.049L713.446,666.02L744.104,648.021L774.762,666.02L774.762,702.049L744.104,720.018ZM766.542,693.619L763.603,693.619L763.603,672.26C763.603,670.13 761.863,668.36 759.703,668.36L728.505,668.36C726.375,668.36 724.606,670.13 724.606,672.26L724.606,693.619L721.696,693.619C721.156,693.619 720.706,694.069 720.706,694.609L720.706,695.569C720.706,697.699 722.476,699.439 724.606,699.439L763.603,699.439C765.763,699.439 767.502,697.699 767.502,695.569L767.502,694.609C767.502,694.069 767.082,693.619 766.542,693.619ZM759.703,693.619L748.994,693.619C748.724,693.619 748.484,693.739 748.304,693.919L747.614,694.609L740.624,694.609L739.934,693.919C739.754,693.739 739.514,693.619 739.244,693.619L728.505,693.619L728.505,672.26L759.703,672.26L759.703,693.619ZM746.024,683.96L742.184,683.96C741.659,683.96 741.224,684.394 741.224,684.919L741.224,690.679C741.224,691.219 741.659,691.639 742.184,691.639L746.024,691.639C746.564,691.639 746.984,691.219 746.984,690.679L746.984,684.919C746.984,684.394 746.564,683.96 746.024,683.96ZM754.783,681.92L750.944,681.92C750.419,681.92 749.984,682.355 749.984,682.895L749.984,690.679C749.984,691.204 750.419,691.639 750.944,691.639L754.783,691.639C755.323,691.639 755.743,691.204 755.743,690.679L755.743,682.895C755.743,682.355 755.323,681.92 754.783,681.92ZM733.335,691.639L737.25,691.639C737.79,691.639 738.225,691.219 738.225,690.679L738.225,686.839C738.225,686.314 737.79,685.879 737.25,685.879L733.335,685.879C732.795,685.879 732.345,686.314 732.345,686.839L732.345,690.679C732.345,691.219 732.795,691.639 733.335,691.639ZM734.295,681.995C734.475,681.995 734.625,681.95 734.775,681.905L736.545,683.675C736.725,683.87 736.98,683.96 737.22,683.96C737.43,683.96 737.625,683.9 737.79,683.78L743.249,679.85C743.504,679.955 743.759,680.03 744.044,680.03C744.389,680.03 744.689,679.925 744.974,679.76L748.424,681.86C748.799,682.085 749.294,682.025 749.609,681.71L753.328,677.96C753.478,678.005 753.628,678.065 753.793,678.065C754.873,678.065 755.743,677.18 755.743,676.1C755.743,675.005 754.873,674.12 753.793,674.12C752.728,674.12 751.844,675.005 751.844,676.1C751.844,676.265 751.904,676.415 751.949,676.58L748.769,679.775L745.994,678.095L745.994,678.065C745.994,676.985 745.124,676.1 744.044,676.1C742.979,676.1 742.094,676.985 742.094,678.065C742.094,678.125 742.124,678.17 742.139,678.23L737.325,681.695L736.155,680.51C736.2,680.36 736.245,680.195 736.245,680.03C736.245,678.95 735.375,678.065 734.295,678.065C733.23,678.065 732.345,678.95 732.345,680.03C732.345,681.11 733.23,681.995 734.295,681.995Z" style="fill:rgb(0,97,124);"/>
            <path d="M933.78,708.185L923.311,702.049L923.311,666.02L953.968,648.021L984.626,666.02L984.626,702.049L953.968,720.018L935.031,708.919L951.989,708.919L951.989,707.119C951.989,706.099 951.179,705.289 950.159,705.289L944.699,705.289L944.699,703.459L955.648,703.459C956.638,703.459 957.448,702.649 957.448,701.629L957.448,693.071C956.686,692.749 956.025,692.465 955.597,692.271C955.29,692.137 955.011,691.845 954.836,691.45L954.819,691.406C954.691,691.021 954.697,690.637 954.825,690.295L954.839,690.263C955.315,689.224 956.497,686.824 957.431,684.94C957.309,684.062 956.554,683.36 955.648,683.36L941.179,683.36C940.892,683.786 940.696,684.184 940.607,684.542C940.536,684.832 940.532,685.086 940.639,685.291L940.642,685.298L940.706,685.473L940.729,685.648L940.718,685.817L940.676,685.976L940.608,686.123L940.513,686.258L940.391,686.376L940.241,686.472C940.202,686.491 940.162,686.505 940.12,686.514L940.088,686.53L939.903,686.574L939.721,686.574L939.55,686.538L939.394,686.471L939.254,686.375L939.133,686.251L939.078,686.166L939.053,686.134L938.992,686.007L938.98,685.926L938.979,685.925C938.579,685.096 938.308,684.234 938.158,683.36L930.12,683.36C929.13,683.36 928.29,684.2 928.29,685.189L928.29,701.629C928.29,702.649 929.13,703.459 930.12,703.459L941.069,703.459L941.069,705.289L935.58,705.289C934.59,705.289 933.78,706.099 933.78,707.119L933.78,708.185ZM971.648,681.898C976.07,681.588 979.527,677.935 979.527,673.46C979.527,670.73 978.207,668.3 976.197,666.77C976.017,667.94 975.627,669.05 975.117,670.07C975.237,669.44 975.297,668.81 975.297,668.15C975.297,661.7 970.077,656.48 963.628,656.48C959.848,656.48 956.488,658.31 954.358,661.07C956.008,661.52 957.478,662.39 958.648,663.53C957.568,663.11 956.368,662.84 955.138,662.84C951.252,662.84 947.902,665.165 946.404,668.486C948.479,669.086 951.599,669.996 952.84,670.403C953.191,670.495 953.478,670.776 953.698,671.128C953.711,671.147 953.721,671.168 953.731,671.189C953.9,671.57 953.933,671.952 953.849,672.29L953.839,672.324C953.225,674.196 950.96,680.251 950.841,680.569C950.81,680.668 950.771,680.761 950.725,680.847C952.046,681.533 953.547,681.92 955.138,681.92L959.023,681.92C959.192,681.751 959.397,681.621 959.615,681.546C960.24,681.301 960.933,681.463 961.391,681.92L967.315,681.92C967.817,681.519 968.239,681.121 968.574,680.735C968.932,680.322 969.187,679.929 969.321,679.567C969.424,679.29 969.457,679.039 969.375,678.827L969.361,678.786L969.33,678.625L969.326,678.462L969.351,678.3L969.406,678.143L969.49,677.999L969.6,677.871L969.732,677.765L969.882,677.685L970.066,677.629L970.25,677.614L970.425,677.637L970.588,677.69L970.736,677.773L970.866,677.883L970.976,678.023L971.046,678.171L971.089,678.283L971.095,678.336L971.096,678.339C971.51,679.506 971.687,680.709 971.648,681.898ZM939.506,685.924C939.488,686.004 939.491,686.09 939.516,686.173C939.579,686.382 939.771,686.524 939.99,686.524C939.773,686.511 939.588,686.357 939.538,686.143C939.523,686.08 939.521,686.016 939.53,685.955C939.549,685.833 939.613,685.721 939.711,685.643L939.703,685.626C939.6,685.699 939.532,685.806 939.506,685.924ZM957.448,691.996C959.949,693.06 963.965,694.702 964.082,694.75C964.26,694.821 964.437,694.824 964.606,694.77C964.946,694.621 965.108,694.239 964.991,693.874L964.006,691.307C963.909,691.055 964.031,690.773 964.281,690.671C968.105,689.11 970.519,685.592 970.658,681.92C970.69,681.076 970.602,680.225 970.384,679.387C970.326,679.775 970.161,680.199 969.879,680.643C969.622,681.048 969.263,681.479 968.808,681.92C967.468,683.218 965.298,684.607 962.457,685.711C962.334,685.759 962.197,685.755 962.076,685.701C961.955,685.647 961.861,685.548 961.815,685.424L960.855,682.876C960.716,682.511 960.319,682.33 959.972,682.469L959.945,682.479C959.802,682.527 959.674,682.638 959.61,682.781L959.601,682.801C959.601,682.801 958.504,684.994 957.448,687.139C956.756,688.544 956.082,689.929 955.745,690.662C955.703,690.789 955.708,690.929 955.754,691.077C955.815,691.208 955.89,691.32 955.993,691.364L956.002,691.368C956.352,691.526 956.858,691.745 957.448,691.996ZM946.044,669.412C944.933,669.092 944.143,668.866 944.143,668.866L944.137,668.864C943.967,668.813 943.797,668.825 943.661,668.893C943.313,669.066 943.164,669.48 943.337,669.809L943.34,669.814L944.6,672.274C944.722,672.513 944.632,672.805 944.397,672.934C940.454,675.098 938.399,679.384 939.163,683.36C939.257,683.847 939.393,684.33 939.573,684.804C939.593,684.42 939.71,683.992 939.934,683.534C939.962,683.476 939.992,683.418 940.023,683.36C940.928,681.674 943.261,679.499 946.749,677.671C946.866,677.61 947.002,677.598 947.128,677.638C947.138,677.641 947.148,677.644 947.157,677.648C947.309,677.876 947.471,678.097 947.641,678.311L948.678,680.312L948.682,680.318C948.853,680.662 949.245,680.786 949.582,680.633C949.705,680.562 949.81,680.472 949.869,680.345C949.879,680.324 949.888,680.301 949.895,680.277L949.905,680.246C949.905,680.246 952.254,673.974 952.893,672.03C952.919,671.902 952.897,671.762 952.837,671.617C952.768,671.503 952.702,671.388 952.589,671.36L952.554,671.35C951.307,670.941 948.117,670.011 946.044,669.412ZM953.818,699.799L931.95,699.799L931.95,687.019L953.818,687.019L953.818,699.799Z" style="fill:rgb(0,97,124);"/>
            <path d="M612.234,540.985L581.576,523L581.576,486.987L612.234,468.987L642.892,486.987L642.892,523L612.234,540.985ZM618.084,517.885L623.423,517.885C629.648,517.885 634.672,512.861 634.672,506.651C634.672,503.021 632.932,499.841 630.263,497.786C630.023,499.346 629.498,500.801 628.823,502.181C628.958,501.341 629.048,500.501 629.048,499.631C629.048,491.096 622.133,484.167 613.584,484.167C608.574,484.167 604.135,486.567 601.315,490.256C603.505,490.826 605.439,491.981 606.999,493.511C605.559,492.941 603.985,492.596 602.335,492.596C595.345,492.596 589.676,498.266 589.676,505.241C589.676,512.231 595.345,517.885 602.335,517.885L606.399,517.885L606.399,512.711L602.215,512.711L601.753,512.649L601.321,512.464L600.948,512.162L600.669,511.759L600.653,511.727L600.518,511.29L600.504,510.825L600.623,510.354L600.885,509.92L610.879,496.979L610.891,496.963L611.162,496.69L611.483,496.484L611.848,496.35L612.249,496.301L612.654,496.353L613.011,496.489L613.323,496.693L613.592,496.963L613.604,496.979L623.624,509.953L623.633,509.966L623.86,510.371L623.972,510.825L623.953,511.309L623.801,511.741L623.55,512.139L623.169,512.459L622.731,512.648L622.268,512.711L618.084,512.711L618.084,517.885ZM608.649,511.586L608.649,524.62L615.834,524.62L615.834,511.586C615.834,510.964 616.337,510.461 616.959,510.461L621.173,510.461L612.242,498.895L603.31,510.461L607.524,510.461C608.146,510.461 608.649,510.964 608.649,511.586Z" style="fill:rgb(0,97,124);"/>
            <path d="M744.104,352.111L713.446,334.127L713.446,298.233L744.104,280.234L774.762,298.233L774.762,334.127L744.104,352.111ZM754.42,327.692L755.323,327.692C761.533,327.692 766.542,322.682 766.542,316.503C766.542,312.888 764.803,309.708 762.148,307.653C761.908,309.213 761.383,310.668 760.708,312.048C760.843,311.208 760.933,310.368 760.933,309.498C760.933,300.993 754.033,294.094 745.514,294.094C740.519,294.094 736.095,296.478 733.275,300.153C735.45,300.723 737.4,301.878 738.945,303.408C737.505,302.838 735.945,302.493 734.295,302.493C727.32,302.493 721.666,308.148 721.666,315.093C721.666,322.053 727.32,327.692 734.295,327.692L734.764,327.692L733.21,325.68L733.2,325.667L732.974,325.265L732.861,324.823L732.866,324.367L732.991,323.919C733.004,323.889 733.019,323.859 733.034,323.829L733.305,323.455L733.657,323.168L734.081,322.978L734.565,322.908L738.75,322.908L738.75,310.473L738.782,310.137L738.877,309.817L739.029,309.525L739.234,309.268L739.487,309.053L739.781,308.888L740.11,308.784L740.459,308.748L748.724,308.748L749.073,308.784L749.402,308.888L749.697,309.053L749.949,309.268L750.154,309.525L750.306,309.817L750.401,310.137L750.434,310.473L750.434,322.908L754.618,322.908L755.104,322.978L755.533,323.174L755.893,323.479L756.155,323.877L756.304,324.325L756.322,324.804L756.211,325.26L755.983,325.667L755.974,325.68L754.42,327.692ZM735.648,325.157L744.591,336.738L753.535,325.157L749.309,325.157C748.687,325.157 748.184,324.654 748.184,324.032L748.184,310.998L740.999,310.998L740.999,324.032C740.999,324.654 740.496,325.157 739.874,325.157L735.648,325.157Z" style="fill:rgb(0,97,124);"/>
            <path d="M650.417,557.646L648.442,558.156L649.099,548.692L654.252,556.658L652.354,557.147C662.151,591.306 681.016,622.814 707.703,647.754L706.337,649.215C679.368,624.012 660.308,592.169 650.417,557.646ZM805.78,699.806L805.341,701.799L797.197,696.934L806.631,695.939L806.21,697.852C839.474,704.224 873.379,701.842 904.787,691.705L905.401,693.608C873.66,703.853 839.395,706.255 805.78,699.806ZM991.529,638.584L992.991,640.006L984.566,644.367L988.69,635.824L990.094,637.189C1001.83,624.437 1012.08,609.931 1020.43,593.804C1028.58,578.061 1034.41,561.729 1038.06,545.196L1040.02,545.627C1036.33,562.326 1030.43,578.822 1022.21,594.723C1013.77,611.029 1003.4,625.694 991.529,638.584ZM1036.3,452.438C1026.2,413.489 1004.4,377.698 972.707,350.745L974.002,349.222C1006.03,376.457 1028.05,412.627 1038.25,451.988L1040.24,451.529L1039.34,460.973L1034.39,452.879L1036.3,452.438ZM885.269,307.646C854.414,301.043 822.892,302.035 793.221,309.821L792.713,307.886C822.7,300.018 854.558,299.02 885.741,305.702L886.222,303.719L894.261,308.757L884.807,309.549L885.269,307.646ZM702.26,362.185C688.402,376.165 676.403,392.452 666.883,410.849C658.67,426.719 652.805,443.187 649.16,459.857L647.206,459.43C650.888,442.592 656.812,425.959 665.106,409.93C674.731,391.331 686.864,374.867 700.878,360.738L699.469,359.262L708.05,355.216L703.613,363.601L702.26,362.185Z" style="fill:rgb(0,97,124);"/>
        </g>
        <g transform="matrix(2.64378,0,0,2.3443,860.529,504.37)">
            <g transform="matrix(1,0,0,1,-43.5,-26)">
                <g id="logo">
                    <g id="icon">
                        <path d="M26.07,40.896C17.858,40.896 11.174,34.212 11.174,25.996C11.174,17.78 17.858,11.096 26.07,11.096C29.884,11.096 33.478,12.52 36.252,15.114L38.445,12.923C35.089,9.745 30.716,8 26.072,8C16.149,8 8.079,16.073 8.079,25.998C8.079,35.923 16.151,43.997 26.072,43.997C30.716,43.997 35.09,42.253 38.443,39.074L36.248,36.883C33.48,39.473 29.887,40.895 26.07,40.895" style="fill:rgb(36,149,207);fill-rule:nonzero;"/>
                        <path d="M41.424,42.417C37.393,46.204 31.968,48.524 26,48.524C13.558,48.524 3.474,38.438 3.474,25.998C3.474,13.558 13.558,3.472 26,3.472C31.935,3.472 37.335,5.767 41.357,9.52L43.689,6.946C39.049,2.636 32.832,0 26,0C11.641,0 0,11.641 0,26C0,40.359 11.641,52 26,52C32.864,52 39.105,49.341 43.752,44.996L43.754,44.994L41.423,42.416L41.424,42.417Z" style="fill:rgb(79,86,89);fill-rule:nonzero;"/>
                        <path d="M29.652,28.071L31.467,28.529C31.086,30.02 30.402,31.158 29.413,31.939C28.424,32.72 27.216,33.114 25.788,33.114C24.309,33.114 23.108,32.814 22.183,32.212C21.255,31.61 20.551,30.739 20.07,29.597C19.586,28.455 19.344,27.231 19.344,25.921C19.344,24.493 19.617,23.247 20.163,22.184C20.709,21.121 21.485,20.313 22.494,19.761C23.501,19.209 24.609,18.933 25.819,18.933C27.191,18.933 28.344,19.284 29.281,19.981C30.215,20.68 30.868,21.663 31.236,22.928L29.45,23.35C29.132,22.351 28.67,21.626 28.067,21.171C27.461,20.716 26.701,20.488 25.786,20.488C24.731,20.488 23.851,20.741 23.143,21.247C22.435,21.753 21.937,22.432 21.651,23.281C21.364,24.132 21.221,25.011 21.221,25.916C21.221,27.083 21.392,28.101 21.729,28.971C22.07,29.842 22.598,30.492 23.314,30.921C24.032,31.351 24.809,31.567 25.645,31.567C26.661,31.567 27.522,31.274 28.226,30.689C28.926,30.099 29.405,29.228 29.654,28.074L29.652,28.072L29.652,28.071Z" style="fill:rgb(255,85,85);fill-rule:nonzero;"/>
                    </g>
                    <g id="full-name">
                        <g>
                            <path d="M35.91,22.063L35.91,25.206C36.438,24.588 37.071,24.278 37.805,24.278C38.182,24.278 38.523,24.348 38.825,24.487C39.129,24.626 39.357,24.807 39.51,25.023C39.663,25.241 39.769,25.481 39.825,25.747C39.881,26.012 39.91,26.422 39.91,26.978L39.91,30.613L38.271,30.613L38.271,27.34C38.271,26.692 38.24,26.279 38.179,26.104C38.118,25.929 38.007,25.79 37.85,25.688C37.693,25.586 37.495,25.533 37.258,25.533C36.985,25.533 36.743,25.599 36.528,25.731C36.313,25.863 36.159,26.062 36.057,26.329C35.959,26.596 35.908,26.988 35.908,27.51L35.908,30.612L34.269,30.612L34.269,22.062L35.911,22.062L35.911,22.064L35.909,22.064L35.91,22.063Z" style="fill:rgb(255,85,85);fill-rule:nonzero;"/>
                            <path d="M45.161,28.641L46.795,28.916C46.586,29.514 46.253,29.971 45.801,30.284C45.349,30.597 44.781,30.755 44.1,30.755C43.022,30.755 42.226,30.403 41.708,29.698C41.299,29.135 41.096,28.422 41.096,27.564C41.096,26.538 41.365,25.734 41.901,25.153C42.437,24.572 43.116,24.28 43.937,24.28C44.859,24.28 45.585,24.584 46.118,25.194C46.651,25.804 46.905,26.734 46.883,27.99L42.777,27.99C42.788,28.476 42.92,28.855 43.173,29.124C43.426,29.394 43.74,29.528 44.117,29.528C44.374,29.528 44.589,29.458 44.765,29.319C44.939,29.178 45.071,28.954 45.161,28.642L45.161,28.64L45.161,28.641ZM45.253,26.984C45.242,26.509 45.12,26.15 44.885,25.903C44.65,25.656 44.369,25.534 44.034,25.534C43.676,25.534 43.38,25.664 43.147,25.925C42.913,26.186 42.798,26.539 42.802,26.986L45.253,26.986L45.253,26.984Z" style="fill:rgb(255,85,85);fill-rule:nonzero;"/>
                            <path d="M48.094,24.418L49.605,24.418L49.605,25.264C50.145,24.606 50.79,24.279 51.536,24.279C51.932,24.279 52.277,24.36 52.568,24.524C52.859,24.688 53.098,24.934 53.286,25.265C53.559,24.934 53.851,24.688 54.167,24.524C54.482,24.361 54.819,24.279 55.175,24.279C55.63,24.279 56.015,24.371 56.33,24.556C56.645,24.741 56.879,25.013 57.036,25.368C57.148,25.633 57.204,26.061 57.204,26.651L57.204,30.61L55.565,30.61L55.565,27.071C55.565,26.457 55.509,26.061 55.397,25.88C55.246,25.646 55.012,25.529 54.697,25.529C54.467,25.529 54.252,25.599 54.049,25.738C53.846,25.877 53.7,26.083 53.612,26.353C53.523,26.623 53.479,27.049 53.479,27.634L53.479,30.608L51.84,30.608L51.84,27.214C51.84,26.612 51.811,26.223 51.753,26.047C51.695,25.873 51.604,25.741 51.483,25.656C51.362,25.571 51.195,25.529 50.983,25.529C50.73,25.529 50.502,25.597 50.3,25.733C50.098,25.869 49.953,26.066 49.864,26.321C49.777,26.578 49.732,27.004 49.732,27.598L49.732,30.608L48.093,30.608L48.093,24.417L48.095,24.417L48.093,24.417L48.094,24.418Z" style="fill:rgb(255,85,85);fill-rule:nonzero;"/>
                            <path d="M58.458,27.427C58.458,26.884 58.591,26.355 58.86,25.846C59.129,25.337 59.508,24.948 60,24.679C60.492,24.41 61.041,24.277 61.646,24.277C62.582,24.277 63.351,24.581 63.949,25.191C64.547,25.801 64.847,26.569 64.847,27.498C64.847,28.434 64.545,29.212 63.939,29.829C63.335,30.447 62.573,30.755 61.655,30.755C61.088,30.755 60.546,30.628 60.031,30.37C59.516,30.112 59.123,29.737 58.856,29.242C58.589,28.747 58.456,28.143 58.456,27.431L58.456,27.429L58.458,27.427ZM60.138,27.514C60.138,28.128 60.283,28.599 60.575,28.924C60.867,29.249 61.227,29.414 61.654,29.414C62.081,29.414 62.44,29.251 62.729,28.924C63.018,28.597 63.165,28.123 63.165,27.501C63.165,26.895 63.02,26.427 62.729,26.102C62.439,25.774 62.081,25.612 61.654,25.612C61.227,25.612 60.867,25.775 60.575,26.102C60.283,26.429 60.138,26.899 60.138,27.512L60.138,27.514Z" style="fill:rgb(255,85,85);fill-rule:nonzero;"/>
                            <path d="M68.973,24.418L68.973,25.725L67.853,25.725L67.853,28.222C67.853,28.727 67.863,29.021 67.886,29.107C67.907,29.189 67.956,29.26 68.031,29.315C68.106,29.37 68.199,29.396 68.308,29.396C68.459,29.396 68.679,29.344 68.967,29.239L69.106,30.51C68.725,30.673 68.294,30.755 67.812,30.755C67.516,30.755 67.251,30.704 67.013,30.606C66.775,30.508 66.603,30.378 66.491,30.221C66.381,30.064 66.303,29.852 66.261,29.582C66.226,29.392 66.209,29.008 66.209,28.427L66.209,25.727L65.456,25.727L65.456,24.42L66.209,24.42L66.209,23.189L67.854,22.233L67.854,24.42L68.974,24.42L68.974,24.418L68.973,24.418Z" style="fill:rgb(255,85,85);fill-rule:nonzero;"/>
                            <path d="M70.112,23.578L70.112,22.061L71.751,22.061L71.751,23.578L70.112,23.578ZM70.112,30.613L70.112,24.418L71.751,24.418L71.751,30.613L70.112,30.613Z" style="fill:rgb(255,85,85);fill-rule:nonzero;"/>
                            <path d="M73.052,27.427C73.052,26.884 73.185,26.355 73.454,25.846C73.723,25.337 74.102,24.948 74.594,24.679C75.086,24.41 75.635,24.277 76.24,24.277C77.176,24.277 77.945,24.581 78.543,25.191C79.141,25.801 79.441,26.569 79.441,27.498C79.441,28.434 79.139,29.212 78.533,29.829C77.929,30.447 77.167,30.755 76.249,30.755C75.682,30.755 75.14,30.628 74.625,30.37C74.11,30.112 73.717,29.737 73.45,29.242C73.183,28.747 73.05,28.143 73.05,27.431L73.05,27.429L73.052,27.427ZM74.731,27.514C74.731,28.128 74.876,28.599 75.168,28.924C75.46,29.249 75.82,29.414 76.247,29.414C76.674,29.414 77.033,29.251 77.322,28.924C77.611,28.597 77.758,28.123 77.758,27.501C77.758,26.895 77.613,26.427 77.322,26.102C77.032,25.774 76.674,25.612 76.247,25.612C75.82,25.612 75.46,25.775 75.168,26.102C74.876,26.429 74.731,26.899 74.731,27.512L74.731,27.514Z" style="fill:rgb(255,85,85);fill-rule:nonzero;"/>
                            <path d="M86.36,30.613L84.721,30.613L84.721,27.452C84.721,26.783 84.686,26.351 84.616,26.154C84.546,25.958 84.432,25.805 84.275,25.696C84.118,25.588 83.928,25.533 83.706,25.533C83.422,25.533 83.168,25.61 82.941,25.767C82.715,25.922 82.562,26.128 82.476,26.385C82.394,26.642 82.35,27.116 82.35,27.808L82.35,30.614L80.711,30.614L80.711,24.419L82.234,24.419L82.234,25.329C82.774,24.629 83.455,24.28 84.276,24.28C84.637,24.28 84.969,24.346 85.267,24.476C85.567,24.606 85.793,24.772 85.946,24.976C86.099,25.178 86.207,25.407 86.267,25.665C86.327,25.923 86.358,26.289 86.358,26.768L86.358,30.615L86.358,30.613L86.36,30.613Z" style="fill:rgb(255,85,85);fill-rule:nonzero;"/>
                        </g>
                    </g>
                </g>
            </g>
        </g>
    </g>
</svg>
