<?xml version="1.0" standalone="no"?>
<!DOCTYPE svg PUBLIC "-//W3C//DTD SVG 20010904//EN"
 "http://www.w3.org/TR/2001/REC-SVG-20010904/DTD/svg10.dtd">
<svg version="1.0" xmlns="http://www.w3.org/2000/svg"
 width="312.000000pt" height="170.000000pt" viewBox="0 0 312.000000 170.000000"
 preserveAspectRatio="xMidYMid meet">
<metadata>
Created by potrace 1.16, written by Peter Selinger 2001-2019
</metadata>
<g transform="translate(0.000000,170.000000) scale(0.100000,-0.100000)"
fill="#000000" stroke="none">
<path d="M1210 403 c-24 -8 -40 -35 -40 -65 0 -25 -3 -28 -35 -28 -28 0 -35
-4 -35 -20 0 -16 7 -20 35 -20 l35 0 0 -65 0 -65 -30 0 c-25 0 -30 -4 -30 -25
0 -25 0 -25 95 -25 95 0 95 0 95 25 0 22 -4 25 -35 25 l-35 0 0 65 0 65 40 0
c33 0 40 3 40 20 0 17 -7 20 -40 20 -36 0 -40 3 -40 25 0 23 4 25 40 25 36 0
40 3 40 25 0 23 -4 25 -42 24 -24 0 -50 -3 -58 -6z"/>
<path d="M1500 339 c0 -71 0 -71 -18 -49 -23 29 -77 30 -105 2 -21 -22 -33
-95 -23 -137 16 -62 86 -86 126 -43 l20 22 0 -22 c0 -18 6 -22 30 -22 l30 0 0
160 0 160 -30 0 -30 0 0 -71z"/>
<path d="M2390 250 l0 -160 30 0 29 0 3 81 c2 65 7 84 21 93 12 8 22 8 35 0
13 -9 18 -28 20 -93 l3 -81 30 0 31 0 -4 95 c-2 72 -7 98 -20 111 -25 25 -77
22 -100 -5 -18 -23 -18 -23 -18 48 l0 71 -30 0 -30 0 0 -160z"/>
<path d="M1918 249 c-37 -57 -58 -101 -58 -120 l0 -29 65 0 c63 0 65 -1 65
-25 0 -21 5 -25 30 -25 25 0 30 4 30 25 0 18 5 25 20 25 15 0 20 7 20 25 0 18
-5 25 -20 25 -19 0 -20 7 -20 95 l0 95 -37 0 c-37 0 -40 -3 -95 -91z"/>
<path d="M954 309 c-12 -4 -25 -12 -29 -18 -9 -16 -25 -13 -25 4 0 9 -9 15
-25 15 l-25 0 0 -110 0 -110 25 0 c24 0 25 2 25 71 0 82 11 109 46 109 32 0
44 -31 44 -116 0 -62 1 -64 25 -64 25 0 25 0 25 93 0 77 -3 97 -17 109 -26 22
-45 26 -69 17z"/>
<path d="M2202 309 c-82 -24 -97 -165 -21 -204 48 -26 130 -13 143 21 9 24
-31 37 -56 19 -29 -19 -34 -19 -58 5 -24 24 -27 82 -4 104 19 20 48 20 64 2
18 -23 63 0 50 25 -9 16 -27 25 -70 34 -8 2 -30 -1 -48 -6z"/>
<path d="M2712 308 c-80 -21 -96 -165 -22 -203 40 -21 103 -19 131 4 20 16 21
21 10 35 -12 14 -15 14 -34 1 -29 -20 -60 -19 -80 3 -31 35 -21 42 58 42 l75
0 0 29 c0 38 -42 88 -78 93 -15 2 -42 0 -60 -4z"/>
<path d="M2960 300 c-15 -15 -20 -17 -20 -5 0 9 -9 15 -25 15 l-25 0 0 -110 0
-110 25 0 c25 0 25 1 25 91 0 81 2 90 18 87 14 -3 17 -17 20 -91 3 -85 3 -87
27 -87 25 0 25 1 25 91 0 81 2 90 18 87 14 -3 17 -17 20 -91 3 -85 3 -87 27
-87 25 0 25 1 25 95 0 81 -3 98 -20 115 -21 21 -46 18 -67 -9 -8 -10 -12 -12
-13 -4 0 7 -9 17 -20 23 -15 8 -24 6 -40 -10z"/>
<path d="M1630 290 c0 -16 7 -20 35 -20 l35 0 0 -65 0 -65 -35 0 c-31 0 -35
-3 -35 -25 0 -25 0 -25 95 -25 95 0 95 0 95 25 0 21 -5 25 -30 25 l-30 0 0 85
0 85 -65 0 c-58 0 -65 -2 -65 -20z"/>
</g>
</svg>
