<svg xmlns="http://www.w3.org/2000/svg" xmlns:xlink="http://www.w3.org/1999/xlink" viewBox="0 0 90 74"><defs><style>.cls-1{fill:none;}.cls-2{clip-path:url(#clip-path);}.cls-3{fill:#fff;}</style><clipPath id="clip-path" transform="translate(-3 -12)"><rect class="cls-1" width="96" height="96"/></clipPath></defs><g id="Ebene_2" data-name="Ebene 2"><g id="Ebene_1-2" data-name="Ebene 1"><g class="cls-2"><path class="cls-3" d="M87,78V23H85V33H77V16.66a3,3,0,0,1,.88-2.13l.83-.82a1,1,0,0,0,0-1.41A1,1,0,0,0,78,12H62a1,1,0,0,0-1,1,1,1,0,0,0,.29.71l.83.82A3,3,0,0,1,63,16.66V33H55V16.66a3,3,0,0,1,.88-2.13l.83-.82a1,1,0,0,0,0-1.41A1,1,0,0,0,56,12H40a1,1,0,0,0-1,1,1,1,0,0,0,.29.71l.83.82A3,3,0,0,1,41,16.66V33H33V16.66a3,3,0,0,1,.88-2.13l.83-.82a1,1,0,0,0,0-1.41A1,1,0,0,0,34,12H18a1,1,0,0,0-1,1,1,1,0,0,0,.29.71l.83.82A3,3,0,0,1,19,16.66V33H11V23H9V78H3v8H93V78ZM65,29H75V67.1A4.92,4.92,0,0,1,70.1,72h-.2A4.92,4.92,0,0,1,65,67.1ZM75.76,14A5,5,0,0,0,75,16.66V27H65V16.66A5,5,0,0,0,64.24,14ZM43,29H53V67.1A4.92,4.92,0,0,1,48.1,72h-.2A4.92,4.92,0,0,1,43,67.1ZM53.76,14A5,5,0,0,0,53,16.66V27H43V16.66A5,5,0,0,0,42.24,14ZM21,29H31V67.1A4.9,4.9,0,0,1,26.1,72h-.2A4.9,4.9,0,0,1,21,67.1h0ZM31.76,14A5,5,0,0,0,31,16.66V27H21V16.66A5,5,0,0,0,20.24,14ZM11,35h8V67.1A6.91,6.91,0,0,0,25.9,74h.2A6.91,6.91,0,0,0,33,67.1V35h8V67.1A6.91,6.91,0,0,0,47.9,74h.2A6.91,6.91,0,0,0,55,67.1V35h8V67.1A6.91,6.91,0,0,0,69.9,74h.2A6.91,6.91,0,0,0,77,67.1V35h8V78H11ZM91,84H5V80H91Z" transform="translate(-3 -12)"/></g></g></g></svg>