<svg xmlns="http://www.w3.org/2000/svg" xmlns:xlink="http://www.w3.org/1999/xlink" viewBox="0 0 29.65 65.22"><defs><style>.cls-1,.cls-2{fill:none;}.cls-2{clip-path:url(#clip-path);}.cls-3{clip-path:url(#clip-path-2);}.cls-4{clip-path:url(#clip-path-3);}.cls-5{fill:#fff;}</style><clipPath id="clip-path"><polygon class="cls-1" points="0 72 72 72 72 0 0 0 0 72 0 72"/></clipPath><clipPath id="clip-path-2" transform="translate(-21.49 -3.71)"><polygon class="cls-2" points="0 0 72 0 72 72 0 72 0 0 0 0"/></clipPath><clipPath id="clip-path-3" transform="translate(-21.49 -3.71)"><polygon class="cls-1" points="0 72 72 72 72 0 0 0 0 72 0 72"/></clipPath></defs><g id="Ebene_2" data-name="Ebene 2"><g id="Ebene_1-2" data-name="Ebene 1"><g id="Ebene_2-2" data-name="Ebene 2"><g id="Ebene_1-2-2" data-name="Ebene 1-2"><g class="cls-3"><g class="cls-4"><path class="cls-5" d="M51.14,36.32c0-8.8-6.53-12.75-13.24-16.31,6.71-3.56,13.24-7.51,13.24-16.3H49.66a12.79,12.79,0,0,1-1,5.18H24a12.79,12.79,0,0,1-1-5.18H21.49C21.49,12.5,28,16.45,34.73,20,28,23.57,21.49,27.52,21.49,36.32S28,49.06,34.73,52.62C28,56.18,21.49,60.13,21.49,68.93H23a12.83,12.83,0,0,1,1-5.19H48.63a12.83,12.83,0,0,1,1,5.19h1.48c0-8.8-6.53-12.75-13.24-16.31,6.71-3.56,13.24-7.5,13.24-16.3ZM24.76,10.38H47.87c-2.39,3.9-6.86,6.32-11.55,8.79C31.62,16.7,27.15,14.28,24.76,10.38ZM36.32,20.85c4.69,2.47,9.16,4.89,11.55,8.8H24.76C27.15,25.74,31.62,23.32,36.32,20.85ZM24,31.13H48.63a13.6,13.6,0,0,1,0,10.37H24A13.6,13.6,0,0,1,24,31.13ZM47.87,62.26H24.76c2.39-3.91,6.86-6.33,11.56-8.8C41,55.93,45.48,58.35,47.87,62.26ZM36.32,51.78c-4.7-2.47-9.17-4.89-11.56-8.79H47.87C45.48,46.89,41,49.31,36.32,51.78Z" transform="translate(-21.49 -3.71)"/></g></g></g></g></g></g></svg>