<svg xmlns="http://www.w3.org/2000/svg" xmlns:xlink="http://www.w3.org/1999/xlink" viewBox="0 0 50.4 50.4"><defs><style>.cls-1,.cls-2{fill:none;}.cls-2{clip-path:url(#clip-path);}.cls-3{clip-path:url(#clip-path-2);}.cls-4{clip-path:url(#clip-path-3);}</style><clipPath id="clip-path"><polygon class="cls-1" points="0 72 72 72 72 0 0 0 0 72 0 72"/></clipPath><clipPath id="clip-path-2" transform="translate(-11.11 -10.38)"><polygon class="cls-2" points="0 0 72 0 72 72 0 72 0 0 0 0"/></clipPath><clipPath id="clip-path-3" transform="translate(-11.11 -10.38)"><polygon class="cls-1" points="0 72 72 72 72 0 0 0 0 72 0 72"/></clipPath></defs><g id="Ebene_2" data-name="Ebene 2"><g id="Ebene_1-2" data-name="Ebene 1"><g id="Ebene_2-2" data-name="Ebene 2"><g id="Ebene_1-2-2" data-name="Ebene 1-2"><g class="cls-3"><g class="cls-4"><polygon points="37.81 24.46 25.95 24.46 25.95 4.45 12.61 4.45 12.61 5.93 24.47 5.93 24.47 24.46 12.61 24.46 12.61 25.94 24.47 25.94 24.47 44.47 12.61 44.47 12.61 45.95 25.95 45.95 25.95 25.94 37.81 25.94 37.81 24.46 37.81 24.46 37.81 24.46"/><path d="M20,19.27H12.6V11.86H20Zm-8.89-8.89V20.75H21.49V10.38Z" transform="translate(-11.11 -10.38)"/><path d="M20,39.28H12.6V31.87H20Zm-8.89-8.89V40.76H21.49V30.39Z" transform="translate(-11.11 -10.38)"/><path d="M20,59.29H12.6V51.88H20ZM11.12,50.4V60.78H21.49V50.4Z" transform="translate(-11.11 -10.38)"/><path d="M60,39.28H52.62V31.87H60Zm-8.89-8.89V40.76h10.4V30.39Z" transform="translate(-11.11 -10.38)"/></g></g></g></g></g></g></svg>