<svg xmlns="http://www.w3.org/2000/svg" xmlns:xlink="http://www.w3.org/1999/xlink" viewBox="0 0 49.38 58.57"><defs><style>.cls-1,.cls-2,.cls-3{fill:none;}.cls-1,.cls-2{clip-rule:evenodd;}.cls-2{clip-path:url(#clip-path);}.cls-4{clip-path:url(#clip-path-2);}.cls-5{clip-path:url(#clip-path-3);}.cls-6{fill:#00617c;}</style><clipPath id="clip-path"><polygon class="cls-1" points="0 72 72 72 72 0 0 0 0 72 0 72"/></clipPath><clipPath id="clip-path-2" transform="translate(-11.86 -7.41)"><polygon class="cls-2" points="0 0 72 0 72 72 0 72 0 0 0 0"/></clipPath><clipPath id="clip-path-3" transform="translate(-11.86 -7.41)"><polygon class="cls-3" points="0 72 72 72 72 0 0 0 0 72 0 72"/></clipPath></defs><g id="Ebene_2" data-name="Ebene 2"><g id="Ebene_1-2" data-name="Ebene 1"><g class="cls-4"><g class="cls-5"><path class="cls-6" d="M46,27.25H42.41a.67.67,0,1,0,0,1.33H46a.67.67,0,1,0,0-1.33Z" transform="translate(-11.86 -7.41)"/><path class="cls-6" d="M44.22,30.85a1.48,1.48,0,0,0,1.42-1.34h-2.9a1.47,1.47,0,0,0,1.48,1.34Z" transform="translate(-11.86 -7.41)"/><path class="cls-6" d="M61.24,9.24a1.8,1.8,0,0,0-1.76-1.83H29A1.81,1.81,0,0,0,27.2,9.22V33A1.79,1.79,0,0,0,29,34.84h5.65v7.48l6.79-7.48h18A1.8,1.8,0,0,0,61.2,33h0l0-23.79ZM59.72,33.05a.31.31,0,0,1-.31.31H40.75l-.45.49-4.21,4.64V33.36H29a.31.31,0,0,1-.3-.32h0V9.22A.31.31,0,0,1,29,8.9H59.45a.31.31,0,0,1,.22.09.33.33,0,0,1,.08.25Z" transform="translate(-11.86 -7.41)"/><path class="cls-6" d="M24.48,51.41A6.43,6.43,0,1,0,18.06,45h0a6.42,6.42,0,0,0,6.42,6.43Zm0-11.38A4.95,4.95,0,1,1,19.54,45h0A5,5,0,0,1,24.48,40Z" transform="translate(-11.86 -7.41)"/><path class="cls-6" d="M44.42,14.83h-.2a5.59,5.59,0,0,0-5.59,5.39v.23A5.77,5.77,0,0,0,39,22.38,5.14,5.14,0,0,0,40,24a11.49,11.49,0,0,1,1.45,2.37h5.49s0,0,.07,0a11.4,11.4,0,0,1,1.46-2.35,5.31,5.31,0,0,0,1-1.58,5.82,5.82,0,0,0,.39-1.93v-.2a5.6,5.6,0,0,0-5.39-5.39Zm4.13,5.56a4.82,4.82,0,0,1-.3,1.5,4.42,4.42,0,0,1-.74,1.21l0,0,0,0a13,13,0,0,0-1.27,1.92h-4A13.15,13.15,0,0,0,41,23.17l0,0,0,0a3.79,3.79,0,0,1-.73-1.2,4.51,4.51,0,0,1-.31-1.49v-.19a4.32,4.32,0,0,1,4.33-4.16h.16a4.36,4.36,0,0,1,4.17,4.15Z" transform="translate(-11.86 -7.41)"/><path class="cls-6" d="M35.66,57.06a15.61,15.61,0,0,0-6.07-2.88,20.05,20.05,0,0,0-5.11-.82h0a16.83,16.83,0,0,0-5,.78A18.89,18.89,0,0,0,13.34,57a3.76,3.76,0,0,0-1.48,3v6h1.48V60a2.28,2.28,0,0,1,.88-1.79,17.24,17.24,0,0,1,5.62-2.64,14.88,14.88,0,0,1,4.59-.72h0a17.94,17.94,0,0,1,4.76.77,14,14,0,0,1,5.55,2.63A2.08,2.08,0,0,1,35.66,60v6h1.48V60a3.54,3.54,0,0,0-1.48-3Z" transform="translate(-11.86 -7.41)"/><path class="cls-6" d="M44.22,13.63a.67.67,0,0,0,.67-.67V11.48a.67.67,0,0,0-1.34,0V13a.67.67,0,0,0,.67.67Z" transform="translate(-11.86 -7.41)"/><path class="cls-6" d="M38.75,15.23a.67.67,0,0,0,1-.91l0,0-1-1a.67.67,0,0,0-.94.94Z" transform="translate(-11.86 -7.41)"/><path class="cls-6" d="M37.06,18.6H35.57a.67.67,0,0,0,0,1.34h1.49a.67.67,0,0,0,0-1.34Z" transform="translate(-11.86 -7.41)"/><path class="cls-6" d="M49.29,15.42a.7.7,0,0,0,.47-.19l1-1.05a.66.66,0,0,0,0-.94.67.67,0,0,0-.91,0l-1,1a.66.66,0,0,0,0,.94.71.71,0,0,0,.48.19Z" transform="translate(-11.86 -7.41)"/><path class="cls-6" d="M52.93,18.6H51.44a.67.67,0,0,0,0,1.34h1.49a.67.67,0,0,0,0-1.34Z" transform="translate(-11.86 -7.41)"/></g></g></g></g></svg>