<svg xmlns="http://www.w3.org/2000/svg" viewBox="0 0 234.77 217.4"><defs><style>.cls-1{isolation:isolate;}.cls-2{fill:#009cbc;}.cls-3{opacity:0.5;}.cls-4{fill:#4e4d4d;}.cls-5{fill:#808181;}.cls-6{mix-blend-mode:screen;}.cls-7{fill:none;stroke:#fff;stroke-miterlimit:10;stroke-width:9px;}</style></defs><g class="cls-1"><g id="Ebene_2" data-name="Ebene 2"><g id="Ebene_1-2" data-name="Ebene 1"><path class="cls-2" d="M78.62,36.42a1.48,1.48,0,0,1,0,.21l.77,0Z" transform="translate(0)"/><g class="cls-3"><path class="cls-2" d="M128.24,70.14c-5.51-18.87-25.77-26.93-43.76-28.45a73,73,0,0,0-27.67,3.05c-8.55,2.66-17.44,6.76-24.1,12.88a24.33,24.33,0,0,0-6.95,10.53c-1.43,4.65-.36,9.6-1.88,14.21-2.72,8.27-11,12.7-16.29,19.07a29.12,29.12,0,0,0-3.79,5.72,2.55,2.55,0,0,0,1.5,3.68A48.18,48.18,0,0,0,15.59,113,50.24,50.24,0,0,0,12,126.19a82.35,82.35,0,0,0-.41,9.16,17.82,17.82,0,0,1-1.83,7.37c-1.12,2.48-2.21,5.08-2,7.86a12.4,12.4,0,0,0,3.08,7.26c4,4.58,10.13,4.49,15.69,4.34l17.63-.49a54.48,54.48,0,0,0-4.52,22.2c-2.13,1-1.79,4.8,1,4.79l52.23-.09a2.56,2.56,0,0,0,2.5-2.5,150.2,150.2,0,0,1,5.45-29.74,154.89,154.89,0,0,1,11.3-27.69,228.4,228.4,0,0,0,12.19-29.12c1.7-4.87,3.59-9.76,4.49-14.86A31.63,31.63,0,0,0,128.24,70.14Z" transform="translate(0)"/><path class="cls-4" d="M42.55,26.75a78.88,78.88,0,0,1-3,26c26.93,8.4,55.32,16.89,82.91,11a5,5,0,0,0,2.94-1.38,5.2,5.2,0,0,0,.85-2.83q1.14-11.62,2.27-23.25Z" transform="translate(0)"/><path class="cls-5" d="M177.67,17.33a65.36,65.36,0,0,0-15.36-4.66L145,9.16c-11.29-2.29-22.57-4.75-33.91-6.82A139.41,139.41,0,0,0,94.22.15,114.5,114.5,0,0,0,77,.63c-11.52,1-23,2.4-34.52,3.63L3.32,8.41A2.57,2.57,0,0,0,.91,10.25C.63,11.6.34,13,.06,14.3a2.82,2.82,0,0,0,0,1.12,2.24,2.24,0,0,0,1.76,2q34.53,8.88,68.47,19.89Q78.72,40,87.14,42.89c5.5,1.89,11.19,4.75,17.12,3.38,2.92-.67,5.76-1.78,8.6-2.71l8.46-2.78q8.56-2.84,17.13-5.7,19.35-6.49,38.62-13.18C178.92,21.26,179.75,18.33,177.67,17.33Z" transform="translate(0)"/><path class="cls-4" d="M174.87,92.49a47.5,47.5,0,0,1-13.7-10.86,2.64,2.64,0,0,0-.87-2.7c.5-1.88,1-3.77,1.45-5.66.41-1.67.8-3.35,1.15-5,.61-2.9,1.13-5.81,1.51-8.76,0-.23.06-.46.08-.69a66.47,66.47,0,0,0,.45-11.63v-.09c0-.35,0-.69-.07-1a46.67,46.67,0,0,0-.58-5,29,29,0,0,0-.93-3.81c-.21-.67-.45-1.32-.72-2a20.5,20.5,0,0,0-2.3-4.1,21.54,21.54,0,0,0-2.27-2.69,27.73,27.73,0,0,0-3.79-3.21,40,40,0,0,0-6.81-3.84,60.9,60.9,0,0,0-21.85-5.27,59.89,59.89,0,0,0-24.89,4A2.58,2.58,0,0,0,99,23.18a2.51,2.51,0,0,0,3.08,1.74,56.46,56.46,0,0,1,39.13-.69l1.17.43a38.45,38.45,0,0,1,9.59,5,9.1,9.1,0,0,1,.78.61,18.07,18.07,0,0,1,4.51,5.22l0,.07A20.26,20.26,0,0,1,159.4,42c.2,1.12.33,2.25.42,3.37.05.55.09,1.1.11,1.66s.06,1.17.08,1.76a67.46,67.46,0,0,1-.3,8c0,.46-.09.93-.15,1.39A100.29,100.29,0,0,1,157.43,70c-.07.34-.16.68-.24,1-.74,3.07-1.57,6.12-2.4,9.15l-3.92,2-.22.12a51.15,51.15,0,0,0-12.43,6.39l-.8.56c-2.56,1.87-.38,5.84,2.52,4.31l7.52-4,4.62-2.42.41-.22h0c-.12.28-.23.57-.33.85-.26.65-.5,1.32-.72,2-.4,1.17-.75,2.36-1,3.55a2.51,2.51,0,0,0,1.45,3l.24.08a2.44,2.44,0,0,0,2.88-1.1q1.26-2.75,2.5-5.48l1-2.19a25.55,25.55,0,0,0,1.83,2.07,27,27,0,0,0,10.89,6.8c.58.2,1.16.37,1.75.52a2.62,2.62,0,0,0,3.16-2.74A2.16,2.16,0,0,0,174.87,92.49Zm-15-11.91s0,0,0,0l0,0A0,0,0,0,1,159.86,80.58Z" transform="translate(0)"/><path class="cls-4" d="M159.86,80.55a0,0,0,0,1,0,0s0,0,0,0Z" transform="translate(0)"/></g><g class="cls-6"><path class="cls-7" d="M179.62,94.36a29.36,29.36,0,0,1,1.18,8L178,108.59a2.49,2.49,0,0,1-3.12,1,2.51,2.51,0,0,1-1.45-3,47.61,47.61,0,0,1,2.1-6.38h0q-6.27,3.3-12.55,6.59c-2.9,1.53-5.08-2.44-2.52-4.31a51,51,0,0,1,10.79-6c.8-.33,1.62-.64,2.44-.93l2.47-1.29,1.67-.88.66-2.44s0,0,0,0l.18.44c.13.31.25.63.36.95s.22.62.32.93S179.52,94,179.62,94.36Z" transform="translate(0)"/><path class="cls-7" d="M182.81,93.78l0,0a0,0,0,0,1,0,0S182.83,93.8,182.81,93.78Z" transform="translate(0)"/><path class="cls-7" d="M194.53,109.91a47.72,47.72,0,0,1,4.56-2.19,2.62,2.62,0,0,1-3.17,2.59C195.45,110.19,195,110.06,194.53,109.91Z" transform="translate(0)"/><path class="cls-7" d="M201.19,34.35a2.66,2.66,0,0,1-1.13.8Q191.6,38.09,183.13,41l-2.08.71.48.5c.16.17.32.35.47.53s.42.49.62.74.29.36.42.54c.28.37.55.75.8,1.14s.35.54.51.82a2,2,0,0,1,.18.32h0c.15.25.29.52.42.79a2.1,2.1,0,0,1,.13.26c.19.37.37.76.53,1.15a35.24,35.24,0,0,1,2.28,11.45L183,61.58q-.06-1.47-.18-2.94a24.49,24.49,0,0,0-2.58-9.91c-.23-.4-.47-.8-.73-1.17-.12-.19-.25-.37-.38-.54s-.2-.28-.31-.41a14.39,14.39,0,0,0-1-1.19c-.15-.17-.32-.34-.49-.51s-.32-.32-.49-.47l-.41-.37a8.64,8.64,0,0,0-.67-.56l-5.65,1.92h0l-5.1,1.72-3.5,1.18-1.43.48-8.69,2.89-.54,5.56q-.56,5.57-1.09,11.14c-.07.73-.14,1.46-.22,2.19l-.21,2.18c0,.12,0,.25,0,.38a7.32,7.32,0,0,1-.29,1.48,3.39,3.39,0,0,1-.31.67l-.22.3-.13.15a.23.23,0,0,1-.07.07L148,76s0,0,0,0h0c.32.52.61,1.06.9,1.6.17.34.34.68.5,1s.28.61.41.92.27.62.39.94.25.63.36,1,.2.55.29.83.25.76.36,1.15a29.3,29.3,0,0,1,.85,3.86l.09.63c.08.67.15,1.33.19,2a33.56,33.56,0,0,1-.27,6.56c-.06.49-.14,1-.23,1.49-.9,5.1-2.79,10-4.49,14.86a228.4,228.4,0,0,1-12.19,29.12,154.89,154.89,0,0,0-11.3,27.69,150.2,150.2,0,0,0-5.45,29.74,2.56,2.56,0,0,1-2.5,2.5l-24.57,0-27.66.05c-2.83,0-3.17-3.84-1-4.79a55,55,0,0,1,.6-8.5c.24-1.61.55-3.22.94-4.81a51.88,51.88,0,0,1,3-8.89l-8,.22-9.66.27a35.79,35.79,0,0,1-9.2-.56,12,12,0,0,1-6.49-3.78,12.4,12.4,0,0,1-3.08-7.26,9.48,9.48,0,0,1,0-1.77,20.48,20.48,0,0,1,2-6.09,17.82,17.82,0,0,0,1.83-7.37,82.35,82.35,0,0,1,.41-9.16,50.24,50.24,0,0,1,3.55-13.21,48.18,48.18,0,0,1-10.29-2.15,2.55,2.55,0,0,1-1.5-3.68,29.12,29.12,0,0,1,3.79-5.72c5.31-6.37,13.57-10.8,16.29-19.07,1.52-4.61.45-9.56,1.88-14.21a24.33,24.33,0,0,1,7-10.53c.83-.76,1.7-1.5,2.6-2.2.45-.35.9-.7,1.37-1l1.15-.82c.6-.41,1.21-.81,1.84-1.21q.8-2.84,1.38-5.71.78-3.82,1.19-7.7c.18-1.82.31-3.64.37-5.46,0-.62,0-1.24,0-1.86s0-1.52,0-2.28c0-.22,0-.44,0-.66h0c-2.13-.64-4.26-1.26-6.4-1.88l-.06,0q-3.66-1.06-7.33-2.1l-.24-.07-2.3-.64-6.06-1.69-.69-.19c-2.49-.68-5-1.36-7.49-2-1.24-.34-2.48-.66-3.72-1l-6.52-1.7a2.24,2.24,0,0,1-1.76-2,2.82,2.82,0,0,1,0-1.12c.28-1.35.57-2.7.85-4.05a1.33,1.33,0,0,1,.05-.19,2.64,2.64,0,0,1,2.36-1.65l39.11-4.15c11.5-1.23,23-2.59,34.52-3.63a114.5,114.5,0,0,1,17.27-.48,139.41,139.41,0,0,1,16.91,2.19c11.34,2.07,22.62,4.53,33.91,6.82l4.77,1,12.5,2.54a65.36,65.36,0,0,1,15.36,4.66A2.37,2.37,0,0,1,201.19,34.35Z" transform="translate(0)"/></g><path class="cls-2" d="M151.23,83.39c-5.51-18.87-25.77-26.93-43.76-28.45A73,73,0,0,0,79.8,58c-8.55,2.66-17.44,6.76-24.1,12.88a24.33,24.33,0,0,0-7,10.53c-1.43,4.65-.36,9.6-1.88,14.21-2.72,8.27-11,12.7-16.29,19.07a29.12,29.12,0,0,0-3.79,5.72,2.55,2.55,0,0,0,1.5,3.68,48.18,48.18,0,0,0,10.29,2.15A50.24,50.24,0,0,0,35,139.44a82.35,82.35,0,0,0-.41,9.16A17.82,17.82,0,0,1,32.79,156c-1.12,2.48-2.21,5.08-2,7.86a12.4,12.4,0,0,0,3.08,7.26c4,4.58,10.13,4.49,15.69,4.34l17.63-.49a54.48,54.48,0,0,0-4.52,22.2c-2.13,1-1.79,4.8,1,4.79l52.23-.09a2.56,2.56,0,0,0,2.5-2.5,150.2,150.2,0,0,1,5.45-29.74,154.89,154.89,0,0,1,11.3-27.69,228.4,228.4,0,0,0,12.19-29.12c1.7-4.87,3.59-9.76,4.49-14.86A31.63,31.63,0,0,0,151.23,83.39Z" transform="translate(0)"/><path class="cls-4" d="M65.54,40a79.41,79.41,0,0,1-3,26c26.92,8.4,55.32,16.89,82.9,11a5.07,5.07,0,0,0,2.94-1.39,5.11,5.11,0,0,0,.86-2.83q1.14-11.62,2.27-23.25Z" transform="translate(0)"/><path class="cls-5" d="M200.66,30.58a65.36,65.36,0,0,0-15.36-4.66L168,22.41c-11.29-2.29-22.57-4.75-33.91-6.82a139.41,139.41,0,0,0-16.91-2.19,114.5,114.5,0,0,0-17.27.48c-11.52,1-23,2.4-34.52,3.63L26.31,21.66A2.57,2.57,0,0,0,23.9,23.5c-.28,1.35-.57,2.7-.85,4.05a2.82,2.82,0,0,0,0,1.12,2.24,2.24,0,0,0,1.76,2q34.53,8.88,68.47,19.89,8.45,2.74,16.86,5.62c5.5,1.89,11.19,4.75,17.12,3.38,2.92-.67,5.76-1.78,8.6-2.71L144.31,54q8.56-2.84,17.13-5.7,19.35-6.49,38.62-13.18C201.91,34.51,202.74,31.58,200.66,30.58Z" transform="translate(0)"/><path class="cls-4" d="M194.53,109.91c.46.15.92.28,1.39.4a2.62,2.62,0,0,0,3.17-2.59A47.72,47.72,0,0,0,194.53,109.91Zm-9.44-62.57a2.1,2.1,0,0,0-.13-.26,8.67,8.67,0,0,0-.43-.79,2,2,0,0,0-.18-.32c-.16-.28-.33-.55-.51-.82s-.52-.77-.8-1.14c-.13-.18-.28-.36-.42-.54s-.4-.5-.62-.74-.31-.36-.47-.53l-.48-.5c-.38-.39-.78-.77-1.19-1.14a36.53,36.53,0,0,0-9.41-5.91,60.8,60.8,0,0,0-10.11-3.51,59,59,0,0,0-6.49-1.26c-.63-.09-1.26-.17-1.9-.23-1.11-.13-2.23-.21-3.35-.27a59.89,59.89,0,0,0-24.89,4,2.72,2.72,0,0,0-1.82,2.18,2.16,2.16,0,0,0,.07.9A2.51,2.51,0,0,0,125,38.17c1.13-.44,2.28-.85,3.44-1.21a56.57,56.57,0,0,1,28.8-1.41,54.16,54.16,0,0,1,6.08,1.66c.66.22,1.32.45,2,.7a46.56,46.56,0,0,1,5.5,2.43,28.66,28.66,0,0,1,4.87,3.17,8.64,8.64,0,0,1,.67.56c.14.12.28.24.41.37s.33.31.49.47.34.34.49.51a14.39,14.39,0,0,1,1,1.19c.11.13.21.27.31.41a6.58,6.58,0,0,1,.38.54c.26.37.5.77.73,1.17a24.49,24.49,0,0,1,2.58,9.91q.12,1.47.18,2.94l4.92-1.64a35.24,35.24,0,0,0-2.28-11.45C185.46,48.1,185.28,47.71,185.09,47.34Zm-5.8,46c-.1-.31-.21-.62-.32-.93s-.23-.64-.36-.95l-.18-.44s0,0,0,0l-.66,2.44-1.67.88-2.47,1.29c-.82.29-1.64.6-2.44.93a51,51,0,0,0-10.79,6c-2.56,1.87-.38,5.84,2.52,4.31q6.29-3.28,12.55-6.59h0a47.61,47.61,0,0,0-2.1,6.38,2.51,2.51,0,0,0,1.45,3,2.49,2.49,0,0,0,3.12-1l2.85-6.25a29.36,29.36,0,0,0-1.18-8Q179.47,93.84,179.29,93.31Z" transform="translate(0)"/><path class="cls-4" d="M182.85,93.8a0,0,0,0,1,0,0s0,0,0,0Z" transform="translate(0)"/><path class="cls-7" d="M228.45,46.12q-9.49,3.3-19,6.55l.48.5c.16.17.32.35.47.53s.42.49.62.74.29.36.42.54c.28.37.55.75.8,1.14s.35.54.51.82a2,2,0,0,1,.18.32,8.67,8.67,0,0,1,.43.79,2.1,2.1,0,0,1,.13.26c.19.37.37.76.53,1.15a35.87,35.87,0,0,1,2.3,11.82,67.76,67.76,0,0,1-.53,12.41,148.25,148.25,0,0,1-4.11,19.46,2.64,2.64,0,0,1,.87,2.7,47,47,0,0,0,13.7,10.86c2.58,1.36.74,5.25-1.93,4.57a27.14,27.14,0,0,1-14.47-9.39c-1.17,2.55-2.33,5.11-3.5,7.67a2.49,2.49,0,0,1-3.12,1,2.51,2.51,0,0,1-1.45-3,47.61,47.61,0,0,1,2.1-6.38h0q-6.27,3.3-12.55,6.59c-2.9,1.53-5.08-2.44-2.52-4.31a49,49,0,0,1,5.74-3.62,47.72,47.72,0,0,1,4.56-2.19h0c1-.4,1.94-.78,2.93-1.13l4.14-2.17c2.11-7.66,4.16-15.41,4.92-23.34a63.58,63.58,0,0,0,.11-11.46,24.49,24.49,0,0,0-2.58-9.91c-.22-.39-.45-.77-.71-1.14s-.35-.51-.55-.76a.22.22,0,0,0,0-.08c-.22-.29-.45-.57-.69-.85s-.61-.67-.94-1c-.16-.16-.32-.32-.49-.47l-.41-.37a8.64,8.64,0,0,0-.67-.56L199.5,56l-9.67,3.26-1.93.64L183,61.58l-3.27,1.09q-1,10.53-2.06,21.07a5.11,5.11,0,0,1-.86,2.83,3.07,3.07,0,0,1-.25.26.69.69,0,0,1-.13.11c.16.28.32.55.48.84s.28.51.41.77q.4.77.75,1.56a4.58,4.58,0,0,1,.2.46,3.79,3.79,0,0,1,.18.42s0,0,0,0,.12.28.18.43c.13.31.25.63.36.95s.22.62.32.93.23.7.33,1a29.36,29.36,0,0,1,1.18,8,34.66,34.66,0,0,1-.55,6.56c-.9,5.1-2.79,10-4.49,14.86a228.4,228.4,0,0,1-12.19,29.12,154.89,154.89,0,0,0-11.3,27.69,150.2,150.2,0,0,0-5.45,29.74,2.56,2.56,0,0,1-2.5,2.5l-52.23.09c-2.83,0-3.17-3.84-1-4.79a56.38,56.38,0,0,1,.31-6.23,54.26,54.26,0,0,1,3.49-14.24c.18-.45.36-.9.56-1.35,0-.13.1-.25.16-.38h-.12l-17.51.49c-4.72.13-9.86.21-13.74-2.57a11.12,11.12,0,0,1-2-1.77,12.38,12.38,0,0,1-3-6.9c0-.12,0-.24,0-.36-.2-2.78.89-5.38,2-7.86A17.82,17.82,0,0,0,63,159.57a82.35,82.35,0,0,1,.41-9.16A50.24,50.24,0,0,1,67,137.2a48.18,48.18,0,0,1-10.29-2.15,2.55,2.55,0,0,1-1.5-3.68A29.12,29.12,0,0,1,59,125.65c5.31-6.37,13.57-10.8,16.29-19.07,1.52-4.61.45-9.56,1.88-14.21a24.33,24.33,0,0,1,7-10.53c.83-.77,1.7-1.5,2.6-2.2.45-.35.9-.7,1.37-1l1.15-.82.36-.24c.49-.33,1-.66,1.48-1,.22-.75.42-1.51.61-2.27l.09-.37c.32-1.33.61-2.67.87-4,.09-.45.17-.9.25-1.35.19-1.1.36-2.2.5-3.31s.26-2.2.36-3.3c0-.45.08-.9.11-1.35l.09-1.54c.07-1.33.11-2.67.11-4,0-.69,0-1.39,0-2.08a.27.27,0,0,1,0-.09h0L87.6,51l-.06,0q-3.66-1.06-7.33-2.1l-2.54-.71L71.61,46.5q-3-.82-6-1.62l-2.21-.59-2.55-.68h0l-1.16-.31-6.52-1.7a2.24,2.24,0,0,1-1.76-2,2.82,2.82,0,0,1,0-1.12c.05-.22.09-.44.14-.66.23-1.13.48-2.26.71-3.39a2.57,2.57,0,0,1,2.41-1.84l.7-.07,20.19-2.15,18.22-1.93c11.5-1.23,23-2.59,34.52-3.63a128.58,128.58,0,0,1,12.86-.62c1.48,0,2.94.05,4.41.14,2.9.17,5.8.47,8.68.87s5.5.82,8.23,1.32l.68.13c11.11,2,22.17,4.45,33.23,6.69l4.77,1,12.5,2.54a65.36,65.36,0,0,1,15.36,4.66C231.13,42.55,230.3,45.48,228.45,46.12Z" transform="translate(0)"/><path class="cls-2" d="M179.62,94.36q-.15-.52-.33-1c-.1-.31-.21-.62-.32-.93s-.23-.64-.36-.95l-.18-.44a3.79,3.79,0,0,0-.18-.42,4.58,4.58,0,0,0-.2-.46q-.35-.8-.75-1.56c-.13-.26-.26-.51-.41-.77s-.32-.56-.48-.84a37.39,37.39,0,0,0-14.66-13.67A49.31,49.31,0,0,0,157.19,71c-.47-.2-.94-.4-1.42-.58a58.74,58.74,0,0,0-6.08-2.06,72.13,72.13,0,0,0-10.24-2.1c-1.21-.16-2.4-.29-3.59-.39l-1.15-.08a68.54,68.54,0,0,0-8.11-.09A73.23,73.23,0,0,0,108.19,69,78.71,78.71,0,0,0,94,74.86c-1,.55-2,1.13-3,1.74-.5.3-1,.62-1.48,1l-.36.24-1.15.82c-.47.33-.92.68-1.37,1-.9.7-1.77,1.43-2.6,2.2a24.33,24.33,0,0,0-7,10.53c-1.43,4.65-.36,9.6-1.88,14.21-2.72,8.27-11,12.7-16.29,19.07a29.12,29.12,0,0,0-3.79,5.72,2.55,2.55,0,0,0,1.5,3.68A48.18,48.18,0,0,0,67,137.2a50.24,50.24,0,0,0-3.55,13.21,82.35,82.35,0,0,0-.41,9.16,17.82,17.82,0,0,1-1.83,7.37c-1.12,2.48-2.21,5.08-2,7.86,0,.12,0,.24,0,.36a12.38,12.38,0,0,0,3,6.9,11.12,11.12,0,0,0,2,1.77c3.88,2.78,9,2.7,13.74,2.57l17.51-.49h.12c-.06.13-.11.25-.16.38-.2.45-.38.9-.56,1.35a54.26,54.26,0,0,0-3.49,14.24,56.38,56.38,0,0,0-.31,6.23c-2.13.95-1.79,4.8,1,4.79l52.23-.09a2.56,2.56,0,0,0,2.5-2.5,150.2,150.2,0,0,1,5.45-29.74,154.89,154.89,0,0,1,11.3-27.69,228.4,228.4,0,0,0,12.19-29.12c1.7-4.87,3.59-9.76,4.49-14.86a34.66,34.66,0,0,0,.55-6.56A29.36,29.36,0,0,0,179.62,94.36Z" transform="translate(0)"/><path class="cls-4" d="M93.92,51a79.2,79.2,0,0,1-3,26c26.92,8.4,55.31,16.89,82.9,11a5,5,0,0,0,2.94-1.38,5.15,5.15,0,0,0,.85-2.84q1.14-11.62,2.27-23.25Z" transform="translate(0)"/><path class="cls-5" d="M229.05,41.55a65.36,65.36,0,0,0-15.36-4.66l-12.5-2.54-4.77-1c-11.06-2.24-22.12-4.65-33.23-6.69l-.68-.13c-2.73-.5-5.48-.95-8.23-1.32s-5.78-.7-8.68-.87c-1.47-.09-2.93-.13-4.41-.14a128.58,128.58,0,0,0-12.86.62c-11.52,1-23,2.4-34.52,3.63L75.59,30.41,55.4,32.56l-.7.07a2.57,2.57,0,0,0-2.41,1.84c-.23,1.13-.48,2.26-.71,3.39,0,.22-.09.44-.14.66a2.82,2.82,0,0,0,0,1.12,2.24,2.24,0,0,0,1.76,2l6.52,1.7,1.16.31h0l2.55.68,2.21.59q3,.79,6,1.62l6.06,1.69,2.54.71q3.67,1,7.33,2.1l.06,0L94,52.9h0q3,.87,6,1.79,10.86,3.28,21.66,6.79L125,62.57l.2.07q4.78,1.56,9.56,3.19l3.81,1.28c1.09.38,2.19.79,3.29,1.2a42.26,42.26,0,0,0,7.66,2.28,15.65,15.65,0,0,0,6.17-.1l.13,0c.56-.13,1.11-.28,1.66-.44,1.84-.52,3.66-1.17,5.47-1.79l1.34-.45L172.7,65l7-2.33L183,61.58l4.92-1.64,1.93-.64L199.5,56l4.6-1.56,5.34-1.81q9.51-3.26,19-6.55C230.3,45.48,231.13,42.55,229.05,41.55Z" transform="translate(0)"/><path class="cls-4" d="M226.24,116.71a47,47,0,0,1-13.7-10.86,2.64,2.64,0,0,0-.87-2.7,148.25,148.25,0,0,0,4.11-19.46,67.76,67.76,0,0,0,.53-12.41A35.87,35.87,0,0,0,214,59.46c-.16-.39-.34-.78-.53-1.15a2.1,2.1,0,0,0-.13-.26,8.67,8.67,0,0,0-.43-.79,2,2,0,0,0-.18-.32c-.16-.28-.33-.55-.51-.82s-.52-.77-.8-1.14c-.13-.18-.28-.36-.42-.54s-.4-.5-.62-.74-.31-.36-.47-.53l-.48-.5a34.53,34.53,0,0,0-10.6-7.05A60.5,60.5,0,0,0,183.13,41a0,0,0,0,0,0,0c-1.08-.17-2.17-.3-3.26-.42S178,40.4,177,40.35a60.08,60.08,0,0,0-6.15,0,62.38,62.38,0,0,0-6.55.68c-1.64.26-3.28.59-4.89,1a56.7,56.7,0,0,0-7.3,2.3,2.58,2.58,0,0,0-1.75,3.08,2.51,2.51,0,0,0,3.08,1.74,55.86,55.86,0,0,1,6.5-2.09c1.63-.42,3.28-.76,4.94-1s3.43-.47,5.16-.59h0a56.21,56.21,0,0,1,14.47.86h0a56.1,56.1,0,0,1,9.19,2.59,36.76,36.76,0,0,1,10.37,5.6,8.64,8.64,0,0,1,.67.56c.14.12.28.24.41.37s.33.31.49.47c.33.32.64.65.94,1s.47.56.69.85a.22.22,0,0,1,0,.08c.2.25.38.5.55.76s.49.75.71,1.14a24.49,24.49,0,0,1,2.58,9.91,63.58,63.58,0,0,1-.11,11.46c-.76,7.93-2.81,15.68-4.92,23.34L202,106.58c-1,.35-2,.73-2.93,1.13h0a47.72,47.72,0,0,0-4.56,2.19,49,49,0,0,0-5.74,3.62c-2.56,1.87-.38,5.84,2.52,4.31q6.28-3.28,12.55-6.59h0a47.61,47.61,0,0,0-2.1,6.38,2.51,2.51,0,0,0,1.45,3,2.49,2.49,0,0,0,3.12-1c1.17-2.56,2.33-5.12,3.5-7.67a27.14,27.14,0,0,0,14.47,9.39C227,122,228.82,118.07,226.24,116.71Zm-15-11.91s0,0,0,0l0,0A0,0,0,0,1,211.23,104.8Z" transform="translate(0)"/><path class="cls-4" d="M211.23,104.76a0,0,0,0,1,0,0s0,0,0-.05Z" transform="translate(0)"/></g></g></g></svg>