<svg xmlns="http://www.w3.org/2000/svg" viewBox="0 0 212.7 208.75"><defs><style>.cls-1{fill:none;stroke:#000;stroke-miterlimit:10;stroke-width:5px;}</style></defs><g id="Ebene_2" data-name="Ebene 2"><g id="Ebene_1-2" data-name="Ebene 1"><path class="cls-1" d="M33.8,162l-7.24.2c-5.56.15-11.71.24-15.69-4.34a12.4,12.4,0,0,1-3.08-7.26c-.2-2.78.89-5.38,2-7.86a17.82,17.82,0,0,0,1.83-7.37,82.35,82.35,0,0,1,.41-9.16A50.24,50.24,0,0,1,15.59,113,48.18,48.18,0,0,1,5.3,110.83a2.55,2.55,0,0,1-1.5-3.68,29.12,29.12,0,0,1,3.79-5.72c5.31-6.37,13.57-10.8,16.29-19.07,1.52-4.61.45-9.56,1.88-14.21a24.33,24.33,0,0,1,7-10.53,47.53,47.53,0,0,1,7-5.25h0A62.1,62.1,0,0,1,45.82,49"/><path d="M55.35,45.21h0q-6.68-1.86-13.42-3.65a76.43,76.43,0,0,1-2.25,10.8h0c0,.12-.06.24-.1.36,9.74,3,19.67,6.09,29.69,8.47a74.58,74.58,0,0,0,1.19-11.67Q63,47.34,55.35,45.21Z"/><path d="M177.67,17.33a65.36,65.36,0,0,0-15.36-4.66L145,9.16c-11.29-2.29-22.57-4.75-33.91-6.82A139.41,139.41,0,0,0,94.22.15,114.5,114.5,0,0,0,77,.63c-11.52,1-23,2.4-34.52,3.63L3.32,8.41A2.57,2.57,0,0,0,.91,10.25C.63,11.6.34,13,.06,14.3a2.82,2.82,0,0,0,0,1.12,2.24,2.24,0,0,0,1.76,2q13.8,3.56,27.51,7.44a7.59,7.59,0,0,1,6.28-4.28l39.11-4.15,9.87-1.07c8.09-.9,16.46-1.82,24.73-2.57a119.38,119.38,0,0,1,18-.49,143.16,143.16,0,0,1,17.51,2.27c8,1.46,16.08,3.13,23.88,4.75,3.13.65,6.26,1.3,9.39,1.93C179.14,20.09,179.31,18.12,177.67,17.33Z"/><path class="cls-1" d="M162.68,102.25c-.9,5.1-2.79,10-4.49,14.86A228.4,228.4,0,0,1,146,146.23a154.89,154.89,0,0,0-11.3,27.69,150.2,150.2,0,0,0-5.45,29.74,2.56,2.56,0,0,1-2.5,2.5l-52.23.09c-2.83,0-3.17-3.84-1-4.79A54.48,54.48,0,0,1,78,179.26l-17.63.49c-5.56.15-11.71.24-15.69-4.34a12.4,12.4,0,0,1-3.08-7.26c-.2-2.78.89-5.38,2-7.86a17.82,17.82,0,0,0,1.83-7.37,82.35,82.35,0,0,1,.41-9.16,50.24,50.24,0,0,1,3.55-13.21,48.18,48.18,0,0,1-10.29-2.15,2.55,2.55,0,0,1-1.5-3.68A29.12,29.12,0,0,1,41.4,119c5.31-6.37,13.57-10.8,16.29-19.07,1.52-4.61.45-9.56,1.88-14.21a24.33,24.33,0,0,1,6.95-10.53C73.18,69.07,82.07,65,90.62,62.31a73,73,0,0,1,27.67-3.05c18,1.52,38.25,9.58,43.76,28.45A31.63,31.63,0,0,1,162.68,102.25Z"/><path d="M76.36,44.33a79.48,79.48,0,0,1-3,26c26.92,8.4,55.32,16.89,82.9,11a5,5,0,0,0,2.94-1.38,5.16,5.16,0,0,0,.86-2.84q1.14-11.62,2.27-23.25Z"/><path d="M211.48,34.9a65.36,65.36,0,0,0-15.36-4.66l-17.27-3.51c-11.29-2.29-22.57-4.75-33.91-6.82A139.41,139.41,0,0,0,128,17.72a114.5,114.5,0,0,0-17.27.48c-11.52,1-23,2.4-34.52,3.63L37.13,26a2.57,2.57,0,0,0-2.41,1.84c-.28,1.35-.57,2.7-.85,4.05a2.82,2.82,0,0,0,0,1.12,2.24,2.24,0,0,0,1.76,2q34.53,8.88,68.47,19.89,8.44,2.74,16.86,5.62c5.5,1.89,11.19,4.75,17.12,3.38,2.92-.67,5.76-1.78,8.6-2.71l8.46-2.78q8.56-2.84,17.13-5.7,19.35-6.49,38.62-13.18C212.73,38.83,213.56,35.9,211.48,34.9Z"/><path d="M193.67,98.12a0,0,0,0,1,0,0s0,0,0-.05Z"/><path d="M192.65,120.29a12.16,12.16,0,0,1-7.87-3.35,15.74,15.74,0,0,1-6.64,3.43,2.52,2.52,0,0,1-2.43-4.18c1.37-1.39,3-2.51,4.45-3.76,1.29-1.09,2.54-2.24,2.9-3.79a10.56,10.56,0,0,0,0-2.81l-.15-3.7q-.13-3.72-.22-7.46c-.13-4.94-.24-9.88-.48-14.82a145.28,145.28,0,0,0-3.7-28.41c.29.12.59.25.88.39l-1.15-1.49c.1.37.19.73.27,1.1C164.08,45,148.19,42.92,132.76,40A2.51,2.51,0,0,1,131,37a2.56,2.56,0,0,1,3.07-1.75c9.29,1.74,18.65,3.16,27.84,5.43a118.92,118.92,0,0,1,12,3.56C176,45,178,45.78,180,46.66c1.11.49,2.38.86,2.92,2.05a16.71,16.71,0,0,1,.81,3.07,150,150,0,0,1,3.35,26c.47,8.59.53,17.2.86,25.79,0,1.12.16,2.25.18,3.38a2.66,2.66,0,0,1,1.24,1q2.79,4.24,5.42,8.61A2.52,2.52,0,0,1,192.65,120.29Z"/><path d="M179.4,51.83c-.29-.14-.59-.27-.88-.39-.08-.37-.17-.73-.27-1.1Z"/></g></g></svg>