<?xml version="1.0" encoding="utf-8"?>
<!-- Generator: Adobe Illustrator 25.4.1, SVG Export Plug-In . SVG Version: 6.00 Build 0)  -->
<svg version="1.1" id="Ebene_1" xmlns="http://www.w3.org/2000/svg" xmlns:xlink="http://www.w3.org/1999/xlink" x="0px" y="0px"
	 viewBox="0 0 57.4 66.3" style="enable-background:new 0 0 57.4 66.3;" xml:space="preserve">
<style type="text/css">
	.st0{fill:#009CBC;}
	.st1{fill:none;}
	.st2{fill:#FFFFFF;}
</style>
<rect y="0" class="st0" width="57.4" height="66.3"/>
<g id="Ebene_2_00000012452428777931846600000015586853090557497224_">
	<g id="Ebene_1-2">
		<line class="st1" x1="15.3" y1="56.4" x2="15.7" y2="55.8"/>
		<polygon class="st2" points="28.7,47.5 41,40.3 41,26.1 28.7,18.9 16.3,26.1 16.3,40.3 		"/>
		<path class="st2" d="M28.7,16.4V2.6L2.3,17.9v30.6l8.8,5.1c0,0.1,0,0.2,0,0.3c0,1.5,1.2,2.8,2.8,2.8s2.8-1.2,2.8-2.8
			c0-1.5-1.2-2.8-2.8-2.8c-0.6,0-1.2,0.2-1.6,0.6l-7.7-4.4v-28l22-12.7v11.2L28.7,16.4z"/>
		<path class="st2" d="M55.1,17.9l-8.7-5.1c0-0.1,0-0.2,0-0.3c0-1.5-1.2-2.8-2.7-2.8c-0.8,0-1.5,0.3-2,0.8c-1.1,1.1-1.1,2.8,0,3.9
			c0,0,0,0,0,0c1,1,2.5,1.1,3.6,0.3l7.7,4.4v28l-22,12.7V48.7l-2.2,1.3v13.8l26.4-15.2V17.9z"/>
	</g>
</g>
</svg>
