<?xml version="1.0" encoding="UTF-8" standalone="no"?>
<svg
   xmlns:dc="http://purl.org/dc/elements/1.1/"
   xmlns:cc="http://creativecommons.org/ns#"
   xmlns:rdf="http://www.w3.org/1999/02/22-rdf-syntax-ns#"
   xmlns:svg="http://www.w3.org/2000/svg"
   xmlns="http://www.w3.org/2000/svg"
   viewBox="0 0 212.27 190.18"
   version="1.1"
   id="svg22">
  <metadata
     id="metadata26">
    <rdf:RDF>
      <cc:Work
         rdf:about="">
        <dc:format>image/svg+xml</dc:format>
        <dc:type
           rdf:resource="http://purl.org/dc/dcmitype/StillImage" />
        <dc:title></dc:title>
      </cc:Work>
    </rdf:RDF>
  </metadata>
  <defs
     id="defs4">
    <style
       id="style2">.cls-1{fill:none;stroke:#fff;stroke-miterlimit:10;stroke-width:3px;}.cls-2{fill:#fff;}</style>
  </defs>
  <g
     id="Ebene_2"
     data-name="Ebene 2"
     transform="matrix(-1,0,0,1,212.26733,0)">
    <g
       id="Ebene_1-2"
       data-name="Ebene 1">
      <path
         class="cls-1"
         d="m 2.81,41.59 a 72.9,72.9 0 0 1 14.72,3 74.39,74.39 0 0 1 17.14,7.62 48.31,48.31 0 0 1 7,5.26 24.33,24.33 0 0 1 6.91,10.53 c 1.43,4.65 0.36,9.6 1.88,14.21 2.72,8.27 11,12.7 16.29,19.07 a 29.12,29.12 0 0 1 3.79,5.72 2.55,2.55 0 0 1 -1.5,3.68 48.18,48.18 0 0 1 -10.29,2.15 50.24,50.24 0 0 1 3.55,13.17 82.35,82.35 0 0 1 0.41,9.16 17.82,17.82 0 0 0 1.83,7.37 c 1.12,2.48 2.21,5.08 2,7.86 a 12.4,12.4 0 0 1 -3.08,7.26 c -4,4.58 -10.13,4.49 -15.69,4.34 L 30.14,161.5 a 54.48,54.48 0 0 1 4.52,22.2 c 2.13,1 1.79,4.8 -1,4.79 L 0,188.43"
         id="path6" />
      <path
         class="cls-2"
         d="m 34.67,52.17 a 79.55,79.55 0 0 1 -3,-23.68 c 0,-0.64 0.05,-1.29 0.08,-1.93 L 0,30.08 v 32.06 c 11.74,-2.48 23.39,-6 34.77,-9.6 -0.04,-0.12 -0.07,-0.25 -0.1,-0.37 z"
         id="path8" />
      <path
         class="cls-2"
         d="m 74.28,14.11 c -0.28,-1.35 -0.57,-2.7 -0.85,-4 A 2.57,2.57 0 0 0 71,8.22 L 31.91,4.07 C 21.28,2.93 10.65,1.68 0,0.68 v 37.74 c 1.35,-0.46 2.71,-0.9 4.06,-1.34 q 13.77,-4.47 27.65,-8.59 20.31,-6 40.82,-11.3 a 2.24,2.24 0 0 0 1.76,-2 2.82,2.82 0 0 0 -0.01,-1.08 z"
         id="path10" />
      <path
         class="cls-1"
         d="m 207.87,126.86 c -0.3,0.6 -0.6,1.2 -0.91,1.8 a 154.89,154.89 0 0 0 -11.3,27.69 150.2,150.2 0 0 0 -5.45,29.74 2.56,2.56 0 0 1 -2.5,2.5 l -52.23,0.09 c -2.83,0 -3.17,-3.84 -1,-4.79 a 54.48,54.48 0 0 1 4.52,-22.2 l -17.63,0.49 c -5.56,0.15 -11.71,0.24 -15.69,-4.34 a 12.4,12.4 0 0 1 -3.08,-7.26 c -0.2,-2.78 0.89,-5.38 2,-7.86 a 17.82,17.82 0 0 0 1.83,-7.37 82.35,82.35 0 0 1 0.41,-9.16 50.24,50.24 0 0 1 3.52,-13.19 48.18,48.18 0 0 1 -10.29,-2.15 2.55,2.55 0 0 1 -1.5,-3.68 29.12,29.12 0 0 1 3.79,-5.72 c 5.31,-6.37 13.57,-10.8 16.29,-19.07 1.52,-4.61 0.45,-9.56 1.88,-14.21 a 24.33,24.33 0 0 1 7,-10.53 46.77,46.77 0 0 1 7,-5.24 73.61,73.61 0 0 1 17.14,-7.64 72.82,72.82 0 0 1 26.52,-3.13 l 1.15,0.08 a 70.19,70.19 0 0 1 19.91,4.55 50,50 0 0 1 10.13,5.36"
         id="path12" />
      <path
         class="cls-2"
         d="m 137.32,26.76 c 0,0.64 0.06,1.28 0.08,1.92 a 79.72,79.72 0 0 1 -3,23.7 c 0,0.12 -0.07,0.23 -0.1,0.35 25.3,7.91 51.92,15.88 77.93,11.91 V 35.05 Z"
         id="path14" />
      <path
         class="cls-2"
         d="M 205.9,2.34 A 139.41,139.41 0 0 0 189,0.15 114.5,114.5 0 0 0 171.73,0.63 c -11.52,1 -23,2.4 -34.52,3.63 L 98.09,8.41 a 2.57,2.57 0 0 0 -2.41,1.84 c -0.28,1.35 -0.57,2.7 -0.85,4.05 a 2.82,2.82 0 0 0 0,1.12 2.24,2.24 0 0 0 1.76,2 q 20.51,5.28 40.82,11.3 13.88,4.13 27.65,8.59 6.54,2.13 13,4.34 l 3.81,1.28 c 5.5,1.89 11.19,4.75 17.12,3.38 h 0.13 c 2.87,-0.67 5.67,-1.76 8.47,-2.68 L 212.27,42 V 3.55 Q 209.09,2.92 205.9,2.34 Z"
         id="path16" />
      <path
         class="cls-2"
         d="m 212.27,20.76 v 5.08 C 206.1,24.62 199.88,23.6 193.72,22.45 a 2.51,2.51 0 0 1 -1.72,-3.07 2.56,2.56 0 0 1 3.07,-1.75 c 5.71,1.07 11.47,2.03 17.2,3.13 z"
         id="path18" />
    </g>
  </g>
</svg>
