<svg id="Layer_1" data-name="Layer 1" xmlns="http://www.w3.org/2000/svg" viewBox="0 0 151.26 151.26"><defs><style>.cls-1{fill:#00617c}</style></defs><path class="cls-1" d="M92.82 86.42c-.77 1.25-2.15 3.55-3.72 3.55s-2.95-2.3-3.72-3.55c-2.13 1.56-3.56 4.95-3.56 11.38 0 9.71 7.29 22.67 7.29 22.67s7.29-12.96 7.29-22.67c0-6.43-1.43-9.82-3.56-11.38Z"/><path class="cls-1" d="m115.16 76.64-9.32-7.62c.21-2.29.33-4.79.33-7.53 0-17.34-9.92-33.1-14.63-39.61-1.2-1.66-3.67-1.66-4.88 0-4.72 6.51-14.63 22.27-14.63 39.61 0 2.74.11 5.24.33 7.53l-9.32 7.62s-.05.06-.08.08h5.14c4.7 0 8.57 3.56 9.08 8.13.96 1.35 2.03 2.45 3.2 3.3 1.8-2.93 5.03-4.9 8.72-4.9s6.92 1.96 8.72 4.9c1.17-.86 2.25-1.96 3.22-3.33.14.29.32.56.55.8l9.76 9.76c1.79 1.79 4.85.52 4.85-2.01V78.85c0-.85-.38-1.66-1.04-2.2ZM89.1 69.45c-2.36 0-4.27-1.91-4.27-4.27s1.91-4.27 4.27-4.27 4.27 1.91 4.27 4.27-1.91 4.27-4.27 4.27Zm0-16.02c-3.9 0-7.06-3.16-7.06-7.06s3.16-7.06 7.06-7.06 7.06 3.16 7.06 7.06-3.16 7.06-7.06 7.06Z"/><path class="cls-1" d="M68.92 129.5H29.43c-2.68 0-4.86-2.18-4.86-4.86v-39.6c0-2.68 2.18-4.86 4.86-4.86h39.49c2.68 0 4.86 2.18 4.86 4.86v39.6c0 2.68-2.18 4.86-4.86 4.86ZM29.43 81.67c-1.85 0-3.36 1.51-3.36 3.36v39.6a3.36 3.36 0 0 0 3.36 3.36h39.49c1.85 0 3.36-1.51 3.36-3.36v-39.6c0-1.85-1.51-3.36-3.36-3.36H29.43Z"/><path class="cls-1" d="M41.48 99.25h1.41c.39 0 .67.07.84.22s.26.38.26.71-.08.56-.25.7-.45.22-.85.22h-5.12c-.4 0-.68-.07-.85-.22s-.25-.38-.25-.7.09-.57.26-.71.45-.22.85-.22h1.61v-7.32l-.97.25c-.15.03-.27.06-.37.08s-.17.03-.22.03c-.24 0-.42-.08-.55-.23s-.2-.36-.2-.64c0-.2.07-.37.22-.51s.37-.25.67-.32l2.15-.59c.18-.05.33-.08.44-.1s.21-.03.29-.03c.23 0 .4.06.49.19s.15.34.15.64v8.56ZM57.65 89.87c1.33 0 2.39.52 3.17 1.55s1.17 2.43 1.17 4.2-.39 3.18-1.17 4.21-1.84 1.55-3.17 1.55-2.36-.52-3.14-1.55-1.16-2.44-1.16-4.21.39-3.18 1.16-4.21 1.82-1.54 3.14-1.54Zm.02 1.95c-.61 0-1.1.34-1.45 1.01s-.53 1.6-.53 2.78.18 2.13.53 2.81.84 1.01 1.46 1.01 1.11-.34 1.46-1.01.53-1.61.53-2.81-.18-2.11-.53-2.78-.84-1.01-1.46-1.01ZM40.14 108.3c1.33 0 2.39.52 3.17 1.55s1.17 2.43 1.17 4.2-.39 3.18-1.17 4.21c-.78 1.03-1.84 1.55-3.17 1.55s-2.36-.52-3.14-1.55c-.77-1.03-1.16-2.44-1.16-4.21s.39-3.18 1.16-4.21 1.82-1.54 3.14-1.54Zm.02 1.95c-.61 0-1.1.34-1.45 1.01s-.53 1.6-.53 2.78.18 2.13.53 2.81.84 1.01 1.46 1.01 1.11-.34 1.46-1.01.53-1.61.53-2.81-.18-2.11-.53-2.78-.84-1.01-1.46-1.01ZM58.98 117.68h1.41c.39 0 .67.07.84.22s.26.38.26.71-.08.56-.25.7-.45.22-.85.22h-5.12c-.4 0-.68-.07-.85-.22s-.25-.38-.25-.7.09-.57.26-.71.45-.22.85-.22h1.61v-7.32l-.97.25c-.15.03-.27.06-.37.08s-.17.03-.22.03c-.24 0-.42-.08-.55-.23s-.2-.36-.2-.64c0-.2.07-.37.22-.51s.37-.25.67-.32l2.15-.59c.18-.05.33-.08.44-.1s.21-.03.29-.03c.23 0 .4.06.49.19s.15.34.15.64v8.56Z"/></svg>