<?xml version="1.0" encoding="utf-8"?>
<!-- Generator: Adobe Illustrator 26.5.0, SVG Export Plug-In . SVG Version: 6.00 Build 0)  -->
<svg version="1.1" id="Layer_1" xmlns="http://www.w3.org/2000/svg" xmlns:xlink="http://www.w3.org/1999/xlink" x="0px" y="0px"
	 viewBox="0 0 151.3 151.3" style="enable-background:new 0 0 151.3 151.3;" xml:space="preserve">
<style type="text/css">
	.st0{fill:#FFFFFF;}
</style>
<path id="Ellipse_254-3" class="st0" d="M25.4,83C18,83,12.1,77,12.1,69.7S18,56.5,25.4,56.5s13.2,5.9,13.2,13.2S32.7,83,25.4,83z
	 M25.4,58c-6.5,0-11.8,5.3-11.8,11.8s5.3,11.8,11.8,11.8s11.7-5.3,11.7-11.8S31.8,58,25.4,58z"/>
<path id="Pfad_2222-3" class="st0" d="M34.3,108.4H1.1l4-18.7c1.9-3.3,5.5-5.4,9.4-5.4h21.8c1,0,2,0.2,3,0.4l-0.4,1.4
	c-0.8-0.2-1.7-0.4-2.6-0.4H14.4c-3.3,0-6.3,1.7-8,4.6l-3.5,16.5h31.4L34.3,108.4L34.3,108.4z"/>
<path id="Ellipse_254-3-2" class="st0" d="M125.9,83c-7.3,0-13.2-5.9-13.2-13.2s5.9-13.2,13.2-13.2s13.2,5.9,13.2,13.2
	S133.2,83,125.9,83z M125.9,58c-6.5,0-11.8,5.3-11.8,11.8s5.3,11.8,11.8,11.8c6.5,0,11.8-5.3,11.8-11.8S132.4,58,125.9,58z"/>
<path id="Pfad_2222-3-2" class="st0" d="M150.2,108.4h-33.6v-1.5h31.8l-3.5-16.5c-1.7-2.8-4.7-4.5-8-4.6H115c-1,0-2,0.2-2.9,0.5
	l-0.5-1.4c1.1-0.4,2.2-0.5,3.4-0.5h21.8c3.9,0,7.4,2.1,9.4,5.4l0.1,0.2L150.2,108.4L150.2,108.4z"/>
<circle id="Ellipse_254-3-3" class="st0" cx="75.5" cy="49.6" r="19.5"/>
<path id="Pfad_2222-3-3" class="st0" d="M111.9,108.9l-5.8-27.4c-2.8-4.8-8-7.8-13.6-7.8H58.4c-5.6,0-10.8,3-13.6,7.8L39,108.9
	H111.9z"/>
</svg>
