<svg id="Layer_1" data-name="Layer 1" xmlns="http://www.w3.org/2000/svg" viewBox="0 0 151.26 151.26"><defs><style>.cls-1{fill:#00617c}</style></defs><path class="cls-1" d="M124.56 108.86c-8.5 0-19.3-2.72-30.42-7.67l.61-1.37c10.93 4.86 21.52 7.54 29.81 7.54 7.51 0 12.69-2.14 14.98-6.18 2.96-5.22.83-12.77-6-21.26-6.52-8.11-16.64-16.27-28.49-22.98-3.56-2.02-7.25-3.88-10.98-5.53l.61-1.37c3.77 1.67 7.51 3.55 11.11 5.6 12.01 6.8 22.28 15.09 28.92 23.34 7.24 9 9.42 17.15 6.14 22.94-2.57 4.54-8.21 6.94-16.29 6.94Z" id="Path_3307" data-name="Path 3307"/><path class="cls-1" d="m94.75 101.2-.61-1.37c3.67-1.63 7.34-3.49 10.91-5.51 11.84-6.71 21.96-14.87 28.49-22.98 6.83-8.49 8.96-16.04 6-21.26-2.29-4.04-7.47-6.18-14.98-6.18-8.3 0-18.91 2.69-29.87 7.57l-.61-1.37c11.15-4.97 21.97-7.7 30.48-7.7s13.72 2.4 16.29 6.94c3.29 5.8 1.11 13.94-6.14 22.94-6.64 8.25-16.91 16.54-28.92 23.34-3.61 2.05-7.32 3.92-11.04 5.57Z" id="Path_3308" data-name="Path 3308"/><path class="cls-1" d="M94.47 128.95c-2.92-.08-5.71-1.17-7.9-3.08l.99-1.13a11 11 0 0 0 6.93 2.71c12.03 0 21.46-22.76 21.46-51.82s-9.44-51.82-21.48-51.82c-2.57.06-5.07 1.02-7.03 2.71l-.98-1.14c2.22-1.91 5.06-3.01 7.99-3.08 12.9 0 23 23.42 23 53.32s-10.09 53.32-22.98 53.32Z" id="Path_3309" data-name="Path 3309"/><path class="cls-1" d="M57.36 128.95H32.18c-.5 0-.99-.11-1.44-.32a37.93 37.93 0 0 1-18.32-18.38c-4.25-9.18-4.68-19.46-1.19-28.96 3.43-9.35 10.24-16.83 19.2-21.12V25.7c0-1.87 1.52-3.39 3.39-3.39h23.54v1.5H33.82c-1.04 0-1.89.85-1.89 1.89v35.42l-.43.2C22.69 65.4 15.99 72.68 12.64 81.8c-3.35 9.12-2.94 19 1.15 27.81a36.47 36.47 0 0 0 17.59 17.66c.25.12.53.18.8.18h25.18v1.5Z" id="Path_3313" data-name="Path 3313"/><path class="cls-1" d="M85 121.55c.09-.13.2-.25.29-.38 1.9-2.81 3-6.2 3-9.84l-.09-71.46c-.03-9.68-7.92-17.56-17.62-17.57-9.69.03-17.57 7.93-17.57 17.62l.1 71.46c.01 4.74 1.92 9.04 5 12.21.06.06.12.14.18.2.05.05.11.1.17.15 2.77 2.7 6.41 4.5 10.46 4.91.59.06 1.2.09 1.81.09 5.46 0 10.34-2.51 13.56-6.43.26-.31.49-.64.72-.97ZM70.59 23.8c8.85 0 16.08 7.22 16.1 16.07l.04 33.98H54.55l-.05-33.93c0-8.86 7.21-16.09 16.09-16.11ZM94.46 65.42h-.81l.03 19.68.04.76h.76c5.52-.07 10.05-4.6 10.11-10.12.06-5.63-4.48-10.26-10.12-10.32ZM49.78 119.32c-1.42-1.72-2.14-6.03-2.14-12.8V85.11H18.78l-.16.53c-4.18 13.6 1.95 28.25 14.57 34.82l.16.08h17.43l-1.01-1.23ZM32.51 68.47c-1.91 0-3.71.74-5.06 2.09a7.12 7.12 0 0 0-2.1 5.06c0 1.91.74 3.71 2.09 5.06a7.12 7.12 0 0 0 5.06 2.1c1.91 0 3.71-.75 5.06-2.1a7.12 7.12 0 0 0 2.1-5.06c0-3.94-3.21-7.16-7.16-7.16Z"/><circle class="cls-1" cx="40.49" cy="61.25" r="4.32"/></svg>