<?xml version="1.0" encoding="utf-8"?>
<!-- Generator: Adobe Illustrator 27.1.1, SVG Export Plug-In . SVG Version: 6.00 Build 0)  -->
<svg version="1.1" id="Ebene_1" xmlns="http://www.w3.org/2000/svg" xmlns:xlink="http://www.w3.org/1999/xlink" x="0px" y="0px"
	 viewBox="0 0 137.4 137.4" style="enable-background:new 0 0 137.4 137.4;" xml:space="preserve">
<style type="text/css">
	.st0{fill:#00617C;}
	.st1{fill:none;}
	.st2{fill:#FFFFFF;}
	.st3{fill:none;stroke:#00617C;stroke-width:2;stroke-miterlimit:10;}
	.st4{fill:#00617C;stroke:#00617C;stroke-width:2;stroke-miterlimit:10;}
</style>
<path id="Pfad_2214" class="st0" d="M4.6,67.6c0.1-0.2,0.2-0.5,0.4-0.7C4.8,67.2,4.7,67.4,4.6,67.6z M4.4,68.7c0,0.2,0,0.5,0.1,0.7
	C4.4,69.1,4.4,68.9,4.4,68.7z M4.4,68.7c0,0.2,0,0.5,0.1,0.7C4.4,69.1,4.4,68.9,4.4,68.7z M4.4,68.7c0,0.2,0,0.5,0.1,0.7
	C4.4,69.1,4.4,68.9,4.4,68.7z M127.1,25.5H10.3c-5.1,0-9.3,4.1-9.3,9.3v67.9c0,5.1,4.2,9.3,9.3,9.2h116.8c5.1,0,9.3-4.1,9.3-9.2
	V34.8C136.4,29.6,132.2,25.5,127.1,25.5z M9.7,69.2c0,0.1,0,0.2-0.1,0.3c0,0.1-0.1,0.3-0.2,0.4c-0.1,0.3-0.3,0.5-0.5,0.7
	c-0.1,0.1-0.2,0.2-0.4,0.3S8,71.2,7.8,71.2c-0.1,0-0.2,0-0.2,0.1c-0.1,0-0.2,0-0.3,0H7.2H6.9H6.8c-0.1,0-0.2,0-0.3,0
	c-0.8-0.2-1.4-0.7-1.8-1.3c-0.1-0.2-0.2-0.4-0.2-0.6c-0.1-0.2-0.1-0.4-0.1-0.7c0-0.3,0-0.5,0.1-0.8c0-0.1,0.1-0.2,0.1-0.2
	C4.7,67.5,4.8,67.2,5,67c0.1-0.1,0.1-0.1,0.2-0.2L7,66l0,0l0,0c1.5,0,2.7,1.2,2.7,2.7C9.7,68.9,9.7,69,9.7,69.2z M129.2,95.5
	c0,1.1-0.2,2.2-0.6,3.2c-0.1,0.3-0.2,0.6-0.3,0.8c-1,2.2-2.9,3.8-5.2,4.7c-0.4,0.1-0.9,0.3-1.3,0.4c-0.6,0.1-1.3,0.2-1.9,0.2H22.5
	c-0.8,0-1.6-0.1-2.3-0.3c-1.2-0.3-2.3-0.8-3.2-1.6c-0.2-0.2-0.5-0.4-0.7-0.6c-0.1-0.1-0.2-0.2-0.3-0.3c-0.2-0.2-0.4-0.4-0.6-0.7l0,0
	c-0.2-0.2-0.4-0.5-0.5-0.7l0,0c-0.2-0.2-0.3-0.5-0.5-0.8c-0.1-0.3-0.3-0.5-0.4-0.8c-0.2-0.4-0.3-0.8-0.4-1.3
	c-0.1-0.3-0.1-0.6-0.2-0.9c-0.1-0.5-0.1-0.9-0.1-1.4V41.9c0-0.5,0-1,0.1-1.4c0-0.3,0.1-0.6,0.2-0.9c0.3-1.2,0.8-2.3,1.6-3.2
	c0.2-0.2,0.4-0.5,0.6-0.7c0.1-0.1,0.2-0.2,0.3-0.3c1.7-1.7,4-2.7,6.6-2.7h97.4c5.1,0,9.3,4.1,9.3,9.3v53.5H129.2z M134.4,69.9
	L134.4,69.9c-0.4,0.4-0.8,0.7-1.2,0.8c-0.1,0-0.1,0-0.2,0c-0.1,0-0.2,0-0.2,0c-0.1,0-0.1,0-0.2,0c-0.1,0-0.1,0-0.2,0
	c-0.5-0.1-0.9-0.3-1.2-0.7c0,0,0-0.1-0.1-0.1c-0.2-0.3-0.4-0.8-0.4-1.2s0.1-0.8,0.3-1.1c0,0,0,0,0-0.1l0.1-0.1
	c0.1-0.1,0.1-0.1,0.1-0.2c0.4-0.3,0.8-0.6,1.4-0.6l0,0c0.1,0,0.1,0,0.2,0s0.1,0,0.2,0c0.5,0.1,1,0.4,1.3,0.8c0,0,0,0,0,0.1
	c0.2,0.3,0.3,0.7,0.3,1.1C134.8,69.1,134.7,69.5,134.4,69.9z M4.4,68.7c0,0.2,0,0.5,0.1,0.7C4.4,69.1,4.4,68.9,4.4,68.7z M4.4,68.7
	c0,0.2,0,0.5,0.1,0.7C4.4,69.1,4.4,68.9,4.4,68.7z"/>
<path class="st1" d="M123.2,104.2c-0.4,0.1-0.9,0.3-1.3,0.4c-0.6,0.1-1.3,0.2-1.9,0.2H22.5c-0.8,0-1.6-0.1-2.3-0.3
	c-1.2-0.3-2.3-0.8-3.2-1.6c-0.2-0.2-0.5-0.4-0.7-0.6c-0.1-0.1-0.2-0.2-0.3-0.3c-0.2-0.2-0.4-0.4-0.6-0.7l0,0
	c-0.2-0.2-0.4-0.5-0.5-0.7l0,0c-0.2-0.2-0.3-0.5-0.5-0.8c-0.1-0.3-0.3-0.5-0.4-0.8c-0.2-0.4-0.3-0.8-0.4-1.3
	c-0.1-0.3-0.1-0.6-0.2-0.9c-0.1-0.5-0.1-0.9-0.1-1.4V41.9c0-0.5,0-1,0.1-1.4c0-0.3,0.1-0.6,0.2-0.9c0.3-1.2,0.8-2.3,1.6-3.2
	c0.2-0.2,0.4-0.5,0.6-0.7c0.1-0.1,0.2-0.2,0.3-0.3c1.7-1.7,4-2.7,6.6-2.7h97.4c5.1,0,9.3,4.1,9.3,9.3v53.5c0,1.1-0.2,2.2-0.6,3.2
	c-0.1,0.3-0.2,0.6-0.3,0.8C127.3,101.7,125.4,103.4,123.2,104.2z"/>
<path id="Pfad_3324" class="st2" d="M6.9,71.3C7,71.3,7,71.3,6.9,71.3h0.2H6.9z"/>
<path id="Pfad_2217-2" class="st3" d="M77.7,60.1C88.4,65,93,77.7,88.1,88.4C86,93,82.3,96.6,77.8,98.8c-0.2,0.1-0.4,0.1-0.6,0.1
	H60.3c-0.2,0-0.4,0-0.6-0.1c-10.7-5-15.3-17.7-10.3-28.3c2.1-4.6,5.8-8.2,10.4-10.3V40c0-0.8,0.7-1.5,1.5-1.5h14.9
	c0.8,0,1.5,0.7,1.5,1.5L77.7,60.1z"/>
<path id="Pfad_2218-2" class="st4" d="M84.5,74.6H52.9c-2.3,7.6,1.1,15.8,8.2,19.5h15.3C83.4,90.4,86.8,82.2,84.5,74.6L84.5,74.6z"
	/>
<g id="Gruppe_351-2" transform="translate(2032.024 497.212)">
	<path id="Pfad_2219-2" class="st4" d="M-1966.6-428.9c-2,0-3.7-1.6-3.7-3.7s1.6-3.7,3.7-3.7s3.7,1.6,3.7,3.7
		C-1962.9-430.6-1964.5-428.9-1966.6-428.9z"/>
</g>
<g id="Gruppe_352-2" transform="translate(2041.865 502.74)">
	<path id="Pfad_2220-2" class="st4" d="M-1968.2-432.2c-1.1,0-2-0.9-2-2s0.9-2,2-2s2,0.9,2,2S-1967.1-432.2-1968.2-432.2z"/>
</g>
<g id="Gruppe_353-2" transform="translate(2039.485 492.439)">
	<path id="Pfad_2221-2" class="st4" d="M-1967.9-431.6c-1.3,0-2.4-1.1-2.4-2.4s1.1-2.4,2.4-2.4s2.4,1.1,2.4,2.4l0,0
		C-1965.5-432.6-1966.6-431.6-1967.9-431.6z"/>
</g>
<text transform="matrix(1 0 0 1 340.6807 0.7965)" style="font-family:'MyriadPro-Bold'; font-size:12px;">Lorem ipsum</text>
</svg>
