<svg id="Layer_1" data-name="Layer 1" xmlns="http://www.w3.org/2000/svg" viewBox="0 0 151.26 151.26"><defs><style>.cls-1{fill:#00617c}</style></defs><path class="cls-1" d="M112.49 101.64c-1.63 0-2.95 1.33-2.95 2.95s1.33 2.95 2.95 2.95 2.95-1.33 2.95-2.95-1.33-2.95-2.95-2.95ZM125.61 101.64c-1.63 0-2.95 1.33-2.95 2.95s1.33 2.95 2.95 2.95 2.95-1.33 2.95-2.95-1.33-2.95-2.95-2.95ZM24.99 58.09h101.28c6.32 0 11.44-5.12 11.44-11.44s-5.12-11.44-11.44-11.44H24.99c-6.32 0-11.44 5.12-11.44 11.44s5.12 11.44 11.44 11.44ZM125.61 41.3c2.95 0 5.35 2.4 5.35 5.35s-2.4 5.35-5.35 5.35-5.35-2.4-5.35-5.35 2.4-5.35 5.35-5.35Zm-13.12 0c2.95 0 5.35 2.4 5.35 5.35s-2.4 5.35-5.35 5.35-5.35-2.4-5.35-5.35 2.4-5.35 5.35-5.35Zm-88.3 0h60.64v10.71H24.19V41.3Z"/><path class="cls-1" d="M126.27 93.16H24.99c-6.32 0-11.44 5.12-11.44 11.44s5.12 11.44 11.44 11.44h101.28c6.32 0 11.44-5.12 11.44-11.44s-5.12-11.44-11.44-11.44Zm-41.43 16.79H24.19V99.24h60.64v10.71Zm27.66 0c-2.95 0-5.35-2.4-5.35-5.35s2.4-5.35 5.35-5.35 5.35 2.4 5.35 5.35-2.4 5.35-5.35 5.35Zm13.12 0c-2.95 0-5.35-2.4-5.35-5.35s2.4-5.35 5.35-5.35 5.35 2.4 5.35 5.35-2.4 5.35-5.35 5.35ZM26.59 43.7h55.84v5.91H26.59z"/><path class="cls-1" d="M26.59 101.64h55.84v5.91H26.59zM125.61 72.67c-1.63 0-2.95 1.33-2.95 2.95s1.33 2.95 2.95 2.95 2.95-1.33 2.95-2.95-1.33-2.95-2.95-2.95Z"/><circle class="cls-1" cx="125.61" cy="46.66" r="2.95"/><path class="cls-1" d="M126.27 64.19H24.99c-6.32 0-11.44 5.12-11.44 11.44s5.12 11.44 11.44 11.44h101.28c6.32 0 11.44-5.12 11.44-11.44s-5.12-11.44-11.44-11.44ZM84.84 80.98H24.19V70.27h60.64v10.71Zm27.66 0c-2.95 0-5.35-2.4-5.35-5.35s2.4-5.35 5.35-5.35 5.35 2.4 5.35 5.35-2.4 5.35-5.35 5.35Zm13.12 0c-2.95 0-5.35-2.4-5.35-5.35s2.4-5.35 5.35-5.35 5.35 2.4 5.35 5.35-2.4 5.35-5.35 5.35Z"/><path class="cls-1" d="M26.59 72.67h55.84v5.91H26.59z"/><circle class="cls-1" cx="112.49" cy="46.66" r="2.95"/><path class="cls-1" d="M112.49 72.67c-1.63 0-2.95 1.33-2.95 2.95s1.33 2.95 2.95 2.95 2.95-1.33 2.95-2.95-1.33-2.95-2.95-2.95Z"/></svg>