<?xml version="1.0" encoding="UTF-8"?>
<svg id="Ebene_2" data-name="Ebene 2" xmlns="http://www.w3.org/2000/svg" viewBox="0 0 63.49 46.58">
  <defs>
    <style>
      .cls-1 {
        fill: #00617c;
      }
    </style>
  </defs>
  <g id="Ebene_1-2" data-name="Ebene 1">
    <path class="cls-1" d="M27.06,38.15H2.6c-1.43,0-2.6-1.17-2.6-2.6V7.39c0-1.43,1.17-2.6,2.6-2.6h22.98v.75H2.6c-1.02,0-1.85.83-1.85,1.85v28.16c0,1.02.83,1.85,1.85,1.85h24.46v.75Z"/>
    <path class="cls-1" d="M55.22,38.15h-17.79v-.75h17.79c1.02,0,1.85-.83,1.85-1.85V7.39c0-1.02-.83-1.85-1.85-1.85h-20.75v-.75h20.75c1.43,0,2.6,1.17,2.6,2.6v7.78h3.07c1.43,0,2.6,1.17,2.6,2.6v7.41c0,1.43-1.17,2.6-2.6,2.6h-3.07v7.78c0,1.43-1.17,2.6-2.6,2.6ZM57.82,27.03h3.07c1.02,0,1.85-.83,1.85-1.85v-7.41c0-1.02-.83-1.85-1.85-1.85h-3.07v11.11Z"/>
    <path class="cls-1" d="M20.02,27.4h10.01v19.18l10.76-25.1h-9.28V0l-11.49,27.4h0Z"/>
  </g>
</svg>