<svg id="Layer_1" data-name="Layer 1" xmlns="http://www.w3.org/2000/svg" viewBox="0 0 151.26 151.26"><defs><style>.cls-1{fill:#00617c}</style></defs><path class="cls-1" transform="rotate(-72 41.926 69.996)" d="M41.18 61.12h1.5v17.75h-1.5z" id="Line_99" data-name="Line 99"/><path class="cls-1" transform="rotate(-54.01 54.857 109.552)" d="M45.88 108.8h17.94v1.5H45.88z" id="Line_100" data-name="Line 100"/><path class="cls-1" transform="rotate(-36 96.409 109.55)" d="M95.66 100.58h1.5v17.94h-1.5z" id="Line_101" data-name="Line 101"/><path class="cls-1" transform="rotate(-17.99 109.44 69.938)" d="M100.76 69.2h17.44v1.5h-17.44z" id="Line_102" data-name="Line 102"/><path class="cls-1" d="M74.88 36.59h1.5v17.8h-1.5z" id="Line_103" data-name="Line 103"/><path class="cls-1" d="M75.63 108.25c-15.05 0-27.3-12.25-27.3-27.3s12.25-27.3 27.3-27.3 27.3 12.25 27.3 27.3-12.25 27.3-27.3 27.3Zm0-53.11c-14.23 0-25.8 11.58-25.8 25.8s11.58 25.8 25.8 25.8 25.8-11.58 25.8-25.8-11.58-25.8-25.8-25.8Z" id="Ellipse_285" data-name="Ellipse 285"/><circle id="Ellipse_293" data-name="Ellipse 293" class="cls-1" cx="75.63" cy="80.95" r="21.34"/><path class="cls-1" d="M75.63 37.39c-6.71 0-12.16-5.46-12.16-12.16s5.46-12.16 12.16-12.16 12.16 5.46 12.16 12.16-5.46 12.16-12.16 12.16Zm0-22.82c-5.88 0-10.66 4.78-10.66 10.66s4.78 10.66 10.66 10.66 10.66-4.78 10.66-10.66-4.78-10.66-10.66-10.66Z" id="Ellipse_286" data-name="Ellipse 286"/><path class="cls-1" d="M128.62 75.89c-6.71 0-12.16-5.46-12.16-12.16s5.46-12.16 12.16-12.16 12.16 5.46 12.16 12.16-5.46 12.16-12.16 12.16Zm0-22.82c-5.88 0-10.66 4.78-10.66 10.66s4.78 10.66 10.66 10.66 10.66-4.78 10.66-10.66-4.78-10.66-10.66-10.66Z" id="Ellipse_287" data-name="Ellipse 287"/><path class="cls-1" d="M108.38 138.19c-6.71 0-12.16-5.46-12.16-12.16s5.46-12.16 12.16-12.16 12.16 5.46 12.16 12.16-5.46 12.16-12.16 12.16Zm0-22.82c-5.88 0-10.66 4.78-10.66 10.66s4.78 10.66 10.66 10.66 10.66-4.78 10.66-10.66-4.78-10.66-10.66-10.66Z" id="Ellipse_288" data-name="Ellipse 288"/><path class="cls-1" d="M42.88 138.19c-6.71 0-12.16-5.46-12.16-12.16s5.46-12.16 12.16-12.16 12.16 5.46 12.16 12.16-5.46 12.16-12.16 12.16Zm0-22.82c-5.88 0-10.66 4.78-10.66 10.66s4.78 10.66 10.66 10.66 10.66-4.78 10.66-10.66-4.78-10.66-10.66-10.66Z" id="Ellipse_289" data-name="Ellipse 289"/><path class="cls-1" d="M22.64 75.89c-6.71 0-12.16-5.46-12.16-12.16s5.46-12.16 12.16-12.16S34.8 57.03 34.8 63.73s-5.46 12.16-12.16 12.16Zm0-22.82c-5.88 0-10.66 4.78-10.66 10.66s4.78 10.66 10.66 10.66S33.3 69.61 33.3 63.73s-4.78-10.66-10.66-10.66Z" id="Ellipse_290" data-name="Ellipse 290"/><circle id="Ellipse_294" data-name="Ellipse 294" class="cls-1" cx="22.64" cy="63.73" r="7.2"/><circle id="Ellipse_295" data-name="Ellipse 295" class="cls-1" cx="128.62" cy="63.73" r="7.2"/><circle id="Ellipse_296" data-name="Ellipse 296" class="cls-1" cx="108.38" cy="126.03" r="7.2"/><circle id="Ellipse_297" data-name="Ellipse 297" class="cls-1" cx="42.88" cy="126.03" r="7.2"/><circle id="Ellipse_298" data-name="Ellipse 298" class="cls-1" cx="75.63" cy="25.23" r="7.2"/></svg>