<svg id="Layer_1" data-name="Layer 1" xmlns="http://www.w3.org/2000/svg" viewBox="0 0 151.26 151.26"><defs><style>.cls-1{fill:#00617c}</style></defs><circle class="cls-1" cx="74.63" cy="40.89" r="15.9" id="Ellipse_254-3" data-name="Ellipse 254-3"/><path class="cls-1" d="M28.18 107.74c-5.53 0-10.02-4.5-10.02-10.02s4.5-10.02 10.02-10.02S38.2 92.2 38.2 97.72s-4.5 10.02-10.02 10.02Zm0-18.54c-4.7 0-8.52 3.82-8.52 8.52s3.82 8.52 8.52 8.52 8.52-3.82 8.52-8.52-3.82-8.52-8.52-8.52Z" id="Ellipse_254-3-2" data-name="Ellipse 254-3"/><path class="cls-1" d="M46.43 126.64H9.93l3.05-14.14a8.218 8.218 0 0 1 7.1-4.1h16.19a8.24 8.24 0 0 1 7.1 4.1l.08.22 2.97 13.92Zm-34.65-1.5h32.8l-2.56-11.99a6.726 6.726 0 0 0-5.75-3.25H20.09c-2.35 0-4.54 1.24-5.75 3.25l-2.56 11.99Z" id="Pfad_2222-3" data-name="Pfad 2222-3"/><path class="cls-1" d="M74.63 84.64c3.97 0 7.52 1.78 9.92 4.57h19.8l-4.76-22.32c-1.23-4.09-6.5-6.39-11.07-6.39H60.76c-4.57 0-9.7 1.97-11.07 6.39l-4.76 22.32h19.79c2.4-2.79 5.95-4.57 9.92-4.57Z"/><path class="cls-1" d="M74.63 107.74c-5.53 0-10.02-4.5-10.02-10.02s4.5-10.02 10.02-10.02 10.02 4.5 10.02 10.02-4.5 10.02-10.02 10.02Zm0-18.54c-4.7 0-8.52 3.82-8.52 8.52s3.82 8.52 8.52 8.52 8.52-3.82 8.52-8.52-3.82-8.52-8.52-8.52Z" id="Ellipse_254-3-3" data-name="Ellipse 254-3"/><path class="cls-1" d="M92.88 126.64h-36.5l3.05-14.14a8.218 8.218 0 0 1 7.1-4.1h16.19a8.24 8.24 0 0 1 7.1 4.1l.08.22 2.97 13.92Zm-34.65-1.5h32.8l-2.56-11.99a6.726 6.726 0 0 0-5.75-3.25H66.53c-2.35 0-4.54 1.24-5.75 3.25l-2.56 11.99Z" id="Pfad_2222-3-2" data-name="Pfad 2222-3"/><path class="cls-1" d="M121.08 107.74c-5.52 0-10.02-4.5-10.02-10.02s4.5-10.02 10.02-10.02 10.02 4.5 10.02 10.02-4.5 10.02-10.02 10.02Zm0-18.54c-4.7 0-8.52 3.82-8.52 8.52s3.82 8.52 8.52 8.52 8.52-3.82 8.52-8.52-3.82-8.52-8.52-8.52Z" id="Ellipse_254-3-4" data-name="Ellipse 254-3"/><path class="cls-1" d="M139.33 126.64h-36.5l3.05-14.14a8.218 8.218 0 0 1 7.1-4.1h16.19a8.24 8.24 0 0 1 7.1 4.1l.08.22 2.97 13.92Zm-34.65-1.5h32.8l-2.56-11.99a6.726 6.726 0 0 0-5.75-3.25h-16.19c-2.35 0-4.54 1.24-5.75 3.25l-2.56 11.99Z" id="Pfad_2222-3-3" data-name="Pfad 2222-3"/></svg>