<?xml version="1.0" encoding="utf-8"?>
<!-- Generator: Adobe Illustrator 27.1.1, SVG Export Plug-In . SVG Version: 6.00 Build 0)  -->
<svg version="1.1" id="Ebene_1" xmlns="http://www.w3.org/2000/svg" xmlns:xlink="http://www.w3.org/1999/xlink" x="0px" y="0px"
	 viewBox="0 0 137.4 88.4" style="enable-background:new 0 0 137.4 88.4;" xml:space="preserve">
<style type="text/css">
	.st0{fill:#00617C;}
	.st1{fill:none;}
	.st2{fill:#FFFFFF;}
	.st3{fill:none;stroke:#00617C;stroke-width:2;stroke-miterlimit:10;}
	.st4{fill:#00617C;stroke:#00617C;stroke-width:2;stroke-miterlimit:10;}
</style>
<path id="Pfad_2214" class="st0" d="M4.6,43.1c0.1-0.2,0.2-0.5,0.4-0.7C4.8,42.7,4.7,42.9,4.6,43.1z M4.4,44.2c0,0.2,0,0.5,0.1,0.7
	C4.4,44.6,4.4,44.4,4.4,44.2z M4.4,44.2c0,0.2,0,0.5,0.1,0.7C4.4,44.6,4.4,44.4,4.4,44.2z M4.4,44.2c0,0.2,0,0.5,0.1,0.7
	C4.4,44.6,4.4,44.4,4.4,44.2z M127.1,1H10.3C5.2,1,1,5.1,1,10.3v67.9c0,5.1,4.2,9.3,9.3,9.2h116.8c5.1,0,9.3-4.1,9.3-9.2V10.3
	C136.4,5.1,132.2,1,127.1,1z M9.7,44.7c0,0.1,0,0.2-0.1,0.3c0,0.1-0.1,0.3-0.2,0.4c-0.1,0.3-0.3,0.5-0.5,0.7
	c-0.1,0.1-0.2,0.2-0.4,0.3c-0.2,0.1-0.5,0.3-0.7,0.3c-0.1,0-0.2,0-0.2,0.1c-0.1,0-0.2,0-0.3,0c0,0-0.1,0-0.1,0H6.9c0,0-0.1,0-0.1,0
	c-0.1,0-0.2,0-0.3,0c-0.8-0.2-1.4-0.7-1.8-1.3c-0.1-0.2-0.2-0.4-0.2-0.6c-0.1-0.2-0.1-0.4-0.1-0.7c0-0.3,0-0.5,0.1-0.8
	c0-0.1,0.1-0.2,0.1-0.2c0.1-0.2,0.2-0.5,0.4-0.7c0.1-0.1,0.1-0.1,0.2-0.2L7,41.5c0,0,0,0,0,0s0,0,0,0c1.5,0,2.7,1.2,2.7,2.7
	C9.7,44.4,9.7,44.5,9.7,44.7z M129.2,71c0,1.1-0.2,2.2-0.6,3.2c-0.1,0.3-0.2,0.6-0.3,0.8c-1,2.2-2.9,3.8-5.2,4.7
	c-0.4,0.1-0.9,0.3-1.3,0.4c-0.6,0.1-1.3,0.2-1.9,0.2H22.5c-0.8,0-1.6-0.1-2.3-0.3c-1.2-0.3-2.3-0.8-3.2-1.6
	c-0.2-0.2-0.5-0.4-0.7-0.6c-0.1-0.1-0.2-0.2-0.3-0.3c-0.2-0.2-0.4-0.4-0.6-0.7c0,0,0,0,0,0c-0.2-0.2-0.4-0.5-0.5-0.7c0,0,0,0,0,0
	c-0.2-0.2-0.3-0.5-0.5-0.8c-0.1-0.3-0.3-0.5-0.4-0.8c-0.2-0.4-0.3-0.8-0.4-1.3c-0.1-0.3-0.1-0.6-0.2-0.9c-0.1-0.5-0.1-0.9-0.1-1.4
	V17.4c0-0.5,0-1,0.1-1.4c0-0.3,0.1-0.6,0.2-0.9c0.3-1.2,0.8-2.3,1.6-3.2c0.2-0.2,0.4-0.5,0.6-0.7c0.1-0.1,0.2-0.2,0.3-0.3
	c1.7-1.7,4-2.7,6.6-2.7h97.4c5.1,0,9.3,4.1,9.3,9.3V71z M134.4,45.4C134.4,45.4,134.4,45.4,134.4,45.4c-0.4,0.4-0.8,0.7-1.2,0.8
	c-0.1,0-0.1,0-0.2,0c-0.1,0-0.2,0-0.2,0c-0.1,0-0.1,0-0.2,0c-0.1,0-0.1,0-0.2,0c-0.5-0.1-0.9-0.3-1.2-0.7c0,0,0-0.1-0.1-0.1
	c-0.2-0.3-0.4-0.8-0.4-1.2c0-0.4,0.1-0.8,0.3-1.1c0,0,0,0,0-0.1c0,0,0.1-0.1,0.1-0.1c0.1-0.1,0.1-0.1,0.1-0.2
	c0.4-0.3,0.8-0.6,1.4-0.6h0c0.1,0,0.1,0,0.2,0s0.1,0,0.2,0c0.5,0.1,1,0.4,1.3,0.8c0,0,0,0,0,0.1c0.2,0.3,0.3,0.7,0.3,1.1
	C134.8,44.6,134.7,45,134.4,45.4z M4.4,44.2c0,0.2,0,0.5,0.1,0.7C4.4,44.6,4.4,44.4,4.4,44.2z M4.4,44.2c0,0.2,0,0.5,0.1,0.7
	C4.4,44.6,4.4,44.4,4.4,44.2z"/>
<path class="st1" d="M123.2,79.7c-0.4,0.1-0.9,0.3-1.3,0.4c-0.6,0.1-1.3,0.2-1.9,0.2H22.5c-0.8,0-1.6-0.1-2.3-0.3
	c-1.2-0.3-2.3-0.8-3.2-1.6c-0.2-0.2-0.5-0.4-0.7-0.6c-0.1-0.1-0.2-0.2-0.3-0.3c-0.2-0.2-0.4-0.4-0.6-0.7c0,0,0,0,0,0
	c-0.2-0.2-0.4-0.5-0.5-0.7c0,0,0,0,0,0c-0.2-0.2-0.3-0.5-0.5-0.8c-0.1-0.3-0.3-0.5-0.4-0.8c-0.2-0.4-0.3-0.8-0.4-1.3
	c-0.1-0.3-0.1-0.6-0.2-0.9c-0.1-0.5-0.1-0.9-0.1-1.4V17.4c0-0.5,0-1,0.1-1.4c0-0.3,0.1-0.6,0.2-0.9c0.3-1.2,0.8-2.3,1.6-3.2
	c0.2-0.2,0.4-0.5,0.6-0.7c0.1-0.1,0.2-0.2,0.3-0.3c1.7-1.7,4-2.7,6.6-2.7h97.4c5.1,0,9.3,4.1,9.3,9.3V71c0,1.1-0.2,2.2-0.6,3.2
	c-0.1,0.3-0.2,0.6-0.3,0.8C127.3,77.2,125.4,78.9,123.2,79.7z"/>
<path id="Pfad_3324" class="st2" d="M6.9,46.8c0.1,0,0.1,0,0.1,0s0.1,0,0.1,0H6.9z"/>
<path id="Pfad_2217-2" class="st3" d="M77.7,35.6C88.4,40.5,93,53.2,88.1,63.9c-2.1,4.6-5.8,8.2-10.3,10.4c-0.2,0.1-0.4,0.1-0.6,0.1
	H60.3c-0.2,0-0.4,0-0.6-0.1c-10.7-5-15.3-17.7-10.3-28.3c2.1-4.6,5.8-8.2,10.4-10.3V15.5c0-0.8,0.7-1.5,1.5-1.5h14.9
	c0.8,0,1.5,0.7,1.5,1.5L77.7,35.6z"/>
<path id="Pfad_2218-2" class="st4" d="M84.5,50.1H52.9c-2.3,7.6,1.1,15.8,8.2,19.5h15.3C83.4,65.9,86.8,57.7,84.5,50.1L84.5,50.1z"
	/>
<g id="Gruppe_351-2" transform="translate(2032.024 497.212)">
	<path id="Pfad_2219-2" class="st4" d="M-1966.6-453.4c-2,0-3.7-1.6-3.7-3.7s1.6-3.7,3.7-3.7s3.7,1.6,3.7,3.7
		C-1962.9-455.1-1964.5-453.4-1966.6-453.4z"/>
</g>
<g id="Gruppe_352-2" transform="translate(2041.865 502.74)">
	<path id="Pfad_2220-2" class="st4" d="M-1968.2-456.7c-1.1,0-2-0.9-2-2c0-1.1,0.9-2,2-2c1.1,0,2,0.9,2,2
		C-1966.2-457.6-1967.1-456.7-1968.2-456.7z"/>
</g>
<g id="Gruppe_353-2" transform="translate(2039.485 492.439)">
	<path id="Pfad_2221-2" class="st4" d="M-1967.9-456.1c-1.3,0-2.4-1.1-2.4-2.4s1.1-2.4,2.4-2.4c1.3,0,2.4,1.1,2.4,2.4l0,0
		C-1965.5-457.1-1966.6-456.1-1967.9-456.1z"/>
</g>
<text transform="matrix(1 0 0 1 340.6807 -23.7012)" style="font-family:'MyriadPro-Regular'; font-size:12px;">Lorem ipsum</text>
</svg>
