<svg xmlns="http://www.w3.org/2000/svg" viewBox="0 0 57.36 66.33"><defs><style>.cls-1{fill:none;}.cls-2{fill:#009cbc;}.cls-3{fill:#1d1d1b;}</style></defs><g id="Ebene_2" data-name="Ebene 2"><g id="Ebene_1-2" data-name="Ebene 1"><line class="cls-1" x1="14.11" y1="58.37" x2="14.57" y2="57.7"/><polygon class="cls-2" points="28.68 48.68 42.1 40.93 42.1 25.44 28.68 17.69 15.26 25.44 15.26 40.93 28.68 48.68"/><path class="cls-3" d="M28.68,14.91V0L0,16.56V49.74l9.51,5.5c0,.11,0,.23,0,.35a3,3,0,0,0,3,3,3,3,0,0,0,3-3,3,3,0,0,0-3-3,2.94,2.94,0,0,0-1.79.6l-8.31-4.8V18L26.27,4.17V16.3Z"/><path class="cls-3" d="M57.36,16.58l-9.5-5.49c0-.12,0-.23,0-.35A3,3,0,0,0,42.71,8.6a3,3,0,0,0,0,4.28,3,3,0,0,0,3.94.29L55,18V48.38L31.09,62.15V50l-2.41,1.39V66.33L57.36,49.77Z"/></g></g></svg>