<svg id="Layer_1" data-name="Layer 1" xmlns="http://www.w3.org/2000/svg" viewBox="0 0 151.26 151.26"><defs><style>.cls-1{fill:#00617c}</style></defs><path class="cls-1" d="M133.2 96.33h-1.5V83.11H76.37v13.22h-1.5V83.11H19.55v13.22h-1.5V81.61h56.82V68.17h1.5v13.44h56.83v14.72z" id="Pfad_2186" data-name="Pfad 2186"/><path class="cls-1" d="m80.3 69.05-2.39-3.47h-4.6l-2.39 3.47-7.03-2.28.12-4.21-3.72-2.7-3.98 1.41-4.34-5.98 2.57-3.34-1.41-4.38-4.04-1.19v-7.4l4.04-1.19 1.41-4.38-2.57-3.33 4.34-5.98 3.98 1.42 3.72-2.71-.12-4.22 7.03-2.28 2.39 3.48h4.6l2.39-3.48 7.03 2.28-.12 4.22 3.72 2.71 3.98-1.42 4.34 5.98-2.57 3.33 1.41 4.38 4.06 1.19v7.4l-4.06 1.19-1.41 4.38 2.57 3.34-4.34 5.98-3.98-1.41-3.72 2.7.12 4.21-7.03 2.28Zm-14.87-3.36 4.89 1.59 2.2-3.2h6.17l2.2 3.2 4.9-1.59-.11-3.88 4.99-3.63 3.67 1.3 3.02-4.17L95 52.23l1.9-5.89 3.74-1.09V40.1l-3.74-1.09-1.9-5.89 2.36-3.07-3.02-4.17-3.67 1.3-4.99-3.63.11-3.89-4.9-1.59-2.2 3.21h-6.17l-2.2-3.21-4.89 1.59.11 3.89-4.99 3.63-3.67-1.3-3.02 4.17 2.36 3.07-1.9 5.89-3.73 1.09v5.15l3.73 1.09 1.9 5.89-2.36 3.08 3.03 4.17 3.67-1.3 4.99 3.63-.11 3.88Z" id="Path_2412" data-name="Path 2412"/><circle id="Ellipse_254" data-name="Ellipse 254" class="cls-1" cx="18.81" cy="108.45" r="8.43"/><path id="Pfad_2222" data-name="Pfad 2222" class="cls-1" d="m34.55 134.06-2.52-11.83a6.774 6.774 0 0 0-5.87-3.39H11.45c-2.42 0-4.66 1.29-5.87 3.39l-2.52 11.83h31.49Z"/><circle id="Ellipse_254-2" data-name="Ellipse 254-2" class="cls-1" cx="132.45" cy="108.45" r="8.43"/><path id="Pfad_2222-2" data-name="Pfad 2222-2" class="cls-1" d="m148.2 134.06-2.52-11.83a6.774 6.774 0 0 0-5.87-3.39H125.1c-2.42 0-4.66 1.29-5.87 3.39l-2.52 11.83h31.5Z"/><circle id="Ellipse_254-3" data-name="Ellipse 254-3" class="cls-1" cx="75.63" cy="108.45" r="8.43"/><path id="Pfad_2222-3" data-name="Pfad 2222-3" class="cls-1" d="m91.38 134.06-2.52-11.83a6.774 6.774 0 0 0-5.87-3.39H68.28c-2.42 0-4.66 1.29-5.87 3.39l-2.52 11.83h31.5Z"/><path class="cls-1" d="M75.62 55.16c-6.88 0-12.48-5.6-12.48-12.48s5.6-12.48 12.48-12.48S88.1 35.8 88.1 42.68s-5.6 12.48-12.48 12.48Zm0-23.46c-6.05 0-10.98 4.92-10.98 10.98s4.92 10.98 10.98 10.98S86.6 48.74 86.6 42.68 81.68 31.7 75.62 31.7Z"/></svg>