<?xml version="1.0" encoding="UTF-8"?>
<svg id="Ebene_2" data-name="Ebene 2" xmlns="http://www.w3.org/2000/svg" viewBox="0 0 1000 1000">
  <defs>
    <style>
      .cls-1 {
        fill: #00617c;
      }

      .cls-1, .cls-2 {
        fill-rule: evenodd;
      }

      .cls-2 {
        fill: none;
        stroke: #00617c;
        stroke-miterlimit: 10;
        stroke-width: 11px;
      }
    </style>
  </defs>
  <path class="cls-2" d="M82.98,708.5v-417s-.62-69.5,69.5-69.5h590.75s69.5-.7,69.5,69.5v417s1.9,69.5-69.5,69.5H152.48s-69.5-3.04-69.5-69.5Z"/>
  <path class="cls-2" d="M812.73,361.7h86.87s17.38-2.66,17.38,16.67v243.25s1.67,17.37-17.38,17.37h-86.87v-277.3Z"/>
  <path class="cls-1" d="M698.65,464.16c-1.52-.57-3.13-.9-4.75-.81l-86.54-.74c-53.43-7.28-79.22-20.39-105.84-51.64-21.39-25.11-36.14-56.5-42.23-88.99l-2.25-12.02c-1.71-9.13-11.31-14.7-19.95-11.29-.06.02-.12.05-.19.07-6.18,2.52-10.36,8.12-10.83,14.56l-13.44,143.89c-3.27,57.49-10.16,76.64-69.59,77.79l-113.29-5.82c-3.7-.19-7.38-.61-11.08-.96-7.19-.68-14.21,2.82-17.62,9.1-3.53,6.59-1.01,15.33,4.39,20.68.77.77,1.71,1.35,2.68,1.84,7.58,3.8,51.49,12.66,94.26,24.31,51.57,14.04,69.17,32.81,83.38,80.72,8.79,29.61,15.15,55.19,19.02,62.98.94,1.89,2.43,3.45,4.32,4.39,4.71,2.35,10.33,2.62,15.32.59,6.19-2.52,10.36-8.12,10.83-14.56l49.94-201.05c7.66-27.03,43.3-21.38,68.76-23.38h128.59c10.21-1.1,16.8-1.36,20.7-8.53,1.16-2.14,1.8-4.43,1.97-6.74.39-5.26-.51-11.54-6.12-14.25-.17-.08-.28-.11-.44-.17Z"/>
</svg>