<svg id="Layer_1" data-name="Layer 1" xmlns="http://www.w3.org/2000/svg" viewBox="0 0 151.26 151.26"><defs><style>.cls-1{fill:#00617c}</style></defs><path id="Pfad_2218" data-name="Pfad 2218" class="cls-1" d="M107.57 87.52H43.69c-4.73 15.41 2.21 31.99 16.51 39.44h30.88c14.29-7.44 21.23-24.03 16.51-39.44Z"/><path id="Pfad_2219" data-name="Pfad 2219" class="cls-1" d="M69.05 74.86c-4.11 0-7.44-3.34-7.44-7.45s3.34-7.44 7.45-7.44 7.44 3.33 7.44 7.44-3.33 7.45-7.44 7.45Z"/><path id="Pfad_2220" data-name="Pfad 2220" class="cls-1" d="M85.66 79.44c-2.29 0-4.14-1.86-4.14-4.14s1.86-4.14 4.14-4.14c2.29 0 4.14 1.86 4.14 4.14s-1.85 4.14-4.14 4.14Z"/><path id="Pfad_2221" data-name="Pfad 2221" class="cls-1" d="M81.46 59.85a4.77 4.77 0 1 1 0-9.54 4.77 4.77 0 1 1 0 9.54Z"/><path class="cls-1" d="M94.16 137.48H57.1l-.15-.07c-15.35-7.22-25.26-22.83-25.26-39.78s9.8-32.39 25.02-39.66V17.51c0-2.06 1.68-3.74 3.74-3.74h30.37c2.06 0 3.74 1.68 3.74 3.74v40.46c15.22 7.27 25.03 22.79 25.03 39.66s-9.92 32.56-25.26 39.78l-.15.07Zm-36.72-1.5h36.39c14.74-7 24.25-22.04 24.25-38.35s-9.65-31.57-24.59-38.5l-.43-.2V17.51c0-1.23-1-2.24-2.24-2.24H60.45c-1.23 0-2.24 1-2.24 2.24v41.42l-.43.2c-14.94 6.94-24.59 22.05-24.59 38.5s9.51 31.34 24.25 38.35Z"/></svg>