<svg xmlns="http://www.w3.org/2000/svg" viewBox="0 0 331.05 74.95"><defs><style>.cls-1{fill:none;}.cls-2{fill:#009cbc;}.cls-3{fill:#1d1d1b;}</style></defs><g id="Ebene_2" data-name="Ebene 2"><g id="Ebene_1-2" data-name="Ebene 1"><line class="cls-1" x1="14.11" y1="67" x2="14.57" y2="66.33"/><polygon class="cls-2" points="28.68 57.31 42.1 49.56 42.1 34.06 28.68 26.32 15.26 34.06 15.26 49.56 28.68 57.31"/><path class="cls-3" d="M28.68,23.54V8.63L0,25.19V58.37l9.51,5.5c0,.11,0,.23,0,.34a3,3,0,0,0,3,3,3,3,0,0,0,3-3,3,3,0,0,0-4.82-2.43L2.41,57V26.58L26.27,12.8V24.93Z"/><path class="cls-3" d="M57.36,25.21l-9.5-5.5c0-.11,0-.23,0-.34a3,3,0,0,0-3-3,3,3,0,0,0-3,3,3,3,0,0,0,4.82,2.43L55,26.6V57L31.09,70.78V58.65L28.68,60V75L57.36,58.39Z"/><line class="cls-1" x1="14.11" y1="0.67" x2="14.57"/><polygon class="cls-3" points="98.41 49.14 98.26 49.14 94.83 42.22 84.8 25.13 77.88 25.13 77.88 58.45 83.85 58.45 83.85 34.44 83.99 34.44 87.43 41.36 97.45 58.45 104.37 58.45 104.37 25.13 98.41 25.13 98.41 49.14"/><polygon class="cls-3" points="112.2 58.45 118.5 58.45 118.5 44.56 131.68 44.56 131.68 38.97 118.5 38.97 118.5 30.71 133.63 30.71 133.63 25.13 112.2 25.13 112.2 58.45"/><path class="cls-3" d="M162.3,29.31a12,12,0,0,0-4.54-3.13,15.84,15.84,0,0,0-5.89-1.05H139.74V58.45h12.13a15.84,15.84,0,0,0,5.89-1.05,12.09,12.09,0,0,0,4.54-3.13,14.09,14.09,0,0,0,2.91-5.2,23.51,23.51,0,0,0,1-7.28,23.46,23.46,0,0,0-1-7.28A14,14,0,0,0,162.3,29.31Zm-2.75,15.1c0,2.87-.69,5-2.07,6.38a7.61,7.61,0,0,1-5.61,2.07h-5.82V30.71h5.82a7.62,7.62,0,0,1,5.61,2.08c1.38,1.38,2.07,3.51,2.07,6.37Z"/><polygon class="cls-3" points="186.38 30.19 186.38 25.13 171.25 25.13 171.25 30.19 175.64 30.19 175.64 53.39 171.25 53.39 171.25 58.45 186.38 58.45 186.38 53.39 181.94 53.39 181.94 30.19 186.38 30.19"/><path class="cls-2" d="M202.11,62.17V58.44h-8.55V54.88l7.57-12.14h5V55.21h2.45v3.23h-2.45v3.73Zm-5.21-7h5.21V47.05h-.28Z"/><path class="cls-3" d="M232.67,54.8a9,9,0,0,1-5.58,1.69,8.88,8.88,0,0,1-7.31-3.26q-2.62-3.25-2.62-9.43V40q0-6.23,2.62-9.58a8.75,8.75,0,0,1,7.31-3.35,9,9,0,0,1,5.37,1.59A9.73,9.73,0,0,1,235.78,33l2.33-1.38a12.43,12.43,0,0,0-4.27-5.18,11.61,11.61,0,0,0-6.75-1.88,11.39,11.39,0,0,0-9.6,4.43q-3.39,4.44-3.39,12.89t3.39,12.82q3.39,4.32,9.6,4.32A11.88,11.88,0,0,0,234,57a12.31,12.31,0,0,0,4.34-5.42L236,50.24A10,10,0,0,1,232.67,54.8Z"/><path class="cls-3" d="M255.06,33.43a7.78,7.78,0,0,0-4.68,1.27,7.58,7.58,0,0,0-2.53,3.17h-.14V23.12H245V58.45h2.72V41.26a4.81,4.81,0,0,1,2-4,6.81,6.81,0,0,1,2.12-1,9.27,9.27,0,0,1,2.48-.33A5.88,5.88,0,0,1,259,37.68c1.06,1.21,1.6,3.06,1.6,5.54V58.45h2.72V42.74c0-3-.73-5.29-2.17-6.9A7.81,7.81,0,0,0,255.06,33.43Z"/><path class="cls-3" d="M288,36.79a9.27,9.27,0,0,0-3.24-2.47,10,10,0,0,0-4.25-.89,10.53,10.53,0,0,0-4.39.89,9.51,9.51,0,0,0-3.37,2.53,11.16,11.16,0,0,0-2.14,4,17.7,17.7,0,0,0-.74,5.37,18,18,0,0,0,.74,5.39,11.09,11.09,0,0,0,2.14,4,9.22,9.22,0,0,0,3.39,2.51,11.06,11.06,0,0,0,4.42.86,10.63,10.63,0,0,0,5.94-1.61,9.57,9.57,0,0,0,3.61-4.32l-2-1.33a7.41,7.41,0,0,1-7.4,4.92A8.29,8.29,0,0,1,277.4,56a7.24,7.24,0,0,1-2.51-1.79,7.91,7.91,0,0,1-1.57-2.75,10.59,10.59,0,0,1-.55-3.51V46.8h18.09V45.51a15.57,15.57,0,0,0-.74-4.91A11.1,11.1,0,0,0,288,36.79Zm-.14,7.91H272.77v-.24a10.68,10.68,0,0,1,.55-3.51,7.86,7.86,0,0,1,1.57-2.74,7.29,7.29,0,0,1,2.46-1.79,7.72,7.72,0,0,1,3.2-.65,7.13,7.13,0,0,1,3,.62,7,7,0,0,1,2.34,1.72,7.53,7.53,0,0,1,1.51,2.7,11.24,11.24,0,0,1,.52,3.51Z"/><path class="cls-3" d="M329,35.84a7.56,7.56,0,0,0-6-2.41,8,8,0,0,0-5.13,1.51,7.45,7.45,0,0,0-2.56,3.65h-.14a7,7,0,0,0-2.91-3.91,8.61,8.61,0,0,0-4.63-1.25,8.71,8.71,0,0,0-2.65.36,6.45,6.45,0,0,0-3.32,2.39,8.24,8.24,0,0,0-1,1.69h-.15V34h-2.72V58.45h2.72V41.26A5.1,5.1,0,0,1,301,38.9a4.79,4.79,0,0,1,1.43-1.69,6.49,6.49,0,0,1,2.08-1,8.82,8.82,0,0,1,2.41-.33q6.1,0,6.11,7.35V58.45h2.72V41.31A5.09,5.09,0,0,1,316.3,39a5,5,0,0,1,1.41-1.72,6.18,6.18,0,0,1,2-1,8.77,8.77,0,0,1,2.44-.33q6.15,0,6.15,7.35V58.45h2.72V42.74Q331.05,38.25,329,35.84Z"/></g></g></svg>