<svg id="Layer_1" data-name="Layer 1" xmlns="http://www.w3.org/2000/svg" viewBox="0 0 151.26 151.26"><defs><style>.cls-1{fill:#00617c}</style></defs><path class="cls-1" d="M25.35 82.96c-7.31 0-13.25-5.94-13.25-13.25s5.94-13.25 13.25-13.25S38.6 62.4 38.6 69.71s-5.94 13.25-13.25 13.25Zm0-25c-6.48 0-11.75 5.27-11.75 11.75s5.27 11.75 11.75 11.75S37.1 76.19 37.1 69.71s-5.27-11.75-11.75-11.75Z" id="Ellipse_254-3" data-name="Ellipse 254-3"/><path class="cls-1" d="M34.34 108.45H1.06l4.02-18.67a10.83 10.83 0 0 1 9.35-5.4h21.83c1.03 0 2.04.15 3.03.44l-.42 1.44c-.85-.25-1.72-.37-2.61-.38H14.43c-3.27 0-6.33 1.74-8 4.55L2.9 106.95h31.43v1.5Z" id="Pfad_2222-3" data-name="Pfad 2222-3"/><path class="cls-1" d="M125.91 82.96c-7.31 0-13.25-5.94-13.25-13.25s5.94-13.25 13.25-13.25 13.25 5.94 13.25 13.25-5.94 13.25-13.25 13.25Zm0-25c-6.48 0-11.75 5.27-11.75 11.75s5.27 11.75 11.75 11.75 11.75-5.27 11.75-11.75-5.27-11.75-11.75-11.75Z" id="Ellipse_254-3-2" data-name="Ellipse 254-3"/><path class="cls-1" d="M150.2 108.45h-33.63v-1.5h31.78l-3.53-16.52a9.325 9.325 0 0 0-8-4.55h-21.83c-.99 0-1.97.16-2.9.47l-.47-1.42c1.09-.36 2.22-.54 3.37-.54h21.83c3.85 0 7.43 2.07 9.35 5.4l.08.22 3.94 18.45Z" id="Pfad_2222-3-2" data-name="Pfad 2222-3"/><circle class="cls-1" cx="75.46" cy="49.61" r="19.51" id="Ellipse_254-3-3" data-name="Ellipse 254-3"/><path class="cls-1" d="m111.92 108.9-5.84-27.38c-2.8-4.85-7.98-7.84-13.58-7.85H58.42c-5.6 0-10.78 2.99-13.58 7.85L39 108.9h72.92Z" id="Pfad_2222-3-3" data-name="Pfad 2222-3"/></svg>