<?xml version="1.0" encoding="utf-8"?>
<!-- Generator: Adobe Illustrator 26.5.0, SVG Export Plug-In . SVG Version: 6.00 Build 0)  -->
<svg version="1.1" id="Layer_1" xmlns="http://www.w3.org/2000/svg" xmlns:xlink="http://www.w3.org/1999/xlink" x="0px" y="0px"
	 viewBox="0 0 151.3 151.3" style="enable-background:new 0 0 151.3 151.3;" xml:space="preserve">
<style type="text/css">
	.st0{fill:#FFFFFF;}
</style>
<path class="st0" d="M112.5,101.6c-1.6,0-2.9,1.3-2.9,2.9s1.3,2.9,2.9,2.9s2.9-1.3,2.9-2.9S114.1,101.6,112.5,101.6z M125.6,101.6
	c-1.6,0-2.9,1.3-2.9,2.9s1.3,2.9,2.9,2.9s2.9-1.3,2.9-2.9S127.2,101.6,125.6,101.6z M25,58.1h101.3c6.3,0,11.4-5.1,11.4-11.4
	s-5.1-11.4-11.4-11.4H25c-6.3,0-11.4,5.1-11.4,11.4S18.7,58.1,25,58.1z M125.6,41.3c2.9,0,5.4,2.4,5.4,5.3s-2.4,5.3-5.3,5.3
	s-5.3-2.4-5.3-5.3S122.7,41.3,125.6,41.3z M112.5,41.3c2.9,0,5.3,2.4,5.3,5.3s-2.4,5.3-5.3,5.3s-5.3-2.4-5.3-5.3
	S109.5,41.3,112.5,41.3z M24.2,41.3h60.6V52H24.2C24.2,52,24.2,41.3,24.2,41.3z"/>
<path class="st0" d="M126.3,93.2H25c-6.3,0-11.4,5.1-11.4,11.4S18.7,116,25,116h101.3c6.3,0,11.4-5.1,11.4-11.4
	S132.6,93.2,126.3,93.2z M84.8,110H24.2V99.2h60.6L84.8,110L84.8,110z M112.5,110c-2.9,0-5.3-2.4-5.3-5.3s2.4-5.3,5.3-5.3
	s5.3,2.4,5.3,5.3S115.4,110,112.5,110z M125.6,110c-2.9,0-5.3-2.4-5.3-5.3s2.4-5.3,5.3-5.3c3,0,5.3,2.4,5.3,5.3S128.6,110,125.6,110
	z M26.6,43.7h55.8v5.9H26.6V43.7z"/>
<path class="st0" d="M26.6,101.6h55.8v5.9H26.6V101.6z M125.6,72.7c-1.6,0-2.9,1.3-2.9,2.9s1.3,2.9,2.9,2.9s2.9-1.3,2.9-2.9
	S127.2,72.7,125.6,72.7z"/>
<circle class="st0" cx="125.6" cy="46.7" r="2.9"/>
<path class="st0" d="M126.3,64.2H25c-6.3,0-11.4,5.1-11.4,11.4S18.7,87.1,25,87.1h101.3c6.3,0,11.4-5.1,11.4-11.4
	S132.6,64.2,126.3,64.2z M84.8,81H24.2V70.3h60.6L84.8,81L84.8,81z M112.5,81c-2.9,0-5.3-2.4-5.3-5.3s2.4-5.3,5.3-5.3
	s5.3,2.4,5.3,5.3S115.4,81,112.5,81z M125.6,81c-2.9,0-5.3-2.4-5.3-5.3s2.4-5.3,5.3-5.3c3,0,5.3,2.4,5.3,5.3S128.6,81,125.6,81z"/>
<path class="st0" d="M26.6,72.7h55.8v5.9H26.6V72.7z"/>
<circle class="st0" cx="112.5" cy="46.7" r="2.9"/>
<path class="st0" d="M112.5,72.7c-1.6,0-2.9,1.3-2.9,2.9s1.3,2.9,2.9,2.9s2.9-1.3,2.9-2.9S114.1,72.7,112.5,72.7z"/>
</svg>
