<svg id="Layer_1" data-name="Layer 1" xmlns="http://www.w3.org/2000/svg" viewBox="0 0 151.26 151.26"><defs><style>.cls-1{fill:#00617c}</style></defs><circle class="cls-1" cx="85.3" cy="44.16" r="19.43" id="Ellipse_254-3" data-name="Ellipse 254-3"/><path class="cls-1" d="m55.64 129.49-2.57-3.74h-5.02l-2.57 3.74-7.5-2.43.12-4.53-4.06-2.95-4.28 1.52-4.63-6.38 2.76-3.6-1.54-4.79-4.35-1.28v-7.89l4.35-1.28 1.54-4.79-2.76-3.59 4.63-6.38 4.28 1.52 4.06-2.96-.12-4.54 7.5-2.44 2.57 3.74h5.02l2.57-3.74 7.5 2.44-.12 4.54 4.06 2.96 4.28-1.52 4.63 6.38-2.76 3.59 1.54 4.79 4.37 1.28v7.89l-4.37 1.28-1.54 4.79 2.76 3.6-4.63 6.38-4.28-1.52-4.06 2.95.12 4.53-7.5 2.43Zm-16.13-3.51 5.37 1.74 2.38-3.46h6.6l2.38 3.46 5.37-1.74-.12-4.2 5.34-3.88 3.97 1.41 3.32-4.57-2.56-3.33 2.03-6.29 4.05-1.18V98.3l-4.05-1.18-2.03-6.29 2.56-3.32-3.31-4.57-3.97 1.41-5.34-3.89.12-4.21-5.37-1.74-2.38 3.47h-6.6l-2.38-3.47-5.37 1.74.12 4.21-5.34 3.89-3.97-1.41-3.32 4.57 2.56 3.32-2.03 6.29-4.03 1.18v5.64l4.03 1.18 2.03 6.29-2.56 3.33 3.32 4.57 3.97-1.41 5.34 3.88-.12 4.2Z" id="Path_2412" data-name="Path 2412"/><path class="cls-1" d="M63.67 71.69c1.77.58 2.95 2.25 2.9 4.11l-.06 2.17 1.12.82 2.04-.73c1.75-.63 3.71-.02 4.81 1.49l3.97 5.47a4.216 4.216 0 0 1-.07 5.03l-1.31 1.7.43 1.32 2.07.61a4.2 4.2 0 0 1 3.02 4.03v5.49h39.03l-5.82-27.27c-1.5-5-7.95-7.81-13.53-7.81H68.34c-3.02 0-6.24.71-8.83 2.22l4.16 1.35ZM50.57 114.5c-7.39 0-13.4-6.01-13.4-13.4s6.01-13.4 13.4-13.4 13.4 6.01 13.4 13.4-6.01 13.4-13.4 13.4Zm0-25.29c-6.56 0-11.9 5.34-11.9 11.9s5.34 11.9 11.9 11.9 11.9-5.34 11.9-11.9-5.34-11.9-11.9-11.9Z"/></svg>