<svg id="Layer_1" data-name="Layer 1" xmlns="http://www.w3.org/2000/svg" viewBox="0 0 151.26 151.26"><defs><style>.cls-1{fill:#00617c}</style></defs><path class="cls-1" d="M109.37 112.7c-9.48 0-21.55-3.04-33.98-8.57l.61-1.37c12.24 5.45 24.09 8.44 33.37 8.44 8.43 0 14.25-2.4 16.83-6.95 3.33-5.88.94-14.35-6.72-23.88-7.3-9.07-18.62-18.21-31.88-25.72-4.02-2.28-8.15-4.36-12.28-6.19l.61-1.37c4.18 1.85 8.35 3.95 12.42 6.25 13.42 7.6 24.89 16.86 32.31 26.08 8.08 10.03 10.51 19.11 6.85 25.56-2.86 5.05-9.13 7.71-18.14 7.71Z" id="Path_2432" data-name="Path 2432"/><path class="cls-1" d="m76 104.14-.61-1.37c4.13-1.83 8.24-3.91 12.21-6.16 13.25-7.51 24.58-16.64 31.88-25.72 7.67-9.52 10.05-18 6.72-23.88-2.58-4.55-8.4-6.95-16.83-6.95-9.3 0-21.17 3.01-33.44 8.47l-.61-1.37c12.45-5.55 24.54-8.6 34.05-8.6 9 0 15.27 2.67 18.14 7.71 3.66 6.45 1.22 15.52-6.85 25.56-7.42 9.22-18.89 18.48-32.31 26.08-4.01 2.28-8.16 4.37-12.34 6.23Z" id="Path_2433" data-name="Path 2433"/><path id="Path_2434" data-name="Path 2434" class="cls-1" d="M75.58 65.05h-.04c-5.84 0-10.57 4.75-10.57 10.6 0 5.83 4.73 10.56 10.57 10.57h.17c5.84 0 10.57-4.75 10.57-10.6 0-5.83-4.73-10.56-10.57-10.57h-.07"/><path class="cls-1" d="M75.33 104.16c-4.18-1.85-8.36-3.95-12.42-6.25-13.41-7.6-24.89-16.86-32.31-26.08-8.08-10.04-10.51-19.11-6.86-25.56 2.86-5.05 9.13-7.71 18.14-7.71 9.48 0 21.55 3.04 33.98 8.57l-.61 1.37c-12.24-5.44-24.09-8.44-33.37-8.44-8.43 0-14.25 2.4-16.83 6.95-3.33 5.87-.94 14.35 6.72 23.88 7.3 9.07 18.62 18.21 31.88 25.72 4.01 2.28 8.15 4.36 12.28 6.19l-.61 1.37Z" id="Path_2435" data-name="Path 2435"/><path class="cls-1" d="M41.89 112.7c-9 0-15.27-2.67-18.14-7.71-3.66-6.44-1.22-15.52 6.86-25.56 7.42-9.22 18.89-18.48 32.31-26.08 4.01-2.28 8.16-4.37 12.34-6.23l.61 1.37c-4.13 1.84-8.24 3.91-12.21 6.16-13.25 7.51-24.58 16.64-31.88 25.72-7.67 9.52-10.05 18-6.72 23.88 2.58 4.55 8.4 6.95 16.83 6.95 9.3 0 21.17-3.01 33.44-8.47l.61 1.37c-12.45 5.55-24.54 8.6-34.05 8.6Z" id="Path_2436" data-name="Path 2436"/><path class="cls-1" d="M75.72 135.16c-3.24-.08-6.35-1.3-8.77-3.42l.99-1.13a12.39 12.39 0 0 0 7.8 3.05c13.5 0 24.09-25.49 24.09-58.03S89.24 17.6 75.72 17.6c-2.89.07-5.71 1.15-7.91 3.05l-.98-1.14c2.47-2.13 5.62-3.34 8.87-3.42 14.38 0 25.63 26.15 25.63 59.53s-11.25 59.53-25.61 59.53Z" id="Path_2437" data-name="Path 2437"/><path class="cls-1" d="M75.56 135.16c-14.38 0-25.63-26.15-25.63-59.53S61.18 16.1 75.54 16.1c3.24.08 6.35 1.3 8.77 3.42l-.99 1.13a12.39 12.39 0 0 0-7.8-3.05c-13.5 0-24.09 25.49-24.09 58.03s10.59 58.03 24.11 58.03c2.89-.07 5.71-1.15 7.91-3.05l.98 1.14a14.146 14.146 0 0 1-8.87 3.42Z" id="Path_2438" data-name="Path 2438"/></svg>