<svg id="Layer_1" data-name="Layer 1" xmlns="http://www.w3.org/2000/svg" viewBox="0 0 151.26 151.26"><defs><style>.cls-1{fill:#00617c}</style></defs><path class="cls-1" d="M109.28 26.1H58.12c-2.73 0-4.94 2.21-4.94 4.94v42.54h18.29c4.71 0 8.54 3.83 8.54 8.54v26.02h29.27c2.73 0 4.94-2.21 4.94-4.94V31.03c0-2.73-2.21-4.94-4.94-4.94Zm-4.64 42.72c0 2.07-1.53 3.77-3.53 4.06v12.89c1.99.29 3.53 1.99 3.53 4.06a4.131 4.131 0 0 1-8.26 0c0-2.07 1.53-3.77 3.52-4.06v-4.61H85.59v4.61c2 .29 3.54 1.99 3.54 4.07 0 2.28-1.85 4.13-4.12 4.13s-4.13-1.85-4.13-4.13c0-2.07 1.52-3.76 3.51-4.06v-5.81H99.9v-7.08c-1.99-.29-3.52-1.99-3.52-4.06s1.53-3.77 3.52-4.06v-7.28a4.094 4.094 0 0 1-3.46-3.46h-7.47a4.094 4.094 0 0 1-3.46 3.46v7.28c1.99.29 3.52 1.99 3.52 4.06 0 2.28-1.85 4.13-4.12 4.13s-4.13-1.85-4.13-4.13c0-2.07 1.53-3.77 3.53-4.06v-7.28a4.094 4.094 0 0 1-3.46-3.46h-8.64c-.29 1.99-1.99 3.53-4.06 3.53a4.131 4.131 0 0 1 0-8.26c2.07 0 3.77 1.53 4.06 3.53h8.64c.26-1.79 1.67-3.2 3.46-3.46v-8.56c-1.99-.29-3.53-1.99-3.53-4.06 0-2.28 1.85-4.13 4.13-4.13s4.12 1.85 4.12 4.13c0 2.07-1.53 3.77-3.52 4.06v8.56c1.79.26 3.2 1.67 3.46 3.46h7.47c.29-1.99 1.99-3.53 4.06-3.53 2.28 0 4.13 1.85 4.13 4.13 0 2.07-1.53 3.77-3.53 4.06v7.28c1.99.29 3.53 1.99 3.53 4.06Z"/><path class="cls-1" d="M72.3 125.76H32.81c-2.68 0-4.86-2.18-4.86-4.86V81.3c0-2.68 2.18-4.86 4.86-4.86H72.3c2.68 0 4.86 2.18 4.86 4.86v39.6c0 2.68-2.18 4.86-4.86 4.86ZM32.81 77.93c-1.85 0-3.36 1.51-3.36 3.36v39.6c0 1.85 1.51 3.36 3.36 3.36H72.3c1.85 0 3.36-1.51 3.36-3.36v-39.6a3.36 3.36 0 0 0-3.36-3.36H32.81Z"/><path class="cls-1" d="M44.86 95.51h1.41c.39 0 .67.07.84.22s.26.38.26.71-.08.56-.25.7-.45.22-.85.22h-5.12c-.4 0-.68-.07-.85-.22s-.25-.38-.25-.7.09-.57.26-.71.45-.22.85-.22h1.61v-7.32l-.97.25c-.15.03-.27.06-.37.08s-.17.03-.22.03c-.24 0-.42-.08-.55-.23s-.2-.36-.2-.64c0-.2.07-.37.22-.51s.37-.25.67-.32l2.15-.59c.18-.05.33-.08.44-.1s.21-.03.29-.03c.23 0 .4.06.49.19s.15.34.15.64v8.56ZM61.03 86.13c1.33 0 2.39.52 3.17 1.55s1.17 2.43 1.17 4.2-.39 3.18-1.17 4.21-1.84 1.55-3.17 1.55-2.36-.52-3.14-1.55-1.16-2.44-1.16-4.21.39-3.18 1.16-4.21 1.82-1.54 3.14-1.54Zm.02 1.95c-.61 0-1.1.34-1.45 1.01s-.53 1.6-.53 2.78.18 2.13.53 2.81.84 1.01 1.46 1.01 1.11-.34 1.46-1.01.53-1.61.53-2.81-.18-2.11-.53-2.78-.84-1.01-1.46-1.01ZM43.52 104.56c1.33 0 2.39.52 3.17 1.55s1.17 2.43 1.17 4.2-.39 3.18-1.17 4.21-1.84 1.55-3.17 1.55-2.36-.52-3.14-1.55-1.16-2.44-1.16-4.21.39-3.18 1.16-4.21 1.82-1.54 3.14-1.54Zm.02 1.95c-.61 0-1.1.34-1.45 1.01s-.53 1.6-.53 2.78.18 2.13.53 2.81.84 1.01 1.46 1.01 1.11-.34 1.46-1.01.53-1.61.53-2.81-.18-2.11-.53-2.78-.84-1.01-1.46-1.01ZM62.36 113.94h1.41c.39 0 .67.07.84.22s.26.38.26.71-.08.56-.25.7-.45.22-.85.22h-5.12c-.4 0-.68-.07-.85-.22s-.25-.38-.25-.7.09-.57.26-.71.45-.22.85-.22h1.61v-7.32l-.97.25c-.15.03-.27.06-.37.08s-.17.03-.22.03c-.24 0-.42-.08-.55-.23s-.2-.36-.2-.64c0-.2.07-.37.22-.51s.37-.25.67-.32l2.15-.59c.18-.05.33-.08.44-.1s.21-.03.29-.03c.23 0 .4.06.49.19s.15.34.15.64v8.56Z"/></svg>