<svg id="Layer_1" data-name="Layer 1" xmlns="http://www.w3.org/2000/svg" viewBox="0 0 151.26 151.26"><defs><style>.cls-1{fill:#00617c}</style></defs><circle class="cls-1" cx="88.21" cy="43.76" r="19.43" id="Ellipse_254-3" data-name="Ellipse 254-3"/><path class="cls-1" d="M61.35 86.13c5.73 3.34 10.09 8.53 12.4 14.84.22.61.42 1.23.6 1.85h50.16l-5.82-27.27c-1.5-5-7.95-7.81-13.53-7.81H71.23c-3.45 0-7.16.92-9.89 2.9v15.49Z"/><path class="cls-1" d="M56.49 133.85H37.25c-.37 0-.72-.08-1.06-.23-12.57-5.88-18.01-20.88-12.14-33.45 2.44-5.22 6.61-9.45 11.78-11.97V65.7c0-1.37 1.12-2.49 2.49-2.49h17.09c1.37 0 2.49 1.12 2.49 2.49v22.5c12.28 5.97 17.59 20.75 11.83 33.2a25.208 25.208 0 0 1-12.18 12.22c-.33.15-.69.23-1.06.23ZM38.32 64.7c-.54 0-.99.44-.99.99v23.46l-.43.2a23.727 23.727 0 0 0-11.49 11.45c-5.53 11.82-.41 25.93 11.41 31.46.13.06.27.09.42.09h19.24c.15 0 .29-.03.42-.09 5.05-2.36 9.11-6.44 11.45-11.5 5.48-11.84.31-25.93-11.53-31.41l-.44-.2V65.69c0-.54-.44-.99-.99-.99H38.3Z" id="Pfad_2217" data-name="Pfad 2217"/><path id="Pfad_2218" data-name="Pfad 2218" class="cls-1" d="M64.94 105.25H28.8a18.918 18.918 0 0 0 9.34 22.32h17.47c8.09-4.21 12.02-13.6 9.34-22.32Z"/><path id="Pfad_2219" data-name="Pfad 2219" class="cls-1" d="M43.15 98.09c-2.33 0-4.21-1.89-4.21-4.21s1.89-4.21 4.21-4.21a4.21 4.21 0 0 1 0 8.42Z"/><path id="Pfad_2220" data-name="Pfad 2220" class="cls-1" d="M52.55 100.68c-1.29 0-2.34-1.05-2.34-2.34S51.26 96 52.55 96c1.29 0 2.34 1.05 2.34 2.34s-1.05 2.34-2.34 2.34Z"/><path id="Pfad_2221" data-name="Pfad 2221" class="cls-1" d="M50.17 89.6c-1.49 0-2.7-1.21-2.7-2.7 0-1.49 1.21-2.7 2.7-2.7 1.49 0 2.7 1.21 2.7 2.7 0 1.49-1.21 2.7-2.7 2.7Z"/></svg>