<?xml version="1.0" encoding="utf-8"?>
<!-- Generator: Adobe Illustrator 27.1.1, SVG Export Plug-In . SVG Version: 6.00 Build 0)  -->
<svg version="1.1" id="Layer_1" xmlns="http://www.w3.org/2000/svg" xmlns:xlink="http://www.w3.org/1999/xlink" x="0px" y="0px"
	 viewBox="0 0 151.3 151.3" style="enable-background:new 0 0 151.3 151.3;" xml:space="preserve">
<style type="text/css">
	.st0{fill:#FFFFFF;}
</style>
<path class="st0" d="M92.8,86.4c-0.8,1.2-2.2,3.6-3.7,3.6s-2.9-2.3-3.7-3.6c-2.1,1.6-3.6,4.9-3.6,11.4c0,9.7,7.3,22.7,7.3,22.7
	s7.3-13,7.3-22.7C96.4,91.4,95,88,92.8,86.4L92.8,86.4z"/>
<path class="st0" d="M115.2,76.6l-9.3-7.6c0.2-2.3,0.3-4.8,0.3-7.5c0-17.3-9.9-33.1-14.6-39.6c-1.2-1.7-3.7-1.7-4.9,0
	C81.9,28.4,72,44.1,72,61.5c0,2.7,0.1,5.2,0.3,7.5L63,76.6c0,0,0,0.1-0.1,0.1h5.1c4.7,0,8.6,3.6,9.1,8.1c1,1.3,2,2.4,3.2,3.3
	c1.8-2.9,5-4.9,8.7-4.9s6.9,2,8.7,4.9c1.2-0.9,2.2-2,3.2-3.3c0.1,0.3,0.3,0.6,0.6,0.8l9.8,9.8c1.8,1.8,4.8,0.5,4.8-2V78.8
	C116.2,78,115.8,77.2,115.2,76.6L115.2,76.6z M89.1,69.4c-2.4,0-4.3-1.9-4.3-4.3c0-2.4,1.9-4.3,4.3-4.3s4.3,1.9,4.3,4.3
	C93.4,67.5,91.5,69.4,89.1,69.4z M89.1,53.4c-3.9,0-7.1-3.2-7.1-7.1s3.2-7.1,7.1-7.1s7.1,3.2,7.1,7.1S93,53.4,89.1,53.4z"/>
<path class="st0" d="M68.9,129.5H29.4c-2.7,0-4.9-2.2-4.9-4.9V85c0-2.7,2.2-4.9,4.9-4.9h39.5c2.7,0,4.9,2.2,4.9,4.9v39.6
	C73.8,127.3,71.6,129.5,68.9,129.5z M29.4,81.7c-1.9,0-3.4,1.5-3.4,3.4v39.6c0,1.9,1.5,3.4,3.4,3.4c0,0,0,0,0,0h39.5
	c1.8,0,3.4-1.5,3.4-3.4V85c0-1.8-1.5-3.4-3.4-3.4H29.4z"/>
<path class="st0" d="M41.5,99.2h1.4c0.4,0,0.7,0.1,0.8,0.2s0.3,0.4,0.3,0.7s-0.1,0.6-0.2,0.7s-0.5,0.2-0.8,0.2h-5.1
	c-0.4,0-0.7-0.1-0.8-0.2s-0.2-0.4-0.2-0.7s0.1-0.6,0.3-0.7s0.5-0.2,0.8-0.2h1.6v-7.3l-1,0.2c-0.2,0-0.3,0.1-0.4,0.1s-0.2,0-0.2,0
	c-0.2,0-0.4-0.1-0.5-0.2s-0.2-0.4-0.2-0.6c0-0.2,0.1-0.4,0.2-0.5s0.4-0.2,0.7-0.3l2.2-0.6c0.2-0.1,0.3-0.1,0.4-0.1s0.2,0,0.3,0
	c0.2,0,0.4,0.1,0.5,0.2s0.2,0.3,0.2,0.6L41.5,99.2L41.5,99.2z M57.7,89.9c1.3,0,2.4,0.5,3.2,1.6s1.2,2.4,1.2,4.2s-0.4,3.2-1.2,4.2
	s-1.8,1.6-3.2,1.6s-2.4-0.5-3.1-1.6s-1.2-2.4-1.2-4.2s0.4-3.2,1.2-4.2S56.3,89.9,57.7,89.9z M57.7,91.8c-0.6,0-1.1,0.3-1.5,1
	s-0.5,1.6-0.5,2.8s0.2,2.1,0.5,2.8s0.8,1,1.5,1s1.1-0.3,1.5-1s0.5-1.6,0.5-2.8s-0.2-2.1-0.5-2.8S58.3,91.8,57.7,91.8L57.7,91.8z
	 M40.1,108.3c1.3,0,2.4,0.5,3.2,1.6s1.2,2.4,1.2,4.2s-0.4,3.2-1.2,4.2s-1.8,1.6-3.2,1.6s-2.4-0.5-3.1-1.6c-0.8-1-1.2-2.4-1.2-4.2
	s0.4-3.2,1.2-4.2S38.8,108.3,40.1,108.3z M40.2,110.2c-0.6,0-1.1,0.3-1.5,1s-0.5,1.6-0.5,2.8s0.2,2.1,0.5,2.8s0.8,1,1.5,1
	s1.1-0.3,1.5-1s0.5-1.6,0.5-2.8s-0.2-2.1-0.5-2.8S40.8,110.2,40.2,110.2L40.2,110.2z M59,117.7h1.4c0.4,0,0.7,0.1,0.8,0.2
	s0.3,0.4,0.3,0.7s-0.1,0.6-0.2,0.7s-0.5,0.2-0.8,0.2h-5.1c-0.4,0-0.7-0.1-0.8-0.2s-0.2-0.4-0.2-0.7s0.1-0.6,0.3-0.7s0.5-0.2,0.8-0.2
	h1.6v-7.3l-1,0.2c-0.2,0-0.3,0.1-0.4,0.1s-0.2,0-0.2,0c-0.2,0-0.4-0.1-0.5-0.2s-0.2-0.4-0.2-0.6c0-0.2,0.1-0.4,0.2-0.5
	s0.4-0.2,0.7-0.3l2.2-0.6c0.2-0.1,0.3-0.1,0.4-0.1s0.2,0,0.3,0c0.2,0,0.4,0.1,0.5,0.2s0.2,0.3,0.2,0.6L59,117.7L59,117.7z"/>
</svg>
