<svg id="Layer_1" data-name="Layer 1" xmlns="http://www.w3.org/2000/svg" viewBox="0 0 151.26 151.26"><defs><style>.cls-1{fill:#00617c}</style></defs><path class="cls-1" d="M92.52 134.93h-.17l-31.48-.41c-2.22.16-4.2-1.49-4.42-3.77v-.14a3.9 3.9 0 0 1 3.15-3.52c.38-.1.75-.38.97-.77.23-.39.29-.84.17-1.28-.17-.64-.7-1.12-1.35-1.23-1.92-.16-3.47-1.73-3.63-3.71v-.12a3.897 3.897 0 0 1 2.96-3.46c.84-.26 1.34-1.21 1.06-2.1-.16-.53-.57-.94-1.1-1.11-1.62-.4-2.82-1.84-2.93-3.56.01-.75.24-1.41.64-1.97l.22-.31h38.2l.21.2c.71.65 1.13 1.58 1.14 2.54-.13 1.74-1.32 3.13-2.96 3.52-.38.12-.74.41-.95.81-.21.4-.25.86-.12 1.29.16.51.55.92 1.05 1.09 1.95.37 3.25 2.24 2.92 4.2a3.618 3.618 0 0 1-3.09 2.99 1.687 1.687 0 0 0 .2 3.28c1.91.18 3.45 1.74 3.62 3.7-.02 1-.42 1.89-1.09 2.52-.87.82-2.04 1.29-3.24 1.29Zm-31.7-1.92 31.57.41c.89.05 1.72-.29 2.34-.88.38-.36.61-.86.62-1.38-.1-1.16-1.08-2.15-2.32-2.27-1.28-.21-2.28-1.12-2.6-2.33-.22-.82-.11-1.68.32-2.42s1.11-1.26 1.94-1.48l.1-.02c.95-.12 1.69-.83 1.85-1.77.1-.57-.03-1.13-.36-1.6-.33-.47-.82-.78-1.39-.88l-.1-.03a3.2 3.2 0 0 1-2.07-2.09c-.25-.81-.17-1.68.23-2.43.4-.75 1.06-1.31 1.88-1.56 1.05-.25 1.78-1.1 1.86-2.13 0-.4-.17-.84-.46-1.19H57.42c-.11.23-.17.48-.17.74.07 1 .81 1.89 1.84 2.15 1.04.33 1.82 1.11 2.12 2.11.25.81.17 1.67-.22 2.43-.4.75-1.06 1.31-1.88 1.56-1.03.25-1.75 1.07-1.86 2.07a2.541 2.541 0 0 0 2.32 2.28c1.29.21 2.29 1.12 2.61 2.33.22.82.11 1.68-.32 2.42s-1.11 1.26-1.94 1.48c-1.09.21-1.88 1.07-1.99 2.11a2.668 2.668 0 0 0 2.88 2.35ZM94.2 104.1H57.06l-.2-.44c-1.84-4.08-8.05-18.18-10.48-28.03a51.373 51.373 0 0 1-1.55-13.25c0-16.97 13.81-30.79 30.79-30.79s30.79 13.81 30.79 30.79c.06 4.45-.46 8.9-1.55 13.23-2.41 9.8-8.63 23.94-10.47 28.04l-.2.44Zm-36.17-1.5h35.2c2.04-4.56 7.89-17.99 10.19-27.34 1.06-4.2 1.56-8.52 1.51-12.86 0-16.16-13.14-29.3-29.29-29.3S46.35 46.24 46.35 62.39c-.05 4.34.45 8.67 1.51 12.87 2.31 9.4 8.15 22.78 10.19 27.33Z" id="Path_3301" data-name="Path 3301"/><path class="cls-1" d="m52.52 63.83-1.5-.08c.99-19.48 14.13-24.98 20.95-25.17l.04 1.5c-6.33.17-18.56 5.36-19.49 23.75Z" id="Path_3302" data-name="Path 3302"/><path class="cls-1" d="M74.88 8.28h1.5v17.09h-1.5z" id="Line_113" data-name="Line 113"/><path class="cls-1" transform="rotate(-45 108.76 31.36)" d="M100.22 30.6h17.09v1.5h-17.09z" id="Line_114" data-name="Line 114"/><path class="cls-1" transform="rotate(-45 42.495 31.348)" d="M41.75 22.81h1.5V39.9h-1.5z" id="Line_115" data-name="Line 115"/><path class="cls-1" transform="rotate(-23.66 56.508 20.732)" d="M55.75 12.19h1.5v17.09h-1.5z" id="Line_116" data-name="Line 116"/><path class="cls-1" transform="rotate(-66.34 94.477 20.736)" d="M85.93 19.99h17.09v1.5H85.93z" id="Line_117" data-name="Line 117"/><path id="Path_3303" data-name="Path 3303" class="cls-1" d="M95.25 133.1c-.77.73-1.81 1.12-2.87 1.08l-31.5-.41c-1.87.14-3.5-1.23-3.69-3.1a3.134 3.134 0 0 1 2.55-2.84 2.43 2.43 0 0 0 1.72-2.98 2.43 2.43 0 0 0-1.95-1.77 3.306 3.306 0 0 1-3.01-3.03 3.141 3.141 0 0 1 2.39-2.79c1.29-.4 2-1.76 1.61-3.05-.24-.76-.83-1.36-1.59-1.6a3.175 3.175 0 0 1-2.41-2.89c.01-.53.19-1.05.5-1.47h37.52c.56.51.89 1.24.89 2a3.131 3.131 0 0 1-2.38 2.79 2.434 2.434 0 0 0-.02 4.65c1.58.27 2.64 1.77 2.36 3.35a2.886 2.886 0 0 1-2.5 2.38 2.43 2.43 0 0 0-1.72 2.98 2.43 2.43 0 0 0 1.95 1.77 3.34 3.34 0 0 1 3 3.03 2.7 2.7 0 0 1-.86 1.91"/><path class="cls-1" d="M92.52 134.93h-.18l-31.48-.41c-2.24.18-4.2-1.49-4.42-3.77v-.14a3.92 3.92 0 0 1 3.16-3.52c.85-.23 1.38-1.16 1.14-2.05-.17-.64-.7-1.12-1.35-1.23-1.92-.16-3.48-1.73-3.63-3.71v-.12a3.897 3.897 0 0 1 2.96-3.46c.84-.26 1.34-1.21 1.07-2.1-.16-.53-.57-.94-1.1-1.11-1.62-.4-2.82-1.84-2.93-3.56.01-.75.24-1.41.64-1.97l.23-.31h38.19l.21.2c.72.65 1.13 1.58 1.14 2.55-.13 1.74-1.32 3.13-2.96 3.52-.38.12-.74.41-.95.81s-.25.86-.12 1.29c.16.51.55.92 1.06 1.09 1.95.37 3.25 2.24 2.92 4.2a3.618 3.618 0 0 1-3.09 2.99c-.42.12-.76.4-.98.77-.23.39-.29.85-.17 1.28.17.64.7 1.12 1.35 1.23 1.91.18 3.45 1.75 3.62 3.71-.02 1-.42 1.89-1.09 2.52-.87.82-2.04 1.29-3.23 1.29Zm-31.71-1.91 31.57.41c.89.04 1.72-.29 2.34-.88.38-.36.61-.86.62-1.38-.1-1.16-1.08-2.15-2.32-2.27-1.28-.21-2.28-1.12-2.6-2.33-.22-.82-.11-1.68.32-2.42s1.11-1.26 1.94-1.48l.1-.02c.95-.12 1.69-.83 1.85-1.77.2-1.17-.58-2.28-1.75-2.48l-.1-.02a3.2 3.2 0 0 1-2.07-2.09c-.25-.81-.17-1.68.22-2.43.4-.75 1.06-1.31 1.88-1.56 1.05-.25 1.78-1.1 1.86-2.13 0-.41-.17-.84-.46-1.19H57.43c-.11.23-.17.48-.17.74.07 1 .81 1.89 1.84 2.15 1.04.33 1.81 1.11 2.12 2.11.52 1.68-.42 3.47-2.1 3.99-1.03.25-1.75 1.07-1.86 2.07a2.55 2.55 0 0 0 2.32 2.29c1.29.21 2.29 1.12 2.61 2.33a3.19 3.19 0 0 1-2.26 3.9c-1.09.21-1.88 1.07-1.99 2.11a2.696 2.696 0 0 0 2.88 2.36Z" id="Path_3304" data-name="Path 3304"/></svg>