<svg id="Layer_1" data-name="Layer 1" xmlns="http://www.w3.org/2000/svg" viewBox="0 0 151.26 151.26"><defs><style>.cls-1{fill:#00617c}</style></defs><path class="cls-1" d="M112.31 26.1H61.15c-2.73 0-4.94 2.21-4.94 4.94v42.54h16.72c4.71 0 8.54 3.83 8.54 8.54v26.02h30.84c2.73 0 4.94-2.21 4.94-4.94V31.03c0-2.73-2.21-4.94-4.94-4.94Zm-40.86 9.95c.88 0 1.74.16 2.56.47l-.65 1.68c-.61-.24-1.25-.35-1.91-.35-2.93 0-5.31 2.38-5.31 5.31s2.38 5.31 5.31 5.31a5.313 5.313 0 0 0 4.89-7.38l1.66-.7c.37.88.56 1.81.56 2.77 0 3.92-3.19 7.11-7.11 7.11s-7.11-3.19-7.11-7.11 3.19-7.11 7.11-7.11Zm0 34.74c-3.92 0-7.11-3.19-7.11-7.11s3.19-7.11 7.11-7.11c.88 0 1.74.16 2.56.48l-.65 1.68c-.61-.23-1.25-.35-1.91-.35-2.93 0-5.31 2.38-5.31 5.31S68.52 69 71.45 69a5.313 5.313 0 0 0 4.89-7.38l1.66-.7c.37.88.56 1.81.56 2.77 0 3.92-3.19 7.11-7.11 7.11Zm.47-3.99-4.24-4.18 1.26-1.28 2.63 2.59 5.67-9.23 1.53.94-6.85 11.16Zm0-20.52-4.24-4.18 1.26-1.28 2.63 2.59 5.67-9.23 1.53.94-6.85 11.16Zm33.23 40.73H86.62c-.5 0-.9-.4-.9-.9s.4-.9.9-.9h18.53c.5 0 .9.4.9.9s-.4.9-.9.9Zm0-22.43H86.62c-.5 0-.9-.4-.9-.9s.4-.9.9-.9h18.53c.5 0 .9.4.9.9s-.4.9-.9.9Zm0-22.13H86.62c-.5 0-.9-.4-.9-.9s.4-.9.9-.9h18.53c.5 0 .9.4.9.9s-.4.9-.9.9Z"/><path class="cls-1" d="M73.76 125.76H34.27c-2.68 0-4.86-2.18-4.86-4.86V81.3c0-2.68 2.18-4.86 4.86-4.86h39.49c2.68 0 4.86 2.18 4.86 4.86v39.6c0 2.68-2.18 4.86-4.86 4.86ZM34.27 77.93c-1.85 0-3.36 1.51-3.36 3.36v39.6c0 1.85 1.51 3.36 3.36 3.36h39.49c1.85 0 3.36-1.51 3.36-3.36v-39.6a3.36 3.36 0 0 0-3.36-3.36H34.27Z"/><path class="cls-1" d="M46.32 95.51h1.41c.39 0 .67.07.84.22s.26.38.26.71-.08.56-.25.7-.45.22-.85.22h-5.12c-.4 0-.68-.07-.85-.22s-.25-.38-.25-.7.09-.57.26-.71.45-.22.85-.22h1.61v-7.32l-.97.25c-.15.03-.27.06-.37.08s-.17.03-.22.03c-.24 0-.42-.08-.55-.23s-.2-.36-.2-.64c0-.2.07-.37.22-.51s.37-.25.67-.32l2.15-.59c.18-.05.33-.08.44-.1s.21-.03.29-.03c.23 0 .4.06.49.19s.15.34.15.64v8.56ZM62.49 86.13c1.33 0 2.39.52 3.17 1.55s1.17 2.43 1.17 4.2-.39 3.18-1.17 4.21-1.84 1.55-3.17 1.55-2.36-.52-3.14-1.55-1.16-2.44-1.16-4.21.39-3.18 1.16-4.21 1.82-1.54 3.14-1.54Zm.02 1.95c-.61 0-1.1.34-1.45 1.01s-.53 1.6-.53 2.78.18 2.13.53 2.81.84 1.01 1.46 1.01 1.11-.34 1.46-1.01.53-1.61.53-2.81-.18-2.11-.53-2.78-.84-1.01-1.46-1.01ZM44.98 104.56c1.33 0 2.39.52 3.17 1.55s1.17 2.43 1.17 4.2-.39 3.18-1.17 4.21-1.84 1.55-3.17 1.55-2.36-.52-3.14-1.55c-.77-1.03-1.16-2.44-1.16-4.21s.39-3.18 1.16-4.21 1.82-1.54 3.14-1.54Zm.02 1.95c-.61 0-1.1.34-1.45 1.01s-.53 1.6-.53 2.78.18 2.13.53 2.81.84 1.01 1.46 1.01 1.11-.34 1.46-1.01.53-1.61.53-2.81-.18-2.11-.53-2.78-.84-1.01-1.46-1.01ZM63.83 113.94h1.41c.39 0 .67.07.84.22s.26.38.26.71-.08.56-.25.7-.45.22-.85.22h-5.12c-.4 0-.68-.07-.85-.22s-.25-.38-.25-.7.09-.57.26-.71.45-.22.85-.22h1.61v-7.32l-.97.25c-.15.03-.27.06-.37.08s-.17.03-.22.03c-.24 0-.42-.08-.55-.23s-.2-.36-.2-.64c0-.2.07-.37.22-.51s.37-.25.67-.32l2.15-.59c.18-.05.33-.08.44-.1s.21-.03.29-.03c.23 0 .4.06.49.19s.15.34.15.64v8.56Z"/></svg>