<svg id="Layer_1" data-name="Layer 1" xmlns="http://www.w3.org/2000/svg" viewBox="0 0 151.26 151.26"><defs><style>.cls-1{fill:#00617c}</style></defs><circle class="cls-1" cx="81.01" cy="44.14" r="19.43" id="Ellipse_254-3" data-name="Ellipse 254-3"/><path class="cls-1" d="M53.13 80.96c2.68 0 5.02.67 6.98 1.99 1.96-1.32 4.3-1.99 6.98-1.99h20.06c2.72 0 4.93 2.21 4.93 4.93v.61c3.04.08 5.49 2.58 5.49 5.64v11.03h19.77l-5.82-27.27c-1.5-5-7.95-7.81-13.53-7.81H64.06c-5.58 0-11.85 2.41-13.53 7.81l-1.08 5.05h3.68Z"/><path class="cls-1" d="M58.78 127.13c-.29 0-.59-.06-.86-.19-1.19-.53-3.14-1.17-5.69-1.17H33.08c-1.15 0-2.08-.93-2.08-2.08V85.9c0-1.15.93-2.08 2.08-2.08h20.06c4.53 0 6.66 2.39 7.36 3.42.24.35.37.76.37 1.18v36.63a2.071 2.071 0 0 1-2.08 2.08ZM33.07 85.32a.58.58 0 0 0-.58.58v37.79c0 .32.26.58.58.58h19.15c2.82 0 4.99.71 6.31 1.3.27.12.48.01.56-.04.08-.05.26-.2.26-.49V88.41c0-.12-.04-.23-.1-.33-.57-.83-2.31-2.77-6.13-2.77H33.06Z"/><path class="cls-1" d="M61.43 127.13c-.39 0-.79-.11-1.13-.33-.59-.38-.95-1.04-.95-1.75V88.42c0-.42.13-.83.37-1.18.71-1.03 2.83-3.42 7.36-3.42h20.06c1.15 0 2.08.93 2.08 2.08v37.79c0 1.15-.93 2.08-2.08 2.08H67.99c-2.55 0-4.51.64-5.7 1.17-.28.12-.57.19-.86.19Zm5.65-41.81c-3.81 0-5.55 1.93-6.12 2.77-.07.1-.1.21-.1.33v36.63c0 .29.18.44.26.49.08.05.29.16.56.04 1.32-.6 3.49-1.3 6.31-1.3h19.15c.32 0 .58-.26.58-.58V85.91a.58.58 0 0 0-.58-.58H67.08ZM53.38 97.42H38.56c-.41 0-.75-.34-.75-.75s.34-.75.75-.75h14.82c.41 0 .75.34.75.75s-.34.75-.75.75ZM53.38 105.54H38.56c-.41 0-.75-.34-.75-.75s.34-.75.75-.75h14.82c.41 0 .75.34.75.75s-.34.75-.75.75ZM53.38 113.66H38.56c-.41 0-.75-.34-.75-.75s.34-.75.75-.75h14.82c.41 0 .75.34.75.75s-.34.75-.75.75Z"/><path class="cls-1" d="M81.08 97.42H66.26c-.41 0-.75-.34-.75-.75s.34-.75.75-.75h14.82c.41 0 .75.34.75.75s-.34.75-.75.75ZM81.08 105.54H66.26c-.41 0-.75-.34-.75-.75s.34-.75.75-.75h14.82c.41 0 .75.34.75.75s-.34.75-.75.75ZM81.08 113.66H66.26c-.41 0-.75-.34-.75-.75s.34-.75.75-.75h14.82c.41 0 .75.34.75.75s-.34.75-.75.75Z"/><path class="cls-1" d="M91.92 129.76h-63.8c-1.54 0-2.8-1.25-2.8-2.8V92.14c0-1.54 1.25-2.8 2.8-2.8h3.62v1.5h-3.62c-.71 0-1.3.58-1.3 1.3v34.82c0 .71.58 1.3 1.3 1.3h63.79c.71 0 1.3-.58 1.3-1.3V92.14c0-.71-.58-1.3-1.3-1.3h-3.44v-1.5h3.44c1.54 0 2.8 1.25 2.8 2.8v34.82c0 1.54-1.25 2.8-2.8 2.8Z"/></svg>