<svg id="Layer_1" data-name="Layer 1" xmlns="http://www.w3.org/2000/svg" viewBox="0 0 151.26 151.26"><defs><style>.cls-1{fill:#00617c}</style></defs><path class="cls-1" d="M37.24 105.95h-.78c-2.89-.02-5.6-1.16-7.62-3.21s-3.13-4.77-3.11-7.65l.33-56.49h-.9c-1.8 0-3.06-1.65-3.38-3.28-.24-1.26.1-2.65.91-3.62.66-.79 1.55-1.23 2.51-1.23h24.13c1.87 0 3.06 1.77 3.38 3.42.24 1.26-.11 2.65-.91 3.62-.66.8-1.55 1.24-2.5 1.24h-.91l-.33 56.48c-.04 5.93-4.88 10.74-10.8 10.74Zm-12.04-74c-.65 0-1.09.37-1.35.69-.52.63-.75 1.57-.59 2.38.2 1.01.96 2.06 1.91 2.06h2.41l-.34 58c-.02 2.48.94 4.82 2.68 6.59a9.184 9.184 0 0 0 6.56 2.76h.73c5.1.03 9.32-4.12 9.35-9.24l.34-57.99 2.41.02c.64 0 1.08-.38 1.34-.69.52-.63.76-1.57.6-2.39-.21-1.09-.94-2.2-1.91-2.2H25.2Z" id="Path_2439" data-name="Path 2439"/><path class="cls-1" d="m29.77 66.64-.11 28.37c-.02 3.89 3.11 7.07 7 7.09h.51c3.89.02 7.06-3.12 7.09-7.01l.12-28.46h-14.6Z" id="Path_2440" data-name="Path 2440"/><path class="cls-1" d="M75.62 105.95h-.77a10.75 10.75 0 0 1-7.62-3.21 10.744 10.744 0 0 1-3.12-7.65l.33-56.49h-.9c-1.8 0-3.06-1.65-3.38-3.28-.25-1.27.1-2.67.89-3.63.65-.79 1.55-1.22 2.52-1.22h24.12c1.78 0 3.05 1.72 3.38 3.42.24 1.25-.11 2.64-.92 3.62-.66.8-1.55 1.24-2.5 1.24h-.91l-.33 56.48c-.04 5.93-4.89 10.74-10.81 10.74Zm-12.03-74c-.67 0-1.11.37-1.37.68-.51.62-.74 1.56-.58 2.39.19 1 .93 2.07 1.91 2.07h2.41l-.34 58a9.27 9.27 0 0 0 2.68 6.59 9.201 9.201 0 0 0 6.56 2.76h.77c5.1 0 9.27-4.14 9.31-9.25l.34-57.99 2.41.02c.63 0 1.08-.38 1.34-.69.52-.63.76-1.57.6-2.38-.21-1.08-.98-2.2-1.91-2.2H63.6Z" id="Path_2441" data-name="Path 2441"/><path class="cls-1" d="m68.16 66.64-.12 28.37c-.02 3.89 3.11 7.07 7 7.09h.51c3.89.02 7.06-3.12 7.09-7.01l.11-28.46h-14.6Z" id="Path_2442" data-name="Path 2442"/><path class="cls-1" d="M114.01 105.95h-.77a10.75 10.75 0 0 1-7.62-3.21 10.693 10.693 0 0 1-3.11-7.65l.33-56.49h-.9c-1.88 0-3.07-1.7-3.38-3.28-.24-1.23.12-2.62.94-3.61.67-.81 1.55-1.25 2.48-1.25h24.13c1.78 0 3.05 1.72 3.38 3.42.24 1.24-.12 2.63-.93 3.61-.66.8-1.55 1.25-2.48 1.25h-.91l-.33 56.48c-.04 5.93-4.88 10.74-10.81 10.74Zm-12.04-74c-.64 0-1.1.44-1.32.71-.53.64-.78 1.57-.62 2.37.19.99.87 2.06 1.91 2.06h2.41l-.34 58c-.02 2.48.94 4.82 2.68 6.59s4.07 2.75 6.56 2.76h.77c5.1 0 9.27-4.14 9.31-9.25l.34-57.99 2.41.02c.65 0 1.11-.44 1.32-.7.53-.64.77-1.57.62-2.38-.21-1.07-.95-2.2-1.91-2.2h-24.13Z" id="Path_2443" data-name="Path 2443"/><path class="cls-1" d="m106.55 66.64-.11 28.37a7.053 7.053 0 0 0 7 7.09h.51c3.89.02 7.06-3.12 7.09-7.01l.11-28.46h-14.6Z" id="Path_2444" data-name="Path 2444"/><path class="cls-1" d="M142.71 120.81H8.55v-7.56h134.16v7.56Zm-132.66-1.5h131.16v-4.56H10.05v4.56Z" id="Rectangle_697" data-name="Rectangle 697"/><path class="cls-1" d="M15.43 48.43h1.5V114h-1.5z" id="Line_88" data-name="Line 88"/><path class="cls-1" d="M134.33 48.43h1.5V114h-1.5z" id="Line_89" data-name="Line 89"/><path class="cls-1" d="M16.18 56.46H26.7v1.5H16.18z" id="Line_90" data-name="Line 90"/><path class="cls-1" d="M124.28 56.46h10.8v1.5h-10.8z" id="Line_91" data-name="Line 91"/><path class="cls-1" d="M47.52 56.46h17.57v1.5H47.52z" id="Line_92" data-name="Line 92"/><path class="cls-1" d="M85.9 56.46h17.57v1.5H85.9z" id="Line_93" data-name="Line 93"/></svg>