<svg id="Layer_1" data-name="Layer 1" xmlns="http://www.w3.org/2000/svg" viewBox="0 0 151.26 151.26"><defs><style>.cls-1{fill:#00617c}</style></defs><circle class="cls-1" cx="47.22" cy="55.6" r="6.16"/><path class="cls-1" d="M73.17 81.25c.02-7.34 6-13.31 13.33-13.34h12.1c1.02-2.55.5-5.57-1.56-7.64L64.75 27.99a7.074 7.074 0 0 0-10 0L22.46 60.27a7.074 7.074 0 0 0 0 10l32.29 32.29a7.074 7.074 0 0 0 10 0l8.42-8.42V81.25Zm-13.43 9.52c-4.39 0-7.96-3.57-7.96-7.96 0-4.08 3.09-7.45 7.04-7.9-.09-2.84-1.66-3.23-4.62-3.71-1.89-.3-3.85-.62-5.26-1.94-2.16-2.02-2.66-4.3-2.72-5.76-3.92-.49-6.97-3.84-6.97-7.89 0-4.39 3.57-7.96 7.96-7.96s7.96 3.57 7.96 7.96c0 4.08-3.09 7.45-7.05 7.91.08 1.26.52 3 2.05 4.43 1.01.94 2.69 1.21 4.32 1.47 1.85.3 3.99.65 5.2 2.29 1.18-1.63 3.4-1.99 5.3-2.29 1.63-.26 3.31-.53 4.32-1.47 1.52-1.42 1.95-3.16 2.04-4.42-4.01-.41-7.15-3.8-7.15-7.92 0-4.39 3.57-7.96 7.96-7.96s7.96 3.57 7.96 7.96c0 4.04-3.02 7.37-6.92 7.89-.07 1.53-.57 3.81-2.66 5.77-1.41 1.32-3.37 1.63-5.26 1.94-3.04.49-4.63.87-4.63 3.54h-.02v.16c3.97.44 7.07 3.82 7.07 7.91 0 4.39-3.57 7.96-7.96 7.96Z"/><circle class="cls-1" cx="72.16" cy="55.6" r="6.16"/><circle class="cls-1" cx="59.74" cy="82.8" r="6.16"/><path class="cls-1" d="M86.02 123.99v-13.4c-5.54-.27-9.99-4.87-10-10.47V81.25c.02-5.77 4.72-10.47 10.48-10.49h39.46c5.76.02 10.47 4.72 10.48 10.48v18.87c-.02 5.77-4.72 10.47-10.48 10.49H99.41l-13.39 13.39Zm.48-51.73c-4.94.01-8.97 4.05-8.99 8.99v18.87c.01 4.94 4.05 8.97 8.99 8.99h1.02v11.27l11.27-11.27h27.17c4.94-.01 8.97-4.05 8.99-8.99V81.25c-.01-4.94-4.05-8.97-8.99-8.99H86.5Z" id="Path_2224" data-name="Path 2224"/><path class="cls-1" d="M102.78 95.33v-6.18c1.66.03 3.3-.34 4.78-1.07a3.42 3.42 0 0 0 1.59-3.21v-.56c.06-.88-.27-1.73-.91-2.34-.66-.56-1.5-.84-2.36-.81-.96-.03-1.9.31-2.61.97-.7.67-1.18 1.52-1.39 2.46l-4.93-2.06c.25-.83.6-1.62 1.05-2.36.47-.79 1.08-1.48 1.79-2.06.8-.64 1.7-1.14 2.67-1.47 1.16-.4 2.39-.59 3.62-.57 1.3-.02 2.6.19 3.83.61 1.1.37 2.11.94 2.99 1.7.83.72 1.48 1.62 1.92 2.62.46 1.07.68 2.23.67 3.39.01 1.05-.18 2.09-.57 3.06-.36.89-.88 1.7-1.53 2.4a7.93 7.93 0 0 1-2.26 1.68c-.85.43-1.76.73-2.7.89v2.92h-5.65Zm2.9 9.89c-1.01.1-2.01-.22-2.77-.89-.55-.59-.85-1.38-.83-2.19v-.97c-.02-.81.28-1.59.83-2.19a4.762 4.762 0 0 1 5.53 0c.55.59.85 1.38.83 2.19v.97c.02.81-.28 1.6-.83 2.19-.76.66-1.76.99-2.76.89Z" id="Path_2225" data-name="Path 2225"/></svg>