<?xml version="1.0" encoding="utf-8"?>
<!-- Generator: Adobe Illustrator 26.5.0, SVG Export Plug-In . SVG Version: 6.00 Build 0)  -->
<svg version="1.1" id="Layer_1" xmlns="http://www.w3.org/2000/svg" xmlns:xlink="http://www.w3.org/1999/xlink" x="0px" y="0px"
	 viewBox="0 0 151.3 151.3" style="enable-background:new 0 0 151.3 151.3;" xml:space="preserve">
<style type="text/css">
	.st0{fill:#FFFFFF;}
</style>
<path id="Path_3301" class="st0" d="M92.5,134.9h-0.2l-31.5-0.4c-2.2,0.2-4.2-1.5-4.4-3.8v-0.1c0.1-1.7,1.4-3.2,3.2-3.5
	c0.4-0.1,0.8-0.4,1-0.8c0.2-0.4,0.3-0.8,0.2-1.3c-0.2-0.6-0.7-1.1-1.3-1.2c-1.9-0.2-3.5-1.7-3.6-3.7V120c0.1-1.7,1.3-3.1,3-3.5
	c0.8-0.3,1.3-1.2,1.1-2.1c-0.2-0.5-0.6-0.9-1.1-1.1c-1.6-0.4-2.8-1.8-2.9-3.6c0-0.8,0.2-1.4,0.6-2l0.2-0.3h38.2l0.2,0.2
	c0.7,0.7,1.1,1.6,1.1,2.5c-0.1,1.7-1.3,3.1-3,3.5c-0.4,0.1-0.7,0.4-0.9,0.8c-0.2,0.4-0.2,0.9-0.1,1.3c0.2,0.5,0.6,0.9,1.1,1.1
	c1.9,0.4,3.2,2.2,2.9,4.2c-0.3,1.6-1.5,2.8-3.1,3c-0.9,0.3-1.4,1.2-1.1,2.1c0.2,0.6,0.7,1.1,1.3,1.2c1.9,0.2,3.4,1.7,3.6,3.7
	c0,1-0.4,1.9-1.1,2.5C94.9,134.4,93.7,134.9,92.5,134.9L92.5,134.9z M60.8,133l31.6,0.4c0.9,0.1,1.7-0.3,2.3-0.9
	c0.4-0.4,0.6-0.9,0.6-1.4c-0.1-1.2-1.1-2.1-2.3-2.3c-1.3-0.2-2.3-1.1-2.6-2.3c-0.2-0.8-0.1-1.7,0.3-2.4s1.1-1.3,1.9-1.5l0.1,0
	c0.9-0.1,1.7-0.8,1.8-1.8c0.1-0.6,0-1.1-0.4-1.6s-0.8-0.8-1.4-0.9l-0.1,0c-1-0.3-1.8-1.1-2.1-2.1c-0.2-0.8-0.2-1.7,0.2-2.4
	s1.1-1.3,1.9-1.6c1.1-0.2,1.8-1.1,1.9-2.1c0-0.4-0.2-0.8-0.5-1.2H57.4c-0.1,0.2-0.2,0.5-0.2,0.7c0.1,1,0.8,1.9,1.8,2.2
	c1,0.3,1.8,1.1,2.1,2.1c0.2,0.8,0.2,1.7-0.2,2.4c-0.4,0.8-1.1,1.3-1.9,1.6c-1,0.2-1.8,1.1-1.9,2.1c0.1,1.2,1.1,2.2,2.3,2.3
	c1.3,0.2,2.3,1.1,2.6,2.3c0.2,0.8,0.1,1.7-0.3,2.4s-1.1,1.3-1.9,1.5c-1.1,0.2-1.9,1.1-2,2.1C58.1,132.1,59.4,133.1,60.8,133
	L60.8,133z M94.2,104.1H57.1l-0.2-0.4c-1.8-4.1-8-18.2-10.5-28c-1.1-4.3-1.6-8.8-1.5-13.2c0-17,13.8-30.8,30.8-30.8
	s30.8,13.8,30.8,30.8c0.1,4.4-0.5,8.9-1.6,13.2c-2.4,9.8-8.6,23.9-10.5,28L94.2,104.1L94.2,104.1z M58,102.6h35.2
	c2-4.6,7.9-18,10.2-27.3c1.1-4.2,1.6-8.5,1.5-12.9c0-16.2-13.1-29.3-29.3-29.3S46.3,46.2,46.3,62.4c0,4.3,0.5,8.7,1.5,12.9
	C50.2,84.7,56,98,58,102.6L58,102.6z"/>
<path id="Path_3302" class="st0" d="M52.5,63.8L51,63.8c1-19.5,14.1-25,21-25.2l0,1.5C65.7,40.2,53.5,45.4,52.5,63.8z"/>
<path id="Line_113" class="st0" d="M74.9,8.3h1.5v17.1h-1.5V8.3z"/>
<path id="Line_114" class="st0" d="M102.2,36.9l12.1-12.1l1.1,1.1l-12.1,12.1L102.2,36.9z"/>
<path id="Line_115" class="st0" d="M35.9,25.8l1.1-1.1l12.1,12.1L48,37.9L35.9,25.8z"/>
<path id="Line_116" class="st0" d="M52.4,13.2l1.4-0.6l6.9,15.7l-1.4,0.6L52.4,13.2z"/>
<path id="Line_117" class="st0" d="M90.4,28.3l6.9-15.7l1.4,0.6l-6.9,15.7L90.4,28.3z"/>
<path id="Path_3303" class="st0" d="M95.2,133.1c-0.8,0.7-1.8,1.1-2.9,1.1l-31.5-0.4c-1.9,0.1-3.5-1.2-3.7-3.1
	c0.1-1.4,1.2-2.6,2.5-2.8c1.3-0.3,2.1-1.7,1.7-3c0,0,0,0,0,0c-0.2-0.9-1-1.6-2-1.8c-1.6-0.1-2.9-1.4-3-3c0.1-1.3,1.1-2.5,2.4-2.8
	c1.3-0.4,2-1.8,1.6-3.1c-0.2-0.8-0.8-1.4-1.6-1.6c-1.3-0.3-2.3-1.5-2.4-2.9c0-0.5,0.2-1.1,0.5-1.5h37.5c0.6,0.5,0.9,1.2,0.9,2
	c-0.1,1.3-1.1,2.5-2.4,2.8c-1.3,0.4-2,1.8-1.6,3c0.2,0.8,0.8,1.4,1.6,1.6c1.6,0.3,2.6,1.8,2.4,3.3c-0.2,1.3-1.2,2.2-2.5,2.4
	c-1.3,0.3-2.1,1.7-1.7,3c0,0,0,0,0,0c0.2,0.9,1,1.6,1.9,1.8c1.6,0.2,2.9,1.4,3,3C96.1,131.9,95.8,132.6,95.2,133.1"/>
<path id="Path_3304" class="st0" d="M92.5,134.9h-0.2l-31.5-0.4c-2.2,0.2-4.2-1.5-4.4-3.8v-0.1c0.1-1.7,1.4-3.2,3.2-3.5
	c0.8-0.2,1.4-1.2,1.1-2.1c-0.2-0.6-0.7-1.1-1.3-1.2c-1.9-0.2-3.5-1.7-3.6-3.7V120c0.1-1.7,1.3-3.1,3-3.5c0.8-0.3,1.3-1.2,1.1-2.1
	c-0.2-0.5-0.6-0.9-1.1-1.1c-1.6-0.4-2.8-1.8-2.9-3.6c0-0.8,0.2-1.4,0.6-2l0.2-0.3h38.2l0.2,0.2c0.7,0.7,1.1,1.6,1.1,2.6
	c-0.1,1.7-1.3,3.1-3,3.5c-0.4,0.1-0.7,0.4-0.9,0.8s-0.2,0.9-0.1,1.3c0.2,0.5,0.6,0.9,1.1,1.1c1.9,0.4,3.2,2.2,2.9,4.2
	c-0.3,1.6-1.5,2.8-3.1,3c-0.4,0.1-0.8,0.4-1,0.8c-0.2,0.4-0.3,0.8-0.2,1.3c0.2,0.6,0.7,1.1,1.3,1.2c1.9,0.2,3.4,1.7,3.6,3.7
	c0,1-0.4,1.9-1.1,2.5C94.9,134.4,93.7,134.9,92.5,134.9L92.5,134.9z M60.8,133l31.6,0.4c0.9,0,1.7-0.3,2.3-0.9
	c0.4-0.4,0.6-0.9,0.6-1.4c-0.1-1.2-1.1-2.1-2.3-2.3c-1.3-0.2-2.3-1.1-2.6-2.3c-0.2-0.8-0.1-1.7,0.3-2.4s1.1-1.3,1.9-1.5l0.1,0
	c0.9-0.1,1.7-0.8,1.8-1.8c0.2-1.2-0.6-2.3-1.8-2.5l-0.1,0c-1-0.3-1.8-1.1-2.1-2.1c-0.2-0.8-0.2-1.7,0.2-2.4c0.4-0.8,1.1-1.3,1.9-1.6
	c1.1-0.2,1.8-1.1,1.9-2.1c0-0.4-0.2-0.8-0.5-1.2H57.4c-0.1,0.2-0.2,0.5-0.2,0.7c0.1,1,0.8,1.9,1.8,2.2c1,0.3,1.8,1.1,2.1,2.1
	c0.5,1.7-0.4,3.5-2.1,4c-1,0.2-1.8,1.1-1.9,2.1c0.1,1.2,1.1,2.2,2.3,2.3c1.3,0.2,2.3,1.1,2.6,2.3c0.5,1.7-0.6,3.4-2.3,3.9
	c-1.1,0.2-1.9,1.1-2,2.1C58.1,132.1,59.4,133.1,60.8,133L60.8,133z"/>
</svg>
