<?xml version="1.0" encoding="utf-8"?>
<!-- Generator: Adobe Illustrator 26.5.0, SVG Export Plug-In . SVG Version: 6.00 Build 0)  -->
<svg version="1.1" id="Layer_1" xmlns="http://www.w3.org/2000/svg" xmlns:xlink="http://www.w3.org/1999/xlink" x="0px" y="0px"
	 viewBox="0 0 151.3 151.3" style="enable-background:new 0 0 151.3 151.3;" xml:space="preserve">
<style type="text/css">
	.st0{fill:#FFFFFF;}
</style>
<path id="Path_3307" class="st0" d="M124.6,108.9c-8.5,0-19.3-2.7-30.4-7.7l0.6-1.4c10.9,4.9,21.5,7.5,29.8,7.5
	c7.5,0,12.7-2.1,15-6.2c3-5.2,0.8-12.8-6-21.3c-6.5-8.1-16.6-16.3-28.5-23c-3.6-2-7.2-3.9-11-5.5l0.6-1.4c3.8,1.7,7.5,3.5,11.1,5.6
	c12,6.8,22.3,15.1,28.9,23.3c7.2,9,9.4,17.2,6.1,22.9C138.3,106.5,132.6,108.9,124.6,108.9z"/>
<path id="Path_3308" class="st0" d="M94.8,101.2l-0.6-1.4c3.7-1.6,7.3-3.5,10.9-5.5c11.8-6.7,22-14.9,28.5-23c6.8-8.5,9-16,6-21.3
	c-2.3-4-7.5-6.2-15-6.2c-8.3,0-18.9,2.7-29.9,7.6l-0.6-1.4c11.2-5,22-7.7,30.5-7.7s13.7,2.4,16.3,6.9c3.3,5.8,1.1,13.9-6.1,22.9
	c-6.6,8.2-16.9,16.5-28.9,23.3C102.2,97.7,98.5,99.5,94.8,101.2L94.8,101.2z"/>
<path id="Path_3309" class="st0" d="M94.5,128.9c-2.9-0.1-5.7-1.2-7.9-3.1l1-1.1c1.9,1.7,4.4,2.6,6.9,2.7c12,0,21.5-22.8,21.5-51.8
	s-9.4-51.8-21.5-51.8c-2.6,0.1-5.1,1-7,2.7l-1-1.1c2.2-1.9,5.1-3,8-3.1c12.9,0,23,23.4,23,53.3S107.4,128.9,94.5,128.9L94.5,128.9z"
	/>
<path id="Path_3313" class="st0" d="M57.4,128.9H32.2c-0.5,0-1-0.1-1.4-0.3c-8.1-3.8-14.6-10.3-18.3-18.4c-4.2-9.2-4.7-19.5-1.2-29
	c3.4-9.3,10.2-16.8,19.2-21.1V25.7c0-1.9,1.5-3.4,3.4-3.4h23.5v1.5H33.8c-1,0-1.9,0.9-1.9,1.9v35.4l-0.4,0.2
	C22.7,65.4,16,72.7,12.6,81.8s-2.9,19,1.1,27.8c3.6,7.8,9.8,14,17.6,17.7c0.2,0.1,0.5,0.2,0.8,0.2h25.2V128.9L57.4,128.9z"/>
<path class="st0" d="M85,121.6c0.1-0.1,0.2-0.2,0.3-0.4c1.9-2.8,3-6.2,3-9.8l-0.1-71.5c0-9.7-7.9-17.6-17.6-17.6
	c-9.7,0-17.6,7.9-17.6,17.6l0.1,71.5c0,4.7,1.9,9,5,12.2c0.1,0.1,0.1,0.1,0.2,0.2c0,0.1,0.1,0.1,0.2,0.2c2.8,2.7,6.4,4.5,10.5,4.9
	c0.6,0.1,1.2,0.1,1.8,0.1c5.5,0,10.3-2.5,13.6-6.4C84.5,122.2,84.8,121.9,85,121.6L85,121.6z M70.6,23.8c8.8,0,16.1,7.2,16.1,16.1
	l0,34H54.5l0-33.9C54.5,31.1,61.7,23.8,70.6,23.8L70.6,23.8z M94.5,65.4h-0.8l0,19.7l0,0.8h0.8c5.5-0.1,10.1-4.6,10.1-10.1
	C104.7,70.1,100.1,65.5,94.5,65.4L94.5,65.4z M49.8,119.3c-1.4-1.7-2.1-6-2.1-12.8V85.1H18.8l-0.2,0.5c-4.2,13.6,2,28.2,14.6,34.8
	l0.2,0.1h17.4L49.8,119.3L49.8,119.3z M32.5,68.5c-1.9,0-3.7,0.7-5.1,2.1c-1.3,1.3-2.1,3.2-2.1,5.1c0,1.9,0.7,3.7,2.1,5.1
	c1.3,1.3,3.2,2.1,5.1,2.1c1.9,0,3.7-0.8,5.1-2.1c1.3-1.3,2.1-3.2,2.1-5.1C39.7,71.7,36.5,68.5,32.5,68.5L32.5,68.5z"/>
<circle class="st0" cx="40.5" cy="61.2" r="4.3"/>
</svg>
