<svg id="Layer_1" data-name="Layer 1" xmlns="http://www.w3.org/2000/svg" viewBox="0 0 151.26 151.26"><defs><style>.cls-1{fill:#00617c}</style></defs><path class="cls-1" d="M53.1 37.74h40.4v4.28H53.1zM125.21 52.56H51.94c-4.57 0-8.27 3.7-8.27 8.27s3.7 8.27 8.27 8.27h73.27c4.57 0 8.27-3.7 8.27-8.27s-3.7-8.27-8.27-8.27ZM95.23 64.71H51.36v-7.75h43.88v7.75Zm20.01 0c-2.14 0-3.87-1.74-3.87-3.87s1.74-3.87 3.87-3.87 3.87 1.74 3.87 3.87-1.74 3.87-3.87 3.87Zm9.5 0c-2.14 0-3.87-1.74-3.87-3.87s1.74-3.87 3.87-3.87 3.87 1.74 3.87 3.87-1.74 3.87-3.87 3.87Z"/><path class="cls-1" d="M51.94 48.15h73.27c4.57 0 8.27-3.7 8.27-8.27s-3.7-8.27-8.27-8.27H51.94c-4.57 0-8.27 3.7-8.27 8.27s3.7 8.27 8.27 8.27ZM124.74 36c2.14 0 3.87 1.74 3.87 3.87s-1.74 3.87-3.87 3.87-3.87-1.74-3.87-3.87 1.74-3.87 3.87-3.87Zm-9.5 0c2.14 0 3.87 1.74 3.87 3.87s-1.74 3.87-3.87 3.87-3.87-1.74-3.87-3.87 1.74-3.87 3.87-3.87Zm-63.89 0h43.88v7.75H51.36V36ZM115.25 58.7c-1.18 0-2.14.96-2.14 2.14s.96 2.14 2.14 2.14 2.14-.96 2.14-2.14-.96-2.14-2.14-2.14Z"/><circle class="cls-1" cx="115.25" cy="39.87" r="2.14"/><circle class="cls-1" cx="124.74" cy="39.87" r="2.14"/><path class="cls-1" d="M125.21 73.52H60.76c3.18.02 5.95 1.8 7.4 4.4h27.08v7.75h-26v4.4h55.98c4.57 0 8.27-3.7 8.27-8.27s-3.7-8.27-8.27-8.27Zm-9.97 12.15c-2.14 0-3.87-1.74-3.87-3.87s1.74-3.87 3.87-3.87 3.87 1.74 3.87 3.87-1.74 3.87-3.87 3.87Zm9.5 0c-2.14 0-3.87-1.74-3.87-3.87s1.74-3.87 3.87-3.87 3.87 1.74 3.87 3.87-1.74 3.87-3.87 3.87ZM53.1 58.7h40.4v4.28H53.1z"/><path class="cls-1" d="M124.74 79.66c-1.18 0-2.14.96-2.14 2.14s.96 2.14 2.14 2.14 2.14-.96 2.14-2.14-.96-2.14-2.14-2.14ZM93.5 83.93v-4.28H68.88c.22.76.35 1.56.35 2.4v1.88H93.5ZM115.25 79.66c-1.18 0-2.14.96-2.14 2.14s.96 2.14 2.14 2.14 2.14-.96 2.14-2.14-.96-2.14-2.14-2.14ZM124.74 58.7c-1.18 0-2.14.96-2.14 2.14s.96 2.14 2.14 2.14 2.14-.96 2.14-2.14-.96-2.14-2.14-2.14ZM61.52 125.7H22.03c-2.68 0-4.86-2.18-4.86-4.86v-39.6c0-2.68 2.18-4.86 4.86-4.86h39.49c2.68 0 4.86 2.18 4.86 4.86v39.6c0 2.68-2.18 4.86-4.86 4.86ZM22.03 77.87c-1.85 0-3.36 1.51-3.36 3.36v39.6a3.36 3.36 0 0 0 3.36 3.36h39.49c1.85 0 3.36-1.51 3.36-3.36v-39.6c0-1.85-1.51-3.36-3.36-3.36H22.03Z"/><path class="cls-1" d="M34.08 95.45h1.41c.39 0 .67.07.84.22s.26.38.26.71-.08.56-.25.7-.45.22-.85.22h-5.12c-.4 0-.68-.07-.85-.22s-.25-.38-.25-.7.09-.57.26-.71.45-.22.85-.22h1.61v-7.32l-.97.25c-.15.03-.27.06-.37.08s-.17.03-.22.03c-.24 0-.42-.08-.55-.23s-.2-.36-.2-.64c0-.2.07-.37.22-.51s.37-.25.67-.32l2.15-.59c.18-.05.33-.08.44-.1s.21-.03.29-.03c.23 0 .4.06.49.19s.15.34.15.64v8.56ZM50.25 86.07c1.33 0 2.39.52 3.17 1.55s1.17 2.43 1.17 4.2-.39 3.18-1.17 4.21c-.78 1.03-1.84 1.55-3.17 1.55s-2.36-.52-3.14-1.55-1.16-2.44-1.16-4.21.39-3.18 1.16-4.21 1.82-1.54 3.14-1.54Zm.02 1.95c-.61 0-1.1.34-1.45 1.01s-.53 1.6-.53 2.78.18 2.13.53 2.81.84 1.01 1.46 1.01 1.11-.34 1.46-1.01.53-1.61.53-2.81-.18-2.11-.53-2.78-.84-1.01-1.46-1.01ZM32.74 104.5c1.33 0 2.39.52 3.17 1.55.78 1.03 1.17 2.43 1.17 4.2s-.39 3.18-1.17 4.21-1.84 1.55-3.17 1.55-2.36-.52-3.14-1.55-1.16-2.44-1.16-4.21.39-3.18 1.16-4.21 1.82-1.54 3.14-1.54Zm.02 1.95c-.61 0-1.1.34-1.45 1.01s-.53 1.6-.53 2.78.18 2.13.53 2.81.84 1.01 1.46 1.01 1.11-.34 1.46-1.01.53-1.61.53-2.81-.18-2.11-.53-2.78-.84-1.01-1.46-1.01ZM51.59 113.88H53c.39 0 .67.07.84.22s.26.38.26.71-.08.56-.25.7-.45.22-.85.22h-5.12c-.4 0-.68-.07-.85-.22s-.25-.38-.25-.7.09-.57.26-.71.45-.22.85-.22h1.61v-7.32l-.97.25c-.15.03-.27.06-.37.08s-.17.03-.22.03c-.24 0-.42-.08-.55-.23s-.2-.36-.2-.64c0-.2.07-.37.22-.51s.37-.25.67-.32l2.15-.59c.18-.05.33-.08.44-.1s.21-.03.29-.03c.23 0 .4.06.49.19s.15.34.15.64v8.56Z"/></svg>