<?xml version="1.0" encoding="utf-8"?>
<!-- Generator: Adobe Illustrator 26.5.0, SVG Export Plug-In . SVG Version: 6.00 Build 0)  -->
<svg version="1.1" id="Layer_1" xmlns="http://www.w3.org/2000/svg" xmlns:xlink="http://www.w3.org/1999/xlink" x="0px" y="0px"
	 viewBox="0 0 151.3 151.3" style="enable-background:new 0 0 151.3 151.3;" xml:space="preserve">
<style type="text/css">
	.st0{fill:#FFFFFF;}
</style>
<path id="Pfad_2186" class="st0" d="M133.2,96.3h-1.5V83.1H76.4v13.2h-1.5V83.1H19.5v13.2H18V81.6h56.8V68.2h1.5v13.4h56.8V96.3z"/>
<path id="Path_2412" class="st0" d="M80.3,69.1l-2.4-3.5h-4.6l-2.4,3.5l-7-2.3l0.1-4.2l-3.7-2.7l-4,1.4l-4.3-6l2.6-3.3l-1.4-4.4
	l-4-1.2V39l4-1.2l1.4-4.4L52,30.1l4.3-6l4,1.4l3.7-2.7l-0.1-4.2l7-2.3l2.4,3.5h4.6l2.4-3.5l7,2.3l-0.1,4.2l3.7,2.7l4-1.4l4.3,6
	l-2.6,3.3l1.4,4.4l4.1,1.2v7.4l-4.1,1.2L96.7,52l2.6,3.3l-4.3,6l-4-1.4l-3.7,2.7l0.1,4.2L80.3,69.1L80.3,69.1z M65.4,65.7l4.9,1.6
	l2.2-3.2h6.2l2.2,3.2l4.9-1.6l-0.1-3.9l5-3.6l3.7,1.3l3-4.2L95,52.2l1.9-5.9l3.7-1.1v-5.2L96.9,39L95,33.1l2.4-3.1l-3-4.2l-3.7,1.3
	l-5-3.6l0.1-3.9l-4.9-1.6l-2.2,3.2h-6.2l-2.2-3.2l-4.9,1.6l0.1,3.9l-5,3.6l-3.7-1.3l-3,4.2l2.4,3.1L54.3,39l-3.7,1.1v5.2l3.7,1.1
	l1.9,5.9l-2.4,3.1l3,4.2l3.7-1.3l5,3.6L65.4,65.7L65.4,65.7z"/>
<circle id="Ellipse_254" class="st0" cx="18.8" cy="108.4" r="8.4"/>
<path id="Pfad_2222" class="st0" d="M34.5,134.1L32,122.2c-1.2-2.1-3.4-3.4-5.9-3.4H11.4c-2.4,0-4.7,1.3-5.9,3.4l-2.5,11.8H34.5z"/>
<circle id="Ellipse_254-2" class="st0" cx="132.4" cy="108.4" r="8.4"/>
<path id="Pfad_2222-2" class="st0" d="M148.2,134.1l-2.5-11.8c-1.2-2.1-3.4-3.4-5.9-3.4h-14.7c-2.4,0-4.7,1.3-5.9,3.4l-2.5,11.8
	H148.2L148.2,134.1z"/>
<circle id="Ellipse_254-3" class="st0" cx="75.6" cy="108.4" r="8.4"/>
<path id="Pfad_2222-3" class="st0" d="M91.4,134.1l-2.5-11.8c-1.2-2.1-3.4-3.4-5.9-3.4H68.3c-2.4,0-4.7,1.3-5.9,3.4l-2.5,11.8H91.4
	L91.4,134.1z"/>
<path class="st0" d="M75.6,55.2c-6.9,0-12.5-5.6-12.5-12.5s5.6-12.5,12.5-12.5s12.5,5.6,12.5,12.5S82.5,55.2,75.6,55.2z M75.6,31.7
	c-6.1,0-11,4.9-11,11s4.9,11,11,11s11-4.9,11-11S81.7,31.7,75.6,31.7z"/>
</svg>
