<svg id="Ebene_1" data-name="Ebene 1" xmlns="http://www.w3.org/2000/svg" xmlns:xlink="http://www.w3.org/1999/xlink" viewBox="0 0 37.77 87"><defs><style>.cls-1{fill:none;}.cls-2{clip-path:url(#clip-path);}</style><clipPath id="clip-path" transform="translate(-29.12 -4)"><rect class="cls-1" width="96" height="96"/></clipPath></defs><g class="cls-2"><path d="M66.47,84,55,57.79V39.48A5,5,0,0,1,56.47,36l2.24-2.24a1,1,0,0,0,0-1.42A1,1,0,0,0,58,32H38a1,1,0,0,0-1,1,1,1,0,0,0,.29.71L39.54,36A5,5,0,0,1,41,39.48V57.79L29.54,84a5,5,0,0,0,2.58,6.58,4.92,4.92,0,0,0,2,.42H61.88a5,5,0,0,0,5-5A5.08,5.08,0,0,0,66.47,84ZM41,34.54,40.43,34s0,0,0,0H55.56s0,0,0,0l-.52.52a7,7,0,0,0-2,4.94V45H43V39.49A7,7,0,0,0,41,34.54ZM64.4,87.64A3,3,0,0,1,61.88,89H34.12a3,3,0,0,1-3-3,2.93,2.93,0,0,1,.25-1.2L42.92,58.4A1.1,1.1,0,0,0,43,58V47H53V58a1.1,1.1,0,0,0,.08.4L64.63,84.8A2.94,2.94,0,0,1,64.4,87.64Z" transform="translate(-29.12 -4)"/><path d="M50,10a3,3,0,1,0-3-3A3,3,0,0,0,50,10Zm0-4a1,1,0,1,1-1,1A1,1,0,0,1,50,6Z" transform="translate(-29.12 -4)"/><path d="M52,16a3,3,0,1,0,3-3A3,3,0,0,0,52,16Zm3-1a1,1,0,1,1-1,1A1,1,0,0,1,55,15Z" transform="translate(-29.12 -4)"/><path d="M44,17a3,3,0,1,0-3-3A3,3,0,0,0,44,17Zm0-4a1,1,0,1,1-1,1A1,1,0,0,1,44,13Z" transform="translate(-29.12 -4)"/><path d="M42,25a4,4,0,1,0,4-4A4,4,0,0,0,42,25Zm6,0a2,2,0,1,1-2-2A2,2,0,0,1,48,25Z" transform="translate(-29.12 -4)"/></g></svg>