<svg xmlns="http://www.w3.org/2000/svg" xmlns:xlink="http://www.w3.org/1999/xlink" viewBox="0 0 51.34 57.81"><defs><style>.cls-1,.cls-2,.cls-3{fill:none;}.cls-1,.cls-2{clip-rule:evenodd;}.cls-2{clip-path:url(#clip-path);}.cls-4{clip-path:url(#clip-path-2);}.cls-5{clip-path:url(#clip-path-3);}</style><clipPath id="clip-path"><polygon class="cls-1" points="0 72 72 72 72 0 0 0 0 72 0 72"/></clipPath><clipPath id="clip-path-2" transform="translate(-10.64 -7.41)"><polygon class="cls-2" points="0 0 72 0 72 72 0 72 0 0 0 0"/></clipPath><clipPath id="clip-path-3" transform="translate(-10.64 -7.41)"><polygon class="cls-3" points="0 72 72 72 72 0 0 0 0 72 0 72"/></clipPath></defs><g id="Ebene_2" data-name="Ebene 2"><g id="Ebene_1-2" data-name="Ebene 1"><g class="cls-4"><g class="cls-5"><path d="M54.89,36.32c5.75-5.6,8.42-11.06,6.46-14.46s-8-3.81-15.75-1.63c-2-7.78-5.36-12.82-9.28-12.82S29,12.45,27,20.23c-7.72-2.18-13.78-1.77-15.75,1.63s.71,8.86,6.46,14.46c-5.75,5.59-8.42,11-6.46,14.45,1.17,2,3.77,3,7.3,3A31.87,31.87,0,0,0,27,52.4c2,7.78,5.36,12.82,9.29,12.82s7.31-5,9.28-12.82a31.93,31.93,0,0,0,8.45,1.35c3.53,0,6.13-1,7.3-3,2-3.4-.71-8.86-6.46-14.45Zm-.72-16c2.9,0,5,.73,5.89,2.28,1.6,2.76-1,7.62-6.26,12.68A63,63,0,0,0,47.18,30,62.27,62.27,0,0,0,46,21.69a31,31,0,0,1,8.22-1.36Zm-13,24.33c-1.61.93-3.22,1.78-4.81,2.55q-2.4-1.16-4.82-2.55c-1.61-.93-3.16-1.9-4.62-2.9-.13-1.76-.2-3.58-.2-5.44s.07-3.68.2-5.45q2.21-1.5,4.62-2.9t4.82-2.55c1.59.77,3.2,1.62,4.81,2.55s3.16,1.9,4.62,2.9c.13,1.77.2,3.59.2,5.45s-.07,3.68-.2,5.44c-1.46,1-3,2-4.62,2.9Zm4.45-1a60.78,60.78,0,0,1-1.07,6.84A60.42,60.42,0,0,1,38,48c1.27-.64,2.55-1.32,3.83-2.07s2.52-1.5,3.71-2.27ZM34.59,48a60.42,60.42,0,0,1-6.47,2.5,63.15,63.15,0,0,1-1.07-6.84c1.19.77,2.42,1.53,3.71,2.28s2.56,1.42,3.83,2.06Zm-9.27-7.34a61,61,0,0,1-5.39-4.35A59.24,59.24,0,0,1,25.32,32q-.12,2.12-.12,4.35t.12,4.35ZM27.05,29a63.33,63.33,0,0,1,1.07-6.85,61.58,61.58,0,0,1,6.46,2.5c-1.26.64-2.54,1.33-3.82,2.07s-2.52,1.5-3.71,2.28Zm11-4.35a59.39,59.39,0,0,1,6.46-2.49A60.78,60.78,0,0,1,45.58,29c-1.19-.78-2.42-1.54-3.71-2.28s-2.56-1.43-3.82-2.07ZM47.31,32a59.24,59.24,0,0,1,5.39,4.35,61,61,0,0,1-5.39,4.35q.12-2.13.12-4.35T47.31,32Zm-11-23.08c3.19,0,6.08,4.71,7.85,11.77a62.5,62.5,0,0,0-7.85,3.11,63.25,63.25,0,0,0-7.86-3.11c1.77-7.06,4.66-11.77,7.86-11.77ZM12.57,22.61c1.6-2.77,7.12-2.92,14.11-.92A63.67,63.67,0,0,0,25.45,30a63,63,0,0,0-6.62,5.25C13.6,30.23,11,25.37,12.57,22.61Zm0,27.42c-1.6-2.77,1-7.63,6.26-12.68a64.26,64.26,0,0,0,6.62,5.24,63.43,63.43,0,0,0,1.23,8.35c-7,2-12.51,1.86-14.11-.91ZM36.32,63.74c-3.2,0-6.09-4.71-7.86-11.77a63.25,63.25,0,0,0,7.86-3.11A62.5,62.5,0,0,0,44.17,52C42.4,59,39.51,63.74,36.32,63.74ZM60.06,50C58.47,52.8,52.94,53,46,50.94a61.8,61.8,0,0,0,1.23-8.35,64.26,64.26,0,0,0,6.62-5.24c5.23,5,7.86,9.91,6.26,12.68Z" transform="translate(-10.64 -7.41)"/><path d="M36.32,31.87a4.45,4.45,0,1,0,4.44,4.45,4.45,4.45,0,0,0-4.44-4.45Zm0,7.41a3,3,0,1,1,3-3,3,3,0,0,1-3,3Z" transform="translate(-10.64 -7.41)"/></g></g></g></g></svg>