<svg xmlns="http://www.w3.org/2000/svg" xmlns:xlink="http://www.w3.org/1999/xlink" viewBox="0 0 51.38 57.81"><defs><style>.cls-1,.cls-2{fill:none;}.cls-2{clip-path:url(#clip-path);}.cls-3{clip-path:url(#clip-path-2);}.cls-4{clip-path:url(#clip-path-3);}.cls-5{fill:#00617c;}</style><clipPath id="clip-path"><polygon class="cls-1" points="0 72 72 72 72 0 0 0 0 72 0 72"/></clipPath><clipPath id="clip-path-2" transform="translate(-10.61 -7.41)"><polygon class="cls-2" points="0 0 72 0 72 72 0 72 0 0 0 0"/></clipPath><clipPath id="clip-path-3" transform="translate(-10.61 -7.41)"><polygon class="cls-1" points="0 72 72 72 72 0 0 0 0 72 0 72"/></clipPath></defs><g id="Ebene_2" data-name="Ebene 2"><g id="Ebene_1-2" data-name="Ebene 1"><g id="Ebene_2-2" data-name="Ebene 2"><g id="Ebene_1-2-2" data-name="Ebene 1-2"><g class="cls-3"><g class="cls-4"><path class="cls-5" d="M54.89,36.32c5.75-5.6,8.42-11.06,6.46-14.46s-8-3.81-15.75-1.63c-2-7.78-5.36-12.82-9.28-12.82S29,12.45,27,20.23c-7.72-2.18-13.78-1.77-15.75,1.63s.71,8.86,6.46,14.46c-5.75,5.59-8.42,11-6.46,14.45,1.17,2,3.77,3,7.3,3A31.83,31.83,0,0,0,27,52.4c2,7.78,5.36,12.82,9.29,12.82s7.31-5,9.28-12.82A31.87,31.87,0,0,0,54,53.75c3.53,0,6.13-1,7.3-3,2-3.4-.71-8.86-6.46-14.45Zm-.72-16c2.9,0,5,.73,5.89,2.28,1.6,2.76-1,7.62-6.26,12.68A63.31,63.31,0,0,0,47.18,30,63,63,0,0,0,46,21.69a31,31,0,0,1,8.22-1.36Zm-13,24.33c-1.61.93-3.22,1.78-4.81,2.55Q34,46,31.54,44.65c-1.61-.93-3.16-1.9-4.62-2.9-.13-1.76-.2-3.58-.2-5.44s.07-3.68.2-5.45q2.2-1.5,4.62-2.9c1.61-.93,3.21-1.78,4.82-2.55C38,26.18,39.56,27,41.17,28s3.16,1.9,4.62,2.9c.13,1.77.2,3.59.2,5.45s-.07,3.68-.2,5.44C44.33,42.75,42.79,43.75,41.17,44.65Zm4.45-1a60.78,60.78,0,0,1-1.07,6.84A58.81,58.81,0,0,1,38,48c1.27-.64,2.55-1.32,3.83-2.07s2.52-1.5,3.71-2.27ZM34.59,48a60.42,60.42,0,0,1-6.47,2.5,63.15,63.15,0,0,1-1.07-6.84c1.19.77,2.42,1.53,3.71,2.28S33.32,47.36,34.59,48Zm-9.27-7.34a61,61,0,0,1-5.39-4.35A58.81,58.81,0,0,1,25.32,32q-.12,2.11-.12,4.35t.12,4.35ZM27.05,29a63.33,63.33,0,0,1,1.07-6.85,61.58,61.58,0,0,1,6.46,2.5c-1.26.64-2.54,1.33-3.82,2.07S28.24,28.22,27.05,29Zm11-4.35a59.39,59.39,0,0,1,6.46-2.49A60.78,60.78,0,0,1,45.58,29c-1.19-.78-2.42-1.54-3.71-2.28S39.31,25.29,38.05,24.65ZM47.31,32a59.24,59.24,0,0,1,5.39,4.35,61,61,0,0,1-5.39,4.35q.12-2.13.12-4.35T47.31,32Zm-11-23.08c3.19,0,6.08,4.71,7.85,11.77a63.11,63.11,0,0,0-7.85,3.11,63.25,63.25,0,0,0-7.86-3.11C30.22,13.63,33.11,8.92,36.31,8.92ZM12.57,22.61c1.6-2.77,7.12-2.92,14.11-.92A64.79,64.79,0,0,0,25.45,30a63,63,0,0,0-6.62,5.25C13.6,30.23,11,25.37,12.57,22.61Zm0,27.42c-1.6-2.77,1-7.63,6.26-12.68a64.26,64.26,0,0,0,6.62,5.24,63.43,63.43,0,0,0,1.23,8.35C19.68,52.94,14.17,52.8,12.57,50ZM36.32,63.74c-3.2,0-6.09-4.71-7.86-11.77a63.25,63.25,0,0,0,7.86-3.11A63.28,63.28,0,0,0,44.17,52C42.4,59,39.51,63.74,36.32,63.74ZM60.06,50c-1.59,2.8-7.12,3-14.06.94a61.8,61.8,0,0,0,1.23-8.35,64.26,64.26,0,0,0,6.62-5.24c5.23,5,7.86,9.91,6.26,12.68Z" transform="translate(-10.61 -7.41)"/><path class="cls-5" d="M36.32,31.87a4.45,4.45,0,1,0,4.44,4.46h0A4.46,4.46,0,0,0,36.32,31.87Zm0,7.41a3,3,0,1,1,3-3A3,3,0,0,1,36.32,39.28Z" transform="translate(-10.61 -7.41)"/></g></g></g></g></g></g></svg>