<svg xmlns="http://www.w3.org/2000/svg" xmlns:xlink="http://www.w3.org/1999/xlink" viewBox="0 0 42.94 58.55"><defs><style>.cls-1,.cls-2,.cls-3{fill:none;}.cls-1,.cls-2{clip-rule:evenodd;}.cls-2{clip-path:url(#clip-path);}.cls-4{clip-path:url(#clip-path-2);}.cls-5{clip-path:url(#clip-path-3);}</style><clipPath id="clip-path"><polygon class="cls-1" points="0 72 72 72 72 0 0 0 0 72 0 72"/></clipPath><clipPath id="clip-path-2" transform="translate(-14.82 -6.67)"><polygon class="cls-2" points="0 0 72 0 72 72 0 72 0 0 0 0"/></clipPath><clipPath id="clip-path-3" transform="translate(-14.82 -6.67)"><polygon class="cls-3" points="0 72 72 72 72 0 0 0 0 72 0 72"/></clipPath></defs><g id="Ebene_2" data-name="Ebene 2"><g id="Ebene_1-2" data-name="Ebene 1"><g class="cls-4"><g class="cls-5"><path d="M18.53,58.55a2.22,2.22,0,0,1-2.23-2.22V23a2.23,2.23,0,0,1,2.23-2.23h2.59a1.08,1.08,0,0,0,1.11-1.06V16.31H41.5v3.33a1.09,1.09,0,0,0,1.07,1.11h2.64A2.22,2.22,0,0,1,47.43,23V28.9H23.72a1.49,1.49,0,0,0-1.49,1.48V43.72a1.49,1.49,0,0,0,1.49,1.48H47.43v6.67h1.48V23a3.71,3.71,0,0,0-3.7-3.71H43v-3h1.48A1.45,1.45,0,0,0,46,14.92V10.38a3.71,3.71,0,0,0-3.71-3.71H21.49a3.71,3.71,0,0,0-3.7,3.71v4.44a1.44,1.44,0,0,0,1.38,1.49h1.58v3H18.53A3.71,3.71,0,0,0,14.82,23V56.33A3.71,3.71,0,0,0,18.53,60H31.89c0-.13,0-.25,0-.39A8,8,0,0,1,32,58.55Zm5.19-14.83V30.37H47.43V43.72Zm-4.45-28.9V10.38a2.22,2.22,0,0,1,2.22-2.23H42.24a2.23,2.23,0,0,1,2.23,2.23v4.44Z" transform="translate(-14.82 -6.67)"/><path d="M52.2,54.1H39.7a5.56,5.56,0,0,0,0,11.12H52.2a5.56,5.56,0,1,0,0-11.12ZM35.62,59.66a4.08,4.08,0,0,1,4.08-4.07h5.55v8.15H39.7a4.08,4.08,0,0,1-4.08-4.08ZM52.2,63.74H46.74V55.59H52.2a4.08,4.08,0,1,1,0,8.15Z" transform="translate(-14.82 -6.67)"/></g></g></g></g></svg>