<svg xmlns="http://www.w3.org/2000/svg" xmlns:xlink="http://www.w3.org/1999/xlink" viewBox="0 0 61.83 57.81"><defs><style>.cls-1,.cls-2,.cls-3{fill:none;}.cls-1,.cls-2{clip-rule:evenodd;}.cls-2{clip-path:url(#clip-path);}.cls-4{clip-path:url(#clip-path-2);}.cls-5{clip-path:url(#clip-path-3);}.cls-6{fill:#0617c;}</style><clipPath id="clip-path"><polygon class="cls-1" points="0 72 72 72 72 0 0 0 0 72 0 72"/></clipPath><clipPath id="clip-path-2" transform="translate(-5.62 -7.41)"><polygon class="cls-2" points="0 0 72 0 72 72 0 72 0 0 0 0"/></clipPath><clipPath id="clip-path-3" transform="translate(-5.62 -7.41)"><polygon class="cls-3" points="0 72 72 72 72 0 0 0 0 72 0 72"/></clipPath></defs><g id="Ebene_2" data-name="Ebene 2"><g id="Ebene_1-2" data-name="Ebene 1"><g class="cls-4"><g class="cls-5"><path class="cls-6" d="M27.82,51.25a3.37,3.37,0,1,0,3.36-3.37h0a3.36,3.36,0,0,0-3.36,3.37Zm5.25,0a1.89,1.89,0,1,1-1.89-1.89h0a1.9,1.9,0,0,1,1.89,1.89Z" transform="translate(-5.62 -7.41)"/><path class="cls-6" d="M37.14,57.55A9.28,9.28,0,0,0,33.88,56a9.49,9.49,0,0,0-2.75-.41,10.29,10.29,0,0,0-2.75.41,10.83,10.83,0,0,0-3.25,1.6,1.77,1.77,0,0,0-.67,1.34v3.37H37.8V58.89a1.76,1.76,0,0,0-.66-1.34Zm-.82,3.23H25.94V58.92a.28.28,0,0,1,.09-.2,9.2,9.2,0,0,1,2.76-1.35A8.91,8.91,0,0,1,31.14,57a7.77,7.77,0,0,1,2.3.35h.06a7.62,7.62,0,0,1,2.71,1.33.29.29,0,0,1,.11.18Z" transform="translate(-5.62 -7.41)"/><path class="cls-6" d="M42.54,51.25a3.37,3.37,0,1,0,3.37-3.37h0a3.37,3.37,0,0,0-3.37,3.37Zm5.25,0a1.89,1.89,0,1,1-1.88-1.89h0a1.9,1.9,0,0,1,1.88,1.89Z" transform="translate(-5.62 -7.41)"/><path class="cls-6" d="M52,57.55A9.23,9.23,0,0,0,48.71,56,9.49,9.49,0,0,0,46,55.54a10.23,10.23,0,0,0-2.75.41A11,11,0,0,0,40,57.55a1.76,1.76,0,0,0-.66,1.34v3.37H52.63V58.89A1.81,1.81,0,0,0,52,57.55Zm-.82,3.23H40.77V58.92a.27.27,0,0,1,.09-.2,9.2,9.2,0,0,1,2.76-1.35A8.91,8.91,0,0,1,46,57a7.77,7.77,0,0,1,2.3.35h.06A7.62,7.62,0,0,1,51,58.71a.29.29,0,0,1,.11.18Z" transform="translate(-5.62 -7.41)"/><path class="cls-6" d="M57.36,51.25a3.37,3.37,0,1,0,3.37-3.37h0a3.37,3.37,0,0,0-3.37,3.37Zm5.25,0a1.88,1.88,0,1,1-1.88-1.89h0a1.89,1.89,0,0,1,1.88,1.89Z" transform="translate(-5.62 -7.41)"/><path class="cls-6" d="M66.78,57.55A9.15,9.15,0,0,0,63.53,56a9.49,9.49,0,0,0-2.75-.41A10.23,10.23,0,0,0,58,56a10.83,10.83,0,0,0-3.25,1.6,1.74,1.74,0,0,0-.67,1.34v3.37H67.45V58.89a1.74,1.74,0,0,0-.67-1.34ZM66,60.78H55.59V58.92a.33.33,0,0,1,.09-.2,9.26,9.26,0,0,1,2.77-1.35A8.84,8.84,0,0,1,60.79,57a7.89,7.89,0,0,1,2.31.35h0a7.67,7.67,0,0,1,2.72,1.33.27.27,0,0,1,.1.18Z" transform="translate(-5.62 -7.41)"/><path class="cls-6" d="M18.53,10.38A1.49,1.49,0,0,1,20,8.89h37.8a1.49,1.49,0,0,1,1.48,1.49v25.2a1.48,1.48,0,0,1-1.48,1.48H32.73l-.9,1.48h26a3,3,0,0,0,3-3V10.38a3,3,0,0,0-3-3H20a3,3,0,0,0-3,3v3a6.22,6.22,0,0,1,1.48.27Z" transform="translate(-5.62 -7.41)"/><path class="cls-6" d="M25.87,35.67a.73.73,0,0,0,.71-.34l3.18-5.07a1.18,1.18,0,0,1,1.63-.37.1.1,0,0,1,.05,0,1.25,1.25,0,0,1,.25,1.69L27.81,38a1.44,1.44,0,0,1-1.91.53.73.73,0,0,0-1,.3.76.76,0,0,0,.31,1,2.92,2.92,0,0,0,3.86-1.07L33,32.4a2.75,2.75,0,0,0-.05-3.07l9.4-9.57a.74.74,0,0,0-1.06-1l-9.51,9.69a2.8,2.8,0,0,0-1.49-.14,2.71,2.71,0,0,0-1.73,1.2l-2.35,3.74-1.37-4.14L24.74,29c-1.1-2.53-3.73-3-8.18-3s-7.08.48-8.19,3l0,.1a.94.94,0,0,0,0,.16L5.69,43.36A2.44,2.44,0,0,0,7.51,46.3l.18,0,.22,0H8a.74.74,0,0,0,.11-1.47l-.22,0a.93.93,0,0,1-.65-.42,1,1,0,0,1-.13-.79l2.58-14.1v0c.6-1.38,1.87-2.13,6.83-2.13s6.23.75,6.82,2.12l1.87,5.63a.74.74,0,0,0,.62.5Z" transform="translate(-5.62 -7.41)"/><path class="cls-6" d="M21.49,32.92a.74.74,0,0,0-.74.74V63.74H17.42V45.32H15.93V63.74H12.6V33.66a.74.74,0,0,0-1.48,0V65.22H22.23V33.66a.74.74,0,0,0-.74-.74Z" transform="translate(-5.62 -7.41)"/><path class="cls-6" d="M16.56,24.46A4.45,4.45,0,1,0,12.11,20a4.45,4.45,0,0,0,4.45,4.45Zm0-7.41a3,3,0,1,1-3,3,3,3,0,0,1,3-3Z" transform="translate(-5.62 -7.41)"/></g></g></g></g></svg>