<svg xmlns="http://www.w3.org/2000/svg" xmlns:xlink="http://www.w3.org/1999/xlink" viewBox="0 0 54.88 52.01"><defs><style>.cls-1,.cls-2{fill:none;}.cls-2{clip-path:url(#clip-path);}.cls-3{clip-path:url(#clip-path-2);}.cls-4{clip-path:url(#clip-path-3);}.cls-5{fill:#00617c;}</style><clipPath id="clip-path"><polygon class="cls-1" points="0 72 72 72 72 0 0 0 0 72 0 72"/></clipPath><clipPath id="clip-path-2" transform="translate(-8.92 -10.39)"><polygon class="cls-2" points="0 0 72 0 72 72 0 72 0 0 0 0"/></clipPath><clipPath id="clip-path-3" transform="translate(-8.92 -10.39)"><polygon class="cls-1" points="0 72 72 72 72 0 0 0 0 72 0 72"/></clipPath></defs><g id="Ebene_2" data-name="Ebene 2"><g id="Ebene_1-2" data-name="Ebene 1"><g id="Ebene_2-2" data-name="Ebene 2"><g id="Ebene_1-2-2" data-name="Ebene 1-2"><g class="cls-3"><g class="cls-4"><path class="cls-5" d="M58.18,36.32a5.59,5.59,0,1,0-5.56-5.62,5.78,5.78,0,0,0,.18,1.43L43,36.06a7.4,7.4,0,0,0-5.92-4.15V21.44a5.55,5.55,0,1,0-1.49,0V31.91a7.4,7.4,0,0,0-5.92,4.15l-9.82-3.93a5.55,5.55,0,1,0-.55,1.37l9.86,4a7.29,7.29,0,0,0,1.62,6.71l-8,8a5.54,5.54,0,1,0,1.1,1l8-7.94a7.38,7.38,0,0,0,9,0l8,7.94a5.6,5.6,0,1,0,1.1-1l-8-8A7.29,7.29,0,0,0,43.6,37.5l9.86-3.94a5.57,5.57,0,0,0,4.83,2.81ZM14.45,34.83a4.08,4.08,0,1,1,4.08-4.08h0a4.07,4.07,0,0,1-4.07,4.07Zm17.79-18.9A4.08,4.08,0,1,1,36.33,20h0a4.07,4.07,0,0,1-4.08-4.06v0ZM19.64,60.78a4.08,4.08,0,1,1,4.08-4.08,4.08,4.08,0,0,1-4.08,4.08ZM57.07,56.7A4.08,4.08,0,1,1,53,52.62h0a4.08,4.08,0,0,1,4.08,4.08h0ZM36.32,45.21a5.93,5.93,0,1,1,5.92-5.94h0a5.92,5.92,0,0,1-5.91,5.93ZM58.18,26.68a4.08,4.08,0,1,1-4.08,4.08,4.08,4.08,0,0,1,4.08-4.08Z" transform="translate(-8.92 -10.39)"/></g></g></g></g></g></g></svg>