<svg xmlns="http://www.w3.org/2000/svg" viewBox="0 0 178.89 190.18"><defs><style>.cls-1{fill:none;stroke:#fff;stroke-miterlimit:10;stroke-width:3px;}.cls-2{fill:#fff;}</style></defs><g id="Ebene_2" data-name="Ebene 2"><g id="Ebene_1-2" data-name="Ebene 1"><path class="cls-1" d="M121.61,57.94a32.64,32.64,0,0,1,6.63,12.2,31.63,31.63,0,0,1,.63,14.54c-.9,5.1-2.79,10-4.49,14.86a228.4,228.4,0,0,1-12.19,29.12,154.89,154.89,0,0,0-11.3,27.69,150.2,150.2,0,0,0-5.45,29.74,2.56,2.56,0,0,1-2.5,2.5l-52.23.09c-2.83,0-3.17-3.84-1-4.79a54.48,54.48,0,0,1,4.52-22.2l-17.63.49c-5.56.15-11.71.24-15.69-4.34a12.4,12.4,0,0,1-3.08-7.26c-.2-2.78.89-5.38,2-7.86a17.82,17.82,0,0,0,1.83-7.37,82.35,82.35,0,0,1,.41-9.16A50.24,50.24,0,0,1,15.59,113,48.18,48.18,0,0,1,5.3,110.83a2.55,2.55,0,0,1-1.5-3.68,29.12,29.12,0,0,1,3.79-5.72c5.31-6.37,13.57-10.8,16.29-19.07,1.52-4.61.45-9.56,1.88-14.21a24.33,24.33,0,0,1,7-10.53A53.13,53.13,0,0,1,45.78,49"/><path class="cls-2" d="M94.24,47.83A11.91,11.91,0,0,0,85.86,45a12.52,12.52,0,0,0-9.07,3.32A17.87,17.87,0,0,0,72,56.84l-13.39-5.5a32.83,32.83,0,0,1,3.25-7.51,24.23,24.23,0,0,1,5.51-6.44q.47-.39,1-.75a26.75,26.75,0,0,1,7.17-3.76,30.47,30.47,0,0,1,8.11-1.59l-41-4.54c0,.64.06,1.29.08,1.93a79.76,79.76,0,0,1-3.06,24C57.7,58.38,76.5,64.08,95.27,65.41a13.32,13.32,0,0,0,2.1-7.69V56Q97.37,50.71,94.24,47.83Z"/><path class="cls-2" d="M97.45,32.83c.19.05.37.12.55.18a25.3,25.3,0,0,1,8.75,5.13,22.65,22.65,0,0,1,4.64,5.92,22.24,22.24,0,0,1,1,2,25.52,25.52,0,0,1,2,10.26,25.83,25.83,0,0,1-1.44,8.87,86.81,86.81,0,0,0,9.53-1.47,5.07,5.07,0,0,0,2.94-1.39,5.11,5.11,0,0,0,.86-2.83q1-10.53,2.06-21.07l.21-2.18Z"/><path class="cls-2" d="M177.67,17.33a65.36,65.36,0,0,0-15.36-4.66L145,9.16c-11.29-2.29-22.57-4.75-33.91-6.82A139.41,139.41,0,0,0,94.22.15,114.5,114.5,0,0,0,77,.63c-11.52,1-23,2.4-34.52,3.63L3.32,8.41A2.57,2.57,0,0,0,.91,10.25C.63,11.6.34,13,.06,14.3a2.82,2.82,0,0,0,0,1.12,2.24,2.24,0,0,0,1.76,2q20.51,5.28,40.82,11.3,12.88,3.83,25.68,8a26.75,26.75,0,0,1,7.17-3.76,30.47,30.47,0,0,1,8.11-1.59c.94-.07,1.9-.1,2.9-.1a34.6,34.6,0,0,1,11,1.64c.19.05.37.12.55.18a25.3,25.3,0,0,1,8.75,5.13,22.65,22.65,0,0,1,4.64,5.92l1.47-.5,8.46-2.78,7-2.33,10.12-3.37q19.35-6.49,38.62-13.18C178.92,21.26,179.75,18.33,177.67,17.33Z"/><path class="cls-2" d="M159.86,80.54a0,0,0,0,1,0,0s0,0,0,0Z"/><path class="cls-2" d="M158.84,102.71A12.16,12.16,0,0,1,151,99.36a15.74,15.74,0,0,1-6.64,3.43,2.52,2.52,0,0,1-2.43-4.18c1.37-1.39,3-2.51,4.45-3.76,1.29-1.09,2.54-2.24,2.9-3.79a10.56,10.56,0,0,0,0-2.81l-.15-3.7q-.13-3.72-.22-7.46c-.13-4.94-.24-9.88-.48-14.82a145.28,145.28,0,0,0-3.7-28.41c.29.12.59.25.88.39l-1.15-1.49c.1.37.19.73.27,1.1C130.27,27.38,114.38,25.34,99,22.45a2.51,2.51,0,0,1-1.74-3.07,2.56,2.56,0,0,1,3.07-1.75c9.29,1.74,18.65,3.16,27.84,5.43a118.92,118.92,0,0,1,12,3.56c2.07.75,4.12,1.58,6.14,2.46,1.11.49,2.38.86,2.92,2.05A16.71,16.71,0,0,1,150,34.2a150,150,0,0,1,3.35,25.95c.47,8.59.53,17.2.86,25.79,0,1.12.16,2.25.18,3.38a2.66,2.66,0,0,1,1.24,1Q158.37,94.59,161,99A2.52,2.52,0,0,1,158.84,102.71Z"/><path class="cls-2" d="M145.59,34.25c-.29-.14-.59-.27-.88-.39-.08-.37-.17-.73-.27-1.1Z"/><path class="cls-2" d="M92.49,103.75c-1.58-1.66-4.17-2.5-7.75-2.5s-6,.84-7.64,2.5a8.92,8.92,0,0,0-2.37,6.38v2.5A8.88,8.88,0,0,0,77.1,119c1.59,1.67,4.13,2.51,7.64,2.51s6.17-.84,7.75-2.51a8.85,8.85,0,0,0,2.38-6.38v-2.5A8.88,8.88,0,0,0,92.49,103.75Zm2.78-38.34a11.34,11.34,0,0,1-3.09,3Q87,71.86,77,72.23V91.74H92.24V81.48a31.42,31.42,0,0,0,8.26-2.68,25.79,25.79,0,0,0,7.13-5.13,23.86,23.86,0,0,0,4.94-7.51c.13-.31.25-.63.37-1A103.22,103.22,0,0,1,95.27,65.41Z"/></g></g></svg>