<svg xmlns="http://www.w3.org/2000/svg" viewBox="0 0 178.89 188.68"><defs><style>.cls-1{fill:#009cbc;}.cls-2{fill:#4e4d4d;}.cls-3{fill:#808181;}</style></defs><g id="Ebene_2" data-name="Ebene 2"><g id="Ebene_1-2" data-name="Ebene 1"><path class="cls-1" d="M128.24,70.14a32.79,32.79,0,0,0-3.2-7.42,37.52,37.52,0,0,0-14.25-13.45c.07,1,.11,1.95.11,3a28.29,28.29,0,0,1-2.38,12c-.21.45-.43.9-.65,1.34A28.12,28.12,0,0,1,102.4,73a30.24,30.24,0,0,1-8.5,5.76,40.41,40.41,0,0,1-9.5,3V97.3H73.31V73.69q11.81-.59,18.51-5.76a17,17,0,0,0,6.69-14.26v-2a18.72,18.72,0,0,0-.72-5.33,13.67,13.67,0,0,0-1-2.56,73.57,73.57,0,0,0-12.29-2.07l-1.13-.08h0a71.57,71.57,0,0,0-17.16.89,24.69,24.69,0,0,0-4.67,9.87l-10.65-4c.16-.58.34-1.15.53-1.72a67.85,67.85,0,0,0-11.7,5.74,47.15,47.15,0,0,0-7,5.26,24.33,24.33,0,0,0-6.95,10.53c-1.43,4.65-.36,9.6-1.88,14.21-2.72,8.27-11,12.7-16.29,19.07a29.12,29.12,0,0,0-3.79,5.72,2.55,2.55,0,0,0,1.5,3.68A48.18,48.18,0,0,0,15.59,113,50.24,50.24,0,0,0,12,126.19a82.35,82.35,0,0,0-.41,9.16,17.82,17.82,0,0,1-1.83,7.37c-1.12,2.48-2.21,5.08-2,7.86a12.4,12.4,0,0,0,3.08,7.26c4,4.58,10.13,4.49,15.69,4.34l17.63-.49a54.48,54.48,0,0,0-4.52,22.2c-2.13,1-1.79,4.8,1,4.79l52.23-.09a2.56,2.56,0,0,0,2.5-2.5,150.2,150.2,0,0,1,5.45-29.74,154.89,154.89,0,0,1,11.3-27.69,228.4,228.4,0,0,0,12.19-29.12c1.7-4.87,3.59-9.76,4.49-14.86A31.63,31.63,0,0,0,128.24,70.14ZM87.71,120.63a8.63,8.63,0,0,1-2.09,6.05q-2.09,2.3-6.69,2.3t-6.7-2.3a8.68,8.68,0,0,1-2.09-6.05v-1.87a8.68,8.68,0,0,1,2.09-6.05c1.39-1.54,3.62-2.3,6.7-2.3s5.3.76,6.69,2.3a8.63,8.63,0,0,1,2.09,6.05Z"/><path class="cls-2" d="M97.79,46.32a13.67,13.67,0,0,0-1-2.56,13.88,13.88,0,0,0-2.87-3.84q-4.61-4.39-12.38-4.39a20.42,20.42,0,0,0-9.81,2.21,15.86,15.86,0,0,0-3.51,2.54,22.34,22.34,0,0,0-2,2.22,24.69,24.69,0,0,0-4.67,9.87l-10.65-4c.16-.58.34-1.15.53-1.72a36.93,36.93,0,0,1,3.28-7.13,29.41,29.41,0,0,1,4.47-5.77c.6-.59,1.22-1.17,1.87-1.72a26.48,26.48,0,0,1,3.94-2.77L42.55,26.75c0,.64.06,1.29.08,1.93h0a79.15,79.15,0,0,1-3,23.67c0,.12-.06.25-.1.37,17.89,5.58,36.43,11.2,55,12.62a17.43,17.43,0,0,0,4-11.68v-2A18.72,18.72,0,0,0,97.79,46.32Z"/><path class="cls-2" d="M104.32,33.59A23.89,23.89,0,0,1,110,44.52a30.8,30.8,0,0,1,.75,4.75c.07,1,.11,1.95.11,3a28.29,28.29,0,0,1-2.38,12c-.21.45-.43.9-.65,1.34a90.66,90.66,0,0,0,14.61-1.85,5.88,5.88,0,0,0,2.56-1,2.22,2.22,0,0,0,.38-.37,5.1,5.1,0,0,0,.85-2.83q1-10.53,2.06-21.07l.21-2.18Z"/><path class="cls-3" d="M96.77,43.76a13.88,13.88,0,0,0-2.87-3.84q-4.61-4.39-12.38-4.39a20.42,20.42,0,0,0-9.81,2.21q5.82,1.89,11.62,3.87h0l3.79,1.28c3.47,1.2,7,2.77,10.65,3.43A13.67,13.67,0,0,0,96.77,43.76Z"/><path class="cls-3" d="M177.67,17.33a65.36,65.36,0,0,0-15.36-4.66L145,9.16c-11.29-2.29-22.57-4.75-33.91-6.82A139.41,139.41,0,0,0,94.22.15,114.5,114.5,0,0,0,77,.63c-11.52,1-23,2.4-34.52,3.63L3.32,8.41A2.57,2.57,0,0,0,.91,10.25C.63,11.6.34,13,.06,14.3a2.82,2.82,0,0,0,0,1.12,2.24,2.24,0,0,0,1.76,2q20.51,5.28,40.82,11.3h0q8.26,2.44,16.5,5c.6-.59,1.22-1.17,1.87-1.72a26.48,26.48,0,0,1,3.94-2.77A30.44,30.44,0,0,1,70,26.89,35.06,35.06,0,0,1,82,25q13.39,0,21.17,7.35c.42.4.83.81,1.2,1.23A23.89,23.89,0,0,1,110,44.52q1.41-.5,2.82-1l8.46-2.78,7-2.33,10.12-3.37,5.11-1.72,1-.33.11,0,4.64-1.57q13.92-4.71,27.8-9.53C178.92,21.26,179.75,18.33,177.67,17.33Z"/><path class="cls-2" d="M159.86,80.54a0,0,0,0,1,0,0s0,0,0,0Z"/><path class="cls-2" d="M158.85,102.71A12.16,12.16,0,0,1,151,99.36a15.74,15.74,0,0,1-6.64,3.43,2.52,2.52,0,0,1-2.43-4.18c1.37-1.39,3-2.51,4.45-3.76,1.29-1.09,2.54-2.24,2.9-3.79a10.56,10.56,0,0,0,0-2.81l-.15-3.7q-.13-3.72-.22-7.46c-.13-4.94-.24-9.88-.48-14.82a145.28,145.28,0,0,0-3.7-28.41c.29.12.59.25.88.39l-1.15-1.49c.1.37.19.73.27,1.1C130.28,27.38,114.39,25.34,99,22.45a2.51,2.51,0,0,1-1.74-3.07,2.56,2.56,0,0,1,3.07-1.75c9.29,1.74,18.65,3.16,27.84,5.43a118.92,118.92,0,0,1,12,3.56c2.07.75,4.12,1.58,6.14,2.46,1.11.49,2.38.86,2.92,2.05A16.71,16.71,0,0,1,150,34.2a150,150,0,0,1,3.35,25.95c.47,8.59.53,17.2.86,25.79,0,1.12.16,2.25.18,3.38a2.66,2.66,0,0,1,1.24,1Q158.38,94.59,161,99A2.52,2.52,0,0,1,158.85,102.71Z"/><path class="cls-2" d="M145.6,34.25c-.29-.14-.59-.27-.88-.39-.08-.37-.17-.73-.27-1.1Z"/></g></g></svg>