<?xml version="1.0" encoding="UTF-8"?><svg id="a" xmlns="http://www.w3.org/2000/svg" viewBox="0 0 92 47"><path d="M26.98,40.09v-1.18h-2.69v-1.12l2.39-3.82h1.56v3.93h.77v1.02h-.77v1.18h-1.25Zm-1.64-2.19h1.64v-2.57h-.09l-1.55,2.57Z" fill="#009cbc"/><g><path d="M36.61,37.76c-.47,.36-1.06,.53-1.76,.53-.98,0-1.75-.34-2.3-1.03-.55-.68-.83-1.68-.83-2.97v-1.19c0-1.31,.28-2.31,.83-3.02,.55-.7,1.32-1.06,2.3-1.06,.66,0,1.23,.17,1.69,.5,.47,.34,.81,.79,1.05,1.36l.74-.44c-.32-.69-.77-1.24-1.35-1.63-.58-.4-1.29-.59-2.13-.59-1.3,0-2.31,.47-3.02,1.4-.71,.93-1.07,2.29-1.07,4.06s.36,3.13,1.07,4.04c.71,.91,1.72,1.36,3.02,1.36,.85,0,1.58-.21,2.18-.62,.6-.42,1.06-.99,1.37-1.71l-.74-.44c-.23,.6-.58,1.08-1.05,1.44Z" fill="#1d1d1b"/><path d="M43.67,31.03c-.62,0-1.11,.13-1.47,.4-.36,.27-.63,.6-.8,1h-.05v-4.65h-.86v11.13h.86v-5.42c0-.28,.06-.53,.17-.74,.12-.22,.27-.39,.47-.53,.2-.14,.42-.25,.67-.32,.25-.07,.51-.11,.78-.11,.64,0,1.13,.19,1.47,.57,.34,.38,.5,.96,.5,1.74v4.8h.86v-4.95c0-.94-.23-1.67-.68-2.17-.46-.51-1.1-.76-1.92-.76Z" fill="#1d1d1b"/><path d="M54.06,32.09c-.28-.33-.62-.59-1.02-.78-.4-.19-.85-.28-1.34-.28s-.97,.09-1.38,.28c-.41,.19-.76,.45-1.06,.8-.3,.35-.52,.77-.68,1.26-.16,.5-.23,1.06-.23,1.69s.08,1.2,.23,1.7c.16,.5,.38,.93,.68,1.27,.3,.35,.65,.61,1.07,.79,.42,.18,.88,.27,1.39,.27,.73,0,1.36-.17,1.87-.51,.52-.34,.9-.79,1.14-1.36l-.63-.42c-.43,1.03-1.21,1.55-2.33,1.55-.39,0-.74-.07-1.05-.2-.31-.14-.57-.32-.79-.56-.22-.24-.38-.53-.5-.86-.12-.34-.17-.7-.17-1.11v-.38h5.7v-.41c0-.56-.08-1.08-.23-1.55-.16-.47-.37-.87-.65-1.2Zm-.05,2.49h-4.77v-.08c0-.4,.06-.77,.17-1.11,.12-.34,.28-.62,.5-.87,.22-.24,.47-.43,.77-.56,.3-.14,.64-.2,1.01-.2,.34,0,.65,.07,.94,.2,.29,.13,.53,.31,.74,.54,.21,.23,.36,.51,.47,.85,.11,.34,.17,.7,.17,1.11v.12Z" fill="#1d1d1b"/><path d="M66.95,31.79c-.44-.51-1.07-.76-1.9-.76-.68,0-1.22,.16-1.62,.47-.4,.32-.66,.7-.8,1.15h-.05c-.19-.56-.5-.97-.92-1.23-.42-.26-.91-.39-1.46-.39-.32,0-.6,.04-.83,.11-.24,.08-.44,.18-.61,.31-.17,.13-.32,.28-.44,.44-.12,.17-.22,.34-.3,.53h-.05v-1.22h-.86v7.7h.86v-5.42c0-.28,.05-.53,.17-.74,.11-.22,.26-.39,.45-.53,.19-.14,.41-.25,.65-.32,.25-.07,.5-.11,.76-.11,1.28,0,1.93,.77,1.93,2.32v4.8h.86v-5.4c0-.28,.06-.53,.17-.74,.11-.22,.26-.4,.44-.54,.19-.15,.4-.25,.64-.32,.24-.07,.5-.11,.77-.11,1.29,0,1.94,.77,1.94,2.32v4.8h.86v-4.95c0-.94-.22-1.67-.66-2.17Z" fill="#1d1d1b"/></g><g><line x1="76.66" y1="43.24" x2="76.8" y2="43.03"/><polygon points="81.25 40.18 85.48 37.74 85.48 32.86 81.25 30.42 77.02 32.86 77.02 37.74 81.25 40.18" fill="#009cbc"/><g><path d="M81.25,29.54v-4.7l-9.04,5.22v10.46l3,1.73s0,.07,0,.11c0,.26,.11,.5,.28,.67,.17,.17,.41,.28,.67,.28,.26,0,.5-.11,.67-.28,.17-.17,.28-.41,.28-.67,0-.26-.11-.5-.28-.67-.17-.17-.41-.28-.67-.28-.21,0-.41,.07-.57,.19l-2.62-1.51v-9.58l7.52-4.34v3.82l.76-.44Z"/><path d="M90.29,30.07l-3-1.73s0-.07,0-.11c0-.26-.11-.5-.28-.67-.17-.17-.41-.28-.67-.28-.26,0-.5,.11-.67,.28-.17,.17-.28,.41-.28,.67,0,.26,.11,.5,.28,.67,.17,.17,.41,.28,.67,.28,.21,0,.41-.07,.57-.19l2.62,1.51v9.58l-7.52,4.34v-3.82l-.76,.44v4.7l9.04-5.22v-10.46Z"/></g><line x1="76.66" y1="22.34" x2="76.8" y2="22.12"/></g><g><g id="b"><g id="c"><path d="M23.65,24.74c-.44-.75-.62-1.06-1.06-1.85-1.16-2.03-1.47-2.59-1.87-2.77-.11-.05-.23-.08-.36-.1v4.72h-2.2V13.46h4.21c1.73-.1,3.21,1.22,3.31,2.95,0,.12,0,.25,0,.37,0,1.69-1.12,3.09-2.52,3.12,.18,.13,.34,.29,.47,.47,.65,.81,2.72,4.39,2.72,4.39l-2.69-.02Zm-1.19-9.29c-.42-.12-.85-.18-1.28-.16h-.81v3.06h.76c.98,0,1.4-.1,1.73-.38,.3-.31,.46-.73,.44-1.16,.06-.59-.28-1.15-.84-1.36Z" fill="#434245"/><path d="M34.69,24.74l-.8-2.66h-3.32l-.8,2.66h-2.37l3.7-11.33h2.46l3.56,11.33h-2.44Zm-1.96-6.82c-.12-.52-.46-2-.46-2,0,0-.32,1.33-.54,2.18s-.36,1.35-.58,2.1h2.21s-.4-1.19-.64-2.28Z" fill="#434245"/><path d="M45.9,23.07c-.64,.91-1.64,1.5-2.75,1.62-.42,.03-.96,.06-1.62,.06h-2.74V13.46h2.28c.65,0,1.51,.03,1.97,.06,.93,.06,1.81,.46,2.47,1.12,1.05,1.03,1.55,2.47,1.55,4.51,.05,1.4-.35,2.77-1.15,3.92Zm-1.98-6.88c-.36-.64-1.06-1.01-1.79-.95h-1.04v7.66h1.23c1.5,0,2.18-1.16,2.18-3.55,0-1.32-.12-2.42-.57-3.17h-.01Z" fill="#434245"/><path d="M55.18,24.74l-.8-2.66h-3.32l-.8,2.66h-2.38l3.71-11.33h2.46l3.56,11.33h-2.44Zm-1.97-6.82c-.11-.52-.45-2-.45-2,0,0-.33,1.33-.54,2.18s-.36,1.35-.58,2.1h2.21s-.39-1.19-.64-2.28Z" fill="#434245"/><path d="M64.97,24.74c-.44-.75-.62-1.06-1.06-1.85-1.12-2.03-1.46-2.59-1.87-2.77-.11-.05-.23-.08-.36-.1v4.72h-2.23V13.46h4.21c1.73-.11,3.21,1.21,3.32,2.94,0,.13,0,.25,0,.38,0,1.69-1.12,3.09-2.52,3.12,.18,.13,.34,.29,.47,.47,.65,.81,2.72,4.39,2.72,4.39l-2.68-.02Zm-1.16-9.32c-.42-.12-.85-.18-1.29-.16h-.81v3.06h.76c.98,0,1.4-.1,1.73-.38,.3-.31,.46-.73,.44-1.16,.04-.6-.32-1.14-.88-1.34l.05-.02Z" fill="#434245"/></g></g><g id="d"><g id="e"><path d="M8.43,16.97l-1.55,3.64C1.89,18.4-.36,12.55,1.85,7.55,4.02,2.67,9.67,.39,14.62,2.39l-1.55,3.65c-2.97-1.4-6.51-.14-7.91,2.83s-.14,6.51,2.83,7.91c.15,.07,.3,.14,.46,.19" fill="#434245"/><path d="M10.75,13.48c1.09,0,1.98-.88,1.99-1.98,0-1.09-.88-1.98-1.98-1.99-1.09,0-1.98,.88-1.99,1.98h0c0,1.1,.89,1.98,1.98,1.99" fill="#a52055"/></g></g></g></svg>