<svg xmlns="http://www.w3.org/2000/svg" xmlns:xlink="http://www.w3.org/1999/xlink" viewBox="0 0 53.37 58.6"><defs><style>.cls-1,.cls-2,.cls-3{fill:none;}.cls-1,.cls-2{clip-rule:evenodd;}.cls-2{clip-path:url(#clip-path);}.cls-4{clip-path:url(#clip-path-2);}.cls-5{clip-path:url(#clip-path-3);}.cls-6{fill:#fff;}</style><clipPath id="clip-path"><polygon class="cls-1" points="0 72 72 72 72 0 0 0 0 72 0 72"/></clipPath><clipPath id="clip-path-2" transform="translate(-5.18 -6.62)"><polygon class="cls-2" points="0 0 72 0 72 72 0 72 0 0 0 0"/></clipPath><clipPath id="clip-path-3" transform="translate(-5.18 -6.62)"><polygon class="cls-3" points="0 72 72 72 72 0 0 0 0 72 0 72"/></clipPath></defs><g id="Ebene_2" data-name="Ebene 2"><g id="Ebene_1-2" data-name="Ebene 1"><g class="cls-4"><g class="cls-5"><path class="cls-6" d="M56.07,43.91A30,30,0,0,0,47.6,39.2a15.25,15.25,0,0,0,3.94-1.68.74.74,0,0,0,.23-1,.76.76,0,0,0-.11-.14s-2.32-2.22-2.49-4.62a27.82,27.82,0,0,1,.74-5.14,49.28,49.28,0,0,0,1.15-8.37c0-3.63-1-5.66-3.36-7A6.44,6.44,0,0,0,44,11a11.47,11.47,0,0,0-6-3.82A15,15,0,0,0,26.47,8.65C23.26,10.72,22,14,22,19.81c0,2.87.17,5.4.31,7.63a31.86,31.86,0,0,1,.1,5.86,7.64,7.64,0,0,1-1.62,3.48.74.74,0,0,0,.15,1l.09,0a16,16,0,0,0,3.85,1.41,35.4,35.4,0,0,0-6.3,3.17v1.81a31.67,31.67,0,0,1,7.26-3.76l-1.6,7.15a.74.74,0,0,0,.56.89h3.47l-1.71,3.29a.74.74,0,0,0,.26,1l8.81,5.65v5.31a90.37,90.37,0,0,1-12.19-.86,3.91,3.91,0,0,1-.81,1.34,92.11,92.11,0,0,0,14,1c9.34,0,18.6-1.16,21.7-3.48l.29-.22V48.9a6.82,6.82,0,0,0-2.48-5ZM42.58,48.15l2,3.77L37.69,56.3l5.64-16.86,2,1,1.49,6.68h-3.6a.74.74,0,0,0-.74.74.67.67,0,0,0,.09.34Zm-6.24,7.53-5.8-17.35-.08-.12a2.93,2.93,0,0,0,.67-1.86V35a11.06,11.06,0,0,0,10.38,0v1.32a2.92,2.92,0,0,0,.66,1.86Zm0-20.85a9.63,9.63,0,0,1-9.63-9.63v-3A31.57,31.57,0,0,0,36.05,20l.76-.38a19.77,19.77,0,0,0,5.57-3.64A19.77,19.77,0,0,0,43.67,21a6,6,0,0,0,2.1,2.2l.19.13V25.2a9.64,9.64,0,0,1-9.64,9.63ZM47.43,23a.75.75,0,0,0-.18-.5,3.69,3.69,0,0,0-.66-.52A4.46,4.46,0,0,1,45,20.27a17.9,17.9,0,0,1-1.12-4.56,1.45,1.45,0,0,0-1.43-1.23h0a1.37,1.37,0,0,0-1,.39,19.75,19.75,0,0,1-5.27,3.38l-.73.37a28.54,28.54,0,0,1-9.47,2.13.74.74,0,0,0-.74.74h0V25.2a11.1,11.1,0,0,0,4.45,8.87v2.28a1.51,1.51,0,0,1-.88,1.35c-2,.91-5-.16-6.33-.77a7.92,7.92,0,0,0,1.38-3.43,32.5,32.5,0,0,0-.08-6.16c-.15-2.21-.31-4.7-.31-7.53,0-5.29,1.11-8.16,3.8-9.9A13.59,13.59,0,0,1,37.57,8.58C41.67,9.85,43,12.13,43,12.15a.74.74,0,0,0,.82.37,6.14,6.14,0,0,1,3.19,0c1.6.91,2.6,2.18,2.6,5.71a48,48,0,0,1-1.12,8.09,27.17,27.17,0,0,0-.76,5.53A9.09,9.09,0,0,0,50,36.7c-1.35.7-4.17,1.89-6.13,1A1.47,1.47,0,0,1,43,36.35V34.08a11.11,11.11,0,0,0,4.45-8.88ZM28.14,51.92l1.95-3.77a.73.73,0,0,0-.31-1,.69.69,0,0,0-.34-.09h-3.6l1.49-6.65,2.06-.86L35,56.3l-6.84-4.38Zm28.93,8.84c-3.09,2-11.46,3-20,3v-5.3l8.84-5.66a.74.74,0,0,0,.25-1l-1.7-3.28h3.31a.74.74,0,0,0,.74-.74,1,1,0,0,0,0-.17l-1.6-7.14A28.77,28.77,0,0,1,55.11,45a5.28,5.28,0,0,1,2,3.88Z" transform="translate(-5.18 -6.62)"/><path class="cls-6" d="M17.05,49.44V42a2.65,2.65,0,0,1,1.26-2.22.8.8,0,0,0,.39-1.06s0,0,0-.06a.81.81,0,0,0-.68-.46l-.14,0H9.41a.84.84,0,0,0-.89.78v0A.86.86,0,0,0,9,39.8,2.54,2.54,0,0,1,10.23,42v7.49l-4.82,11a2.48,2.48,0,0,0,1.2,3.28l.13.05a2.35,2.35,0,0,0,1,.23H19.64a2.5,2.5,0,0,0,2.52-2.48v0a2.32,2.32,0,0,0-.22-1Zm-.76-9.79a4.13,4.13,0,0,0-.73,2.3v2.52H11.71V42A4.2,4.2,0,0,0,11,39.65Zm3.35,22.9H7.78a1,1,0,0,1-.37-.06l-.06,0-.06,0a1,1,0,0,1-.53-1.32v0l4.82-11,.12-.29V46h3.85v3.8l.13.28,4.89,11,0,0v0a1,1,0,0,1,.07.37,1,1,0,0,1-1,1Z" transform="translate(-5.18 -6.62)"/><path class="cls-6" d="M15.79,27.94a1.26,1.26,0,1,1-1.26-1.26,1.26,1.26,0,0,1,1.26,1.26Z" transform="translate(-5.18 -6.62)"/><path class="cls-6" d="M15.42,31.8a1.26,1.26,0,1,0,1.26-1.26,1.26,1.26,0,0,0-1.26,1.26Z" transform="translate(-5.18 -6.62)"/><path class="cls-6" d="M12,32.17a1.26,1.26,0,0,0,0-2.52,1.26,1.26,0,1,0,0,2.52Z" transform="translate(-5.18 -6.62)"/><path class="cls-6" d="M11.12,35.58a1.71,1.71,0,1,0,1.7-1.71,1.7,1.7,0,0,0-1.7,1.71Z" transform="translate(-5.18 -6.62)"/></g></g></g></g></svg>