<svg xmlns="http://www.w3.org/2000/svg" viewBox="0 0 212.28 192.18"><defs><style>.cls-1{fill:none;stroke:#009cbc;stroke-miterlimit:10;stroke-width:7px;}.cls-2{fill:#009cbc;}</style></defs><g id="Ebene_2" data-name="Ebene 2"><g id="Ebene_1-2" data-name="Ebene 1"><path class="cls-1" d="M2.81,41.59a73,73,0,0,1,14.73,3,74.39,74.39,0,0,1,17.14,7.62,48.31,48.31,0,0,1,7,5.26,24.33,24.33,0,0,1,7,10.53c1.43,4.65.36,9.6,1.88,14.21,2.72,8.27,11,12.7,16.29,19.07A29.12,29.12,0,0,1,70.55,107a2.55,2.55,0,0,1-1.5,3.68,48.18,48.18,0,0,1-10.29,2.15A50.24,50.24,0,0,1,62.31,126a82.35,82.35,0,0,1,.41,9.16,17.82,17.82,0,0,0,1.83,7.37c1.12,2.48,2.21,5.08,2,7.86a12.4,12.4,0,0,1-3.08,7.26c-4,4.58-10.13,4.49-15.69,4.34l-17.63-.49a54.48,54.48,0,0,1,4.52,22.2c2.13,1,1.79,4.8-1,4.79L0,188.43"/><path class="cls-2" d="M34.68,52.17a79.55,79.55,0,0,1-3-23.68c0-.64.05-1.29.08-1.93L0,30.08V62.14c11.74-2.48,23.39-6,34.77-9.6C34.74,52.42,34.71,52.29,34.68,52.17Z"/><path class="cls-2" d="M74.29,14.11c-.28-1.35-.57-2.7-.85-4A2.57,2.57,0,0,0,71,8.22L31.92,4.07C21.29,2.93,10.66,1.68,0,.68V38.42c1.35-.46,2.71-.9,4.06-1.34q13.77-4.47,27.65-8.59,20.31-6,40.82-11.3a2.24,2.24,0,0,0,1.76-2A2.82,2.82,0,0,0,74.29,14.11Z"/><path class="cls-1" d="M207.88,126.86l-.91,1.8a154.89,154.89,0,0,0-11.3,27.69,150.2,150.2,0,0,0-5.45,29.74,2.56,2.56,0,0,1-2.5,2.5l-52.23.09c-2.83,0-3.17-3.84-1-4.79a54.48,54.48,0,0,1,4.52-22.2l-17.63.49c-5.56.15-11.71.24-15.69-4.34a12.4,12.4,0,0,1-3.08-7.26c-.2-2.78.89-5.38,2-7.86a17.82,17.82,0,0,0,1.83-7.37,82.35,82.35,0,0,1,.41-9.16A50.24,50.24,0,0,1,110.37,113a48.18,48.18,0,0,1-10.29-2.15,2.55,2.55,0,0,1-1.5-3.68,29.12,29.12,0,0,1,3.79-5.72c5.31-6.37,13.57-10.8,16.29-19.07,1.52-4.61.45-9.56,1.88-14.21a24.33,24.33,0,0,1,6.95-10.53,46.77,46.77,0,0,1,7-5.24,73.61,73.61,0,0,1,17.14-7.64,72.82,72.82,0,0,1,26.52-3.13l1.15.08a70.19,70.19,0,0,1,19.91,4.55,49.89,49.89,0,0,1,10.12,5.36"/><path class="cls-2" d="M137.33,26.76c0,.64.06,1.28.08,1.92a79.72,79.72,0,0,1-3,23.7c0,.12-.07.23-.1.35,25.3,7.91,51.92,15.88,77.93,11.91V35.05Z"/><path class="cls-2" d="M205.91,2.34A139.41,139.41,0,0,0,189,.15a114.5,114.5,0,0,0-17.27.48c-11.52,1-23,2.4-34.52,3.63L98.1,8.41a2.57,2.57,0,0,0-2.41,1.84c-.28,1.35-.57,2.7-.85,4.05a2.82,2.82,0,0,0,0,1.12,2.24,2.24,0,0,0,1.76,2q20.5,5.28,40.82,11.3,13.88,4.13,27.65,8.59,6.54,2.13,13.05,4.34l3.81,1.28c5.5,1.89,11.19,4.75,17.12,3.38l.13,0c2.87-.67,5.67-1.76,8.47-2.68L212.28,42V3.55Q209.1,2.92,205.91,2.34Z"/><path class="cls-2" d="M212.28,20.76v5.08c-6.17-1.22-12.39-2.24-18.55-3.39A2.51,2.51,0,0,1,192,19.38a2.56,2.56,0,0,1,3.07-1.75C200.79,18.7,206.55,19.66,212.28,20.76Z"/></g></g></svg>
