<svg xmlns="http://www.w3.org/2000/svg" xmlns:xlink="http://www.w3.org/1999/xlink" viewBox="0 0 54.84 63.74"><defs><style>.cls-1,.cls-2,.cls-3{fill:none;}.cls-1,.cls-2{clip-rule:evenodd;}.cls-2{clip-path:url(#clip-path);}.cls-4{clip-path:url(#clip-path-2);}.cls-5{clip-path:url(#clip-path-3);}.cls-6{fill:#fff;}</style><clipPath id="clip-path"><polygon class="cls-1" points="0 72 72 72 72 0 0 0 0 72 0 72"/></clipPath><clipPath id="clip-path-2" transform="translate(-4.45 -4.45)"><polygon class="cls-2" points="0 0 72 0 72 72 0 72 0 0 0 0"/></clipPath><clipPath id="clip-path-3" transform="translate(-4.45 -4.45)"><polygon class="cls-3" points="0 72 72 72 72 0 0 0 0 72 0 72"/></clipPath></defs><g id="Ebene_2" data-name="Ebene 2"><g id="Ebene_1-2" data-name="Ebene 1"><g class="cls-4"><g class="cls-5"><path class="cls-6" d="M37.93,11.75h-1l.73-2.58A.18.18,0,0,0,37.52,9H35.68a.17.17,0,0,0-.18.15l-.6,3.71a.18.18,0,0,0,.15.21h1l-.81,3.25a.18.18,0,0,0,.14.22.16.16,0,0,0,.2-.08L38.09,12a.18.18,0,0,0-.07-.25l-.09,0Z" transform="translate(-4.45 -4.45)"/><path class="cls-6" d="M14.82,53.36H13.34v8.18l.33.22a15.7,15.7,0,0,0,4.86,1.82v-1.5a14.86,14.86,0,0,1-3.71-1.35Z" transform="translate(-4.45 -4.45)"/><path class="cls-6" d="M56.79,43.9a25.11,25.11,0,0,0-6.11-3.56h0c-.71-.3-1.42-.59-2.14-.86l-4.63-1.85A1.46,1.46,0,0,1,43,36.26V34.07a11.09,11.09,0,0,0,4.44-8.87V20h3a.74.74,0,1,0,0-1.48H48.53V17.24a12.12,12.12,0,0,0-6.41-10L41.7,7a3.49,3.49,0,0,0-3.36-2.57h-4A3.49,3.49,0,0,0,30.94,7l-.38.21a12.12,12.12,0,0,0-6.41,10v1.29H22.23a.74.74,0,0,0,0,1.48h3V25.2a11.09,11.09,0,0,0,4.44,8.87v2.19a1.48,1.48,0,0,1-.92,1.37l-4,1.62a29.67,29.67,0,0,0-8.88,4.64,6.52,6.52,0,0,0-2.51,5h1.48A5.09,5.09,0,0,1,16.77,45a22.48,22.48,0,0,1,4.71-2.87l.37-.15-1.21,7.75A5.52,5.52,0,0,1,22,51l1.51-9.64,1.8-.73,2.09-.85.75-.31,6,13.3v4.29H23v1.48H34.09v5.2A95.9,95.9,0,0,1,23,62.92v1.46a100.92,100.92,0,0,0,13.57.85c9.71,0,19.34-1.17,22.44-3.49l.3-.22V48.9a6.51,6.51,0,0,0-2.5-5ZM44.53,39.48l.75.3L48,40.87l1.23.49,2.42,15.71H38.54V52.78l6-13.3ZM39.69,13.31a.66.66,0,0,0,.65-.51l1.08-4.25a10.78,10.78,0,0,1,5.63,8.78v1.2H25.62v-1.2a10.76,10.76,0,0,1,5.64-8.78l1,4.25a.68.68,0,0,0,.66.51h.22a.67.67,0,0,0,.47-.83l-1.28-5a2,2,0,0,1,2-1.52h4a2,2,0,0,1,2,1.52l-1.28,5s0,0,0,0a.66.66,0,0,0,.52.79h.18Zm-13,11.89V20H46V25.2a9.64,9.64,0,0,1-19.27,0Zm2.79,13.71a3,3,0,0,0,1.66-2.65V35a11,11,0,0,0,10.38,0v1.24a3,3,0,0,0,1.65,2.65l-.39.86a19.62,19.62,0,0,1-6.45,1,19.64,19.64,0,0,1-6.46-1Zm7.59,24.86H35.58V52.46L30.67,41.57a23.94,23.94,0,0,0,11.29,0l-4.9,10.89V63.77Zm14.82-1.13a86.38,86.38,0,0,1-13.34,1.12V58.55H51.87v4.09Zm5.93-1.88a15,15,0,0,1-4.44,1.58V58.55L50.83,42a22.8,22.8,0,0,1,5,3,5,5,0,0,1,1.94,3.87Z" transform="translate(-4.45 -4.45)"/><path class="cls-6" d="M17.79,50.4H12.6a2.22,2.22,0,0,1-2.22-2.22v-9a5.18,5.18,0,0,0,4.44-5.13v-3H12.6V27.42a.74.74,0,1,0-1.48,0v3.71h-3V27.42a.74.74,0,1,0-1.48,0v3.71H4.45v3a5.18,5.18,0,0,0,4.44,5.13v9a3.71,3.71,0,0,0,3.71,3.7h5.19A2.22,2.22,0,0,1,20,54.1V67.45a.74.74,0,1,0,1.48,0V54.1a3.7,3.7,0,0,0-3.7-3.7ZM5.93,34.09V32.61h7.41v1.48a3.71,3.71,0,1,1-7.41,0Z" transform="translate(-4.45 -4.45)"/></g></g></g></g></svg>