<svg xmlns="http://www.w3.org/2000/svg" xmlns:xlink="http://www.w3.org/1999/xlink" viewBox="0 0 64.64 34.83"><defs><style>.cls-1,.cls-2,.cls-3{fill:none;}.cls-1,.cls-2{clip-rule:evenodd;}.cls-2{clip-path:url(#clip-path);}.cls-4{clip-path:url(#clip-path-2);}.cls-5{clip-path:url(#clip-path-3);}.cls-6{fill:#00617c;}</style><clipPath id="clip-path"><polygon class="cls-1" points="0 72 72 72 72 0 0 0 0 72 0 72"/></clipPath><clipPath id="clip-path-2" transform="translate(-4 -18.6)"><polygon class="cls-2" points="0 0 72 0 72 72 0 72 0 0 0 0"/></clipPath><clipPath id="clip-path-3" transform="translate(-4 -18.6)"><polygon class="cls-3" points="0 72 72 72 72 0 0 0 0 72 0 72"/></clipPath></defs><g id="Ebene_2" data-name="Ebene 2"><g id="Ebene_1-2" data-name="Ebene 1"><g class="cls-4"><g class="cls-5"><path class="cls-6" d="M68.64,30.17,36.32,18.6,4,30.17l6.38,2.23V45.28a.74.74,0,1,0,1.48,0V32.92l5.21,1.83V45.43c0,4.34,8.82,8,19.25,8s19.25-3.67,19.25-8V34.75l13.07-4.58Zm-32.32-10,27.86,10s0,0,0,0L36.32,39.94,8.46,30.16s0,0,0,0ZM54.08,45.43c0,3-7.76,6.53-17.76,6.53s-17.76-3.51-17.76-6.53V35.27L36.32,41.5l17.76-6.23V45.43Z" transform="translate(-4 -18.6)"/></g></g></g></g></svg>