<svg xmlns="http://www.w3.org/2000/svg" viewBox="0 0 178.89 188.69"><defs><style>.cls-1{fill:#ee730c;}.cls-2{fill:#4e4d4d;}.cls-3{fill:#808181;}</style></defs><g id="Ebene_2" data-name="Ebene 2"><g id="Ebene_1-2" data-name="Ebene 1"><path class="cls-1" d="M75.29,96.68a6.52,6.52,0,0,1-1,5.79,4.82,4.82,0,0,1-.5.6A6.51,6.51,0,0,1,69,105.12a6.46,6.46,0,0,1-3.94-1.29,6.45,6.45,0,0,1-1.76-2,6.73,6.73,0,0,1-.62-1.43,6.57,6.57,0,0,1,.6-5.13,7.22,7.22,0,0,1,.42-.65,5,5,0,0,1,.51-.6,6.56,6.56,0,0,1,10.44,1.21A6.87,6.87,0,0,1,75.29,96.68Z"/><path class="cls-1" d="M80.93,63.63c0,.2,0,.39,0,.59A11.48,11.48,0,0,0,81,65.39a10,10,0,0,0,3.91,6.78,10.28,10.28,0,0,0,2,1.17,9.87,9.87,0,0,0,7.83,0,10.28,10.28,0,0,0,2-1.17,9.9,9.9,0,0,0,3.87-6.5A133.35,133.35,0,0,1,80.93,63.63ZM100.71,63A9.93,9.93,0,0,0,81,63l-.06.58h0c0,.2,0,.39,0,.59A11.48,11.48,0,0,0,81,65.39a10,10,0,0,0,3.91,6.78,10.28,10.28,0,0,0,2,1.17,9.87,9.87,0,0,0,7.83,0,10.28,10.28,0,0,0,2-1.17,9.9,9.9,0,0,0,3.87-6.5,2.7,2.7,0,0,0,0-.28,9.9,9.9,0,0,0,0-2.35Zm3.7-16.81h0a62.93,62.93,0,0,0-7.6-2.46v2.35A19,19,0,0,1,103.53,50l4.11-2.36C106.58,47.14,105.51,46.67,104.41,46.23Zm23.83,23.91a32.35,32.35,0,0,0-3.2-7.42,35.15,35.15,0,0,0-9.24-10.18l1.79,3.1-8.1,4.68a19.25,19.25,0,0,1,.4,3.9c0,.42,0,.85,0,1.26a17.52,17.52,0,0,1-.35,2.63l8.1,4.67-6,10.31-8.11-4.68a18.88,18.88,0,0,1-6.73,3.9v9.35H84.89V82.31a19.1,19.1,0,0,1-6.74-3.9l-8.09,4.68-6-10.31,8.09-4.67a19.23,19.23,0,0,1-.4-3.89A17.13,17.13,0,0,1,72,61.83c.05-.51.14-1,.24-1.51l-8.09-4.68,6-10.3L78.15,50a19.23,19.23,0,0,1,6.74-3.89V41.73l-.41,0-1.15-.09h0a73,73,0,0,0-26.5,3.15,73.86,73.86,0,0,0-17.13,7.61h0a47.06,47.06,0,0,0-7,5.26,24.39,24.39,0,0,0-6.95,10.53c-1.43,4.66-.36,9.6-1.88,14.22-2.72,8.26-11,12.69-16.29,19.07a28.76,28.76,0,0,0-3.79,5.71,2.55,2.55,0,0,0,1.5,3.68A48.2,48.2,0,0,0,15.59,113,50.07,50.07,0,0,0,12,126.19a82.43,82.43,0,0,0-.41,9.17,17.82,17.82,0,0,1-1.83,7.37c-1.12,2.47-2.21,5.08-2,7.85a12.37,12.37,0,0,0,3.08,7.26c4,4.59,10.13,4.49,15.69,4.35l17.63-.5a54.55,54.55,0,0,0-4.52,22.2c-2.13,1-1.79,4.8,1,4.8l52.23-.1a2.56,2.56,0,0,0,2.5-2.5,150.1,150.1,0,0,1,5.45-29.73,154.29,154.29,0,0,1,11.3-27.69,229.61,229.61,0,0,0,12.19-29.12c1.7-4.87,3.59-9.76,4.49-14.86A31.66,31.66,0,0,0,128.24,70.14ZM86.56,104.55l-6.14-.71a13.25,13.25,0,0,1-1.32,2.22A12.29,12.29,0,0,1,77.35,108l2.46,5.67-7.22,3.13-2.46-5.68A12.41,12.41,0,0,1,65,110.5l-3.68,5L55,110.77l3.69-5a12.47,12.47,0,0,1-2-4.72l-6.14-.71.9-7.81,6.14.71a12.62,12.62,0,0,1,3.07-4.13l-2.46-5.68,7.22-3.12L67.86,86a12.75,12.75,0,0,1,5.11.59l3.68-5L83,86.34l-3.68,5a12.61,12.61,0,0,1,2,4.72l6.14.72ZM81,63l-.06.58h0c0,.2,0,.39,0,.59A11.48,11.48,0,0,0,81,65.39a10,10,0,0,0,3.91,6.78,10.28,10.28,0,0,0,2,1.17,9.87,9.87,0,0,0,7.83,0,10.28,10.28,0,0,0,2-1.17,9.9,9.9,0,0,0,3.87-6.5,2.7,2.7,0,0,0,0-.28,9.9,9.9,0,0,0,0-2.35A9.93,9.93,0,0,0,81,63Zm19.72,0A9.93,9.93,0,0,0,81,63l-.06.58h0c0,.2,0,.39,0,.59A11.48,11.48,0,0,0,81,65.39a10,10,0,0,0,3.91,6.78,10.28,10.28,0,0,0,2,1.17,9.87,9.87,0,0,0,7.83,0,10.28,10.28,0,0,0,2-1.17,9.9,9.9,0,0,0,3.87-6.5,2.7,2.7,0,0,0,0-.28,9.9,9.9,0,0,0,0-2.35Z"/><path class="cls-2" d="M100.71,63A9.93,9.93,0,0,0,81,63l-.06.58h0a133.35,133.35,0,0,0,19.74,2,2.7,2.7,0,0,0,0-.28,9.9,9.9,0,0,0,0-2.35Z"/><path class="cls-2" d="M42.55,26.76c0,.64.06,1.28.07,1.92a78.64,78.64,0,0,1-2.94,23.68h0c0,.13-.06.25-.1.38C50.19,56.05,61,59.38,72,61.83c.05-.51.14-1,.24-1.51l-8.09-4.68,6-10.3L78.15,50a19.23,19.23,0,0,1,6.74-3.89V36.77H96.8v9.35A19,19,0,0,1,103.53,50l4.11-2.36,4-2.31,4.16,7.2,1.79,3.1-8.1,4.68a19.25,19.25,0,0,1,.4,3.9c0,.42,0,.85,0,1.26a88.07,88.07,0,0,0,12.64-1.74,5.76,5.76,0,0,0,2.56-1,2.14,2.14,0,0,0,.38-.36,5.15,5.15,0,0,0,.85-2.84q1-10.53,2.06-21.07l.21-2.18Z"/><path class="cls-3" d="M177.67,17.33a65.36,65.36,0,0,0-15.36-4.66L145,9.16c-11.29-2.29-22.57-4.75-33.91-6.82A139.41,139.41,0,0,0,94.22.15,114.5,114.5,0,0,0,77,.63c-11.52,1-23,2.4-34.52,3.63L3.32,8.41A2.57,2.57,0,0,0,.91,10.25C.63,11.6.34,13,.06,14.3a2.82,2.82,0,0,0,0,1.12,2.24,2.24,0,0,0,1.76,2q20.51,5.28,40.81,11.3,13.89,4.11,27.66,8.59,6.52,2.11,13,4.33h0l1.56.53V36.77H96.8v9.34a16.47,16.47,0,0,0,7.46.16l.14,0h0c2.87-.67,5.66-1.76,8.45-2.67l8.46-2.78,7-2.33,10.12-3.37,5.1-1.72,1-.32.11,0,4.64-1.57q13.92-4.71,27.8-9.53C178.92,21.26,179.75,18.33,177.67,17.33Z"/><path class="cls-2" d="M159.86,80.55a0,0,0,0,1,0,0s0,0,0,0Z"/><path class="cls-2" d="M158.85,102.71A12.16,12.16,0,0,1,151,99.36a15.74,15.74,0,0,1-6.64,3.43,2.52,2.52,0,0,1-2.43-4.18c1.37-1.39,3-2.51,4.45-3.76,1.29-1.09,2.54-2.24,2.9-3.79a10.56,10.56,0,0,0,0-2.81l-.15-3.7q-.13-3.72-.22-7.46c-.13-4.94-.24-9.88-.48-14.82a145.28,145.28,0,0,0-3.7-28.41c.29.12.59.25.88.39l-1.15-1.49c.1.37.19.73.27,1.1C130.28,27.38,114.39,25.34,99,22.45a2.51,2.51,0,0,1-1.74-3.07,2.56,2.56,0,0,1,3.07-1.75c9.29,1.74,18.65,3.16,27.84,5.43a118.92,118.92,0,0,1,12,3.56c2.07.75,4.12,1.58,6.14,2.46,1.11.49,2.38.86,2.92,2.05A16.71,16.71,0,0,1,150,34.2a150,150,0,0,1,3.35,25.95c.47,8.59.53,17.2.86,25.79,0,1.12.16,2.25.18,3.38a2.66,2.66,0,0,1,1.24,1Q158.38,94.59,161,99A2.52,2.52,0,0,1,158.85,102.71Z"/><path class="cls-2" d="M145.6,34.25c-.29-.14-.59-.27-.88-.39-.08-.37-.17-.73-.27-1.1Z"/></g></g></svg>