<svg xmlns="http://www.w3.org/2000/svg" viewBox="0 0 178.89 190.18"><defs><style>.cls-1{fill:none;stroke:#fff;stroke-miterlimit:10;stroke-width:3px;}.cls-2{fill:#fff;}</style></defs><g id="Ebene_2" data-name="Ebene 2"><g id="Ebene_1-2" data-name="Ebene 1"><path class="cls-1" d="M123.69,60.64a32.5,32.5,0,0,1,4.55,9.5,31.63,31.63,0,0,1,.63,14.54c-.9,5.1-2.79,10-4.49,14.86a228.4,228.4,0,0,1-12.19,29.12,154.89,154.89,0,0,0-11.3,27.69,150.2,150.2,0,0,0-5.45,29.74,2.56,2.56,0,0,1-2.5,2.5l-52.23.09c-2.83,0-3.17-3.84-1-4.79a54.48,54.48,0,0,1,4.52-22.2l-17.63.49c-5.56.15-11.71.24-15.69-4.34a12.4,12.4,0,0,1-3.08-7.26c-.2-2.78.89-5.38,2-7.86a17.82,17.82,0,0,0,1.83-7.37,82.35,82.35,0,0,1,.41-9.16A50.24,50.24,0,0,1,15.59,113,48.18,48.18,0,0,1,5.3,110.83a2.55,2.55,0,0,1-1.5-3.68,29.12,29.12,0,0,1,3.79-5.72c5.31-6.37,13.57-10.8,16.29-19.07,1.52-4.61.45-9.56,1.88-14.21a24.33,24.33,0,0,1,7-10.53,50.55,50.55,0,0,1,9.47-6.74"/><path class="cls-2" d="M100.7,57.26a9.89,9.89,0,0,0-3.91-6.78,9.85,9.85,0,0,0-2-1.18,10,10,0,0,0-7.83,0,9.94,9.94,0,0,0-5.94,8l-.06.58h0c0,.2,0,.39,0,.59A11.48,11.48,0,0,0,81,59.61a9.85,9.85,0,0,0,1.58,4.29,133.15,133.15,0,0,0,15.21,1.66,9.88,9.88,0,0,0,2.9-5.67,2.7,2.7,0,0,0,0-.28,9.9,9.9,0,0,0,0-2.35Z"/><path class="cls-2" d="M42.54,26.76c0,.64.06,1.28.07,1.92a79.22,79.22,0,0,1-3,24.06c10.66,3.33,21.56,6.67,32.54,9.12a18.36,18.36,0,0,1-.32-3.42A17.13,17.13,0,0,1,72,56.05c0-.51.14-1,.24-1.51L64.1,49.86l0,0,4.48-7.75,1.45-2.52,8.09,4.67a18.9,18.9,0,0,1,4.35-2.91,18.44,18.44,0,0,1,2.39-1v-8.9Z"/><path class="cls-2" d="M96.79,32.76v7.58a19,19,0,0,1,6.73,3.89l4.11-2.36,4-2.31,2.14,3.7,2,3.5,1.79,3.1-6.08,3.52-2,1.16c0,.2.08.4.11.6a18.84,18.84,0,0,1,.29,3.3c0,.42,0,.85,0,1.26a17.52,17.52,0,0,1-.35,2.63l4.76,2.74a80.09,80.09,0,0,0,8.23-1.33,5,5,0,0,0,2.94-1.38,5.16,5.16,0,0,0,.86-2.83q1-10.55,2.06-21.08l.21-2.18Z"/><path class="cls-2" d="M177.67,17.33a65.36,65.36,0,0,0-15.36-4.66L145,9.16c-11.29-2.29-22.57-4.75-33.91-6.82A139.41,139.41,0,0,0,94.22.15,114.5,114.5,0,0,0,77,.63c-11.52,1-23,2.4-34.52,3.63L3.32,8.41A2.57,2.57,0,0,0,.91,10.25C.63,11.6.34,13,.06,14.3a2.82,2.82,0,0,0,0,1.12,2.24,2.24,0,0,0,1.76,2q20.51,5.27,40.8,11.3,13.89,4.11,27.67,8.59c4.08,1.32,8.15,2.68,12.21,4a18.44,18.44,0,0,1,2.39-1V31H96.79v9.35a19,19,0,0,1,6.73,3.89l4.11-2.36,4-2.31,2.14,3.7,7.55-2.48,7-2.33,10.12-3.37q19.35-6.49,38.62-13.18C178.92,21.26,179.75,18.33,177.67,17.33Z"/><path class="cls-2" d="M159.86,80.55a0,0,0,0,1,0,0s0,0,0,0Z"/><path class="cls-2" d="M158.84,102.71A12.16,12.16,0,0,1,151,99.36a15.74,15.74,0,0,1-6.64,3.43,2.52,2.52,0,0,1-2.43-4.18c1.37-1.39,3-2.51,4.45-3.76,1.29-1.09,2.54-2.24,2.9-3.79a10.56,10.56,0,0,0,0-2.81l-.15-3.7q-.13-3.72-.22-7.46c-.13-4.94-.24-9.88-.48-14.82a145.28,145.28,0,0,0-3.7-28.41c.29.12.59.25.88.39l-1.15-1.49c.1.37.19.73.27,1.1C130.27,27.38,114.38,25.34,99,22.45a2.51,2.51,0,0,1-1.74-3.07,2.56,2.56,0,0,1,3.07-1.75c9.29,1.74,18.65,3.16,27.84,5.43a118.92,118.92,0,0,1,12,3.56c2.07.75,4.12,1.58,6.14,2.46,1.11.49,2.38.86,2.92,2.05A16.71,16.71,0,0,1,150,34.2a150,150,0,0,1,3.35,25.95c.47,8.59.53,17.2.86,25.79,0,1.12.16,2.25.18,3.38a2.66,2.66,0,0,1,1.24,1Q158.37,94.59,161,99A2.52,2.52,0,0,1,158.84,102.71Z"/><path class="cls-2" d="M145.59,34.25c-.29-.14-.59-.27-.88-.39-.08-.37-.17-.73-.27-1.1Z"/><path class="cls-2" d="M114.24,65.07a99.66,99.66,0,0,1-16.48.49,11.14,11.14,0,0,1-1,.83,10.28,10.28,0,0,1-2,1.17,9.87,9.87,0,0,1-7.83,0,10.28,10.28,0,0,1-2-1.17,9.68,9.68,0,0,1-2.33-2.49c-3.49-.57-7-1.26-10.44-2,0,.16,0,.31.08.47L64.1,67l6,10.31,8.09-4.68a19.1,19.1,0,0,0,6.74,3.9v9.35H96.79V76.53a18.88,18.88,0,0,0,6.73-3.9l8.11,4.68,6-10.31Z"/><path class="cls-2" d="M81.31,90.23a12.61,12.61,0,0,0-2-4.72l3.68-5-6.31-4.69-3.68,5a12.75,12.75,0,0,0-5.11-.59l-2.46-5.67-7.22,3.12,2.46,5.68a12.62,12.62,0,0,0-3.07,4.13l-6.14-.71-.9,7.81,6.14.71a12.47,12.47,0,0,0,2,4.72L55,105l6.32,4.69,3.68-5a12.41,12.41,0,0,0,5.11.59L72.58,111l7.22-3.13-2.46-5.67a12.29,12.29,0,0,0,1.75-1.91,13.25,13.25,0,0,0,1.32-2.22l6.14.71.9-7.81ZM74.68,96a6.64,6.64,0,0,1-.43.65,4.82,4.82,0,0,1-.5.6,6.51,6.51,0,0,1-4.74,2A6.46,6.46,0,0,1,65.07,98a6.45,6.45,0,0,1-1.76-2,6.73,6.73,0,0,1-.62-1.43,6.57,6.57,0,0,1,.6-5.13,7.22,7.22,0,0,1,.42-.65,5,5,0,0,1,.51-.6,6.56,6.56,0,0,1,10.44,1.21,6.87,6.87,0,0,1,.62,1.42A6.6,6.6,0,0,1,74.68,96Z"/></g></g></svg>