<?xml version="1.0" encoding="UTF-8" standalone="no"?><!DOCTYPE svg PUBLIC "-//W3C//DTD SVG 1.1//EN" "http://www.w3.org/Graphics/SVG/1.1/DTD/svg11.dtd"><svg width="100%" height="100%" viewBox="0 0 231 44" version="1.1" xmlns="http://www.w3.org/2000/svg" xmlns:xlink="http://www.w3.org/1999/xlink" xml:space="preserve" xmlns:serif="http://www.serif.com/" style="fill-rule:evenodd;clip-rule:evenodd;stroke-linejoin:round;stroke-miterlimit:2;"><path d="M6.352,22.912c0,9.747 7.901,17.648 17.648,17.648l0.706,0c0.386,0 0.706,0.319 0.706,0.713l-0,1.398c-0,0.4 -0.314,0.713 -0.702,0.713l-0.71,-0c-11.306,-0 -20.471,-9.166 -20.471,-20.472l-0,-0.827l-1.327,1.327c-0.276,0.276 -0.724,0.273 -1.002,-0.005l-0.989,-0.989c-0.283,-0.283 -0.279,-0.729 -0.002,-1.006l3.733,-3.733c0.552,-0.552 1.445,-0.552 1.997,-0l3.733,3.733c0.275,0.274 0.277,0.728 -0.001,1.006l-0.989,0.989c-0.283,0.282 -0.728,0.28 -1.003,0.005l-1.327,-1.327l0,0.827Zm35.296,0c-0,-9.746 -7.902,-17.647 -17.648,-17.647l-0.703,-0c-0.393,-0 -0.709,-0.319 -0.709,-0.713l0,-1.398c0,-0.4 0.316,-0.713 0.705,-0.713l0.707,0c11.306,0 20.471,9.166 20.471,20.471l0,0.827l1.327,-1.326c0.276,-0.276 0.724,-0.273 1.002,0.005l0.989,0.989c0.283,0.282 0.279,0.729 0.002,1.006l-3.733,3.733c-0.552,0.552 -1.445,0.552 -1.997,0l-3.733,-3.733c-0.275,-0.275 -0.277,-0.728 0.001,-1.006l0.989,-0.989c0.283,-0.283 0.727,-0.281 1.003,-0.005l1.327,1.326l-0,-0.827Z" style="fill-rule:nonzero;"/><path d="M16.291,22.671c-0,-4.679 3.792,-8.471 8.471,-8.471c4.678,0 8.47,3.792 8.47,8.471c0,4.678 -3.792,8.471 -8.47,8.471c-4.679,-0 -8.471,-3.792 -8.471,-8.471Z" style="fill:#019dbb;fill-rule:nonzero;"/><path d="M75.991,12.65c3.366,-0 6.066,1 8.1,3c2.066,2 3.1,5.017 3.1,9.05l-0,15.5l-9.5,0l-0,-13.95c-0,-3.7 -1.484,-5.55 -4.45,-5.55c-1.634,0 -2.95,0.533 -3.95,1.6c-0.967,1.067 -1.45,2.667 -1.45,4.8l-0,13.1l-9.5,0l-0,-27.1l9.05,-0l-0,2.95c1.066,-1.1 2.333,-1.933 3.8,-2.5c1.466,-0.6 3.066,-0.9 4.8,-0.9Zm47.714,-0c3.333,-0 5.983,1 7.95,3c2,2 3,5.017 3,9.05l-0,15.5l-9.5,0l-0,-13.95c-0,-1.9 -0.367,-3.3 -1.1,-4.2c-0.7,-0.9 -1.7,-1.35 -3,-1.35c-1.433,0 -2.583,0.5 -3.45,1.5c-0.867,1 -1.3,2.517 -1.3,4.55l-0,13.45l-9.5,0l-0,-13.95c-0,-3.7 -1.367,-5.55 -4.1,-5.55c-1.467,0 -2.633,0.5 -3.5,1.5c-0.867,1 -1.3,2.517 -1.3,4.55l0,13.45l-9.5,0l0,-27.1l9.05,-0l0,2.85c1,-1.1 2.183,-1.917 3.55,-2.45c1.4,-0.567 2.917,-0.85 4.55,-0.85c1.9,-0 3.6,0.35 5.1,1.05c1.5,0.7 2.717,1.767 3.65,3.2c1.067,-1.367 2.417,-2.417 4.05,-3.15c1.633,-0.733 3.417,-1.1 5.35,-1.1Zm21.246,3.7c0.967,-1.233 2.217,-2.15 3.75,-2.75c1.567,-0.633 3.35,-0.95 5.35,-0.95l-0,8.55c-0.866,-0.1 -1.583,-0.15 -2.15,-0.15c-2.033,-0 -3.633,0.55 -4.8,1.65c-1.133,1.1 -1.7,2.783 -1.7,5.05l-0,12.45l-9.5,0l-0,-27.1l9.05,-0l-0,3.25Z" style="fill:#019dbb;fill-rule:nonzero;"/><path d="M175.869,40.2l-7.25,-10.85l-7.15,10.85l-11.3,0l12.75,-17.7l-12.2,-17.3l11.15,-0l7,10.1l6.9,-10.1l10.7,-0l-12.2,16.9l13,18.1l-11.4,0Zm12.077,-27.1l9.5,-0l-0,27.1l-9.5,0l-0,-27.1Zm4.75,-3c-1.733,-0 -3.133,-0.483 -4.2,-1.45c-1.066,-0.967 -1.6,-2.167 -1.6,-3.6c-0,-1.433 0.534,-2.633 1.6,-3.6c1.067,-0.967 2.467,-1.45 4.2,-1.45c1.734,-0 3.134,0.467 4.2,1.4c1.067,0.9 1.6,2.067 1.6,3.5c-0,1.5 -0.533,2.75 -1.6,3.75c-1.066,0.967 -2.466,1.45 -4.2,1.45Zm37.724,3l-11.2,27.1l-9.8,0l-11.15,-27.1l9.75,-0l6.5,16.55l6.85,-16.55l9.05,-0Z" style="fill-rule:nonzero;"/></svg>