<?xml version="1.0" encoding="UTF-8"?><svg id="Ebene_1" xmlns="http://www.w3.org/2000/svg" viewBox="0 0 584 419"><defs><style>.cls-1{fill:none;stroke:#00617c;stroke-miterlimit:8;stroke-width:1.33px;}.cls-2{fill:#262626;}.cls-3{fill:#fff;}.cls-4{fill:#03637d;fill-rule:evenodd;}.cls-5{isolation:isolate;}.cls-6{fill:#338196;}</style></defs><g class="cls-5"><path class="cls-2" d="M30.04,183.35h4.68c.87,0,1.65,.15,2.36,.44,.71,.29,1.31,.73,1.81,1.31s.88,1.31,1.15,2.18c.27,.87,.4,1.89,.4,3.05s-.13,2.18-.4,3.05-.65,1.6-1.15,2.18-1.1,1.02-1.81,1.31c-.71,.29-1.49,.44-2.36,.44h-4.68v-13.96Zm4.68,12.48c.57,0,1.1-.1,1.58-.29s.89-.48,1.24-.85c.35-.37,.62-.83,.81-1.37s.29-1.16,.29-1.85v-2.28c0-.69-.1-1.31-.29-1.85s-.46-1-.81-1.37-.76-.66-1.24-.85c-.48-.19-1.01-.29-1.58-.29h-3v11h3Z"/><path class="cls-2" d="M43.94,184.57c-.35,0-.6-.08-.75-.25-.15-.17-.23-.38-.23-.65v-.26c0-.27,.08-.48,.23-.65s.4-.25,.75-.25,.6,.08,.75,.25,.23,.38,.23,.65v.26c0,.27-.08,.48-.23,.65-.15,.17-.4,.25-.75,.25Zm-.8,2.42h1.6v10.32h-1.6v-10.32Z"/><path class="cls-2" d="M50.97,197.55c-.96,0-1.76-.18-2.41-.55-.65-.37-1.2-.86-1.67-1.47l1.14-.92c.4,.51,.85,.9,1.34,1.17,.49,.27,1.07,.41,1.72,.41s1.21-.15,1.59-.44c.38-.29,.57-.71,.57-1.24,0-.4-.13-.74-.39-1.03-.26-.29-.73-.48-1.41-.59l-.82-.12c-.48-.07-.92-.17-1.32-.31-.4-.14-.75-.33-1.05-.56-.3-.23-.53-.52-.7-.87-.17-.35-.25-.76-.25-1.24,0-.51,.09-.95,.28-1.33,.19-.38,.44-.7,.77-.95s.72-.44,1.17-.57c.45-.13,.94-.19,1.46-.19,.84,0,1.54,.15,2.11,.44,.57,.29,1.06,.7,1.49,1.22l-1.06,.96c-.23-.32-.56-.61-1-.87-.44-.26-.99-.39-1.66-.39s-1.17,.14-1.51,.43c-.34,.29-.51,.68-.51,1.17s.17,.87,.51,1.1,.83,.39,1.47,.5l.8,.12c1.15,.17,1.96,.5,2.44,.99,.48,.49,.72,1.12,.72,1.91,0,1-.34,1.79-1.02,2.36-.68,.57-1.61,.86-2.8,.86Z"/><path class="cls-2" d="M61.26,197.55c-.72,0-1.37-.13-1.94-.38-.57-.25-1.06-.61-1.45-1.08-.39-.47-.69-1.03-.9-1.7-.21-.67-.31-1.41-.31-2.24s.1-1.57,.31-2.24c.21-.67,.51-1.23,.9-1.7,.39-.47,.88-.83,1.45-1.08,.57-.25,1.22-.38,1.94-.38,1.03,0,1.85,.22,2.47,.67,.62,.45,1.08,1.03,1.39,1.75l-1.34,.68c-.19-.53-.49-.95-.92-1.24-.43-.29-.96-.44-1.6-.44-.48,0-.9,.08-1.26,.23-.36,.15-.66,.37-.9,.64-.24,.27-.42,.6-.54,.98-.12,.38-.18,.8-.18,1.25v1.76c0,.91,.24,1.65,.73,2.23,.49,.58,1.2,.87,2.15,.87,1.29,0,2.23-.6,2.8-1.8l1.16,.78c-.33,.75-.83,1.34-1.49,1.78-.66,.44-1.48,.66-2.47,.66Z"/><path class="cls-2" d="M68.94,197.31c-.56,0-.98-.16-1.27-.47s-.43-.71-.43-1.19v-13.14h1.6v13.38h1.52v1.42h-1.42Z"/><path class="cls-2" d="M76.26,197.55c-.69,0-1.33-.13-1.9-.38-.57-.25-1.06-.62-1.47-1.09-.41-.47-.72-1.04-.95-1.7s-.34-1.4-.34-2.23,.11-1.55,.34-2.22,.54-1.24,.95-1.71,.9-.84,1.47-1.09c.57-.25,1.21-.38,1.9-.38s1.32,.13,1.89,.38c.57,.25,1.06,.62,1.47,1.09,.41,.47,.73,1.04,.96,1.71s.34,1.41,.34,2.22-.11,1.57-.34,2.23-.55,1.23-.96,1.7c-.41,.47-.9,.84-1.47,1.09-.57,.25-1.2,.38-1.89,.38Zm0-1.42c.87,0,1.57-.27,2.12-.8,.55-.53,.82-1.35,.82-2.44v-1.48c0-1.09-.27-1.91-.82-2.44-.55-.53-1.25-.8-2.12-.8s-1.57,.27-2.12,.8c-.55,.53-.82,1.35-.82,2.44v1.48c0,1.09,.27,1.91,.82,2.44,.55,.53,1.25,.8,2.12,.8Z"/><path class="cls-2" d="M86.44,197.55c-.96,0-1.76-.18-2.41-.55-.65-.37-1.2-.86-1.67-1.47l1.14-.92c.4,.51,.85,.9,1.34,1.17,.49,.27,1.07,.41,1.72,.41s1.21-.15,1.59-.44c.38-.29,.57-.71,.57-1.24,0-.4-.13-.74-.39-1.03-.26-.29-.73-.48-1.41-.59l-.82-.12c-.48-.07-.92-.17-1.32-.31-.4-.14-.75-.33-1.05-.56-.3-.23-.53-.52-.7-.87-.17-.35-.25-.76-.25-1.24,0-.51,.09-.95,.28-1.33,.19-.38,.44-.7,.77-.95s.72-.44,1.17-.57c.45-.13,.94-.19,1.46-.19,.84,0,1.54,.15,2.11,.44,.57,.29,1.06,.7,1.49,1.22l-1.06,.96c-.23-.32-.56-.61-1-.87-.44-.26-.99-.39-1.66-.39s-1.17,.14-1.51,.43c-.34,.29-.51,.68-.51,1.17s.17,.87,.51,1.1,.83,.39,1.47,.5l.8,.12c1.15,.17,1.96,.5,2.44,.99,.48,.49,.72,1.12,.72,1.91,0,1-.34,1.79-1.02,2.36-.68,.57-1.61,.86-2.8,.86Z"/><path class="cls-2" d="M99.05,195.65h-.08c-.11,.24-.24,.47-.39,.7-.15,.23-.34,.44-.57,.61-.23,.18-.5,.32-.82,.43-.32,.11-.69,.16-1.12,.16-1.07,0-1.91-.34-2.54-1.03-.63-.69-.94-1.66-.94-2.91v-6.62h1.6v6.35c0,1.86,.79,2.79,2.36,2.79,.32,0,.63-.04,.93-.12,.3-.08,.57-.2,.8-.36,.23-.16,.42-.36,.56-.61s.21-.54,.21-.89v-7.16h1.6v10.32h-1.6v-1.66Z"/><path class="cls-2" d="M103.67,197.31v-10.32h1.6v1.9h.1c.19-.49,.52-.93,1-1.32s1.14-.58,1.98-.58h.62v1.6h-.94c-.87,0-1.54,.16-2.03,.49-.49,.33-.73,.74-.73,1.23v7h-1.6Z"/><path class="cls-2" d="M114.76,197.55c-.71,0-1.34-.13-1.91-.38-.57-.25-1.05-.62-1.46-1.09-.41-.47-.72-1.04-.94-1.7s-.33-1.4-.33-2.23,.11-1.55,.33-2.22,.53-1.24,.94-1.71,.89-.84,1.46-1.09c.57-.25,1.2-.38,1.91-.38s1.31,.13,1.86,.38c.55,.25,1.01,.6,1.4,1.05s.68,.97,.89,1.58c.21,.61,.31,1.28,.31,2.01v.76h-7.42v.48c0,.44,.07,.85,.21,1.23s.34,.71,.6,.99c.26,.28,.58,.5,.96,.66,.38,.16,.81,.24,1.29,.24,.65,0,1.22-.15,1.71-.46,.49-.31,.86-.75,1.13-1.32l1.14,.83c-.33,.71-.85,1.29-1.56,1.72-.71,.44-1.55,.65-2.52,.65Zm0-9.46c-.44,0-.84,.08-1.2,.23-.36,.15-.67,.37-.93,.65-.26,.28-.46,.61-.61,.98s-.22,.79-.22,1.24v.14h5.7v-.22c0-.91-.25-1.65-.75-2.2-.5-.55-1.16-.83-1.99-.83Z"/><path class="cls-2" d="M119.87,200.33l5.22-17.82h1.44l-5.22,17.82h-1.44Z"/><path class="cls-2" d="M30.43,221.31v-13.96h5.56c1.25,0,2.22,.36,2.89,1.07,.67,.71,1.01,1.69,1.01,2.93s-.34,2.22-1.01,2.93c-.67,.71-1.64,1.07-2.89,1.07h-3.88v5.96h-1.68Zm1.68-7.44h3.88c.67,0,1.18-.17,1.55-.52,.37-.35,.55-.84,.55-1.48v-1.04c0-.64-.18-1.13-.55-1.48-.37-.35-.88-.52-1.55-.52h-3.88v5.04Z"/><path class="cls-2" d="M48.55,219.65h-.08c-.11,.24-.24,.47-.39,.7-.15,.23-.34,.44-.57,.61-.23,.18-.5,.32-.82,.43-.32,.11-.69,.16-1.12,.16-1.07,0-1.91-.34-2.54-1.03-.63-.69-.94-1.66-.94-2.91v-6.62h1.6v6.35c0,1.86,.79,2.79,2.36,2.79,.32,0,.63-.04,.93-.12,.3-.08,.57-.2,.8-.36,.23-.16,.42-.36,.56-.61s.21-.54,.21-.89v-7.16h1.6v10.32h-1.6v-1.66Z"/><path class="cls-2" d="M53.17,206.51h1.6v6.14h.08c.27-.65,.66-1.12,1.17-1.44,.51-.31,1.13-.46,1.85-.46,.64,0,1.22,.13,1.74,.38,.52,.25,.96,.61,1.33,1.08,.37,.47,.65,1.03,.84,1.7,.19,.67,.29,1.41,.29,2.24s-.1,1.57-.29,2.24c-.19,.67-.47,1.23-.84,1.7-.37,.47-.81,.83-1.33,1.08-.52,.25-1.1,.38-1.74,.38-1.4,0-2.41-.63-3.02-1.9h-.08v1.66h-1.6v-14.8Zm4.26,13.62c.91,0,1.62-.29,2.14-.85s.78-1.32,.78-2.24v-1.77c0-.92-.26-1.67-.78-2.24-.52-.57-1.23-.85-2.14-.85-.36,0-.7,.05-1.03,.15-.33,.1-.61,.24-.85,.41-.24,.17-.43,.39-.57,.63-.14,.25-.21,.51-.21,.79v3.86c0,.33,.07,.63,.21,.9,.14,.26,.33,.48,.57,.66,.24,.18,.52,.32,.85,.41,.33,.09,.67,.14,1.03,.14Z"/><path class="cls-2" d="M66.23,221.31c-.56,0-.98-.16-1.27-.47s-.43-.71-.43-1.19v-13.14h1.6v13.38h1.52v1.42h-1.42Z"/><path class="cls-2" d="M70.5,208.57c-.35,0-.6-.08-.75-.25-.15-.17-.23-.38-.23-.65v-.26c0-.27,.08-.48,.23-.65s.4-.25,.75-.25,.6,.08,.75,.25,.23,.38,.23,.65v.26c0,.27-.08,.48-.23,.65-.15,.17-.4,.25-.75,.25Zm-.8,2.42h1.6v10.32h-1.6v-10.32Z"/><path class="cls-2" d="M78.32,221.55c-.72,0-1.37-.13-1.94-.38-.57-.25-1.06-.61-1.45-1.08-.39-.47-.69-1.03-.9-1.7-.21-.67-.31-1.41-.31-2.24s.1-1.57,.31-2.24c.21-.67,.51-1.23,.9-1.7,.39-.47,.88-.83,1.45-1.08,.57-.25,1.22-.38,1.94-.38,1.03,0,1.85,.22,2.47,.67,.62,.45,1.08,1.03,1.39,1.75l-1.34,.68c-.19-.53-.49-.95-.92-1.24-.43-.29-.96-.44-1.6-.44-.48,0-.9,.08-1.26,.23-.36,.15-.66,.37-.9,.64-.24,.27-.42,.6-.54,.98-.12,.38-.18,.8-.18,1.25v1.76c0,.91,.24,1.65,.73,2.23,.49,.58,1.2,.87,2.15,.87,1.29,0,2.23-.6,2.8-1.8l1.16,.78c-.33,.75-.83,1.34-1.49,1.78-.66,.44-1.48,.66-2.47,.66Z"/><path class="cls-2" d="M92.21,221.31c-.6,0-1.03-.16-1.29-.48-.26-.32-.42-.72-.49-1.2h-.1c-.23,.64-.6,1.12-1.12,1.44-.52,.32-1.14,.48-1.86,.48-1.09,0-1.94-.28-2.55-.84-.61-.56-.91-1.32-.91-2.28s.36-1.72,1.07-2.24c.71-.52,1.82-.78,3.33-.78h2.04v-1.02c0-.73-.2-1.29-.6-1.68-.4-.39-1.01-.58-1.84-.58-.63,0-1.15,.14-1.57,.42-.42,.28-.77,.65-1.05,1.12l-.96-.9c.28-.56,.73-1.04,1.34-1.43,.61-.39,1.39-.59,2.32-.59,1.25,0,2.23,.31,2.92,.92,.69,.61,1.04,1.46,1.04,2.55v5.67h1.18v1.42h-.9Zm-4.6-1.12c.4,0,.77-.05,1.1-.14,.33-.09,.62-.23,.86-.4,.24-.17,.43-.37,.56-.6,.13-.23,.2-.47,.2-.74v-1.7h-2.12c-.92,0-1.59,.13-2.01,.4s-.63,.65-.63,1.16v.42c0,.51,.18,.9,.55,1.18s.86,.42,1.49,.42Z"/><path class="cls-2" d="M97.24,221.31c-.56,0-.98-.16-1.27-.47s-.43-.72-.43-1.23v-7.2h-1.7v-1.42h.96c.35,0,.58-.07,.71-.21,.13-.14,.19-.38,.19-.73v-1.92h1.44v2.86h2.26v1.42h-2.26v7.48h2.1v1.42h-2Z"/><path class="cls-2" d="M102.37,208.57c-.35,0-.6-.08-.75-.25-.15-.17-.23-.38-.23-.65v-.26c0-.27,.08-.48,.23-.65s.4-.25,.75-.25,.6,.08,.75,.25,.23,.38,.23,.65v.26c0,.27-.08,.48-.23,.65-.15,.17-.4,.25-.75,.25Zm-.8,2.42h1.6v10.32h-1.6v-10.32Z"/><path class="cls-2" d="M110.22,221.55c-.69,0-1.33-.13-1.9-.38-.57-.25-1.06-.62-1.47-1.09-.41-.47-.72-1.04-.95-1.7s-.34-1.4-.34-2.23,.11-1.55,.34-2.22,.54-1.24,.95-1.71,.9-.84,1.47-1.09c.57-.25,1.21-.38,1.9-.38s1.32,.13,1.89,.38c.57,.25,1.06,.62,1.47,1.09,.41,.47,.73,1.04,.96,1.71s.34,1.41,.34,2.22-.11,1.57-.34,2.23-.55,1.23-.96,1.7c-.41,.47-.9,.84-1.47,1.09-.57,.25-1.2,.38-1.89,.38Zm0-1.42c.87,0,1.57-.27,2.12-.8,.55-.53,.82-1.35,.82-2.44v-1.48c0-1.09-.27-1.91-.82-2.44-.55-.53-1.25-.8-2.12-.8s-1.57,.27-2.12,.8c-.55,.53-.82,1.35-.82,2.44v1.48c0,1.09,.27,1.91,.82,2.44,.55,.53,1.25,.8,2.12,.8Z"/><path class="cls-2" d="M117.3,221.31v-10.32h1.6v1.66h.08c.25-.58,.61-1.04,1.07-1.39s1.08-.51,1.85-.51c1.07,0,1.91,.34,2.53,1.03,.62,.69,.93,1.66,.93,2.91v6.62h-1.6v-6.35c0-1.86-.78-2.79-2.34-2.79-.32,0-.63,.04-.93,.12-.3,.08-.57,.2-.81,.36-.24,.16-.43,.36-.57,.61-.14,.25-.21,.54-.21,.87v7.18h-1.6Z"/></g><g class="cls-5"><path class="cls-2" d="M340.33,41.44v-13.96h8.52v1.48h-6.84v4.68h6.44v1.48h-6.44v4.84h6.84v1.48h-8.52Z"/><path class="cls-2" d="M350.71,41.44l3.82-5.2-3.66-5.12h1.88l2.62,3.84h.06l2.72-3.84h1.78l-3.64,5,3.72,5.32h-1.88l-2.68-4.04h-.06l-2.9,4.04h-1.78Z"/><path class="cls-2" d="M361.97,31.12h1.6v1.66h.08c.27-.65,.66-1.12,1.17-1.44,.51-.31,1.13-.46,1.85-.46,.64,0,1.22,.13,1.74,.38,.52,.25,.96,.61,1.33,1.08,.37,.47,.65,1.03,.84,1.7,.19,.67,.29,1.41,.29,2.24s-.1,1.57-.29,2.24-.47,1.23-.84,1.7c-.37,.47-.81,.83-1.33,1.08-.52,.25-1.1,.38-1.74,.38-1.4,0-2.41-.63-3.02-1.9h-.08v5.66h-1.6v-14.32Zm4.26,9.14c.91,0,1.62-.29,2.14-.85,.52-.57,.78-1.32,.78-2.24v-1.77c0-.92-.26-1.67-.78-2.24-.52-.57-1.23-.85-2.14-.85-.36,0-.7,.05-1.03,.15-.33,.1-.61,.24-.85,.41-.24,.17-.43,.39-.57,.63-.14,.25-.21,.51-.21,.79v3.86c0,.33,.07,.63,.21,.9,.14,.26,.33,.48,.57,.66,.24,.18,.52,.32,.85,.41,.33,.09,.67,.14,1.03,.14Z"/><path class="cls-2" d="M377.38,41.68c-.71,0-1.34-.13-1.91-.38-.57-.25-1.05-.62-1.46-1.09-.41-.47-.72-1.04-.94-1.7-.22-.66-.33-1.4-.33-2.23s.11-1.55,.33-2.22c.22-.67,.53-1.24,.94-1.71,.41-.47,.89-.84,1.46-1.09,.57-.25,1.2-.38,1.91-.38s1.31,.13,1.86,.38c.55,.25,1.01,.6,1.4,1.05s.68,.97,.89,1.58c.21,.61,.31,1.28,.31,2.01v.76h-7.42v.48c0,.44,.07,.85,.21,1.23,.14,.38,.34,.71,.6,.99,.26,.28,.58,.5,.96,.66,.38,.16,.81,.24,1.29,.24,.65,0,1.22-.15,1.71-.46,.49-.31,.86-.75,1.13-1.32l1.14,.83c-.33,.71-.85,1.29-1.56,1.72-.71,.44-1.55,.65-2.52,.65Zm0-9.46c-.44,0-.84,.08-1.2,.23-.36,.15-.67,.37-.93,.65-.26,.28-.46,.61-.61,.98s-.22,.79-.22,1.24v.14h5.7v-.22c0-.91-.25-1.65-.75-2.2-.5-.55-1.16-.83-1.99-.83Z"/><path class="cls-2" d="M384.24,41.44v-10.32h1.6v1.9h.1c.19-.49,.52-.93,1-1.32,.48-.39,1.14-.58,1.98-.58h.62v1.6h-.94c-.87,0-1.54,.16-2.03,.49-.49,.33-.73,.74-.73,1.23v7h-1.6Z"/><path class="cls-2" d="M392.25,28.7c-.35,0-.6-.08-.75-.25-.15-.17-.23-.38-.23-.65v-.26c0-.27,.08-.48,.23-.65s.4-.25,.75-.25,.6,.08,.75,.25,.23,.38,.23,.65v.26c0,.27-.08,.48-.23,.65-.15,.17-.4,.25-.75,.25Zm-.8,2.42h1.6v10.32h-1.6v-10.32Z"/><path class="cls-2" d="M396.07,41.44v-10.32h1.6v1.66h.08c.12-.26,.26-.51,.41-.74s.34-.43,.56-.6c.22-.17,.48-.31,.77-.41,.29-.1,.64-.15,1.04-.15,.68,0,1.31,.16,1.88,.49,.57,.32,1,.86,1.28,1.6h.04c.19-.55,.54-1.04,1.05-1.46,.51-.42,1.21-.62,2.09-.62,1.05,0,1.88,.34,2.47,1.03,.59,.69,.89,1.66,.89,2.91v6.62h-1.6v-6.35c0-.92-.18-1.62-.54-2.08s-.93-.7-1.72-.7c-.32,0-.62,.04-.91,.12-.29,.08-.54,.2-.77,.36-.23,.16-.41,.36-.54,.61-.13,.25-.2,.54-.2,.87v7.18h-1.6v-6.35c0-.92-.18-1.62-.54-2.08-.36-.47-.92-.7-1.68-.7-.32,0-.63,.04-.92,.12-.29,.08-.55,.2-.78,.36-.23,.16-.41,.36-.55,.61s-.21,.54-.21,.87v7.18h-1.6Z"/><path class="cls-2" d="M417.22,41.68c-.71,0-1.34-.13-1.91-.38-.57-.25-1.05-.62-1.46-1.09-.41-.47-.72-1.04-.94-1.7-.22-.66-.33-1.4-.33-2.23s.11-1.55,.33-2.22c.22-.67,.53-1.24,.94-1.71,.41-.47,.89-.84,1.46-1.09,.57-.25,1.2-.38,1.91-.38s1.31,.13,1.86,.38c.55,.25,1.01,.6,1.4,1.05s.68,.97,.89,1.58c.21,.61,.31,1.28,.31,2.01v.76h-7.42v.48c0,.44,.07,.85,.21,1.23,.14,.38,.34,.71,.6,.99,.26,.28,.58,.5,.96,.66,.38,.16,.81,.24,1.29,.24,.65,0,1.22-.15,1.71-.46,.49-.31,.86-.75,1.13-1.32l1.14,.83c-.33,.71-.85,1.29-1.56,1.72-.71,.44-1.55,.65-2.52,.65Zm0-9.46c-.44,0-.84,.08-1.2,.23-.36,.15-.67,.37-.93,.65-.26,.28-.46,.61-.61,.98s-.22,.79-.22,1.24v.14h5.7v-.22c0-.91-.25-1.65-.75-2.2-.5-.55-1.16-.83-1.99-.83Z"/><path class="cls-2" d="M424.08,41.44v-10.32h1.6v1.66h.08c.25-.58,.61-1.04,1.07-1.39s1.08-.51,1.85-.51c1.07,0,1.91,.34,2.53,1.03,.62,.69,.93,1.66,.93,2.91v6.62h-1.6v-6.35c0-1.86-.78-2.79-2.34-2.79-.32,0-.63,.04-.93,.12s-.57,.2-.81,.36c-.24,.16-.43,.36-.57,.61s-.21,.54-.21,.87v7.18h-1.6Z"/><path class="cls-2" d="M437.34,41.44c-.56,0-.98-.16-1.27-.47-.29-.31-.43-.72-.43-1.23v-7.2h-1.7v-1.42h.96c.35,0,.58-.07,.71-.21,.13-.14,.19-.38,.19-.73v-1.92h1.44v2.86h2.26v1.42h-2.26v7.48h2.1v1.42h-2Z"/><path class="cls-2" d="M363.66,51.48h4.68c.87,0,1.65,.15,2.36,.44,.71,.29,1.31,.73,1.81,1.31s.88,1.31,1.15,2.18c.27,.87,.4,1.89,.4,3.05s-.13,2.18-.4,3.05-.65,1.6-1.15,2.18-1.1,1.02-1.81,1.31c-.71,.29-1.49,.44-2.36,.44h-4.68v-13.96Zm4.68,12.48c.57,0,1.1-.1,1.58-.29,.48-.19,.89-.48,1.24-.85,.35-.37,.62-.83,.81-1.37s.29-1.16,.29-1.85v-2.28c0-.69-.1-1.31-.29-1.85s-.46-1-.81-1.37-.76-.66-1.24-.85c-.48-.19-1.01-.29-1.58-.29h-3v11h3Z"/><path class="cls-2" d="M380.77,65.68c-.71,0-1.34-.13-1.91-.38-.57-.25-1.05-.62-1.46-1.09-.41-.47-.72-1.04-.94-1.7-.22-.66-.33-1.4-.33-2.23s.11-1.55,.33-2.22c.22-.67,.53-1.24,.94-1.71,.41-.47,.89-.84,1.46-1.09,.57-.25,1.2-.38,1.91-.38s1.31,.13,1.86,.38c.55,.25,1.01,.6,1.4,1.05s.68,.97,.89,1.58c.21,.61,.31,1.28,.31,2.01v.76h-7.42v.48c0,.44,.07,.85,.21,1.23,.14,.38,.34,.71,.6,.99,.26,.28,.58,.5,.96,.66,.38,.16,.81,.24,1.29,.24,.65,0,1.22-.15,1.71-.46,.49-.31,.86-.75,1.13-1.32l1.14,.83c-.33,.71-.85,1.29-1.56,1.72-.71,.44-1.55,.65-2.52,.65Zm0-9.46c-.44,0-.84,.08-1.2,.23-.36,.15-.67,.37-.93,.65-.26,.28-.46,.61-.61,.98s-.22,.79-.22,1.24v.14h5.7v-.22c0-.91-.25-1.65-.75-2.2-.5-.55-1.16-.83-1.99-.83Z"/><path class="cls-2" d="M390.82,65.68c-.96,0-1.76-.18-2.41-.55-.65-.37-1.2-.86-1.67-1.47l1.14-.92c.4,.51,.85,.9,1.34,1.17,.49,.27,1.07,.41,1.72,.41s1.21-.15,1.59-.44c.38-.29,.57-.71,.57-1.24,0-.4-.13-.74-.39-1.03-.26-.29-.73-.48-1.41-.59l-.82-.12c-.48-.07-.92-.17-1.32-.31-.4-.14-.75-.33-1.05-.56-.3-.23-.53-.52-.7-.87-.17-.35-.25-.76-.25-1.24,0-.51,.09-.95,.28-1.33,.19-.38,.44-.7,.77-.95,.33-.25,.72-.44,1.17-.57,.45-.13,.94-.19,1.46-.19,.84,0,1.54,.15,2.11,.44,.57,.29,1.06,.7,1.49,1.22l-1.06,.96c-.23-.32-.56-.61-1-.87-.44-.26-.99-.39-1.66-.39s-1.17,.14-1.51,.43c-.34,.29-.51,.68-.51,1.17s.17,.87,.51,1.1,.83,.39,1.47,.5l.8,.12c1.15,.17,1.96,.5,2.44,.99,.48,.49,.72,1.12,.72,1.91,0,1-.34,1.79-1.02,2.36-.68,.57-1.61,.86-2.8,.86Z"/><path class="cls-2" d="M397.88,52.7c-.35,0-.6-.08-.75-.25-.15-.17-.23-.38-.23-.65v-.26c0-.27,.08-.48,.23-.65s.4-.25,.75-.25,.6,.08,.75,.25,.23,.38,.23,.65v.26c0,.27-.08,.48-.23,.65-.15,.17-.4,.25-.75,.25Zm-.8,2.42h1.6v10.32h-1.6v-10.32Z"/><path class="cls-2" d="M410.34,66.59c0,1.06-.42,1.84-1.25,2.34-.83,.5-2.08,.75-3.75,.75s-2.77-.22-3.48-.66c-.71-.44-1.06-1.07-1.06-1.88,0-.56,.15-1,.44-1.31,.29-.31,.69-.54,1.2-.69v-.22c-.61-.29-.92-.77-.92-1.43,0-.52,.17-.91,.5-1.18s.76-.47,1.28-.61v-.08c-.61-.29-1.09-.71-1.43-1.26-.34-.55-.51-1.18-.51-1.91,0-.52,.09-1,.28-1.44s.45-.82,.79-1.13c.34-.31,.75-.56,1.22-.73s1-.26,1.59-.26c.73,0,1.39,.13,1.96,.4v-.18c0-.4,.09-.74,.28-1,.19-.26,.49-.4,.92-.4h1.54v1.42h-1.96v.66c.37,.32,.66,.71,.87,1.15,.21,.45,.31,.95,.31,1.51,0,.52-.09,1-.28,1.44-.19,.44-.45,.82-.79,1.13s-.75,.56-1.23,.73c-.48,.17-1.01,.26-1.6,.26-.33,0-.67-.03-1-.1-.35,.09-.66,.23-.94,.41-.28,.18-.42,.43-.42,.75s.15,.51,.44,.62c.29,.11,.67,.16,1.14,.16h2.2c1.28,0,2.21,.24,2.79,.73s.87,1.15,.87,2Zm-1.5,.11c0-.41-.16-.74-.47-.99-.31-.25-.87-.37-1.67-.37h-3.44c-.64,.29-.96,.76-.96,1.4,0,.45,.17,.84,.51,1.16s.92,.48,1.73,.48h1.48c.89,0,1.59-.14,2.08-.42,.49-.28,.74-.7,.74-1.26Zm-3.58-5.96c.68,0,1.22-.16,1.62-.49,.4-.33,.6-.83,.6-1.52v-.56c0-.68-.2-1.19-.6-1.52-.4-.33-.94-.49-1.62-.49s-1.22,.16-1.62,.49-.6,.83-.6,1.52v.56c0,.68,.2,1.19,.6,1.52s.94,.49,1.62,.49Z"/><path class="cls-2" d="M412.12,65.44v-10.32h1.6v1.66h.08c.25-.58,.61-1.04,1.07-1.39s1.08-.51,1.85-.51c1.07,0,1.91,.34,2.53,1.03,.62,.69,.93,1.66,.93,2.91v6.62h-1.6v-6.35c0-1.86-.78-2.79-2.34-2.79-.32,0-.63,.04-.93,.12s-.57,.2-.81,.36c-.24,.16-.43,.36-.57,.61s-.21,.54-.21,.87v7.18h-1.6Z"/></g><g class="cls-5"><path class="cls-2" d="M425.79,197.31v-13.96h8.52v1.48h-6.84v4.68h6.44v1.48h-6.44v4.84h6.84v1.48h-8.52Z"/><path class="cls-2" d="M436.17,197.31l3.82-5.2-3.66-5.12h1.88l2.62,3.84h.06l2.72-3.84h1.78l-3.64,5,3.72,5.32h-1.88l-2.68-4.04h-.06l-2.9,4.04h-1.78Z"/><path class="cls-2" d="M447.42,186.99h1.6v1.66h.08c.27-.65,.66-1.12,1.17-1.44,.51-.31,1.13-.46,1.85-.46,.64,0,1.22,.13,1.74,.38,.52,.25,.96,.61,1.33,1.08s.65,1.03,.84,1.7c.19,.67,.29,1.41,.29,2.24s-.1,1.57-.29,2.24-.47,1.23-.84,1.7-.81,.83-1.33,1.08c-.52,.25-1.1,.38-1.74,.38-1.4,0-2.41-.63-3.02-1.9h-.08v5.66h-1.6v-14.32Zm4.26,9.14c.91,0,1.62-.29,2.14-.85,.52-.57,.78-1.32,.78-2.24v-1.77c0-.92-.26-1.67-.78-2.24-.52-.57-1.23-.85-2.14-.85-.36,0-.7,.05-1.03,.15-.33,.1-.61,.24-.85,.41-.24,.17-.43,.39-.57,.63-.14,.25-.21,.51-.21,.79v3.86c0,.33,.07,.63,.21,.9,.14,.26,.33,.48,.57,.66,.24,.18,.52,.32,.85,.41,.33,.09,.67,.14,1.03,.14Z"/><path class="cls-2" d="M462.83,197.55c-.71,0-1.34-.13-1.91-.38-.57-.25-1.05-.62-1.46-1.09-.41-.47-.72-1.04-.94-1.7s-.33-1.4-.33-2.23,.11-1.55,.33-2.22,.53-1.24,.94-1.71c.41-.47,.89-.84,1.46-1.09,.57-.25,1.2-.38,1.91-.38s1.31,.13,1.86,.38c.55,.25,1.01,.6,1.4,1.05s.68,.97,.89,1.58c.21,.61,.31,1.28,.31,2.01v.76h-7.42v.48c0,.44,.07,.85,.21,1.23,.14,.38,.34,.71,.6,.99s.58,.5,.96,.66,.81,.24,1.29,.24c.65,0,1.22-.15,1.71-.46,.49-.31,.86-.75,1.13-1.32l1.14,.83c-.33,.71-.85,1.29-1.56,1.72s-1.55,.65-2.52,.65Zm0-9.46c-.44,0-.84,.08-1.2,.23-.36,.15-.67,.37-.93,.65-.26,.28-.46,.61-.61,.98s-.22,.79-.22,1.24v.14h5.7v-.22c0-.91-.25-1.65-.75-2.2-.5-.55-1.16-.83-1.99-.83Z"/><path class="cls-2" d="M469.69,197.31v-10.32h1.6v1.9h.1c.19-.49,.52-.93,1-1.32,.48-.39,1.14-.58,1.98-.58h.62v1.6h-.94c-.87,0-1.54,.16-2.03,.49-.49,.33-.73,.74-.73,1.23v7h-1.6Z"/><path class="cls-2" d="M477.7,184.57c-.35,0-.6-.08-.75-.25-.15-.17-.23-.38-.23-.65v-.26c0-.27,.08-.48,.23-.65s.4-.25,.75-.25,.6,.08,.75,.25,.23,.38,.23,.65v.26c0,.27-.08,.48-.23,.65-.15,.17-.4,.25-.75,.25Zm-.8,2.42h1.6v10.32h-1.6v-10.32Z"/><path class="cls-2" d="M481.53,197.31v-10.32h1.6v1.66h.08c.12-.26,.26-.51,.41-.74s.34-.43,.56-.6c.22-.17,.48-.31,.77-.41,.29-.1,.64-.15,1.04-.15,.68,0,1.31,.16,1.88,.49,.57,.32,1,.86,1.28,1.6h.04c.19-.55,.54-1.04,1.05-1.46,.51-.42,1.21-.62,2.09-.62,1.05,0,1.88,.34,2.47,1.03,.59,.69,.89,1.66,.89,2.91v6.62h-1.6v-6.35c0-.92-.18-1.62-.54-2.08-.36-.47-.93-.7-1.72-.7-.32,0-.62,.04-.91,.12s-.54,.2-.77,.36c-.23,.16-.41,.36-.54,.61-.13,.25-.2,.54-.2,.87v7.18h-1.6v-6.35c0-.92-.18-1.62-.54-2.08-.36-.47-.92-.7-1.68-.7-.32,0-.63,.04-.92,.12s-.55,.2-.78,.36c-.23,.16-.41,.36-.55,.61s-.21,.54-.21,.87v7.18h-1.6Z"/><path class="cls-2" d="M502.68,197.55c-.71,0-1.34-.13-1.91-.38-.57-.25-1.05-.62-1.46-1.09-.41-.47-.72-1.04-.94-1.7s-.33-1.4-.33-2.23,.11-1.55,.33-2.22,.53-1.24,.94-1.71c.41-.47,.89-.84,1.46-1.09,.57-.25,1.2-.38,1.91-.38s1.31,.13,1.86,.38c.55,.25,1.01,.6,1.4,1.05s.68,.97,.89,1.58c.21,.61,.31,1.28,.31,2.01v.76h-7.42v.48c0,.44,.07,.85,.21,1.23,.14,.38,.34,.71,.6,.99s.58,.5,.96,.66,.81,.24,1.29,.24c.65,0,1.22-.15,1.71-.46,.49-.31,.86-.75,1.13-1.32l1.14,.83c-.33,.71-.85,1.29-1.56,1.72s-1.55,.65-2.52,.65Zm0-9.46c-.44,0-.84,.08-1.2,.23-.36,.15-.67,.37-.93,.65-.26,.28-.46,.61-.61,.98s-.22,.79-.22,1.24v.14h5.7v-.22c0-.91-.25-1.65-.75-2.2-.5-.55-1.16-.83-1.99-.83Z"/><path class="cls-2" d="M509.54,197.31v-10.32h1.6v1.66h.08c.25-.58,.61-1.04,1.07-1.39s1.08-.51,1.85-.51c1.07,0,1.91,.34,2.53,1.03,.62,.69,.93,1.66,.93,2.91v6.62h-1.6v-6.35c0-1.86-.78-2.79-2.34-2.79-.32,0-.63,.04-.93,.12-.3,.08-.57,.2-.81,.36-.24,.16-.43,.36-.57,.61s-.21,.54-.21,.87v7.18h-1.6Z"/><path class="cls-2" d="M522.8,197.31c-.56,0-.98-.16-1.27-.47-.29-.31-.43-.72-.43-1.23v-7.2h-1.7v-1.42h.96c.35,0,.58-.07,.71-.21,.13-.14,.19-.38,.19-.73v-1.92h1.44v2.86h2.26v1.42h-2.26v7.48h2.1v1.42h-2Z"/><path class="cls-2" d="M526,200.33l5.22-17.82h1.44l-5.22,17.82h-1.44Z"/><path class="cls-2" d="M413.38,207.35h4.68c.87,0,1.65,.15,2.36,.44,.71,.29,1.31,.73,1.81,1.31,.5,.58,.88,1.31,1.15,2.18,.27,.87,.4,1.89,.4,3.05s-.13,2.18-.4,3.05c-.27,.87-.65,1.6-1.15,2.18s-1.1,1.02-1.81,1.31c-.71,.29-1.49,.44-2.36,.44h-4.68v-13.96Zm4.68,12.48c.57,0,1.1-.1,1.58-.29s.89-.48,1.24-.85c.35-.37,.62-.83,.81-1.37s.29-1.16,.29-1.85v-2.28c0-.69-.1-1.31-.29-1.85s-.46-1-.81-1.37c-.35-.37-.76-.66-1.24-.85-.48-.19-1.01-.29-1.58-.29h-3v11h3Z"/><path class="cls-2" d="M433.95,221.31c-.6,0-1.03-.16-1.29-.48-.26-.32-.42-.72-.49-1.2h-.1c-.23,.64-.6,1.12-1.12,1.44-.52,.32-1.14,.48-1.86,.48-1.09,0-1.94-.28-2.55-.84-.61-.56-.91-1.32-.91-2.28s.36-1.72,1.07-2.24c.71-.52,1.82-.78,3.33-.78h2.04v-1.02c0-.73-.2-1.29-.6-1.68-.4-.39-1.01-.58-1.84-.58-.63,0-1.15,.14-1.57,.42-.42,.28-.77,.65-1.05,1.12l-.96-.9c.28-.56,.73-1.04,1.34-1.43,.61-.39,1.39-.59,2.32-.59,1.25,0,2.23,.31,2.92,.92,.69,.61,1.04,1.46,1.04,2.55v5.67h1.18v1.42h-.9Zm-4.6-1.12c.4,0,.77-.05,1.1-.14,.33-.09,.62-.23,.86-.4,.24-.17,.43-.37,.56-.6,.13-.23,.2-.47,.2-.74v-1.7h-2.12c-.92,0-1.59,.13-2.01,.4s-.63,.65-.63,1.16v.42c0,.51,.18,.9,.55,1.18,.37,.28,.86,.42,1.49,.42Z"/><path class="cls-2" d="M438.98,221.31c-.56,0-.98-.16-1.27-.47s-.43-.72-.43-1.23v-7.2h-1.7v-1.42h.96c.35,0,.58-.07,.71-.21,.13-.14,.19-.38,.19-.73v-1.92h1.44v2.86h2.26v1.42h-2.26v7.48h2.1v1.42h-2Z"/><path class="cls-2" d="M451.09,221.31c-.6,0-1.03-.16-1.29-.48-.26-.32-.42-.72-.49-1.2h-.1c-.23,.64-.6,1.12-1.12,1.44-.52,.32-1.14,.48-1.86,.48-1.09,0-1.94-.28-2.55-.84-.61-.56-.91-1.32-.91-2.28s.36-1.72,1.07-2.24c.71-.52,1.82-.78,3.33-.78h2.04v-1.02c0-.73-.2-1.29-.6-1.68-.4-.39-1.01-.58-1.84-.58-.63,0-1.15,.14-1.57,.42-.42,.28-.77,.65-1.05,1.12l-.96-.9c.28-.56,.73-1.04,1.34-1.43,.61-.39,1.39-.59,2.32-.59,1.25,0,2.23,.31,2.92,.92,.69,.61,1.04,1.46,1.04,2.55v5.67h1.18v1.42h-.9Zm-4.6-1.12c.4,0,.77-.05,1.1-.14,.33-.09,.62-.23,.86-.4,.24-.17,.43-.37,.56-.6s.2-.47,.2-.74v-1.7h-2.12c-.92,0-1.59,.13-2.01,.4s-.63,.65-.63,1.16v.42c0,.51,.18,.9,.55,1.18s.86,.42,1.49,.42Z"/><path class="cls-2" d="M464.07,221.55c-1.77,0-3.15-.6-4.14-1.81-.99-1.21-1.48-2.98-1.48-5.33s.49-4.15,1.48-5.41c.99-1.26,2.37-1.89,4.14-1.89,1.17,0,2.16,.26,2.95,.79,.79,.53,1.41,1.28,1.85,2.25l-1.36,.82c-.28-.72-.71-1.3-1.28-1.73-.57-.43-1.29-.65-2.16-.65-.6,0-1.14,.11-1.61,.34s-.87,.55-1.2,.97c-.33,.42-.58,.92-.75,1.5-.17,.58-.26,1.23-.26,1.96v2.09c0,1.44,.33,2.58,1,3.39,.67,.82,1.61,1.22,2.82,1.22,.89,0,1.64-.23,2.24-.69,.6-.46,1.04-1.07,1.32-1.83l1.34,.84c-.44,.99-1.07,1.76-1.9,2.32-.83,.56-1.83,.84-3,.84Z"/><path class="cls-2" d="M475.34,221.55c-.69,0-1.33-.13-1.9-.38-.57-.25-1.06-.62-1.47-1.09-.41-.47-.72-1.04-.95-1.7s-.34-1.4-.34-2.23,.11-1.55,.34-2.22,.54-1.24,.95-1.71,.9-.84,1.47-1.09c.57-.25,1.21-.38,1.9-.38s1.32,.13,1.89,.38c.57,.25,1.06,.62,1.47,1.09,.41,.47,.73,1.04,.96,1.71s.34,1.41,.34,2.22-.11,1.57-.34,2.23-.55,1.23-.96,1.7c-.41,.47-.9,.84-1.47,1.09-.57,.25-1.2,.38-1.89,.38Zm0-1.42c.87,0,1.57-.27,2.12-.8,.55-.53,.82-1.35,.82-2.44v-1.48c0-1.09-.27-1.91-.82-2.44-.55-.53-1.25-.8-2.12-.8s-1.57,.27-2.12,.8c-.55,.53-.82,1.35-.82,2.44v1.48c0,1.09,.27,1.91,.82,2.44,.55,.53,1.25,.8,2.12,.8Z"/><path class="cls-2" d="M484.12,221.31c-.56,0-.98-.16-1.27-.47s-.43-.71-.43-1.19v-13.14h1.6v13.38h1.52v1.42h-1.42Z"/><path class="cls-2" d="M489.3,221.31c-.56,0-.98-.16-1.27-.47s-.43-.71-.43-1.19v-13.14h1.6v13.38h1.52v1.42h-1.42Z"/><path class="cls-2" d="M496.61,221.55c-.71,0-1.34-.13-1.91-.38-.57-.25-1.05-.62-1.46-1.09-.41-.47-.72-1.04-.94-1.7-.22-.66-.33-1.4-.33-2.23s.11-1.55,.33-2.22c.22-.67,.53-1.24,.94-1.71s.89-.84,1.46-1.09c.57-.25,1.2-.38,1.91-.38s1.31,.13,1.86,.38c.55,.25,1.01,.6,1.4,1.05s.68,.97,.89,1.58c.21,.61,.31,1.28,.31,2.01v.76h-7.42v.48c0,.44,.07,.85,.21,1.23s.34,.71,.6,.99,.58,.5,.96,.66c.38,.16,.81,.24,1.29,.24,.65,0,1.22-.15,1.71-.46,.49-.31,.86-.75,1.13-1.32l1.14,.83c-.33,.71-.85,1.29-1.56,1.72s-1.55,.65-2.52,.65Zm0-9.46c-.44,0-.84,.08-1.2,.23s-.67,.37-.93,.65c-.26,.28-.46,.61-.61,.98s-.22,.79-.22,1.24v.14h5.7v-.22c0-.91-.25-1.65-.75-2.2-.5-.55-1.16-.83-1.99-.83Z"/><path class="cls-2" d="M507.5,221.55c-.72,0-1.37-.13-1.94-.38-.57-.25-1.06-.61-1.45-1.08-.39-.47-.69-1.03-.9-1.7s-.31-1.41-.31-2.24,.1-1.57,.31-2.24c.21-.67,.51-1.23,.9-1.7,.39-.47,.88-.83,1.45-1.08,.57-.25,1.22-.38,1.94-.38,1.03,0,1.85,.22,2.47,.67,.62,.45,1.08,1.03,1.39,1.75l-1.34,.68c-.19-.53-.49-.95-.92-1.24-.43-.29-.96-.44-1.6-.44-.48,0-.9,.08-1.26,.23-.36,.15-.66,.37-.9,.64-.24,.27-.42,.6-.54,.98-.12,.38-.18,.8-.18,1.25v1.76c0,.91,.24,1.65,.73,2.23,.49,.58,1.2,.87,2.15,.87,1.29,0,2.23-.6,2.8-1.8l1.16,.78c-.33,.75-.83,1.34-1.49,1.78-.66,.44-1.48,.66-2.47,.66Z"/><path class="cls-2" d="M516.17,221.31c-.56,0-.98-.16-1.27-.47-.29-.31-.43-.72-.43-1.23v-7.2h-1.7v-1.42h.96c.35,0,.58-.07,.71-.21,.13-.14,.19-.38,.19-.73v-1.92h1.44v2.86h2.26v1.42h-2.26v7.48h2.1v1.42h-2Z"/><path class="cls-2" d="M521.3,208.57c-.35,0-.6-.08-.75-.25-.15-.17-.23-.38-.23-.65v-.26c0-.27,.08-.48,.23-.65s.4-.25,.75-.25,.6,.08,.75,.25,.23,.38,.23,.65v.26c0,.27-.08,.48-.23,.65-.15,.17-.4,.25-.75,.25Zm-.8,2.42h1.6v10.32h-1.6v-10.32Z"/><path class="cls-2" d="M529.14,221.55c-.69,0-1.33-.13-1.9-.38-.57-.25-1.06-.62-1.47-1.09-.41-.47-.72-1.04-.95-1.7s-.34-1.4-.34-2.23,.11-1.55,.34-2.22,.54-1.24,.95-1.71c.41-.47,.9-.84,1.47-1.09,.57-.25,1.21-.38,1.9-.38s1.32,.13,1.89,.38c.57,.25,1.06,.62,1.47,1.09s.73,1.04,.96,1.71,.34,1.41,.34,2.22-.11,1.57-.34,2.23-.55,1.23-.96,1.7c-.41,.47-.9,.84-1.47,1.09-.57,.25-1.2,.38-1.89,.38Zm0-1.42c.87,0,1.57-.27,2.12-.8,.55-.53,.82-1.35,.82-2.44v-1.48c0-1.09-.27-1.91-.82-2.44-.55-.53-1.25-.8-2.12-.8s-1.57,.27-2.12,.8c-.55,.53-.82,1.35-.82,2.44v1.48c0,1.09,.27,1.91,.82,2.44,.55,.53,1.25,.8,2.12,.8Z"/><path class="cls-2" d="M536.22,221.31v-10.32h1.6v1.66h.08c.25-.58,.61-1.04,1.07-1.39,.46-.34,1.08-.51,1.85-.51,1.07,0,1.91,.34,2.53,1.03,.62,.69,.93,1.66,.93,2.91v6.62h-1.6v-6.35c0-1.86-.78-2.79-2.34-2.79-.32,0-.63,.04-.93,.12s-.57,.2-.81,.36c-.24,.16-.43,.36-.57,.61-.14,.25-.21,.54-.21,.87v7.18h-1.6Z"/></g><g class="cls-5"><path class="cls-2" d="M370.33,344.21h4.68c.87,0,1.65,.15,2.36,.44,.71,.29,1.31,.73,1.81,1.31s.88,1.31,1.15,2.18c.27,.87,.4,1.89,.4,3.05s-.13,2.18-.4,3.05-.65,1.6-1.15,2.18-1.1,1.02-1.81,1.31c-.71,.29-1.49,.44-2.36,.44h-4.68v-13.96Zm4.68,12.48c.57,0,1.1-.1,1.58-.29,.48-.19,.89-.48,1.24-.85,.35-.37,.62-.83,.81-1.37s.29-1.16,.29-1.85v-2.28c0-.69-.1-1.31-.29-1.85s-.46-1-.81-1.37-.76-.66-1.24-.85c-.48-.19-1.01-.29-1.58-.29h-3v11h3Z"/><path class="cls-2" d="M390.89,358.17c-.6,0-1.03-.16-1.29-.48-.26-.32-.42-.72-.49-1.2h-.1c-.23,.64-.6,1.12-1.12,1.44-.52,.32-1.14,.48-1.86,.48-1.09,0-1.94-.28-2.55-.84-.61-.56-.91-1.32-.91-2.28s.36-1.72,1.07-2.24c.71-.52,1.82-.78,3.33-.78h2.04v-1.02c0-.73-.2-1.29-.6-1.68-.4-.39-1.01-.58-1.84-.58-.63,0-1.15,.14-1.57,.42-.42,.28-.77,.65-1.05,1.12l-.96-.9c.28-.56,.73-1.04,1.34-1.43,.61-.39,1.39-.59,2.32-.59,1.25,0,2.23,.31,2.92,.92,.69,.61,1.04,1.46,1.04,2.55v5.67h1.18v1.42h-.9Zm-4.6-1.12c.4,0,.77-.05,1.1-.14,.33-.09,.62-.23,.86-.4,.24-.17,.43-.37,.56-.6,.13-.23,.2-.47,.2-.74v-1.7h-2.12c-.92,0-1.59,.13-2.01,.4s-.63,.65-.63,1.16v.42c0,.51,.18,.9,.55,1.18,.37,.28,.86,.42,1.49,.42Z"/><path class="cls-2" d="M395.92,358.17c-.56,0-.98-.16-1.27-.47-.29-.31-.43-.72-.43-1.23v-7.2h-1.7v-1.42h.96c.35,0,.58-.07,.71-.21,.13-.14,.19-.38,.19-.73v-1.92h1.44v2.86h2.26v1.42h-2.26v7.48h2.1v1.42h-2Z"/><path class="cls-2" d="M408.03,358.17c-.6,0-1.03-.16-1.29-.48-.26-.32-.42-.72-.49-1.2h-.1c-.23,.64-.6,1.12-1.12,1.44-.52,.32-1.14,.48-1.86,.48-1.09,0-1.94-.28-2.55-.84-.61-.56-.91-1.32-.91-2.28s.36-1.72,1.07-2.24c.71-.52,1.82-.78,3.33-.78h2.04v-1.02c0-.73-.2-1.29-.6-1.68s-1.01-.58-1.84-.58c-.63,0-1.15,.14-1.57,.42-.42,.28-.77,.65-1.05,1.12l-.96-.9c.28-.56,.73-1.04,1.34-1.43s1.39-.59,2.32-.59c1.25,0,2.23,.31,2.92,.92,.69,.61,1.04,1.46,1.04,2.55v5.67h1.18v1.42h-.9Zm-4.6-1.12c.4,0,.77-.05,1.1-.14,.33-.09,.62-.23,.86-.4,.24-.17,.43-.37,.56-.6,.13-.23,.2-.47,.2-.74v-1.7h-2.12c-.92,0-1.59,.13-2.01,.4s-.63,.65-.63,1.16v.42c0,.51,.18,.9,.55,1.18,.37,.28,.86,.42,1.49,.42Z"/><path class="cls-2" d="M345.13,382.17v-13.96h5.56c1.25,0,2.22,.36,2.89,1.07,.67,.71,1.01,1.69,1.01,2.93s-.34,2.22-1.01,2.93c-.67,.71-1.64,1.07-2.89,1.07h-3.88v5.96h-1.68Zm1.68-7.44h3.88c.67,0,1.18-.17,1.55-.52,.37-.35,.55-.84,.55-1.48v-1.04c0-.64-.18-1.13-.55-1.48-.37-.35-.88-.52-1.55-.52h-3.88v5.04Z"/><path class="cls-2" d="M356.83,382.17v-10.32h1.6v1.9h.1c.19-.49,.52-.93,1-1.32,.48-.39,1.14-.58,1.98-.58h.62v1.6h-.94c-.87,0-1.54,.16-2.03,.49-.49,.33-.73,.74-.73,1.23v7h-1.6Z"/><path class="cls-2" d="M367.94,382.41c-.69,0-1.33-.13-1.9-.38-.57-.25-1.06-.62-1.47-1.09-.41-.47-.72-1.04-.95-1.7s-.34-1.4-.34-2.23,.11-1.55,.34-2.22,.54-1.24,.95-1.71c.41-.47,.9-.84,1.47-1.09,.57-.25,1.21-.38,1.9-.38s1.32,.13,1.89,.38c.57,.25,1.06,.62,1.47,1.09,.41,.47,.73,1.04,.96,1.71s.34,1.41,.34,2.22-.11,1.57-.34,2.23-.55,1.23-.96,1.7c-.41,.47-.9,.84-1.47,1.09-.57,.25-1.2,.38-1.89,.38Zm0-1.42c.87,0,1.57-.27,2.12-.8,.55-.53,.82-1.35,.82-2.44v-1.48c0-1.09-.27-1.91-.82-2.44s-1.25-.8-2.12-.8-1.57,.27-2.12,.8-.82,1.35-.82,2.44v1.48c0,1.09,.27,1.91,.82,2.44,.55,.53,1.25,.8,2.12,.8Z"/><path class="cls-2" d="M379.02,382.41c-.72,0-1.37-.13-1.94-.38-.57-.25-1.06-.61-1.45-1.08-.39-.47-.69-1.03-.9-1.7s-.31-1.41-.31-2.24,.1-1.57,.31-2.24c.21-.67,.51-1.23,.9-1.7,.39-.47,.88-.83,1.45-1.08,.57-.25,1.22-.38,1.94-.38,1.03,0,1.85,.22,2.47,.67,.62,.45,1.08,1.03,1.39,1.75l-1.34,.68c-.19-.53-.49-.95-.92-1.24-.43-.29-.96-.44-1.6-.44-.48,0-.9,.08-1.26,.23s-.66,.37-.9,.64c-.24,.27-.42,.6-.54,.98-.12,.38-.18,.8-.18,1.25v1.76c0,.91,.24,1.65,.73,2.23,.49,.58,1.2,.87,2.15,.87,1.29,0,2.23-.6,2.8-1.8l1.16,.78c-.33,.75-.83,1.34-1.49,1.78-.66,.44-1.48,.66-2.47,.66Z"/><path class="cls-2" d="M389.04,382.41c-.71,0-1.34-.13-1.91-.38-.57-.25-1.05-.62-1.46-1.09-.41-.47-.72-1.04-.94-1.7-.22-.66-.33-1.4-.33-2.23s.11-1.55,.33-2.22c.22-.67,.53-1.24,.94-1.71,.41-.47,.89-.84,1.46-1.09,.57-.25,1.2-.38,1.91-.38s1.31,.13,1.86,.38c.55,.25,1.01,.6,1.4,1.05s.68,.97,.89,1.58c.21,.61,.31,1.28,.31,2.01v.76h-7.42v.48c0,.44,.07,.85,.21,1.23,.14,.38,.34,.71,.6,.99s.58,.5,.96,.66,.81,.24,1.29,.24c.65,0,1.22-.15,1.71-.46s.86-.75,1.13-1.32l1.14,.83c-.33,.71-.85,1.29-1.56,1.72s-1.55,.65-2.52,.65Zm0-9.46c-.44,0-.84,.08-1.2,.23s-.67,.37-.93,.65c-.26,.28-.46,.61-.61,.98s-.22,.79-.22,1.24v.14h5.7v-.22c0-.91-.25-1.65-.75-2.2-.5-.55-1.16-.83-1.99-.83Z"/><path class="cls-2" d="M399.09,382.41c-.96,0-1.76-.18-2.41-.55-.65-.37-1.2-.86-1.67-1.47l1.14-.92c.4,.51,.85,.9,1.34,1.17,.49,.27,1.07,.41,1.72,.41s1.21-.15,1.59-.44c.38-.29,.57-.71,.57-1.24,0-.4-.13-.74-.39-1.03-.26-.29-.73-.48-1.41-.59l-.82-.12c-.48-.07-.92-.17-1.32-.31-.4-.14-.75-.33-1.05-.56s-.53-.52-.7-.87-.25-.76-.25-1.24c0-.51,.09-.95,.28-1.33,.19-.38,.44-.7,.77-.95,.33-.25,.72-.44,1.17-.57,.45-.13,.94-.19,1.46-.19,.84,0,1.54,.15,2.11,.44,.57,.29,1.06,.7,1.49,1.22l-1.06,.96c-.23-.32-.56-.61-1-.87-.44-.26-.99-.39-1.66-.39s-1.17,.14-1.51,.43c-.34,.29-.51,.68-.51,1.17s.17,.87,.51,1.1,.83,.39,1.47,.5l.8,.12c1.15,.17,1.96,.5,2.44,.99,.48,.49,.72,1.12,.72,1.91,0,1-.34,1.79-1.02,2.36s-1.61,.86-2.8,.86Z"/><path class="cls-2" d="M408.76,382.41c-.96,0-1.76-.18-2.41-.55-.65-.37-1.2-.86-1.67-1.47l1.14-.92c.4,.51,.85,.9,1.34,1.17,.49,.27,1.07,.41,1.72,.41s1.21-.15,1.59-.44c.38-.29,.57-.71,.57-1.24,0-.4-.13-.74-.39-1.03-.26-.29-.73-.48-1.41-.59l-.82-.12c-.48-.07-.92-.17-1.32-.31-.4-.14-.75-.33-1.05-.56s-.53-.52-.7-.87-.25-.76-.25-1.24c0-.51,.09-.95,.28-1.33,.19-.38,.44-.7,.77-.95,.33-.25,.72-.44,1.17-.57,.45-.13,.94-.19,1.46-.19,.84,0,1.54,.15,2.11,.44,.57,.29,1.06,.7,1.49,1.22l-1.06,.96c-.23-.32-.56-.61-1-.87-.44-.26-.99-.39-1.66-.39s-1.17,.14-1.51,.43c-.34,.29-.51,.68-.51,1.17s.17,.87,.51,1.1,.83,.39,1.47,.5l.8,.12c1.15,.17,1.96,.5,2.44,.99,.48,.49,.72,1.12,.72,1.91,0,1-.34,1.79-1.02,2.36s-1.61,.86-2.8,.86Z"/><path class="cls-2" d="M415.82,369.43c-.35,0-.6-.08-.75-.25-.15-.17-.23-.38-.23-.65v-.26c0-.27,.08-.48,.23-.65s.4-.25,.75-.25,.6,.08,.75,.25,.23,.38,.23,.65v.26c0,.27-.08,.48-.23,.65-.15,.17-.4,.25-.75,.25Zm-.8,2.42h1.6v10.32h-1.6v-10.32Z"/><path class="cls-2" d="M419.64,382.17v-10.32h1.6v1.66h.08c.25-.58,.61-1.04,1.07-1.39s1.08-.51,1.85-.51c1.07,0,1.91,.34,2.53,1.03,.62,.69,.93,1.66,.93,2.91v6.62h-1.6v-6.35c0-1.86-.78-2.79-2.34-2.79-.32,0-.63,.04-.93,.12-.3,.08-.57,.2-.81,.36-.24,.16-.43,.36-.57,.61-.14,.25-.21,.54-.21,.87v7.18h-1.6Z"/><path class="cls-2" d="M439.27,383.32c0,1.06-.42,1.84-1.25,2.34-.83,.5-2.08,.75-3.75,.75s-2.77-.22-3.48-.66c-.71-.44-1.06-1.07-1.06-1.88,0-.56,.15-1,.44-1.31,.29-.31,.69-.54,1.2-.69v-.22c-.61-.29-.92-.77-.92-1.43,0-.52,.17-.91,.5-1.18s.76-.47,1.28-.61v-.08c-.61-.29-1.09-.71-1.43-1.26-.34-.55-.51-1.18-.51-1.91,0-.52,.09-1,.28-1.44s.45-.82,.79-1.13c.34-.31,.75-.56,1.22-.73s1-.26,1.59-.26c.73,0,1.39,.13,1.96,.4v-.18c0-.4,.09-.74,.28-1,.19-.26,.49-.4,.92-.4h1.54v1.42h-1.96v.66c.37,.32,.66,.71,.87,1.15,.21,.45,.31,.95,.31,1.51,0,.52-.09,1-.28,1.44-.19,.44-.45,.82-.79,1.13s-.75,.56-1.23,.73c-.48,.17-1.01,.26-1.6,.26-.33,0-.67-.03-1-.1-.35,.09-.66,.23-.94,.41-.28,.18-.42,.43-.42,.75s.15,.51,.44,.62c.29,.11,.67,.16,1.14,.16h2.2c1.28,0,2.21,.24,2.79,.73s.87,1.15,.87,2Zm-1.5,.11c0-.41-.16-.74-.47-.99-.31-.25-.87-.37-1.67-.37h-3.44c-.64,.29-.96,.76-.96,1.4,0,.45,.17,.84,.51,1.16s.92,.48,1.73,.48h1.48c.89,0,1.59-.14,2.08-.42,.49-.28,.74-.7,.74-1.26Zm-3.58-5.96c.68,0,1.22-.16,1.62-.49,.4-.33,.6-.83,.6-1.52v-.56c0-.68-.2-1.19-.6-1.52-.4-.33-.94-.49-1.62-.49s-1.22,.16-1.62,.49-.6,.83-.6,1.52v.56c0,.68,.2,1.19,.6,1.52s.94,.49,1.62,.49Z"/></g><g class="cls-5"><path class="cls-2" d="M134.76,370.17l-1.4-4.12h-5.64l-1.4,4.12h-1.7l4.88-13.96h2.14l4.88,13.96h-1.76Zm-4.18-12.4h-.1l-2.36,6.8h4.82l-2.36-6.8Z"/><path class="cls-2" d="M138.58,370.17v-10.32h1.6v1.66h.08c.25-.58,.61-1.04,1.07-1.39s1.08-.51,1.85-.51c1.07,0,1.91,.34,2.53,1.03,.62,.69,.93,1.66,.93,2.91v6.62h-1.6v-6.35c0-1.86-.78-2.79-2.34-2.79-.32,0-.63,.04-.93,.12-.3,.08-.57,.2-.81,.36-.24,.16-.43,.36-.57,.61-.14,.25-.21,.54-.21,.87v7.18h-1.6Z"/><path class="cls-2" d="M157.21,370.17c-.6,0-1.03-.16-1.29-.48-.26-.32-.42-.72-.49-1.2h-.1c-.23,.64-.6,1.12-1.12,1.44-.52,.32-1.14,.48-1.86,.48-1.09,0-1.94-.28-2.55-.84-.61-.56-.91-1.32-.91-2.28s.36-1.72,1.07-2.24c.71-.52,1.82-.78,3.33-.78h2.04v-1.02c0-.73-.2-1.29-.6-1.68-.4-.39-1.01-.58-1.84-.58-.63,0-1.15,.14-1.57,.42-.42,.28-.77,.65-1.05,1.12l-.96-.9c.28-.56,.73-1.04,1.34-1.43,.61-.39,1.39-.59,2.32-.59,1.25,0,2.23,.31,2.92,.92,.69,.61,1.04,1.46,1.04,2.55v5.67h1.18v1.42h-.9Zm-4.6-1.12c.4,0,.77-.05,1.1-.14,.33-.09,.62-.23,.86-.4,.24-.17,.43-.37,.56-.6,.13-.23,.2-.47,.2-.74v-1.7h-2.12c-.92,0-1.59,.13-2.01,.4s-.63,.65-.63,1.16v.42c0,.51,.18,.9,.55,1.18s.86,.42,1.49,.42Z"/><path class="cls-2" d="M161.84,370.17c-.56,0-.98-.16-1.27-.47s-.43-.71-.43-1.19v-13.14h1.6v13.38h1.52v1.42h-1.42Z"/><path class="cls-2" d="M171.58,359.85h1.58l-4.62,12.72c-.12,.31-.24,.56-.36,.77-.12,.21-.27,.37-.44,.49-.17,.12-.39,.21-.65,.26-.26,.05-.58,.08-.95,.08h-.82v-1.42h1.62l.78-2.2-3.86-10.7h1.6l2.48,7.01,.48,1.68h.1l.56-1.68,2.5-7.01Z"/><path class="cls-2" d="M178.13,370.41c-.96,0-1.76-.18-2.41-.55-.65-.37-1.2-.86-1.67-1.47l1.14-.92c.4,.51,.85,.9,1.34,1.17,.49,.27,1.07,.41,1.72,.41s1.21-.15,1.59-.44c.38-.29,.57-.71,.57-1.24,0-.4-.13-.74-.39-1.03-.26-.29-.73-.48-1.41-.59l-.82-.12c-.48-.07-.92-.17-1.32-.31-.4-.14-.75-.33-1.05-.56-.3-.23-.53-.52-.7-.87-.17-.35-.25-.76-.25-1.24,0-.51,.09-.95,.28-1.33,.19-.38,.44-.7,.77-.95s.72-.44,1.17-.57c.45-.13,.94-.19,1.46-.19,.84,0,1.54,.15,2.11,.44,.57,.29,1.06,.7,1.49,1.22l-1.06,.96c-.23-.32-.56-.61-1-.87-.44-.26-.99-.39-1.66-.39s-1.17,.14-1.51,.43c-.34,.29-.51,.68-.51,1.17s.17,.87,.51,1.1,.83,.39,1.47,.5l.8,.12c1.15,.17,1.96,.5,2.44,.99,.48,.49,.72,1.12,.72,1.91,0,1-.34,1.79-1.02,2.36-.68,.57-1.61,.86-2.8,.86Z"/><path class="cls-2" d="M185.19,357.43c-.35,0-.6-.08-.75-.25-.15-.17-.23-.38-.23-.65v-.26c0-.27,.08-.48,.23-.65s.4-.25,.75-.25,.6,.08,.75,.25,.23,.38,.23,.65v.26c0,.27-.08,.48-.23,.65-.15,.17-.4,.25-.75,.25Zm-.8,2.42h1.6v10.32h-1.6v-10.32Z"/><path class="cls-2" d="M192.22,370.41c-.96,0-1.76-.18-2.41-.55-.65-.37-1.2-.86-1.67-1.47l1.14-.92c.4,.51,.85,.9,1.34,1.17,.49,.27,1.07,.41,1.72,.41s1.21-.15,1.59-.44c.38-.29,.57-.71,.57-1.24,0-.4-.13-.74-.39-1.03-.26-.29-.73-.48-1.41-.59l-.82-.12c-.48-.07-.92-.17-1.32-.31-.4-.14-.75-.33-1.05-.56-.3-.23-.53-.52-.7-.87-.17-.35-.25-.76-.25-1.24,0-.51,.09-.95,.28-1.33,.19-.38,.44-.7,.77-.95s.72-.44,1.17-.57c.45-.13,.94-.19,1.46-.19,.84,0,1.54,.15,2.11,.44,.57,.29,1.06,.7,1.49,1.22l-1.06,.96c-.23-.32-.56-.61-1-.87-.44-.26-.99-.39-1.66-.39s-1.17,.14-1.51,.43c-.34,.29-.51,.68-.51,1.17s.17,.87,.51,1.1,.83,.39,1.47,.5l.8,.12c1.15,.17,1.96,.5,2.44,.99,.48,.49,.72,1.12,.72,1.91,0,1-.34,1.79-1.02,2.36-.68,.57-1.61,.86-2.8,.86Z"/></g><g class="cls-5"><path class="cls-2" d="M154.92,53.44h-1.68v-13.96h5.56c1.23,0,2.18,.34,2.87,1.02,.69,.68,1.03,1.66,1.03,2.94,0,1.03-.24,1.87-.71,2.53s-1.17,1.1-2.09,1.31l3.2,6.16h-1.9l-3.02-6h-3.26v6Zm3.88-7.44c.67,0,1.18-.17,1.55-.52,.37-.35,.55-.84,.55-1.48v-1.04c0-.64-.18-1.13-.55-1.48-.37-.35-.88-.52-1.55-.52h-3.88v5.04h3.88Z"/><path class="cls-2" d="M169.34,53.68c-.71,0-1.34-.13-1.91-.38-.57-.25-1.05-.62-1.46-1.09-.41-.47-.72-1.04-.94-1.7s-.33-1.4-.33-2.23,.11-1.55,.33-2.22,.53-1.24,.94-1.71,.89-.84,1.46-1.09c.57-.25,1.2-.38,1.91-.38s1.31,.13,1.86,.38c.55,.25,1.01,.6,1.4,1.05s.68,.97,.89,1.58c.21,.61,.31,1.28,.31,2.01v.76h-7.42v.48c0,.44,.07,.85,.21,1.23s.34,.71,.6,.99c.26,.28,.58,.5,.96,.66,.38,.16,.81,.24,1.29,.24,.65,0,1.22-.15,1.71-.46,.49-.31,.86-.75,1.13-1.32l1.14,.83c-.33,.71-.85,1.29-1.56,1.72-.71,.44-1.55,.65-2.52,.65Zm0-9.46c-.44,0-.84,.08-1.2,.23-.36,.15-.67,.37-.93,.65-.26,.28-.46,.61-.61,.98s-.22,.79-.22,1.24v.14h5.7v-.22c0-.91-.25-1.65-.75-2.2-.5-.55-1.16-.83-1.99-.83Z"/><path class="cls-2" d="M176.1,48.22v-1.72h5.22v1.72h-5.22Z"/><path class="cls-2" d="M190.52,51.78h-.08c-.11,.24-.24,.47-.39,.7-.15,.23-.34,.44-.57,.61-.23,.18-.5,.32-.82,.43-.32,.11-.69,.16-1.12,.16-1.07,0-1.91-.34-2.54-1.03-.63-.69-.94-1.66-.94-2.91v-6.62h1.6v6.35c0,1.86,.79,2.79,2.36,2.79,.32,0,.63-.04,.93-.12,.3-.08,.57-.2,.8-.36,.23-.16,.42-.36,.56-.61s.21-.54,.21-.89v-7.16h1.6v10.32h-1.6v-1.66Z"/><path class="cls-2" d="M198.33,53.68c-.96,0-1.76-.18-2.41-.55-.65-.37-1.2-.86-1.67-1.47l1.14-.92c.4,.51,.85,.9,1.34,1.17,.49,.27,1.07,.41,1.72,.41s1.21-.15,1.59-.44c.38-.29,.57-.71,.57-1.24,0-.4-.13-.74-.39-1.03-.26-.29-.73-.48-1.41-.59l-.82-.12c-.48-.07-.92-.17-1.32-.31-.4-.14-.75-.33-1.05-.56-.3-.23-.53-.52-.7-.87-.17-.35-.25-.76-.25-1.24,0-.51,.09-.95,.28-1.33,.19-.38,.44-.7,.77-.95s.72-.44,1.17-.57c.45-.13,.94-.19,1.46-.19,.84,0,1.54,.15,2.11,.44,.57,.29,1.06,.7,1.49,1.22l-1.06,.96c-.23-.32-.56-.61-1-.87-.44-.26-.99-.39-1.66-.39s-1.17,.14-1.51,.43c-.34,.29-.51,.68-.51,1.17s.17,.87,.51,1.1,.83,.39,1.47,.5l.8,.12c1.15,.17,1.96,.5,2.44,.99,.48,.49,.72,1.12,.72,1.91,0,1-.34,1.79-1.02,2.36-.68,.57-1.61,.86-2.8,.86Z"/><path class="cls-2" d="M208.65,53.68c-.71,0-1.34-.13-1.91-.38-.57-.25-1.05-.62-1.46-1.09-.41-.47-.72-1.04-.94-1.7s-.33-1.4-.33-2.23,.11-1.55,.33-2.22,.53-1.24,.94-1.71,.89-.84,1.46-1.09c.57-.25,1.2-.38,1.91-.38s1.31,.13,1.86,.38c.55,.25,1.01,.6,1.4,1.05s.68,.97,.89,1.58c.21,.61,.31,1.28,.31,2.01v.76h-7.42v.48c0,.44,.07,.85,.21,1.23s.34,.71,.6,.99c.26,.28,.58,.5,.96,.66,.38,.16,.81,.24,1.29,.24,.65,0,1.22-.15,1.71-.46,.49-.31,.86-.75,1.13-1.32l1.14,.83c-.33,.71-.85,1.29-1.56,1.72-.71,.44-1.55,.65-2.52,.65Zm0-9.46c-.44,0-.84,.08-1.2,.23-.36,.15-.67,.37-.93,.65-.26,.28-.46,.61-.61,.98s-.22,.79-.22,1.24v.14h5.7v-.22c0-.91-.25-1.65-.75-2.2-.5-.55-1.16-.83-1.99-.83Z"/></g><path class="cls-6" d="M411.7,75.8l8.9,9.6,8.2,10.2,7.4,10.7,6.7,11.2,5.8,11.7,5,12,4.1,12.4,2.3,8.7c.1,.4-.1,.7-.5,.8s-.7-.1-.8-.5l-2.3-8.7h0l-4.1-12.3h0l-5-12h0l-5.8-11.6h0l-6.7-11.2h0l-7.4-10.7h0l-8.1-10.2h0l-8.9-9.6c-.3-.3-.2-.7,0-.9s1,.1,1.2,.4Zm51.4,84.4l-2.5,6.2-5.2-4.2,7.7-2Z"/><path class="cls-6" d="M225.8,24.8l12.7-3.1,12.9-2.2,13-1.3,13.1-.4,13,.6,12.9,1.5,12.8,2.4,8.7,2.2c.4,.1,.6,.5,.5,.8-.1,.4-.5,.6-.8,.5l-8.7-2.2h0l-12.8-2.4h0l-12.9-1.5h0l-13-.6h.1l-13,.4h0l-12.9,1.3h0l-12.8,2.2h0l-12.7,3.1c-.4,.1-.7-.1-.8-.5,.1-.3,.3-.7,.7-.8Zm98.7-3.9l4.2,5.2-6.2,2.6,2-7.8Z"/><path class="cls-6" d="M463,241.3l-2.8,12.8-3.7,12.5-4.5,12.3-5.3,11.9-6.2,11.4-7,11-7.8,10.5-5.8,6.9c-.2,.3-.7,.3-.9,.1-.3-.2-.3-.7-.1-.9l5.8-6.9h0l7.7-10.4h0l7-10.9h0l6.2-11.4h0l5.3-11.9h0l4.5-12.2h0l3.7-12.5h0l2.8-12.8c.1-.4,.4-.6,.8-.5,.2,.3,.4,.7,.3,1Zm-39.6,90.5l-6.5,1.5,.4-6.7,6.1,5.2Z"/><path class="cls-6" d="M326,390.4l-12.7,3.1-12.9,2.2-13,1.3-13.1,.4-13-.6-12.9-1.5-12.8-2.4-8.7-2.2c-.4-.1-.6-.5-.5-.8,.1-.4,.5-.6,.8-.5l8.7,2.2h0l12.8,2.4h0l12.9,1.5h0l13,.6h-.1l13-.4h0l12.9-1.3h0l12.8-2.2h0l12.7-3.1c.4-.1,.7,.1,.8,.5-.1,.3-.3,.7-.7,.8Zm-98.7,3.9l-4.2-5.2,6.2-2.6-2,7.8Z"/><path class="cls-6" d="M138.2,336.7l-8.8-9.8-8-10.3-7.3-10.8-6.5-11.3-5.6-11.8-4.8-12.1-3.9-12.4-2.1-8.8c-.1-.4,.1-.7,.5-.8s.7,.1,.8,.5l2.1,8.7h0l3.9,12.4h0l4.8,12.1h0l5.6,11.7h0l6.5,11.3h0l7.2,10.8h0l7.9,10.3h0l8.7,9.8c.2,.3,.2,.7-.1,.9-.2-.1-.6-.2-.9-.4Zm-49.8-85.3l2.6-6.1,5.1,4.2-7.7,1.9Z"/><path class="cls-6" d="M90.5,169.3l3-12.8,3.9-12.5,4.7-12.2,5.5-11.8,6.4-11.3,7.2-10.9,7.9-10.3,6-6.8c.2-.3,.7-.3,.9-.1s.3,.7,.1,.9l-5.9,6.8h0l-7.9,10.3h0l-7.2,10.8h0l-6.4,11.3h0l-5.5,11.8h0l-4.7,12.1h0l-3.9,12.4h0l-3,12.8c-.1,.4-.4,.6-.8,.5-.2-.3-.4-.7-.3-1Zm41.3-89.7l6.5-1.4-.5,6.6-6-5.2Z"/><path class="cls-4" d="M278.75,95.25l98.98,57.11v114.83l-98.98,57.11-98.98-57.11v-114.83l98.98-57.11Z"/><g class="cls-5"><path class="cls-3" d="M244.38,172.6v-11.17h6.66v1.18h-5.31v3.74h4.85v1.18h-4.85v5.06h-1.34Z"/><path class="cls-3" d="M259.57,172.6l-1.12-3.3h-4.51l-1.12,3.3h-1.36l3.9-11.17h1.71l3.9,11.17h-1.41Zm-3.34-9.92h-.08l-1.89,5.44h3.86l-1.89-5.44Z"/><path class="cls-3" d="M262.54,172.6v-1.12h1.57v-8.93h-1.57v-1.12h4.48v1.12h-1.57v8.93h1.57v1.12h-4.48Z"/><path class="cls-3" d="M270.51,172.6h-1.34v-11.17h4.45c.98,0,1.75,.27,2.3,.82,.55,.54,.82,1.33,.82,2.35,0,.82-.19,1.5-.57,2.02-.38,.53-.94,.88-1.67,1.05l2.56,4.93h-1.52l-2.42-4.8h-2.61v4.8Zm3.1-5.95c.53,0,.95-.14,1.24-.42s.44-.67,.44-1.18v-.83c0-.51-.15-.91-.44-1.18-.29-.28-.71-.42-1.24-.42h-3.1v4.03h3.1Z"/><path class="cls-3" d="M283.19,161.43h3.74c.69,0,1.32,.12,1.89,.35,.56,.24,1.05,.58,1.45,1.05,.4,.46,.71,1.04,.92,1.74,.21,.7,.32,1.51,.32,2.44s-.11,1.74-.32,2.44c-.21,.7-.52,1.28-.92,1.74-.4,.46-.88,.81-1.45,1.05-.57,.23-1.19,.35-1.89,.35h-3.74v-11.17Zm3.74,9.98c.46,0,.88-.08,1.26-.23,.38-.15,.71-.38,.99-.68s.49-.66,.65-1.1c.15-.43,.23-.92,.23-1.48v-1.82c0-.55-.08-1.05-.23-1.48-.15-.43-.37-.8-.65-1.1-.28-.3-.61-.53-.99-.68-.38-.15-.81-.23-1.26-.23h-2.4v8.8h2.4Z"/><path class="cls-3" d="M299.66,172.6c-.48,0-.82-.13-1.03-.38s-.34-.58-.39-.96h-.08c-.18,.51-.48,.9-.9,1.15-.42,.26-.91,.38-1.49,.38-.88,0-1.55-.22-2.04-.67-.49-.45-.73-1.06-.73-1.82s.29-1.38,.86-1.79c.57-.42,1.46-.62,2.66-.62h1.63v-.82c0-.59-.16-1.03-.48-1.34-.32-.31-.81-.46-1.47-.46-.5,0-.92,.11-1.26,.34-.34,.22-.62,.52-.84,.9l-.77-.72c.22-.45,.58-.83,1.07-1.14,.49-.31,1.11-.47,1.86-.47,1,0,1.78,.25,2.34,.73,.55,.49,.83,1.17,.83,2.04v4.53h.94v1.14h-.72Zm-3.68-.9c.32,0,.61-.04,.88-.11s.5-.18,.69-.32c.19-.14,.34-.3,.45-.48,.11-.18,.16-.38,.16-.59v-1.36h-1.7c-.74,0-1.27,.11-1.61,.32-.34,.21-.5,.52-.5,.93v.34c0,.41,.15,.72,.44,.94,.29,.22,.69,.34,1.19,.34Z"/><path class="cls-3" d="M303.71,172.6c-.45,0-.79-.12-1.02-.38s-.34-.58-.34-.98v-5.76h-1.36v-1.14h.77c.28,0,.47-.06,.57-.17,.1-.11,.15-.31,.15-.58v-1.54h1.15v2.29h1.81v1.14h-1.81v5.98h1.68v1.14h-1.6Z"/><path class="cls-3" d="M313.42,172.6c-.48,0-.82-.13-1.03-.38s-.34-.58-.39-.96h-.08c-.18,.51-.48,.9-.9,1.15-.42,.26-.91,.38-1.49,.38-.88,0-1.55-.22-2.04-.67-.49-.45-.73-1.06-.73-1.82s.29-1.38,.86-1.79c.57-.42,1.46-.62,2.66-.62h1.63v-.82c0-.59-.16-1.03-.48-1.34-.32-.31-.81-.46-1.47-.46-.5,0-.92,.11-1.26,.34-.34,.22-.62,.52-.84,.9l-.77-.72c.22-.45,.58-.83,1.07-1.14,.49-.31,1.11-.47,1.86-.47,1,0,1.78,.25,2.34,.73,.55,.49,.83,1.17,.83,2.04v4.53h.94v1.14h-.72Zm-3.68-.9c.32,0,.61-.04,.88-.11s.5-.18,.69-.32c.19-.14,.34-.3,.45-.48,.11-.18,.16-.38,.16-.59v-1.36h-1.7c-.74,0-1.27,.11-1.61,.32-.34,.21-.5,.52-.5,.93v.34c0,.41,.15,.72,.44,.94,.29,.22,.69,.34,1.19,.34Z"/><path class="cls-3" d="M189.72,200.6v-11.17h6.82v1.18h-5.47v3.74h5.15v1.18h-5.15v3.87h5.47v1.18h-6.82Z"/><path class="cls-3" d="M199.9,200.6c-.45,0-.79-.12-1.02-.38-.23-.25-.34-.57-.34-.95v-10.51h1.28v10.7h1.22v1.14h-1.14Z"/><path class="cls-3" d="M205.78,200.79c-.57,0-1.07-.1-1.53-.3-.45-.2-.84-.49-1.17-.87-.33-.38-.58-.83-.75-1.36-.18-.53-.26-1.12-.26-1.78s.09-1.24,.26-1.78c.18-.53,.43-.99,.75-1.37,.33-.38,.71-.67,1.17-.87,.45-.2,.96-.3,1.53-.3s1.05,.1,1.49,.3c.44,.2,.81,.48,1.12,.84,.31,.36,.55,.78,.71,1.27,.17,.49,.25,1.03,.25,1.61v.61h-5.94v.38c0,.35,.06,.68,.17,.98,.11,.3,.27,.57,.48,.79s.46,.4,.77,.53c.3,.13,.65,.19,1.03,.19,.52,0,.98-.12,1.37-.37,.39-.25,.69-.6,.9-1.06l.91,.66c-.27,.57-.68,1.03-1.25,1.38s-1.24,.52-2.02,.52Zm0-7.57c-.35,0-.67,.06-.96,.18s-.54,.29-.74,.52c-.21,.22-.37,.48-.49,.79-.12,.3-.18,.63-.18,.99v.11h4.56v-.17c0-.73-.2-1.32-.6-1.76-.4-.44-.93-.66-1.59-.66Z"/><path class="cls-3" d="M214.52,200.79c-.58,0-1.09-.1-1.55-.3-.46-.2-.85-.49-1.16-.86-.31-.37-.56-.83-.72-1.36-.17-.53-.25-1.13-.25-1.79s.08-1.26,.25-1.79c.17-.53,.41-.99,.72-1.36,.31-.37,.7-.66,1.16-.86,.46-.2,.98-.3,1.55-.3,.82,0,1.48,.18,1.98,.54,.5,.36,.87,.82,1.11,1.4l-1.07,.54c-.15-.43-.4-.76-.74-.99s-.77-.35-1.28-.35c-.38,0-.72,.06-1.01,.18-.29,.12-.53,.29-.72,.51s-.34,.48-.43,.78-.14,.64-.14,1v1.41c0,.73,.19,1.32,.58,1.78,.39,.46,.96,.7,1.72,.7,1.03,0,1.78-.48,2.24-1.44l.93,.62c-.27,.6-.66,1.07-1.19,1.42-.53,.35-1.19,.53-1.98,.53Z"/><path class="cls-3" d="M221.46,200.6c-.45,0-.79-.12-1.02-.38s-.34-.58-.34-.98v-5.76h-1.36v-1.14h.77c.28,0,.47-.06,.57-.17,.1-.11,.15-.31,.15-.58v-1.54h1.15v2.29h1.81v1.14h-1.81v5.98h1.68v1.14h-1.6Z"/><path class="cls-3" d="M224.95,200.6v-8.26h1.28v1.52h.08c.15-.39,.42-.75,.8-1.06s.91-.46,1.58-.46h.5v1.28h-.75c-.69,0-1.23,.13-1.62,.39-.39,.26-.58,.59-.58,.98v5.6h-1.28Z"/><path class="cls-3" d="M233.86,200.79c-.55,0-1.06-.1-1.52-.3-.46-.2-.85-.49-1.18-.87-.33-.38-.58-.83-.76-1.36-.18-.53-.27-1.12-.27-1.78s.09-1.24,.27-1.78c.18-.53,.43-.99,.76-1.37,.33-.38,.72-.67,1.18-.87,.46-.2,.97-.3,1.52-.3s1.06,.1,1.51,.3c.45,.2,.85,.49,1.18,.87,.33,.38,.59,.83,.77,1.37,.18,.53,.27,1.13,.27,1.78s-.09,1.26-.27,1.78c-.18,.53-.44,.98-.77,1.36-.33,.38-.72,.67-1.18,.87-.45,.2-.96,.3-1.51,.3Zm0-1.14c.69,0,1.26-.21,1.7-.64s.66-1.08,.66-1.95v-1.18c0-.88-.22-1.53-.66-1.95s-1-.64-1.7-.64-1.26,.21-1.7,.64c-.44,.43-.66,1.08-.66,1.95v1.18c0,.88,.22,1.53,.66,1.95,.44,.43,1,.64,1.7,.64Z"/><path class="cls-3" d="M239.54,200.6v-8.26h1.28v1.33h.06c.2-.46,.49-.83,.86-1.11s.86-.41,1.48-.41c.85,0,1.53,.28,2.02,.82,.5,.55,.74,1.33,.74,2.33v5.3h-1.28v-5.08c0-1.49-.62-2.23-1.87-2.23-.26,0-.5,.03-.74,.1-.24,.06-.46,.16-.65,.29-.19,.13-.34,.29-.46,.49-.11,.2-.17,.43-.17,.7v5.74h-1.28Z"/><path class="cls-3" d="M249.01,190.41c-.28,0-.48-.07-.6-.2-.12-.13-.18-.31-.18-.52v-.21c0-.21,.06-.39,.18-.52,.12-.13,.32-.2,.6-.2s.48,.07,.6,.2c.12,.13,.18,.31,.18,.52v.21c0,.21-.06,.39-.18,.52-.12,.13-.32,.2-.6,.2Zm-.64,1.94h1.28v8.26h-1.28v-8.26Z"/><path class="cls-3" d="M255.29,200.79c-.58,0-1.09-.1-1.55-.3-.46-.2-.85-.49-1.16-.86-.31-.37-.56-.83-.72-1.36-.17-.53-.25-1.13-.25-1.79s.08-1.26,.25-1.79c.17-.53,.41-.99,.72-1.36,.31-.37,.7-.66,1.16-.86,.46-.2,.98-.3,1.55-.3,.82,0,1.48,.18,1.98,.54,.5,.36,.87,.82,1.11,1.4l-1.07,.54c-.15-.43-.4-.76-.74-.99s-.77-.35-1.28-.35c-.38,0-.72,.06-1.01,.18-.29,.12-.53,.29-.72,.51s-.34,.48-.43,.78-.14,.64-.14,1v1.41c0,.73,.19,1.32,.58,1.78,.39,.46,.96,.7,1.72,.7,1.03,0,1.78-.48,2.24-1.44l.93,.62c-.27,.6-.66,1.07-1.19,1.42-.53,.35-1.19,.53-1.98,.53Z"/><path class="cls-3" d="M264.17,200.6v-11.17h1.34v9.98h4.75v1.18h-6.1Z"/><path class="cls-3" d="M278.26,200.6c-.48,0-.82-.13-1.03-.38s-.34-.58-.39-.96h-.08c-.18,.51-.48,.9-.9,1.15-.42,.26-.91,.38-1.49,.38-.88,0-1.55-.22-2.04-.67-.49-.45-.73-1.06-.73-1.82s.29-1.38,.86-1.79c.57-.42,1.46-.62,2.66-.62h1.63v-.82c0-.59-.16-1.03-.48-1.34s-.81-.46-1.47-.46c-.5,0-.92,.11-1.26,.34-.34,.22-.62,.52-.84,.9l-.77-.72c.22-.45,.58-.83,1.07-1.14s1.11-.47,1.86-.47c1,0,1.78,.25,2.34,.73,.55,.49,.83,1.17,.83,2.04v4.53h.94v1.14h-.72Zm-3.68-.9c.32,0,.61-.04,.88-.11s.5-.18,.69-.32,.34-.3,.45-.48c.11-.18,.16-.38,.16-.59v-1.36h-1.7c-.74,0-1.27,.11-1.61,.32-.34,.21-.5,.52-.5,.93v.34c0,.41,.15,.72,.44,.94,.29,.22,.69,.34,1.19,.34Z"/><path class="cls-3" d="M280.62,188.76h1.28v4.91h.06c.21-.52,.53-.9,.94-1.15,.41-.25,.9-.37,1.48-.37,.51,0,.98,.1,1.39,.3,.42,.2,.77,.49,1.06,.86,.29,.37,.52,.83,.67,1.36,.15,.53,.23,1.13,.23,1.79s-.08,1.26-.23,1.79c-.15,.53-.38,.99-.67,1.36-.29,.37-.65,.66-1.06,.86-.42,.2-.88,.3-1.39,.3-1.12,0-1.93-.51-2.42-1.52h-.06v1.33h-1.28v-11.84Zm3.41,10.9c.73,0,1.3-.23,1.71-.68,.42-.46,.62-1.05,.62-1.79v-1.42c0-.74-.21-1.34-.62-1.79-.42-.46-.99-.68-1.71-.68-.29,0-.56,.04-.82,.12-.26,.08-.49,.19-.68,.33-.19,.14-.34,.31-.46,.51-.11,.2-.17,.41-.17,.64v3.09c0,.27,.06,.51,.17,.72,.11,.21,.26,.39,.46,.53,.19,.15,.42,.25,.68,.33s.54,.11,.82,.11Z"/><path class="cls-3" d="M296.51,193.78l-1.34-2.48h-.05v9.3h-1.31v-11.17h1.55l4.08,6.82,1.34,2.48h.05v-9.3h1.31v11.17h-1.55l-4.08-6.82Z"/><path class="cls-3" d="M308.03,200.79c-.55,0-1.06-.1-1.52-.3-.46-.2-.85-.49-1.18-.87-.33-.38-.58-.83-.76-1.36-.18-.53-.27-1.12-.27-1.78s.09-1.24,.27-1.78c.18-.53,.43-.99,.76-1.37,.33-.38,.72-.67,1.18-.87,.46-.2,.97-.3,1.52-.3s1.06,.1,1.51,.3c.45,.2,.85,.49,1.18,.87,.33,.38,.59,.83,.77,1.37,.18,.53,.27,1.13,.27,1.78s-.09,1.26-.27,1.78c-.18,.53-.44,.98-.77,1.36-.33,.38-.72,.67-1.18,.87-.45,.2-.96,.3-1.51,.3Zm0-1.14c.69,0,1.26-.21,1.7-.64s.66-1.08,.66-1.95v-1.18c0-.88-.22-1.53-.66-1.95s-1-.64-1.7-.64-1.26,.21-1.7,.64-.66,1.08-.66,1.95v1.18c0,.88,.22,1.53,.66,1.95s1,.64,1.7,.64Z"/><path class="cls-3" d="M315.44,200.6c-.45,0-.79-.12-1.02-.38s-.34-.58-.34-.98v-5.76h-1.36v-1.14h.77c.28,0,.47-.06,.57-.17,.1-.11,.15-.31,.15-.58v-1.54h1.15v2.29h1.81v1.14h-1.81v5.98h1.68v1.14h-1.6Z"/><path class="cls-3" d="M321.98,200.79c-.57,0-1.07-.1-1.53-.3-.45-.2-.84-.49-1.17-.87-.33-.38-.58-.83-.75-1.36-.18-.53-.26-1.12-.26-1.78s.09-1.24,.26-1.78c.18-.53,.43-.99,.75-1.37,.33-.38,.71-.67,1.17-.87,.45-.2,.96-.3,1.53-.3s1.05,.1,1.49,.3c.44,.2,.81,.48,1.12,.84,.31,.36,.55,.78,.71,1.27s.25,1.03,.25,1.61v.61h-5.94v.38c0,.35,.06,.68,.17,.98,.11,.3,.27,.57,.48,.79s.46,.4,.77,.53c.3,.13,.65,.19,1.03,.19,.52,0,.98-.12,1.37-.37,.39-.25,.69-.6,.9-1.06l.91,.66c-.27,.57-.68,1.03-1.25,1.38s-1.24,.52-2.02,.52Zm0-7.57c-.35,0-.67,.06-.96,.18s-.54,.29-.74,.52c-.21,.22-.37,.48-.49,.79-.12,.3-.18,.63-.18,.99v.11h4.56v-.17c0-.73-.2-1.32-.6-1.76-.4-.44-.93-.66-1.59-.66Z"/><path class="cls-3" d="M327.49,188.76h1.28v4.91h.06c.21-.52,.53-.9,.94-1.15,.41-.25,.9-.37,1.48-.37,.51,0,.98,.1,1.39,.3,.42,.2,.77,.49,1.06,.86,.29,.37,.52,.83,.67,1.36,.15,.53,.23,1.13,.23,1.79s-.08,1.26-.23,1.79c-.16,.53-.38,.99-.67,1.36-.29,.37-.65,.66-1.06,.86-.42,.2-.88,.3-1.39,.3-1.12,0-1.93-.51-2.42-1.52h-.06v1.33h-1.28v-11.84Zm3.41,10.9c.73,0,1.3-.23,1.71-.68,.42-.46,.62-1.05,.62-1.79v-1.42c0-.74-.21-1.34-.62-1.79-.42-.46-.99-.68-1.71-.68-.29,0-.56,.04-.82,.12-.26,.08-.49,.19-.68,.33-.19,.14-.34,.31-.46,.51s-.17,.41-.17,.64v3.09c0,.27,.06,.51,.17,.72s.26,.39,.46,.53c.19,.15,.42,.25,.68,.33,.26,.08,.54,.11,.82,.11Z"/><path class="cls-3" d="M339.85,200.79c-.55,0-1.06-.1-1.52-.3-.46-.2-.85-.49-1.18-.87-.33-.38-.58-.83-.76-1.36-.18-.53-.27-1.12-.27-1.78s.09-1.24,.27-1.78c.18-.53,.43-.99,.76-1.37,.33-.38,.72-.67,1.18-.87,.46-.2,.96-.3,1.52-.3s1.06,.1,1.51,.3c.45,.2,.84,.49,1.18,.87,.33,.38,.59,.83,.77,1.37,.18,.53,.27,1.13,.27,1.78s-.09,1.26-.27,1.78c-.18,.53-.44,.98-.77,1.36-.33,.38-.72,.67-1.18,.87-.45,.2-.96,.3-1.51,.3Zm0-1.14c.69,0,1.26-.21,1.7-.64s.66-1.08,.66-1.95v-1.18c0-.88-.22-1.53-.66-1.95s-1-.64-1.7-.64-1.26,.21-1.7,.64c-.44,.43-.66,1.08-.66,1.95v1.18c0,.88,.22,1.53,.66,1.95,.44,.43,1,.64,1.7,.64Z"/><path class="cls-3" d="M348.79,200.79c-.55,0-1.06-.1-1.52-.3-.46-.2-.85-.49-1.18-.87-.33-.38-.58-.83-.76-1.36-.18-.53-.27-1.12-.27-1.78s.09-1.24,.27-1.78c.18-.53,.43-.99,.76-1.37,.33-.38,.72-.67,1.18-.87,.46-.2,.96-.3,1.52-.3s1.06,.1,1.51,.3c.45,.2,.84,.49,1.18,.87,.33,.38,.59,.83,.77,1.37,.18,.53,.27,1.13,.27,1.78s-.09,1.26-.27,1.78c-.18,.53-.44,.98-.77,1.36-.33,.38-.72,.67-1.18,.87-.45,.2-.96,.3-1.51,.3Zm0-1.14c.69,0,1.26-.21,1.7-.64s.66-1.08,.66-1.95v-1.18c0-.88-.22-1.53-.66-1.95s-1-.64-1.7-.64-1.26,.21-1.7,.64c-.44,.43-.66,1.08-.66,1.95v1.18c0,.88,.22,1.53,.66,1.95,.44,.43,1,.64,1.7,.64Z"/><path class="cls-3" d="M354.47,188.76h1.28v7.5h.06l1.26-1.41,2.34-2.51h1.55l-3.06,3.26,3.36,4.99h-1.55l-2.74-4.21-1.23,1.26v2.94h-1.28v-11.84Z"/><path class="cls-3" d="M365.31,200.79c-.77,0-1.41-.15-1.93-.44-.52-.29-.96-.69-1.34-1.18l.91-.74c.32,.41,.68,.72,1.07,.94s.85,.33,1.38,.33,.97-.12,1.27-.35c.3-.23,.46-.57,.46-.99,0-.32-.1-.59-.31-.82-.21-.23-.58-.39-1.13-.47l-.66-.1c-.38-.05-.74-.14-1.06-.25s-.6-.26-.84-.45-.43-.42-.56-.7c-.13-.28-.2-.61-.2-.99,0-.41,.07-.76,.22-1.06s.35-.56,.62-.76c.26-.2,.57-.35,.94-.46s.75-.15,1.17-.15c.67,0,1.23,.12,1.69,.35,.45,.23,.85,.56,1.19,.98l-.85,.77c-.18-.26-.45-.49-.8-.7-.35-.21-.79-.31-1.33-.31s-.94,.12-1.21,.34-.41,.54-.41,.94,.14,.7,.41,.88c.27,.18,.66,.32,1.18,.4l.64,.1c.92,.14,1.57,.4,1.95,.79,.38,.39,.58,.9,.58,1.53,0,.8-.27,1.43-.82,1.89-.54,.46-1.29,.69-2.24,.69Z"/><path class="cls-3" d="M237.55,228.6h-1.34v-11.17h4.45c.98,0,1.75,.27,2.3,.82,.55,.54,.82,1.33,.82,2.35,0,.82-.19,1.5-.57,2.02-.38,.53-.94,.88-1.67,1.05l2.56,4.93h-1.52l-2.42-4.8h-2.61v4.8Zm3.1-5.95c.53,0,.95-.14,1.24-.42s.44-.67,.44-1.18v-.83c0-.51-.15-.91-.44-1.18-.29-.28-.71-.42-1.24-.42h-3.1v4.03h3.1Z"/><path class="cls-3" d="M249.11,228.79c-.57,0-1.07-.1-1.53-.3-.45-.2-.84-.49-1.17-.87-.33-.38-.58-.83-.75-1.36-.18-.53-.26-1.12-.26-1.78s.09-1.24,.26-1.78c.18-.53,.43-.99,.75-1.37,.33-.38,.71-.67,1.17-.87,.45-.2,.96-.3,1.53-.3s1.05,.1,1.49,.3c.44,.2,.81,.48,1.12,.84,.31,.36,.55,.78,.71,1.27,.17,.49,.25,1.03,.25,1.61v.61h-5.94v.38c0,.35,.06,.68,.17,.98,.11,.3,.27,.57,.48,.79s.46,.4,.77,.53c.3,.13,.65,.19,1.03,.19,.52,0,.98-.12,1.37-.37,.39-.25,.69-.6,.9-1.06l.91,.66c-.27,.57-.68,1.03-1.25,1.38s-1.24,.52-2.02,.52Zm0-7.57c-.35,0-.67,.06-.96,.18s-.54,.29-.74,.52c-.21,.22-.37,.48-.49,.79-.12,.3-.18,.63-.18,.99v.11h4.56v-.17c0-.73-.2-1.32-.6-1.76-.4-.44-.93-.66-1.59-.66Z"/><path class="cls-3" d="M254.62,220.34h1.28v1.33h.06c.21-.52,.53-.9,.94-1.15,.41-.25,.9-.37,1.48-.37,.51,0,.98,.1,1.39,.3,.42,.2,.77,.49,1.06,.86,.29,.37,.52,.83,.67,1.36,.15,.53,.23,1.13,.23,1.79s-.08,1.26-.23,1.79c-.15,.53-.38,.99-.67,1.36-.29,.37-.65,.66-1.06,.86-.42,.2-.88,.3-1.39,.3-1.12,0-1.93-.51-2.42-1.52h-.06v4.53h-1.28v-11.46Zm3.41,7.31c.73,0,1.3-.23,1.71-.68,.42-.46,.62-1.05,.62-1.79v-1.42c0-.74-.21-1.34-.62-1.79-.42-.46-.99-.68-1.71-.68-.29,0-.56,.04-.82,.12-.26,.08-.49,.19-.68,.33-.19,.14-.34,.31-.46,.51-.11,.2-.17,.41-.17,.64v3.09c0,.27,.06,.51,.17,.72,.11,.21,.26,.39,.46,.53,.19,.15,.42,.25,.68,.33s.54,.11,.82,.11Z"/><path class="cls-3" d="M266.98,228.79c-.55,0-1.06-.1-1.52-.3-.46-.2-.85-.49-1.18-.87-.33-.38-.58-.83-.76-1.36-.18-.53-.27-1.12-.27-1.78s.09-1.24,.27-1.78c.18-.53,.43-.99,.76-1.37,.33-.38,.72-.67,1.18-.87,.46-.2,.97-.3,1.52-.3s1.06,.1,1.51,.3c.45,.2,.85,.49,1.18,.87,.33,.38,.59,.83,.77,1.37,.18,.53,.27,1.13,.27,1.78s-.09,1.26-.27,1.78c-.18,.53-.44,.98-.77,1.36-.33,.38-.72,.67-1.18,.87-.45,.2-.96,.3-1.51,.3Zm0-1.14c.69,0,1.26-.21,1.7-.64s.66-1.08,.66-1.95v-1.18c0-.88-.22-1.53-.66-1.95s-1-.64-1.7-.64-1.26,.21-1.7,.64c-.44,.43-.66,1.08-.66,1.95v1.18c0,.88,.22,1.53,.66,1.95,.44,.43,1,.64,1.7,.64Z"/><path class="cls-3" d="M275.15,228.79c-.77,0-1.41-.15-1.93-.44-.52-.29-.96-.69-1.34-1.18l.91-.74c.32,.41,.68,.72,1.07,.94,.39,.22,.85,.33,1.38,.33s.97-.12,1.27-.35,.46-.57,.46-.99c0-.32-.1-.59-.31-.82-.21-.23-.58-.39-1.13-.47l-.66-.1c-.38-.05-.74-.14-1.06-.25-.32-.11-.6-.26-.84-.45-.24-.19-.43-.42-.56-.7-.13-.28-.2-.61-.2-.99,0-.41,.07-.76,.22-1.06,.15-.3,.35-.56,.62-.76,.26-.2,.57-.35,.94-.46,.36-.1,.75-.15,1.17-.15,.67,0,1.23,.12,1.69,.35,.45,.23,.85,.56,1.19,.98l-.85,.77c-.18-.26-.45-.49-.8-.7s-.79-.31-1.33-.31-.94,.12-1.21,.34c-.27,.23-.41,.54-.41,.94s.14,.7,.41,.88c.27,.18,.66,.32,1.18,.4l.64,.1c.92,.14,1.57,.4,1.95,.79,.38,.39,.58,.9,.58,1.53,0,.8-.27,1.43-.82,1.89-.54,.46-1.29,.69-2.24,.69Z"/><path class="cls-3" d="M280.81,218.41c-.28,0-.48-.07-.6-.2-.12-.13-.18-.31-.18-.52v-.21c0-.21,.06-.39,.18-.52,.12-.13,.32-.2,.6-.2s.48,.07,.6,.2c.12,.13,.18,.31,.18,.52v.21c0,.21-.06,.39-.18,.52-.12,.13-.32,.2-.6,.2Zm-.64,1.94h1.28v8.26h-1.28v-8.26Z"/><path class="cls-3" d="M285.81,228.6c-.45,0-.79-.12-1.02-.38s-.34-.58-.34-.98v-5.76h-1.36v-1.14h.77c.28,0,.47-.06,.57-.17,.1-.11,.15-.31,.15-.58v-1.54h1.15v2.29h1.81v1.14h-1.81v5.98h1.68v1.14h-1.6Z"/><path class="cls-3" d="M292.36,228.79c-.55,0-1.06-.1-1.52-.3-.46-.2-.85-.49-1.18-.87-.33-.38-.58-.83-.76-1.36-.18-.53-.27-1.12-.27-1.78s.09-1.24,.27-1.78c.18-.53,.43-.99,.76-1.37,.33-.38,.72-.67,1.18-.87,.46-.2,.97-.3,1.52-.3s1.06,.1,1.51,.3c.45,.2,.85,.49,1.18,.87,.33,.38,.59,.83,.77,1.37,.18,.53,.27,1.13,.27,1.78s-.09,1.26-.27,1.78c-.18,.53-.44,.98-.77,1.36-.33,.38-.72,.67-1.18,.87-.45,.2-.96,.3-1.51,.3Zm0-1.14c.69,0,1.26-.21,1.7-.64,.44-.43,.66-1.08,.66-1.95v-1.18c0-.88-.22-1.53-.66-1.95-.44-.43-1-.64-1.7-.64s-1.26,.21-1.7,.64c-.44,.43-.66,1.08-.66,1.95v1.18c0,.88,.22,1.53,.66,1.95,.44,.43,1,.64,1.7,.64Z"/><path class="cls-3" d="M298.04,228.6v-8.26h1.28v1.52h.08c.15-.39,.42-.75,.8-1.06s.91-.46,1.58-.46h.5v1.28h-.75c-.69,0-1.24,.13-1.62,.39-.39,.26-.58,.59-.58,.98v5.6h-1.28Z"/><path class="cls-3" d="M304.48,218.41c-.28,0-.48-.07-.6-.2-.12-.13-.18-.31-.18-.52v-.21c0-.21,.06-.39,.18-.52,.12-.13,.32-.2,.6-.2s.48,.07,.6,.2c.12,.13,.18,.31,.18,.52v.21c0,.21-.06,.39-.18,.52-.12,.13-.32,.2-.6,.2Zm-.64,1.94h1.28v8.26h-1.28v-8.26Z"/><path class="cls-3" d="M310.76,228.79c-.57,0-1.07-.1-1.53-.3-.45-.2-.84-.49-1.17-.87-.33-.38-.58-.83-.75-1.36-.18-.53-.26-1.12-.26-1.78s.09-1.24,.26-1.78c.18-.53,.43-.99,.75-1.37,.33-.38,.71-.67,1.17-.87,.45-.2,.96-.3,1.53-.3s1.05,.1,1.49,.3c.44,.2,.81,.48,1.12,.84,.31,.36,.55,.78,.71,1.27s.25,1.03,.25,1.61v.61h-5.94v.38c0,.35,.06,.68,.17,.98,.11,.3,.27,.57,.48,.79s.46,.4,.77,.53c.3,.13,.65,.19,1.03,.19,.52,0,.98-.12,1.37-.37,.39-.25,.69-.6,.9-1.06l.91,.66c-.27,.57-.68,1.03-1.25,1.38s-1.24,.52-2.02,.52Zm0-7.57c-.35,0-.67,.06-.96,.18s-.54,.29-.74,.52c-.21,.22-.37,.48-.49,.79-.12,.3-.18,.63-.18,.99v.11h4.56v-.17c0-.73-.2-1.32-.6-1.76-.4-.44-.93-.66-1.59-.66Z"/><path class="cls-3" d="M318.82,228.79c-.77,0-1.41-.15-1.93-.44s-.96-.69-1.34-1.18l.91-.74c.32,.41,.68,.72,1.07,.94,.39,.22,.85,.33,1.38,.33s.97-.12,1.27-.35c.3-.23,.46-.57,.46-.99,0-.32-.1-.59-.31-.82-.21-.23-.58-.39-1.13-.47l-.66-.1c-.38-.05-.74-.14-1.06-.25-.32-.11-.6-.26-.84-.45-.24-.19-.43-.42-.56-.7-.13-.28-.2-.61-.2-.99,0-.41,.07-.76,.22-1.06,.15-.3,.35-.56,.62-.76,.26-.2,.57-.35,.94-.46,.36-.1,.75-.15,1.17-.15,.67,0,1.23,.12,1.69,.35s.85,.56,1.19,.98l-.85,.77c-.18-.26-.45-.49-.8-.7-.35-.21-.79-.31-1.33-.31s-.94,.12-1.21,.34c-.27,.23-.41,.54-.41,.94s.14,.7,.41,.88c.27,.18,.66,.32,1.18,.4l.64,.1c.92,.14,1.57,.4,1.95,.79,.38,.39,.58,.9,.58,1.53,0,.8-.27,1.43-.82,1.89-.54,.46-1.29,.69-2.24,.69Z"/><path class="cls-3" d="M214.19,256.79c-1.42,0-2.52-.48-3.31-1.45s-1.18-2.39-1.18-4.26,.39-3.32,1.18-4.33c.79-1.01,1.89-1.51,3.31-1.51,.94,0,1.73,.21,2.36,.63,.63,.42,1.13,1.02,1.48,1.8l-1.09,.66c-.22-.58-.57-1.04-1.02-1.38s-1.03-.52-1.73-.52c-.48,0-.91,.09-1.29,.27-.38,.18-.7,.44-.96,.78s-.46,.74-.6,1.2c-.14,.47-.21,.99-.21,1.57v1.67c0,1.16,.27,2.06,.8,2.71,.53,.65,1.29,.98,2.26,.98,.71,0,1.31-.18,1.79-.55s.83-.86,1.06-1.46l1.07,.67c-.35,.79-.86,1.41-1.52,1.86-.66,.45-1.46,.67-2.4,.67Z"/><path class="cls-3" d="M223.24,256.79c-.55,0-1.06-.1-1.52-.3-.46-.2-.85-.49-1.18-.87-.33-.38-.58-.83-.76-1.36-.18-.53-.27-1.12-.27-1.78s.09-1.24,.27-1.78c.18-.53,.43-.99,.76-1.37,.33-.38,.72-.67,1.18-.87,.46-.2,.97-.3,1.52-.3s1.06,.1,1.51,.3c.45,.2,.85,.49,1.18,.87,.33,.38,.59,.83,.77,1.37,.18,.53,.27,1.13,.27,1.78s-.09,1.26-.27,1.78c-.18,.53-.44,.98-.77,1.36-.33,.38-.72,.67-1.18,.87-.45,.2-.96,.3-1.51,.3Zm0-1.14c.69,0,1.26-.21,1.7-.64s.66-1.08,.66-1.95v-1.18c0-.88-.22-1.53-.66-1.95s-1-.64-1.7-.64-1.26,.21-1.7,.64c-.44,.43-.66,1.08-.66,1.95v1.18c0,.88,.22,1.53,.66,1.95,.44,.43,1,.64,1.7,.64Z"/><path class="cls-3" d="M228.93,256.6v-8.26h1.28v1.33h.06c.1-.21,.21-.41,.33-.59,.12-.18,.27-.35,.45-.48,.18-.14,.38-.25,.62-.32,.23-.08,.51-.12,.83-.12,.54,0,1.04,.13,1.5,.39,.46,.26,.8,.68,1.02,1.28h.03c.15-.44,.43-.83,.84-1.17,.41-.33,.97-.5,1.67-.5,.84,0,1.5,.28,1.98,.82,.47,.55,.71,1.33,.71,2.33v5.3h-1.28v-5.08c0-.74-.14-1.29-.43-1.67s-.75-.56-1.38-.56c-.26,0-.5,.03-.73,.1-.23,.06-.44,.16-.62,.29-.18,.13-.33,.29-.43,.49-.11,.2-.16,.43-.16,.7v5.74h-1.28v-5.08c0-.74-.14-1.29-.43-1.67s-.74-.56-1.34-.56c-.26,0-.5,.03-.74,.1-.23,.06-.44,.16-.62,.29-.18,.13-.33,.29-.44,.49-.11,.2-.17,.43-.17,.7v5.74h-1.28Z"/><path class="cls-3" d="M242.65,256.6v-8.26h1.28v1.33h.06c.1-.21,.21-.41,.33-.59,.12-.18,.27-.35,.45-.48,.18-.14,.38-.25,.62-.32,.23-.08,.51-.12,.83-.12,.54,0,1.04,.13,1.5,.39,.46,.26,.8,.68,1.02,1.28h.03c.15-.44,.43-.83,.84-1.17,.41-.33,.97-.5,1.67-.5,.84,0,1.5,.28,1.98,.82,.47,.55,.71,1.33,.71,2.33v5.3h-1.28v-5.08c0-.74-.14-1.29-.43-1.67s-.75-.56-1.38-.56c-.26,0-.5,.03-.73,.1-.23,.06-.44,.16-.62,.29-.18,.13-.33,.29-.43,.49-.11,.2-.16,.43-.16,.7v5.74h-1.28v-5.08c0-.74-.14-1.29-.43-1.67s-.74-.56-1.34-.56c-.26,0-.5,.03-.74,.1-.23,.06-.44,.16-.62,.29-.18,.13-.33,.29-.44,.49-.11,.2-.17,.43-.17,.7v5.74h-1.28Z"/><path class="cls-3" d="M259.61,256.79c-.55,0-1.06-.1-1.52-.3-.46-.2-.85-.49-1.18-.87-.33-.38-.58-.83-.76-1.36-.18-.53-.27-1.12-.27-1.78s.09-1.24,.27-1.78c.18-.53,.43-.99,.76-1.37,.33-.38,.72-.67,1.18-.87,.46-.2,.97-.3,1.52-.3s1.06,.1,1.51,.3c.45,.2,.85,.49,1.18,.87,.33,.38,.59,.83,.77,1.37,.18,.53,.27,1.13,.27,1.78s-.09,1.26-.27,1.78c-.18,.53-.44,.98-.77,1.36-.33,.38-.72,.67-1.18,.87-.45,.2-.96,.3-1.51,.3Zm0-1.14c.69,0,1.26-.21,1.7-.64s.66-1.08,.66-1.95v-1.18c0-.88-.22-1.53-.66-1.95s-1-.64-1.7-.64-1.26,.21-1.7,.64c-.44,.43-.66,1.08-.66,1.95v1.18c0,.88,.22,1.53,.66,1.95,.44,.43,1,.64,1.7,.64Z"/><path class="cls-3" d="M265.29,256.6v-8.26h1.28v1.33h.06c.2-.46,.49-.83,.86-1.11s.86-.41,1.48-.41c.85,0,1.53,.28,2.02,.82,.5,.55,.74,1.33,.74,2.33v5.3h-1.28v-5.08c0-1.49-.62-2.23-1.87-2.23-.26,0-.5,.03-.74,.1-.24,.06-.46,.16-.65,.29-.19,.13-.34,.29-.46,.49-.11,.2-.17,.43-.17,.7v5.74h-1.28Z"/><path class="cls-3" d="M281.42,256.79c-.91,0-1.68-.17-2.32-.52-.64-.35-1.18-.82-1.63-1.43l.99-.83c.39,.52,.83,.92,1.31,1.19,.48,.27,1.05,.41,1.7,.41,.8,0,1.41-.19,1.83-.58,.42-.38,.63-.9,.63-1.54,0-.53-.16-.94-.48-1.23-.32-.29-.85-.52-1.58-.69l-.91-.21c-1.02-.23-1.81-.59-2.34-1.06s-.81-1.14-.81-2.01c0-.49,.09-.93,.27-1.31,.18-.38,.43-.7,.76-.96,.33-.26,.71-.45,1.17-.58,.45-.13,.95-.2,1.5-.2,.84,0,1.56,.16,2.17,.46,.6,.31,1.11,.76,1.53,1.36l-1.01,.74c-.31-.43-.68-.76-1.12-1.01-.44-.25-.98-.37-1.63-.37-.71,0-1.28,.15-1.69,.46-.41,.3-.62,.76-.62,1.37,0,.53,.17,.94,.52,1.21,.35,.27,.87,.49,1.58,.65l.91,.21c1.1,.25,1.89,.62,2.38,1.12,.49,.5,.74,1.17,.74,2,0,.51-.09,.98-.26,1.39-.18,.42-.43,.77-.76,1.06s-.73,.51-1.21,.67-1.01,.24-1.61,.24Z"/><path class="cls-3" d="M288.91,256.6c-.45,0-.79-.12-1.02-.38s-.34-.58-.34-.98v-5.76h-1.36v-1.14h.77c.28,0,.47-.06,.57-.17,.1-.11,.15-.31,.15-.58v-1.54h1.15v2.29h1.81v1.14h-1.81v5.98h1.68v1.14h-1.6Z"/><path class="cls-3" d="M298.62,256.6c-.48,0-.82-.13-1.03-.38s-.34-.58-.39-.96h-.08c-.18,.51-.48,.9-.9,1.15-.42,.26-.91,.38-1.49,.38-.88,0-1.55-.22-2.04-.67-.49-.45-.73-1.06-.73-1.82s.29-1.38,.86-1.79c.57-.42,1.46-.62,2.66-.62h1.63v-.82c0-.59-.16-1.03-.48-1.34-.32-.31-.81-.46-1.47-.46-.5,0-.92,.11-1.26,.34-.34,.22-.62,.52-.84,.9l-.77-.72c.22-.45,.58-.83,1.07-1.14s1.11-.47,1.86-.47c1,0,1.78,.25,2.34,.73,.55,.49,.83,1.17,.83,2.04v4.53h.94v1.14h-.72Zm-3.68-.9c.32,0,.61-.04,.88-.11s.5-.18,.69-.32c.19-.14,.34-.3,.45-.48,.11-.18,.16-.38,.16-.59v-1.36h-1.7c-.74,0-1.27,.11-1.61,.32-.34,.21-.5,.52-.5,.93v.34c0,.41,.15,.72,.44,.94,.29,.22,.69,.34,1.19,.34Z"/><path class="cls-3" d="M300.98,256.6v-8.26h1.28v1.33h.06c.2-.46,.49-.83,.86-1.11s.86-.41,1.48-.41c.85,0,1.53,.28,2.02,.82,.5,.55,.74,1.33,.74,2.33v5.3h-1.28v-5.08c0-1.49-.62-2.23-1.87-2.23-.26,0-.5,.03-.74,.1-.24,.06-.46,.16-.65,.29-.19,.13-.34,.29-.46,.49-.11,.2-.17,.43-.17,.7v5.74h-1.28Z"/><path class="cls-3" d="M315.22,255.27h-.06c-.5,1.01-1.31,1.52-2.42,1.52-.51,0-.98-.1-1.39-.3-.42-.2-.77-.49-1.06-.86-.29-.37-.52-.83-.67-1.36-.16-.53-.23-1.13-.23-1.79s.08-1.26,.23-1.79c.15-.53,.38-.99,.67-1.36,.29-.37,.65-.66,1.06-.86,.42-.2,.88-.3,1.39-.3,.58,0,1.07,.12,1.48,.37,.41,.25,.72,.63,.94,1.15h.06v-4.91h1.28v11.84h-1.28v-1.33Zm-2.13,.38c.29,0,.56-.04,.82-.11,.26-.08,.49-.18,.68-.33,.19-.14,.34-.32,.46-.53s.17-.45,.17-.72v-3.09c0-.23-.06-.44-.17-.64s-.26-.37-.46-.51c-.19-.14-.42-.25-.68-.33-.26-.08-.54-.12-.82-.12-.73,0-1.3,.23-1.71,.68-.42,.46-.62,1.05-.62,1.79v1.42c0,.74,.21,1.34,.62,1.79,.42,.46,.99,.68,1.71,.68Z"/><path class="cls-3" d="M325.05,256.6c-.48,0-.82-.13-1.03-.38s-.34-.58-.39-.96h-.08c-.18,.51-.48,.9-.9,1.15-.42,.26-.91,.38-1.49,.38-.88,0-1.55-.22-2.04-.67-.49-.45-.73-1.06-.73-1.82s.29-1.38,.86-1.79c.57-.42,1.46-.62,2.66-.62h1.63v-.82c0-.59-.16-1.03-.48-1.34-.32-.31-.81-.46-1.47-.46-.5,0-.92,.11-1.26,.34-.34,.22-.62,.52-.84,.9l-.77-.72c.22-.45,.58-.83,1.07-1.14,.49-.31,1.11-.47,1.86-.47,1,0,1.78,.25,2.34,.73,.55,.49,.83,1.17,.83,2.04v4.53h.94v1.14h-.72Zm-3.68-.9c.32,0,.61-.04,.88-.11s.5-.18,.69-.32c.19-.14,.34-.3,.45-.48,.11-.18,.16-.38,.16-.59v-1.36h-1.7c-.74,0-1.27,.11-1.61,.32-.34,.21-.5,.52-.5,.93v.34c0,.41,.15,.72,.44,.94,.29,.22,.69,.34,1.19,.34Z"/><path class="cls-3" d="M327.41,256.6v-8.26h1.28v1.52h.08c.15-.39,.42-.75,.8-1.06s.91-.46,1.58-.46h.5v1.28h-.75c-.69,0-1.24,.13-1.62,.39-.39,.26-.58,.59-.58,.98v5.6h-1.28Z"/><path class="cls-3" d="M338.49,255.27h-.06c-.5,1.01-1.31,1.52-2.42,1.52-.51,0-.98-.1-1.39-.3-.42-.2-.77-.49-1.06-.86-.29-.37-.52-.83-.67-1.36s-.23-1.13-.23-1.79,.08-1.26,.23-1.79,.38-.99,.67-1.36c.29-.37,.65-.66,1.06-.86,.42-.2,.88-.3,1.39-.3,.58,0,1.07,.12,1.48,.37,.41,.25,.72,.63,.94,1.15h.06v-4.91h1.28v11.84h-1.28v-1.33Zm-2.13,.38c.29,0,.56-.04,.82-.11,.26-.08,.49-.18,.68-.33,.19-.14,.34-.32,.46-.53,.11-.21,.17-.45,.17-.72v-3.09c0-.23-.06-.44-.17-.64-.11-.2-.26-.37-.46-.51-.19-.14-.42-.25-.68-.33-.26-.08-.54-.12-.82-.12-.73,0-1.3,.23-1.71,.68-.42,.46-.62,1.05-.62,1.79v1.42c0,.74,.21,1.34,.62,1.79,.42,.46,.99,.68,1.71,.68Z"/><path class="cls-3" d="M344.77,256.79c-.77,0-1.41-.15-1.93-.44s-.96-.69-1.34-1.18l.91-.74c.32,.41,.68,.72,1.07,.94,.39,.22,.85,.33,1.38,.33s.97-.12,1.27-.35c.3-.23,.46-.57,.46-.99,0-.32-.1-.59-.31-.82-.21-.23-.58-.39-1.13-.47l-.66-.1c-.38-.05-.74-.14-1.06-.25-.32-.11-.6-.26-.84-.45-.24-.19-.43-.42-.56-.7-.13-.28-.2-.61-.2-.99,0-.41,.07-.76,.22-1.06,.15-.3,.35-.56,.62-.76,.26-.2,.57-.35,.94-.46,.36-.1,.75-.15,1.17-.15,.67,0,1.23,.12,1.69,.35s.85,.56,1.19,.98l-.85,.77c-.18-.26-.45-.49-.8-.7-.35-.21-.79-.31-1.33-.31s-.94,.12-1.21,.34c-.27,.23-.41,.54-.41,.94s.14,.7,.41,.88c.27,.18,.66,.32,1.18,.4l.64,.1c.92,.14,1.57,.4,1.95,.79,.38,.39,.58,.9,.58,1.53,0,.8-.27,1.43-.82,1.89-.54,.46-1.29,.69-2.24,.69Z"/></g><path class="cls-1" d="M54.2,293.5v19.1h7.8v-19.1h3.6l-7.6-6.9-7.6,6.9h3.8Zm-3,7.1h-17.8c-.2,0-.4-.1-.6-.3-2.1-2.2-3.2-7.5-3.2-10.5,0-6.4,5-11.6,11.2-11.6,.3,0,.7,0,1.1,.1,1.6-6.8,7.5-11.7,14.3-11.7,5.3,0,10.2,2.9,12.8,7.8,1-.2,2-.3,2.9-.3,8.1,0,14.6,6.8,14.6,15.2,0,3-.9,8.5-2.6,11-.1,.2-.4,.4-.7,.4h-17.9"/><path class="cls-1" d="M62.1,127.8v-19.1h-7.8v19.1h-3.6l7.6,6.9,7.6-6.9h-3.8Zm-10.9-5.2h-17.8c-.2,0-.4-.1-.6-.3-2.1-2.2-3.2-7.5-3.2-10.5,0-6.4,5-11.6,11.2-11.6,.3,0,.7,0,1.1,.1,1.6-6.8,7.5-11.7,14.3-11.7,5.3,0,10.2,2.9,12.8,7.8,1-.2,2-.3,2.9-.3,8.1,0,14.6,6.8,14.6,15.2,0,3-.9,8.5-2.6,11-.1,.2-.4,.4-.7,.4h-17.9"/><path class="cls-1" d="M274.2,32.6c-16,0-21.5,10.7-21.5,19.2s5.2,17.2,8.6,17.2v16.6h21.3v-8.3h5.3c2.5,0,6.4-2.7,6.4-5.8v-6h4.7c1.3,0,2.1-1.1,1.3-2.5s-5.8-9.5-5.8-9.5v-4.1c0-1.9-4.3-16.8-20.3-16.8"/><path class="cls-1" d="M286.6,47.2c-.9,3-4.5,6.7-9.4,9.6-3.2,1.9-6.5,3.2-9.3,3.6-3,.5-5.1-.1-6-1.6-.7-1.2-.4-2.8,.6-4.6,1.5-2.6,4.5-5.5,8.6-7.9,3.2-1.9,6.5-3.2,9.3-3.6,3-.5,5.1,.1,6,1.6"/><path class="cls-1" d="M271.9,64.4c-1.9-2.2-3.2-7.2-3.3-12.7,0-3.6,.5-7.1,1.4-9.7,1-2.8,2.4-4.3,4-4.3,1.3,0,2.4,1,3.3,2.7,1.4,2.5,2.2,6.6,2.3,11.2,0,3.7-.5,7.1-1.4,9.7-1,2.8-2.4,4.3-4,4.3"/><path class="cls-1" d="M264.3,43.8c2.9-.7,7.9,.6,12.7,3.3,3.2,1.8,5.9,3.9,7.6,6.1,1.9,2.3,2.4,4.3,1.6,5.8-.7,1.2-2.2,1.7-4.1,1.7-2.9,0-6.9-1.2-10.9-3.4-3.2-1.8-5.9-3.9-7.6-6.1-1.9-2.3-2.4-4.3-1.6-5.8"/><path class="cls-1" d="M274.1,49.6c-1.4,0-2.5,1.1-2.5,2.5s1.1,2.5,2.5,2.5,2.5-1.1,2.5-2.5-1.1-2.5-2.5-2.5Z"/><path class="cls-1" d="M268.4,368.6h10.4c.1,0,.3-.1,.4-.2,1-1.4,1.5-4.5,1.5-6.2,0-4.7-3.8-8.5-8.5-8.5-.6,0-1.1,.1-1.7,.2-1.5-2.7-4.3-4.3-7.4-4.3-4,0-7.4,2.7-8.3,6.6h-.6c-3.6,0-6.5,2.9-6.5,6.5,0,1.7,.6,4.6,1.8,5.9,.1,.1,.2,.1,.3,.1h18.6v-.1Z"/><path class="cls-1" d="M289.6,352.6h11m-16-6.3h21m-7.5,6.3h-6v-3.1h6v3.1Zm7.5-3.1h-21v-15.9h21v15.9Z"/><path class="cls-1" d="M281,339.6c-5.7,0-10.4,4.5-10.4,10.2m13.7,15.8c5.7,0,10.4-4.5,10.4-10.2"/><path class="cls-1" d="M278.6,336.6v5l5-2.5-5-2.5Z"/><path class="cls-1" d="M286.6,367.6v-5l-5,2.5,5,2.5Z"/><path class="cls-1" d="M486.1,307l10.3-18.4,7.7,5.9,9.1-15.2,3.5,4.2,10.9-9.8m-47-7.1v47h47"/><path class="cls-1" d="M480.8,114.6c0,.7-.6,1.3-1.3,1.3s-1.3-.6-1.3-1.3,.6-1.3,1.3-1.3,1.3,.6,1.3,1.3Zm52.9,17.6h-46.7c-2.5,0-4.5-2-4.5-4.5v-26.1c0-2.5,2-4.5,4.5-4.5h46.8c2.5,0,4.5,2,4.5,4.5v26.1c-.1,2.4-2.1,4.5-4.6,4.5Zm3.4,3.4h-56c-2.5,0-4.5-2-4.5-4.5v-33c0-2.5,2-4.5,4.5-4.5h56.1c2.5,0,4.5,2,4.5,4.5v33c-.1,2.5-2.1,4.5-4.6,4.5h0Z"/><path class="cls-1" d="M541.6,114.1c0,.8-.7,1.5-1.5,1.5s-1.5-.7-1.5-1.5,.7-1.5,1.5-1.5,1.5,.7,1.5,1.5Z"/></svg>