<?xml version="1.0" encoding="UTF-8"?><svg id="Ebene_1" xmlns="http://www.w3.org/2000/svg" viewBox="0 0 584 419"><defs><style>.cls-1{letter-spacing:-.01em;}.cls-2{fill:#03637d;fill-rule:evenodd;}.cls-3{letter-spacing:0em;}.cls-4{letter-spacing:0em;}.cls-5{letter-spacing:0em;}.cls-6{letter-spacing:0em;}.cls-7{letter-spacing:0em;}.cls-8{fill:#fff;font-size:16px;}.cls-8,.cls-9{font-family:IBMPlexSans, 'IBM Plex Sans';isolation:isolate;}.cls-10{letter-spacing:0em;}.cls-11{fill:none;stroke:#00617c;stroke-miterlimit:8;stroke-width:1.33px;}.cls-12{letter-spacing:0em;}.cls-13{letter-spacing:0em;}.cls-14{letter-spacing:0em;}.cls-15{letter-spacing:0em;}.cls-16{letter-spacing:0em;}.cls-9{fill:#262626;font-size:20px;}.cls-17{letter-spacing:-.04em;}.cls-18{fill:#338196;}.cls-19{letter-spacing:-.01em;}.cls-20{letter-spacing:0em;}.cls-21{letter-spacing:-.02em;}</style></defs><text class="cls-9" transform="translate(19.04 203.13)"><tspan x="0" y="0">Disclosu</tspan><tspan class="cls-13" x="75.96" y="0">r</tspan><tspan x="83.2" y="0">e/ </tspan></text><text class="cls-9" transform="translate(19.37 224.13)"><tspan x="0" y="0">Publication</tspan></text><text class="cls-9" transform="translate(344.3 34.13)"><tspan x="0" y="0">Experiment </tspan></text><text class="cls-9" transform="translate(365.13 58.13)"><tspan x="0" y="0">Design</tspan></text><text class="cls-9" transform="translate(441.94 198.13)"><tspan x="0" y="0">Experiment/ </tspan></text><text class="cls-9" transform="translate(429.36 222.13)"><tspan x="0" y="0">Data Co</tspan><tspan class="cls-6" x="70.14" y="0">l</tspan><tspan x="75.48" y="0">lection</tspan></text><text class="cls-9" transform="translate(371.94 358.13)"><tspan x="0" y="0">Data </tspan></text><text class="cls-9" transform="translate(344.11 382.13)"><tspan class="cls-7" x="0" y="0">P</tspan><tspan class="cls-6" x="11.92" y="0">r</tspan><tspan class="cls-20" x="19.16" y="0">o</tspan><tspan class="cls-12" x="30.36" y="0">c</tspan><tspan x="40.3" y="0">e</tspan><tspan class="cls-3" x="51.28" y="0">s</tspan><tspan x="60.9" y="0">sing</tspan></text><text class="cls-9" transform="translate(136.09 375.13)"><tspan x="0" y="0">Ana</tspan><tspan class="cls-7" x="34.86" y="0">l</tspan><tspan class="cls-14" x="40.1" y="0">y</tspan><tspan class="cls-4" x="50" y="0">sis</tspan></text><text class="cls-9" transform="translate(141.71 55.13)"><tspan class="cls-1" x="0" y="0">R</tspan><tspan x="12.5" y="0">e</tspan></text><text class="cls-9" transform="translate(167.28 55.13)"><tspan x="0" y="0">-use</tspan></text><path class="cls-18" d="M411.7,75.8l8.9,9.6,8.2,10.2,7.4,10.7,6.7,11.2,5.8,11.7,5,12,4.1,12.4,2.3,8.7c.1,.4-.1,.7-.5,.8s-.7-.1-.8-.5l-2.3-8.7h0l-4.1-12.3h0l-5-12h0l-5.8-11.6h0l-6.7-11.2h0l-7.4-10.7h0l-8.1-10.2h0l-8.9-9.6c-.3-.3-.2-.7,0-.9s1,.1,1.2,.4Zm51.4,84.4l-2.5,6.2-5.2-4.2,7.7-2Z"/><path class="cls-18" d="M225.8,24.8l12.7-3.1,12.9-2.2,13-1.3,13.1-.4,13,.6,12.9,1.5,12.8,2.4,8.7,2.2c.4,.1,.6,.5,.5,.8-.1,.4-.5,.6-.8,.5l-8.7-2.2h0l-12.8-2.4h0l-12.9-1.5h0l-13-.6h.1l-13,.4h0l-12.9,1.3h0l-12.8,2.2h0l-12.7,3.1c-.4,.1-.7-.1-.8-.5,.1-.3,.3-.7,.7-.8Zm98.7-3.9l4.2,5.2-6.2,2.6,2-7.8Z"/><path class="cls-18" d="M463,241.3l-2.8,12.8-3.7,12.5-4.5,12.3-5.3,11.9-6.2,11.4-7,11-7.8,10.5-5.8,6.9c-.2,.3-.7,.3-.9,.1-.3-.2-.3-.7-.1-.9l5.8-6.9h0l7.7-10.4h0l7-10.9h0l6.2-11.4h0l5.3-11.9h0l4.5-12.2h0l3.7-12.5h0l2.8-12.8c.1-.4,.4-.6,.8-.5,.2,.3,.4,.7,.3,1Zm-39.6,90.5l-6.5,1.5,.4-6.7,6.1,5.2Z"/><path class="cls-18" d="M326,390.4l-12.7,3.1-12.9,2.2-13,1.3-13.1,.4-13-.6-12.9-1.5-12.8-2.4-8.7-2.2c-.4-.1-.6-.5-.5-.8,.1-.4,.5-.6,.8-.5l8.7,2.2h0l12.8,2.4h0l12.9,1.5h0l13,.6h-.1l13-.4h0l12.9-1.3h0l12.8-2.2h0l12.7-3.1c.4-.1,.7,.1,.8,.5-.1,.3-.3,.7-.7,.8Zm-98.7,3.9l-4.2-5.2,6.2-2.6-2,7.8Z"/><path class="cls-18" d="M138.2,336.7l-8.8-9.8-8-10.3-7.3-10.8-6.5-11.3-5.6-11.8-4.8-12.1-3.9-12.4-2.1-8.8c-.1-.4,.1-.7,.5-.8s.7,.1,.8,.5l2.1,8.7h0l3.9,12.4h0l4.8,12.1h0l5.6,11.7h0l6.5,11.3h0l7.2,10.8h0l7.9,10.3h0l8.7,9.8c.2,.3,.2,.7-.1,.9-.2-.1-.6-.2-.9-.4Zm-49.8-85.3l2.6-6.1,5.1,4.2-7.7,1.9Z"/><path class="cls-18" d="M90.5,169.3l3-12.8,3.9-12.5,4.7-12.2,5.5-11.8,6.4-11.3,7.2-10.9,7.9-10.3,6-6.8c.2-.3,.7-.3,.9-.1s.3,.7,.1,.9l-5.9,6.8h0l-7.9,10.3h0l-7.2,10.8h0l-6.4,11.3h0l-5.5,11.8h0l-4.7,12.1h0l-3.9,12.4h0l-3,12.8c-.1,.4-.4,.6-.8,.5-.2-.3-.4-.7-.3-1Zm41.3-89.7l6.5-1.4-.5,6.6-6-5.2Z"/><path class="cls-2" d="M276.6,97.1l95.5,55.1v110.8l-95.5,55.1-95.5-55.1v-110.8l95.5-55.1Z"/><text class="cls-8" transform="translate(237.67 160.13)"><tspan class="cls-17" x="0" y="0">F</tspan><tspan x="8.24" y="0">AIR Data</tspan></text><text class="cls-8" transform="translate(186.17 193.79)"><tspan x="0" y="0">Elect</tspan><tspan class="cls-6" x="36.13" y="0">r</tspan><tspan x="41.92" y="0">onic </tspan><tspan class="cls-16" x="75.79" y="0">L</tspan><tspan x="83.79" y="0">ab No</tspan><tspan class="cls-5" x="125.66" y="0">t</tspan><tspan class="cls-10" x="131.21" y="0">eboo</tspan><tspan class="cls-19" x="167.2" y="0">k</tspan><tspan x="175.47" y="0">s</tspan></text><text class="cls-8" transform="translate(232.25 227.46)"><tspan class="cls-21" x="0" y="0">R</tspan><tspan x="10" y="0">eposi</tspan><tspan class="cls-15" x="48.82" y="0">t</tspan><tspan x="54.37" y="0">ories</tspan></text><text class="cls-8" transform="translate(206.17 261.13)"><tspan x="0" y="0">Common Standa</tspan><tspan class="cls-12" x="119.02" y="0">r</tspan><tspan x="124.8" y="0">ds</tspan></text><path class="cls-11" d="M54.2,293.5v19.1h7.8v-19.1h3.6l-7.6-6.9-7.6,6.9h3.8Zm-3,7.1h-17.8c-.2,0-.4-.1-.6-.3-2.1-2.2-3.2-7.5-3.2-10.5,0-6.4,5-11.6,11.2-11.6,.3,0,.7,0,1.1,.1,1.6-6.8,7.5-11.7,14.3-11.7,5.3,0,10.2,2.9,12.8,7.8,1-.2,2-.3,2.9-.3,8.1,0,14.6,6.8,14.6,15.2,0,3-.9,8.5-2.6,11-.1,.2-.4,.4-.7,.4h-17.9"/><path class="cls-11" d="M62.1,127.8v-19.1h-7.8v19.1h-3.6l7.6,6.9,7.6-6.9h-3.8Zm-10.9-5.2h-17.8c-.2,0-.4-.1-.6-.3-2.1-2.2-3.2-7.5-3.2-10.5,0-6.4,5-11.6,11.2-11.6,.3,0,.7,0,1.1,.1,1.6-6.8,7.5-11.7,14.3-11.7,5.3,0,10.2,2.9,12.8,7.8,1-.2,2-.3,2.9-.3,8.1,0,14.6,6.8,14.6,15.2,0,3-.9,8.5-2.6,11-.1,.2-.4,.4-.7,.4h-17.9"/><path class="cls-11" d="M274.2,32.6c-16,0-21.5,10.7-21.5,19.2s5.2,17.2,8.6,17.2v16.6h21.3v-8.3h5.3c2.5,0,6.4-2.7,6.4-5.8v-6h4.7c1.3,0,2.1-1.1,1.3-2.5s-5.8-9.5-5.8-9.5v-4.1c0-1.9-4.3-16.8-20.3-16.8"/><path class="cls-11" d="M286.6,47.2c-.9,3-4.5,6.7-9.4,9.6-3.2,1.9-6.5,3.2-9.3,3.6-3,.5-5.1-.1-6-1.6-.7-1.2-.4-2.8,.6-4.6,1.5-2.6,4.5-5.5,8.6-7.9,3.2-1.9,6.5-3.2,9.3-3.6,3-.5,5.1,.1,6,1.6"/><path class="cls-11" d="M271.9,64.4c-1.9-2.2-3.2-7.2-3.3-12.7,0-3.6,.5-7.1,1.4-9.7,1-2.8,2.4-4.3,4-4.3,1.3,0,2.4,1,3.3,2.7,1.4,2.5,2.2,6.6,2.3,11.2,0,3.7-.5,7.1-1.4,9.7-1,2.8-2.4,4.3-4,4.3"/><path class="cls-11" d="M264.3,43.8c2.9-.7,7.9,.6,12.7,3.3,3.2,1.8,5.9,3.9,7.6,6.1,1.9,2.3,2.4,4.3,1.6,5.8-.7,1.2-2.2,1.7-4.1,1.7-2.9,0-6.9-1.2-10.9-3.4-3.2-1.8-5.9-3.9-7.6-6.1-1.9-2.3-2.4-4.3-1.6-5.8"/><path class="cls-11" d="M274.1,49.6c-1.4,0-2.5,1.1-2.5,2.5s1.1,2.5,2.5,2.5,2.5-1.1,2.5-2.5-1.1-2.5-2.5-2.5Z"/><path class="cls-11" d="M268.4,368.6h10.4c.1,0,.3-.1,.4-.2,1-1.4,1.5-4.5,1.5-6.2,0-4.7-3.8-8.5-8.5-8.5-.6,0-1.1,.1-1.7,.2-1.5-2.7-4.3-4.3-7.4-4.3-4,0-7.4,2.7-8.3,6.6h-.6c-3.6,0-6.5,2.9-6.5,6.5,0,1.7,.6,4.6,1.8,5.9,.1,.1,.2,.1,.3,.1h18.6v-.1Z"/><path class="cls-11" d="M289.6,352.6h11m-16-6.3h21m-7.5,6.3h-6v-3.1h6v3.1Zm7.5-3.1h-21v-15.9h21v15.9Z"/><path class="cls-11" d="M281,339.6c-5.7,0-10.4,4.5-10.4,10.2m13.7,15.8c5.7,0,10.4-4.5,10.4-10.2"/><path class="cls-11" d="M278.6,336.6v5l5-2.5-5-2.5Z"/><path class="cls-11" d="M286.6,367.6v-5l-5,2.5,5,2.5Z"/><path class="cls-11" d="M486.1,307l10.3-18.4,7.7,5.9,9.1-15.2,3.5,4.2,10.9-9.8m-47-7.1v47h47"/><path class="cls-11" d="M480.8,114.6c0,.7-.6,1.3-1.3,1.3s-1.3-.6-1.3-1.3,.6-1.3,1.3-1.3,1.3,.6,1.3,1.3Zm52.9,17.6h-46.7c-2.5,0-4.5-2-4.5-4.5v-26.1c0-2.5,2-4.5,4.5-4.5h46.8c2.5,0,4.5,2,4.5,4.5v26.1c-.1,2.4-2.1,4.5-4.6,4.5Zm3.4,3.4h-56c-2.5,0-4.5-2-4.5-4.5v-33c0-2.5,2-4.5,4.5-4.5h56.1c2.5,0,4.5,2,4.5,4.5v33c-.1,2.5-2.1,4.5-4.6,4.5h0Z"/><path class="cls-11" d="M541.6,114.1c0,.8-.7,1.5-1.5,1.5s-1.5-.7-1.5-1.5,.7-1.5,1.5-1.5,1.5,.7,1.5,1.5Z"/></svg>