<?xml version="1.0" encoding="UTF-8"?><svg id="Ebene_2" xmlns="http://www.w3.org/2000/svg" viewBox="0 0 45.41 60.6"><defs><style>.cls-1{fill:#00617d;}</style></defs><g id="Ebene_1-2"><g><polygon class="cls-1" points="11.35 14.84 8.86 12.34 7.79 13.41 11.35 16.98 18.7 9.63 17.63 8.55 11.35 14.84 11.35 14.84 11.35 14.84"/><polygon class="cls-1" points="23.46 12.88 37.84 12.88 37.84 14.39 23.46 14.39 23.46 12.88 23.46 12.88"/><polygon class="cls-1" points="11.35 26.2 8.86 23.7 7.79 24.77 11.35 28.34 18.7 20.99 17.63 19.92 11.35 26.2 11.35 26.2 11.35 26.2"/><polygon class="cls-1" points="23.46 24.24 37.84 24.24 37.84 25.75 23.46 25.75 23.46 24.24 23.46 24.24"/><polygon class="cls-1" points="11.35 37.56 8.86 35.07 7.79 36.14 11.35 39.7 18.7 32.35 17.63 31.28 11.35 37.56 11.35 37.56 11.35 37.56"/><polygon class="cls-1" points="23.46 35.6 37.84 35.6 37.84 37.12 23.46 37.12 23.46 35.6 23.46 35.6"/><polygon class="cls-1" points="11.35 48.92 8.86 46.43 7.79 47.5 11.35 51.06 18.7 43.71 17.63 42.64 11.35 48.92 11.35 48.92 11.35 48.92"/><polygon class="cls-1" points="23.46 46.96 37.84 46.96 37.84 48.48 23.46 48.48 23.46 46.96 23.46 46.96"/><path class="cls-1" d="M0,60.6H45.41V0H0V60.6H0ZM1.51,1.51H43.9V59.08H1.51V1.51h0Z"/></g></g></svg>