<?xml version="1.0" encoding="UTF-8"?><svg id="Ebene_2" xmlns="http://www.w3.org/2000/svg" viewBox="0 0 60.55 51.51"><defs><style>.cls-1{fill:#00617d;}</style></defs><g id="Ebene_1-2"><g><polygon class="cls-1" points="8.33 26.51 29.52 26.51 29.52 38.63 31.03 38.63 31.03 26.51 52.22 26.51 52.22 38.63 53.74 38.63 53.74 25 31.03 25 31.03 12.88 29.52 12.88 29.52 25 6.81 25 6.81 38.63 8.33 38.63 8.33 26.51 8.33 26.51 8.33 26.51"/><path class="cls-1" d="M37.84,0h-15.14V10.6h15.14V0h0Zm-1.51,9.09h-12.11V1.51h12.11v7.57h0Z"/><path class="cls-1" d="M22.71,40.9v10.6h15.14v-10.6h-15.14Zm13.62,9.09h-12.11v-7.57h12.11v7.57h0Z"/><path class="cls-1" d="M45.41,51.51h15.14v-10.6h-15.14v10.6h0Zm1.51-9.09h12.11v7.57h-12.11v-7.57h0Z"/><path class="cls-1" d="M15.14,40.9H0v10.6H15.14v-10.6h0Zm-1.51,9.09H1.51v-7.57H13.62v7.57h0Z"/></g></g></svg>