<?xml version="1.0" encoding="UTF-8"?><svg id="Ebene_2" xmlns="http://www.w3.org/2000/svg" viewBox="0 0 59.44 59.36"><defs><style>.cls-1{fill:#00617d;}</style></defs><g id="Ebene_1-2"><path class="cls-1" d="M58.22,50.67l-10.64-10.67c-1.63-1.63-4.38-1.58-6.42,0l-3.15-3.15c8.23-8.89,7.69-22.78-1.19-31.01C27.94-2.39,14.06-1.86,5.84,7.04-2.39,15.93-1.86,29.81,7.03,38.04c8.45,7.83,21.52,7.78,29.92-.12l3.15,3.15c-.67,.85-1.09,1.87-1.19,2.95-.14,1.27,.3,2.54,1.19,3.45l10.64,10.66c.81,.79,1.9,1.23,3.04,1.21,1.49-.03,2.91-.64,3.95-1.7,.96-.94,1.57-2.19,1.7-3.53,.14-1.27-.29-2.54-1.19-3.46h0ZM7.52,7.41C12.25,2.67,19,.54,25.59,1.73c2.84,.49,5.54,1.59,7.9,3.24,5.58,3.81,8.91,10.14,8.9,16.9h-7.95c-.22,0-.43,.1-.57,.26l-3.6,4.2h-.01l-2.65-9.96c-.11-.4-.52-.64-.93-.54-.23,.06-.42,.23-.51,.46l-5.53,14.32s0,0,0,0h0l-3.6-19.49c-.08-.41-.47-.68-.88-.61-.27,.05-.49,.24-.58,.51l-3.61,10.84H1.55c0-5.42,2.14-10.63,5.98-14.46h0Zm3.14,31.51c-5.26-3.5-8.6-9.23-9.06-15.53H12.5c.33,0,.62-.21,.72-.52l2.85-8.55s0,0,0,0h0l3.55,19.22c.06,.33,.34,.59,.67,.62h.07c.31,0,.59-.19,.71-.48l5.66-14.64s0,0,0,0h0l2.42,9.09c.11,.4,.52,.64,.93,.54,.15-.04,.28-.12,.38-.24l4.32-5.03h7.54c-.83,11.26-10.62,19.72-21.87,18.89-.7-.05-1.39-.14-2.08-.26-2.77-.47-5.4-1.53-7.73-3.1h0Zm45.98,17.66c-1.48,1.47-3.65,1.7-4.84,.5l-10.64-10.66c-.57-.6-.85-1.43-.75-2.25,.1-.98,.55-1.9,1.26-2.59,1.47-1.47,3.65-1.7,4.84-.5l10.64,10.66c.57,.6,.85,1.43,.75,2.25-.1,.98-.55,1.9-1.26,2.59h0Z"/></g></svg>