<?xml version="1.0" encoding="UTF-8"?><svg id="Ebene_2" xmlns="http://www.w3.org/2000/svg" viewBox="0 0 43.9 59.08"><defs><style>.cls-1{fill:#00617d;}</style></defs><g id="Ebene_1-2"><g><path class="cls-1" d="M43.9,52.27V6.82c0-4.43-11.31-6.82-21.95-6.82S0,2.39,0,6.82V52.27c0,4.43,11.31,6.82,21.95,6.82s21.95-2.39,21.95-6.82h0ZM21.95,1.51c11.7,0,20.44,2.8,20.44,5.3s-8.74,5.3-20.44,5.3S1.51,9.32,1.51,6.82,10.25,1.51,21.95,1.51h0ZM1.51,9.44c3.43,2.74,12.14,4.2,20.44,4.2s17.01-1.45,20.44-4.2v12.53c0,2.5-8.74,5.3-20.44,5.3S1.51,24.47,1.51,21.97V9.44Zm0,15.15c3.43,2.74,12.14,4.2,20.44,4.2s17.01-1.45,20.44-4.2v12.53c0,2.5-8.74,5.3-20.44,5.3S1.51,39.62,1.51,37.12v-12.53Zm0,27.68v-12.53c3.43,2.74,12.14,4.2,20.44,4.2s17.01-1.45,20.44-4.2v12.53c0,2.5-8.74,5.3-20.44,5.3S1.51,54.76,1.51,52.27h0Z"/><path class="cls-1" d="M38.6,19.69c0,.84-.68,1.51-1.51,1.51s-1.51-.68-1.51-1.51c0-.84,.68-1.51,1.51-1.51s1.51,.68,1.51,1.51h0Z"/><path class="cls-1" d="M38.6,34.84c0,.84-.68,1.51-1.51,1.51s-1.51-.68-1.51-1.51c0-.84,.68-1.51,1.51-1.51,.84,0,1.51,.68,1.51,1.51h0Z"/><path class="cls-1" d="M38.6,49.99c0,.84-.68,1.51-1.51,1.51-.84,0-1.51-.68-1.51-1.51,0-.84,.68-1.51,1.51-1.51,.84,0,1.51,.68,1.51,1.51h0Z"/></g></g></svg>