<?xml version="1.0" encoding="UTF-8"?>
<svg width="640" height="512" version="1.1" xmlns="http://www.w3.org/2000/svg">
 <path fill="#b8860b" d="m86.4 185.9c23.7-1.9 47-3.8 70.7-5.8c6.7-.6 9.9-4.2 10.9-10.9c3.5-23.7 7.4-47 11.5-70.7c1-5.8-2.2-8.3-9.6-7.7c-8.3 .6-10.9-1.9-11.5-10.2c-.3-4.2 1-6.1 5.4-6.7c12.5-1.9 25-3.8 37.4-6.4c39-8 76.5-20.8 112-39c4.5-2.2 8.6-2.2 13.1 0c28.2 13.8 57 26.6 88 32.6c20.5 4.2 40.6 9 61.1 12.8c4.2 1 6.1 2.6 5.4 6.7c-.6 4.5-.3 9.6-6.7 10.2c-13.1 1.6-14.1 1.6-12.2 15c2.9 22.1 6.4 43.8 9.9 65.9c1 6.1 5.4 8 10.9 8.3c32.6 3.2 65 5.8 97.6 4.2c9.6-.3 11.2 1.9 10.2 11.2c-1.6 14.7-2.2 29.4-4.5 43.8c-5.8 39-19.8 74.6-40.6 107.8c-21.4 33.9-48.3 63-81.3 85.8c-29.1 20.2-60.5 35.5-95 43.5c-11.5 2.6-23 4.8-34.2 7c-15 2.9-29.8 .6-44.5-2.6c-29.4-6.1-57.9-14.7-83.8-30.1c-18.6-10.9-36.5-23-53.4-36.2c-24-18.6-42.9-42.2-58.6-67.8c-10.2-17-18.6-35.2-26.2-53.4c-8.6-21.1-14.4-43.2-16.3-65.9c-1-12.2-1.3-24.3-2.2-36.5c-.3-6.1 1.9-8.3 8.3-7.7c9.6 1 19.2 1 28.8 1.6c0 0 0 .3 0 .6zm243.8 123.8h0c0 33 0 65.6 0 98.6c0 15 0 29.8 .3 44.8c0 9 1.9 11.2 11.2 9.9c7.7-1 15.4-3.2 22.7-5.1c25.3-6.7 49.3-15.7 71.4-30.4c1.9-1.3 4.2-4.2 4.2-6.4c0-1.6-3.2-3.8-5.4-4.5c-8.6-2.6-17.9-4.5-26.6-7.4c-17.9-5.8-35.5-11.8-53.1-18.6c-2.2-.6-3.8-4.2-4.8-6.4c-1-2.9-.3-6.1 0-9c0-6.4 1.9-7 7.7-4.8c12.8 5.1 25.3 10.6 38.4 14.7c19.2 6.1 38.7 11.2 58.2 16c6.4 1.6 13.8 4.8 19.5-1.3c13.8-14.1 27.2-28.5 40.6-42.9c3.5-3.5 1.9-6.7-2.6-8.3c-1.6-.6-3.5-.6-5.4-1c-18.6-2.6-37.4-3.5-55.7-7.7c-30.1-7-60.2-14.4-89-26.6c-11.8-5.1-13.4-6.4-12.2-19.2c.3-4.5 2.6-6.4 6.7-4.2c26.6 12.5 54.4 21.1 82.9 27.2c27.8 5.8 56 8.6 84.2 12.8c6.7 1 10.9-2.2 13.8-8c5.4-11.8 11.2-23.7 16.6-35.5c3.5-7.4 1.3-10.9-6.7-11.5c-15.7-1-31.7-1.3-47.4-3.2c-20.5-2.2-41.3-4.5-61.1-9.3c-25.6-6.4-50.9-15.4-76.2-23.7c-12.8-4.2-13.1-5.1-12.5-17.9c0-6.7 1.6-7.4 8-4.8c19.5 7 38.4 15 58.6 20.2c23.4 6.4 47.4 11.2 71.4 14.7c22.4 3.2 45.1 3.2 67.8 4.8c4.8 0 8-1.9 9-6.7c1.9-10.9 3.8-21.8 4.8-32.6c1-12.2-.6-13.4-12.5-13.1c-38.7 1.3-76.5-3.8-113.9-11.8c-34.6-7.4-68.2-18.6-100.5-32.6c-9.3-3.8-11.2-2.6-11.8 7.4c0 .6 0 1.3 0 1.9c0 46.7 0 93.8 0 140.5zm120-150.1c-1.3-5.8-3.5-16-5.1-26.2c-2.2-13.4-3.8-26.9-5.8-40c-.6-4.8-3.5-7-8.3-8c-12.2-2.6-24.3-4.8-35.8-9c-23-8-45.4-17.3-68.2-25.3c-4.2-1.6-9.9-1.3-13.8 0c-34.6 13.4-68.8 26.9-105.3 34.2c-4.8 1-8.3 3.5-9 9c-2.6 18.2-5.4 36.2-8 54.4c-1 5.8-2.2 11.2-2.6 17c-.3 6.7 2.6 8.6 9 6.7c7.7-2.2 15.4-4.8 23-6.7c33-8.3 64.3-21.4 94.7-36.8c2.2-1.3 5.8-1 8 0c7.7 3.2 15 7 22.4 10.6c30.4 14.4 62.1 25 94.7 32.3c9 1.9 10.2 1 9.9-12.2zm-348.2 46.4s0-1.3 0-1.9c-7.7 0-15 0-22.7 0s-10.2 2.9-9.6 10.2c1 10.9 2.6 21.8 3.8 32.6c1 6.7 4.8 9.9 11.8 9.6c16.3-1 32.6-1 48.6-3.2c25.3-3.2 50.6-6.1 75.2-12.5c28.5-7.7 56-18.9 83.5-29.1c15.4-5.4 16.6-8.3 16.6-24.3c0-6.7 0-13.4 0-19.8c0-10.6-2.9-11.8-12.8-8c-18.9 7.7-37.8 16-57.3 21.8c-21.4 6.4-43.5 10.9-65.6 14.7c-24 4.2-48 6.7-72 9.9zm207.4 49h0c0-5.8 0-11.5 0-17.3c-.3-8.3-4.2-10.9-11.8-7c-26.2 13.1-54.4 22.1-82.9 28.8c-25 6.1-50.2 9.9-75.5 13.4c-16 2.2-32 1.9-48 2.9c-6.1 .3-8.6 3.5-6.4 8.3c5.8 13.8 12.2 27.2 18.6 40.6c2.2 4.8 6.1 7 11.8 6.1c13.8-1.9 27.8-2.9 41.6-5.1c17.9-2.9 36.5-4.5 54.1-9.9c28.8-8.6 56.6-19.8 84.8-30.1c10.2-3.8 16.6-9.9 14.4-22.1c-.6-2.9 0-6.1 0-9zm0 77.4s0 0 0 0c0-7.4 0-14.7 0-22.1c0-4.8-2.2-8-8-6.1c-23 8.3-45.8 17.6-69.1 25.3c-15 5.1-30.4 9-45.8 11.8c-18.2 3.5-36.8 5.1-55 7.7c-2.6 .3-6.4 1.9-7 4.2c-.6 1.9 1 5.8 2.6 7.7c11.8 13.1 24.3 25.6 36.5 38.4c4.2 4.2 8.6 5.4 14.4 4.2c15.4-3.8 30.7-8 46.1-11.5c26.2-6.1 50.6-17.3 75.5-27.5c7.7-3.2 11.5-7.7 10.6-16c-.6-5.1 0-10.6 0-15.7zm0 91.5c0-9.6 0-19.2 0-28.8c0-10.2-3.8-12.5-13.1-8.6c-16 6.4-31.7 13.1-48 18.6c-13.4 4.5-27.5 7.4-41 11.2c-3.2 1-5.8 3.5-8.3 5.1c1.9 2.6 3.5 6.1 6.1 7.4c16.6 8 33.3 16.6 50.6 23c14.4 5.1 29.4 8.3 44.5 11.5c7.4 1.6 9.6-1.6 9.6-9c0-10.2 0-20.2 0-30.4z" />
</svg>
