<?xml version="1.0" encoding="UTF-8"?>
<!-- Generator: Adobe Illustrator 19.2.1, SVG Export Plug-In . SVG Version: 6.00 Build 0)  -->
<!DOCTYPE svg PUBLIC "-//W3C//DTD SVG 1.1//EN" "http://www.w3.org/Graphics/SVG/1.1/DTD/svg11.dtd">
<svg version="1.1" id="Layer_1" xmlns="http://www.w3.org/2000/svg" xmlns:xlink="http://www.w3.org/1999/xlink" x="0px" y="0px" viewBox="0 0 200 67.9" style="enable-background:new 0 0 200 67.9;" xml:space="preserve">
<style type="text/css">
	.st0{fill:#4F5858;}
	.st1{fill:#3EB1C8;}
	.st2{fill:#D8D2C4;}
	.st3{fill:#FFC72C;}
	.st4{fill:#EF3340;}
</style>
<g>
	<g>
		<g>
			<g>
				<path class="st0" d="M76.1,37.5c-0.4-2.6-2.9-4.6-5.8-4.6c-5.2,0-7.2,4.4-7.2,9.1c0,4.4,2,8.9,7.2,8.9c3.6,0,5.6-2.4,6-5.9H82      c-0.6,6.6-5.1,10.8-11.6,10.8c-8.2,0-13-6.1-13-13.7c0-7.9,4.8-14,13-14c5.8,0,10.7,3.4,11.4,9.5H76.1z"/>
				<path class="st0" d="M84,35.9h5v3.6h0.1c1-2.4,3.6-4.1,6.1-4.1c0.4,0,0.8,0.1,1.1,0.2v4.9c-0.5-0.1-1.3-0.2-1.9-0.2      c-3.9,0-5.2,2.8-5.2,6.1v8.6H84V35.9z"/>
				<path class="st0" d="M106.4,35.4c6,0,9.9,4,9.9,10.1c0,6.1-3.9,10.1-9.9,10.1c-6,0-9.9-4-9.9-10.1      C96.5,39.4,100.4,35.4,106.4,35.4z M106.4,51.6c3.6,0,4.7-3.1,4.7-6.1c0-3.1-1.1-6.1-4.7-6.1c-3.6,0-4.6,3.1-4.6,6.1      C101.8,48.6,102.8,51.6,106.4,51.6z"/>
				<path class="st0" d="M122.4,48.9c0,2.3,2,3.2,4,3.2c1.5,0,3.4-0.6,3.4-2.4c0-1.6-2.2-2.1-6-3c-3-0.7-6.1-1.7-6.1-5.1      c0-4.9,4.2-6.1,8.3-6.1c4.2,0,8,1.4,8.4,6.1h-5c-0.1-2-1.7-2.6-3.6-2.6c-1.2,0-2.9,0.2-2.9,1.8c0,1.9,3,2.1,6,2.9      c3.1,0.7,6.1,1.8,6.1,5.4c0,5-4.4,6.7-8.7,6.7c-4.4,0-8.8-1.7-9-6.7H122.4z"/>
				<path class="st0" d="M141.6,48.9c0,2.3,2,3.2,4,3.2c1.5,0,3.4-0.6,3.4-2.4c0-1.6-2.2-2.1-6-3c-3-0.7-6.1-1.7-6.1-5.1      c0-4.9,4.2-6.1,8.3-6.1c4.2,0,8,1.4,8.4,6.1h-5c-0.1-2-1.7-2.6-3.6-2.6c-1.2,0-2.9,0.2-2.9,1.8c0,1.9,3,2.1,6,2.9      c3.1,0.7,6.1,1.8,6.1,5.4c0,5-4.4,6.7-8.7,6.7c-4.4,0-8.8-1.7-9-6.7H141.6z"/>
				<path class="st0" d="M156.1,35.9h5v3.6h0.1c1-2.4,3.6-4.1,6.1-4.1c0.4,0,0.8,0.1,1.1,0.2v4.9c-0.5-0.1-1.3-0.2-1.9-0.2      c-3.9,0-5.2,2.8-5.2,6.1v8.6h-5.3V35.9z"/>
				<path class="st0" d="M174.2,46.8c0.1,3.3,1.8,4.9,4.7,4.9c2.1,0,3.8-1.3,4.1-2.5h4.6c-1.5,4.5-4.6,6.4-9,6.4      c-6,0-9.8-4.1-9.8-10.1c0-5.7,4-10.1,9.8-10.1c6.5,0,9.7,5.5,9.3,11.4H174.2z M182.7,43.5c-0.5-2.7-1.6-4.1-4.2-4.1      c-3.3,0-4.3,2.6-4.4,4.1H182.7z"/>
				<path class="st0" d="M190.9,39.5h-3.1v-3.5h3.1v-1.5c0-3.4,2.1-5.8,6.4-5.8c0.9,0,1.9,0.1,2.8,0.1v3.9c-0.6-0.1-1.3-0.1-1.9-0.1      c-1.4,0-2,0.6-2,2.2v1.1h3.6v3.5h-3.6v15.6h-5.3V39.5z"/>
			</g>
		</g>
	</g>
</g>
<polygon class="st1" points="0,67.9 0,47.4 16.8,41.9 46.6,52.1 "/>
<polygon class="st2" points="29.8,26.1 0,36.4 16.8,41.9 46.6,31.7 "/>
<polygon class="st0" points="16.8,41.9 46.6,31.7 46.6,52.1 "/>
<polygon class="st3" points="46.6,0.2 46.6,20.6 29.8,26.1 0,15.9 "/>
<polygon class="st4" points="29.8,26.1 0,36.4 0,15.9 "/>
</svg>