<?xml version="1.0" encoding="UTF-8"?>
<svg id="Ebene_1" data-name="Ebene 1" xmlns="http://www.w3.org/2000/svg" version="1.1" xmlns:xlink="http://www.w3.org/1999/xlink" viewBox="0 0 1157 806">
  <defs>
    <style>
      .cls-1, .cls-2, .cls-3, .cls-4 {
        stroke: #b85450;
      }

      .cls-1, .cls-5, .cls-6, .cls-7, .cls-8, .cls-9, .cls-10, .cls-11, .cls-12, .cls-13, .cls-14, .cls-15, .cls-16, .cls-17, .cls-18, .cls-19, .cls-20, .cls-4, .cls-21, .cls-22 {
        stroke-width: 2px;
      }

      .cls-1, .cls-17 {
        fill-opacity: .6;
        stroke-opacity: .6;
      }

      .cls-1, .cls-4 {
        fill: #f8cecc;
      }

      .cls-23, .cls-24, .cls-25, .cls-26, .cls-27, .cls-19 {
        fill: #000;
      }

      .cls-23, .cls-28, .cls-2, .cls-6, .cls-29, .cls-3, .cls-30, .cls-31, .cls-32, .cls-33, .cls-34, .cls-35, .cls-36, .cls-37, .cls-38, .cls-39, .cls-40, .cls-41 {
        stroke-miterlimit: 10;
      }

      .cls-23, .cls-6, .cls-31, .cls-42, .cls-19, .cls-43, .cls-44 {
        stroke: #000;
      }

      .cls-45 {
        fill: #333;
      }

      .cls-45, .cls-24, .cls-25 {
        font-size: 12px;
      }

      .cls-45, .cls-24, .cls-25, .cls-26, .cls-27 {
        isolation: isolate;
      }

      .cls-45, .cls-25 {
        font-family: TimesNewRomanPSMT, 'Times New Roman';
      }

      .cls-24, .cls-26 {
        font-family: TimesNewRomanPS-BoldMT, 'Times New Roman';
        font-weight: 700;
      }

      .cls-28 {
        fill: #666;
      }

      .cls-28, .cls-7, .cls-40, .cls-41 {
        stroke: #666;
      }

      .cls-2, .cls-6, .cls-29, .cls-30, .cls-31, .cls-42, .cls-46, .cls-33, .cls-34, .cls-35, .cls-43, .cls-40, .cls-41 {
        fill: none;
      }

      .cls-5 {
        fill: #bac8d3;
        stroke: #23445d;
      }

      .cls-5, .cls-13, .cls-15 {
        fill-opacity: .2;
        stroke-opacity: .2;
      }

      .cls-6, .cls-42, .cls-14, .cls-41 {
        stroke-opacity: .7;
      }

      .cls-7 {
        fill: #f5f5f5;
      }

      .cls-8 {
        fill: #97d077;
      }

      .cls-8, .cls-47, .cls-34, .cls-36 {
        stroke: #82b366;
      }

      .cls-8, .cls-11 {
        fill-opacity: .4;
        stroke-opacity: .4;
      }

      .cls-29, .cls-16, .cls-37 {
        stroke: #3a5431;
      }

      .cls-3 {
        fill: #b85450;
      }

      .cls-9, .cls-12, .cls-14, .cls-33, .cls-18, .cls-38 {
        stroke: #6c8ebf;
      }

      .cls-9, .cls-12, .cls-14, .cls-18 {
        fill: #dae8fc;
      }

      .cls-9, .cls-22 {
        fill-opacity: .5;
        stroke-opacity: .5;
      }

      .cls-47 {
        fill: #d5e8d4;
        stroke-width: 3px;
      }

      .cls-30, .cls-32, .cls-21 {
        stroke: #d79b00;
      }

      .cls-10, .cls-35, .cls-39, .cls-22 {
        stroke: #9673a6;
      }

      .cls-10, .cls-22 {
        fill: #e1d5e7;
      }

      .cls-11 {
        fill: #cdeb8b;
        stroke: #36393d;
      }

      .cls-26 {
        font-size: 18px;
      }

      .cls-46 {
        stroke-width: 0px;
      }

      .cls-13 {
        fill: #a89174;
        stroke: #b46504;
      }

      .cls-14 {
        fill-opacity: .7;
      }

      .cls-32 {
        fill: #d79b00;
      }

      .cls-15 {
        fill: #60a917;
        stroke: #2d7600;
      }

      .cls-16 {
        fill: #6d8764;
      }

      .cls-17, .cls-20 {
        fill: #fff2cc;
        stroke: #d6b656;
      }

      .cls-36 {
        fill: #82b366;
      }

      .cls-27 {
        font-family: ArialMT, Arial;
        font-size: 10px;
      }

      .cls-37 {
        fill: #3a5431;
      }

      .cls-18 {
        fill-opacity: .3;
        stroke-opacity: .3;
      }

      .cls-38 {
        fill: #6c8ebf;
      }

      .cls-19 {
        fill-opacity: 0;
      }

      .cls-39 {
        fill: #9673a6;
      }

      .cls-44 {
        fill: #fff;
      }

      .cls-41 {
        stroke-dasharray: 0 0 3 3;
      }

      .cls-21 {
        fill: #ffe6cc;
      }
    </style>
  </defs>
  <path class="cls-46" d=""/>
  <g>
    <rect class="cls-43" x="1.5" y="563.5" width="1153" height="157" pointer-events="none"/>
    <text class="cls-26" transform="translate(3 717)"><tspan x="0" y="0"> application ontologies</tspan></text>
    <rect class="cls-42" x="1.5" y=".5" width="1153" height="254" pointer-events="none"/>
    <text class="cls-26" transform="translate(3 25)"><tspan x="0" y="0"> upper ontologies </tspan></text>
    <text class="cls-25" transform="translate(3 800)"><tspan x="0" y="0">* not BFO alligned by def...</tspan></text>
    <circle class="cls-19" cx="487.6" cy="110.3" r="14.8" pointer-events="none"/>
    <text class="cls-25" transform="translate(437 113)"><tspan x="0" y="0">bfo:s...</tspan></text>
    <circle class="cls-19" cx="885.6" cy="110.3" r="14.8" pointer-events="none"/>
    <text class="cls-25" transform="translate(902 113)"><tspan x="0" y="0">bfo:g...</tspan></text>
    <path class="cls-31" d="M487.1,69.1l.4,20" pointer-events="none"/>
    <path class="cls-23" d="M487.5,94.4l-3.6-6.9,3.5,1.7,3.5-1.8-3.4,7.1Z" pointer-events="none"/>
    <path class="cls-31" d="M497.5,64.8l367.1,43.1" pointer-events="none"/>
    <path class="cls-23" d="M869.8,108.5l-7.4,2.7,2.1-3.3-1.3-3.7,6.5,4.3Z" pointer-events="none"/>
    <circle class="cls-19" cx="487.1" cy="54.3" r="14.8" pointer-events="none"/>
    <g pointer-events="none">
      <text class="cls-25" transform="translate(451.6 34)"><tspan x="0" y="0">bfo:continuant</tspan></text>
    </g>
    <circle class="cls-19" cx="1058.1" cy="54.3" r="14.8" pointer-events="none"/>
    <text class="cls-25" transform="translate(1040.8 36)"><tspan x="0" y="0">bfo:o...</tspan></text>
    <path class="cls-31" d="M757.9,34.8l279.1,18.2" pointer-events="none"/>
    <path class="cls-23" d="M1042.2,53.3l-7.2,3,2-3.4-1.5-3.6,6.8,4Z" pointer-events="none"/>
    <path class="cls-31" d="M736.9,34.8l-228.7,19" pointer-events="none"/>
    <path class="cls-23" d="M503,54.2l6.7-4.1-1.5,3.6,2,3.3-7.3-2.9Z" pointer-events="none"/>
    <circle class="cls-19" cx="747.4" cy="24.3" r="14.8" pointer-events="none"/>
    <text class="cls-25" transform="translate(696.3 27)"><tspan x="0" y="0">bfo:e...</tspan></text>
    <circle class="cls-19" cx="138" cy="110.3" r="14.8" pointer-events="none"/>
    <text class="cls-25" transform="translate(121.2 92)"><tspan x="0" y="0">bfo:i...</tspan></text>
    <path class="cls-31" d="M476.6,64.8l-317.7,42.7" pointer-events="none"/>
    <path class="cls-23" d="M153.7,108.2l6.5-4.4-1.3,3.7,2.2,3.2-7.4-2.5Z" pointer-events="none"/>
    <circle class="cls-20" cx="885.6" cy="167.3" r="14.8" pointer-events="none"/>
    <text class="cls-25" transform="translate(902 170)"><tspan x="0" y="0">iao:i...</tspan></text>
    <path class="cls-31" d="M885.6,125.1v21" pointer-events="none"/>
    <path class="cls-23" d="M885.6,151.4l-3.5-7,3.5,1.8,3.5-1.8-3.5,7Z" pointer-events="none"/>
    <circle class="cls-47" cx="138" cy="167.3" r="14.8" pointer-events="none"/>
    <g pointer-events="none">
      <text class="cls-25" transform="translate(154.3 171.8)"><tspan x="0" y="0">bfo:material entity</tspan></text>
    </g>
    <path class="cls-31" d="M138,125.1v21" pointer-events="none"/>
    <path class="cls-23" d="M138,151.4l-3.5-7,3.5,1.8,3.5-1.8-3.5,7Z" pointer-events="none"/>
    <circle class="cls-4" cx="487.6" cy="167.3" r="14.8" pointer-events="none"/>
    <text class="cls-25" transform="translate(504 170)"><tspan x="0" y="0">bfo:r...</tspan></text>
    <path class="cls-31" d="M487.6,125.1v21" pointer-events="none"/>
    <path class="cls-23" d="M487.6,151.4l-3.5-7,3.5,1.8,3.5-1.8-3.5,7Z" pointer-events="none"/>
    <circle class="cls-4" cx="380.8" cy="206.3" r="14.8" pointer-events="none"/>
    <text class="cls-25" transform="translate(332.3 209)"><tspan x="0" y="0">bfo:r...</tspan></text>
    <path class="cls-2" d="M477.1,177.8l-76,22.5" pointer-events="none"/>
    <path class="cls-3" d="M396.1,201.8l5.7-5.3-.7,3.9,2.7,2.9-7.7-1.4Z" pointer-events="none"/>
    <circle class="cls-4" cx="487.6" cy="225.3" r="14.8" pointer-events="none"/>
    <text class="cls-25" transform="translate(437.7 228)"><tspan x="0" y="0">bfo:f...</tspan></text>
    <path class="cls-2" d="M581.8,207l-73.4,14.4" pointer-events="none"/>
    <path class="cls-3" d="M503.2,222.4l6.2-4.8-1,3.8,2.4,3.1-7.6-2.1Z" pointer-events="none"/>
    <circle class="cls-4" cx="596.3" cy="204.3" r="14.8" pointer-events="none"/>
    <text class="cls-25" transform="translate(613 207)"><tspan x="0" y="0">bfo:d...</tspan></text>
    <path class="cls-2" d="M498,177.8l77.8,21.1" pointer-events="none"/>
    <path class="cls-3" d="M580.9,200.2l-7.7,1.5,2.6-2.9-.8-3.8,5.8,5.2Z" pointer-events="none"/>
    <rect class="cls-1" x="6.5" y="285.5" width="1144" height="267" pointer-events="none"/>
    <text class="cls-24" transform="translate(565.3 549)"><tspan x="0" y="0">AFO</tspan></text>
    <circle class="cls-7" cx="736.7" cy="167.3" r="14.8" pointer-events="none"/>
    <text class="cls-45" transform="translate(753 170)"><tspan x="0" y="0">bfo:q...</tspan></text>
    <path class="cls-31" d="M502,113.6l214,49" pointer-events="none"/>
    <path class="cls-23" d="M721.2,163.8l-7.6,1.9,2.5-3-.9-3.8,6,5Z" pointer-events="none"/>
    <rect class="cls-13" x="6.5" y="285.5" width="372" height="330" pointer-events="none"/>
    <text class="cls-24" transform="translate(323.7 612)"><tspan x="0" y="0">MS (CV)*</tspan></text>
    <circle class="cls-19" cx="1058.1" cy="110.3" r="14.8" pointer-events="none"/>
    <text class="cls-25" transform="translate(1074 113)"><tspan x="0" y="0">bfo:p...</tspan></text>
    <path class="cls-31" d="M1058.1,69.1v20" pointer-events="none"/>
    <path class="cls-23" d="M1058.1,94.4l-3.5-7,3.5,1.8,3.5-1.8-3.5,7Z" pointer-events="none"/>
    <circle class="cls-10" cx="1013.2" cy="206.3" r="14.8" pointer-events="none"/>
    <text class="cls-25" transform="translate(962.3 209)"><tspan x="0" y="0">obi:p...</tspan></text>
    <path class="cls-31" d="M1051,123.2l-34.7,62.7" pointer-events="none"/>
    <path class="cls-23" d="M1013.8,190.5l.3-7.8,2.2,3.2,3.9.2-6.5,4.4Z" pointer-events="none"/>
    <rect class="cls-13" x="749.6" y="285.5" width="292.3" height="330" pointer-events="none"/>
    <text class="cls-24" transform="translate(986.7 612)"><tspan x="0" y="0">MS (CV)*</tspan></text>
    <rect class="cls-44" x="1.5" y="721.5" width="1153" height="59" pointer-events="none"/>
    <text class="cls-24" transform="translate(169.5 754)"><tspan x="0" y="0">chemical entities</tspan></text>
    <text class="cls-24" transform="translate(9.7 754)"><tspan x="0" y="0">material tools used in...</tspan></text>
    <text class="cls-24" transform="translate(415.2 754)"><tspan x="0" y="0">roles, functions, dispositions and qualities...</tspan></text>
    <text class="cls-24" transform="translate(801.5 754)"><tspan x="0" y="0">information entities need...</tspan></text>
    <text class="cls-24" transform="translate(988 754)"><tspan x="0" y="0">processes in chemistry</tspan></text>
    <path class="cls-6" d="M1.5,780.5h1153" pointer-events="none"/>
    <rect class="cls-5" x="51.2" y="285.5" width="155.7" height="383" pointer-events="none"/>
    <text class="cls-24" transform="translate(164.7 665)"><tspan x="0" y="0">nmrCV</tspan></text>
    <rect class="cls-5" x="768.5" y="285.5" width="212" height="383" pointer-events="none"/>
    <text class="cls-24" transform="translate(854.3 665)"><tspan x="0" y="0">nmrCV</tspan></text>
    <rect class="cls-8" x="142.5" y="285.5" width="307.1" height="254" pointer-events="none"/>
    <g pointer-events="none">
      <text class="cls-24" transform="translate(144 534)"><tspan x="0" y="0">ChEBI</tspan></text>
    </g>
    <rect class="cls-11" x="140.5" y="285.5" width="147" height="177.3" pointer-events="none"/>
    <g pointer-events="none">
      <text class="cls-24" transform="translate(228.3 303)"><tspan x="0" y="0">ChemOnt*</tspan></text>
    </g>
    <rect class="cls-18" x="1005.5" y="285.5" width="145" height="256.4" pointer-events="none"/>
    <text class="cls-24" transform="translate(1109.3 538)"><tspan x="0" y="0">CHMO</tspan></text>
    <rect class="cls-14" x="6.5" y="285.5" width="127" height="249" pointer-events="none"/>
    <text class="cls-24" transform="translate(8 531)"><tspan x="0" y="0">CHMO</tspan></text>
    <rect class="cls-17" x="555.5" y="285.5" width="448" height="239.3" pointer-events="none"/>
    <text class="cls-24" transform="translate(557 521)"><tspan x="0" y="0">CHEMINF</tspan></text>
    <rect class="cls-15" x="293.5" y="285.5" width="142" height="229" pointer-events="none"/>
    <text class="cls-24" transform="translate(295 511)"><tspan x="0" y="0">CHIRO</tspan></text>
    <rect class="cls-9" x="396.5" y="285.5" width="144" height="240.2" pointer-events="none"/>
    <text class="cls-24" transform="translate(499.3 522)"><tspan x="0" y="0">CHMO</tspan></text>
    <rect class="cls-9" x="1077.2" y="285.5" width="73.2" height="201.1" pointer-events="none"/>
    <text class="cls-24" transform="translate(1120 483)"><tspan x="0" y="0">MOP</tspan></text>
    <rect class="cls-9" x="588.5" y="285.5" width="71" height="49.6" pointer-events="none"/>
    <text class="cls-24" transform="translate(629 332)"><tspan x="0" y="0">MOP</tspan></text>
    <rect class="cls-22" x="737.7" y="285.5" width="145.8" height="110.6" pointer-events="none"/>
    <g pointer-events="none">
      <text class="cls-24" transform="translate(788.4 390.6)"><tspan x="0" y="0">PROCO</tspan></text>
    </g>
    <circle class="cls-4" cx="507.7" cy="314.8" r="6.7" pointer-events="none"/>
    <circle class="cls-4" cx="496.9" cy="373" r="6.7" pointer-events="none"/>
    <circle class="cls-4" cx="497.2" cy="431.6" r="6.7" pointer-events="none"/>
    <path class="cls-2" d="M496.9,379.7l.2,38.9" pointer-events="none"/>
    <path class="cls-3" d="M497.2,423.8l-3.5-7,3.5,1.7,3.5-1.8-3.5,7Z" pointer-events="none"/>
    <circle class="cls-4" cx="516.7" cy="431.6" r="6.7" pointer-events="none"/>
    <path class="cls-2" d="M499.1,379.3l13.5,39.9" pointer-events="none"/>
    <path class="cls-3" d="M514.3,424.2l-5.6-5.5,3.9.5,2.8-2.8-1.1,7.8Z" pointer-events="none"/>
    <circle class="cls-4" cx="576.9" cy="314.1" r="6.7" pointer-events="none"/>
    <circle class="cls-4" cx="597.9" cy="314.1" r="6.7" pointer-events="none"/>
    <circle class="cls-4" cx="616.9" cy="314.1" r="6.7" pointer-events="none"/>
    <circle class="cls-4" cx="608.4" cy="373" r="6.7" pointer-events="none"/>
    <circle class="cls-4" cx="588.4" cy="373.2" r="6.7" pointer-events="none"/>
    <circle class="cls-4" cx="488.6" cy="489.3" r="6.7" pointer-events="none"/>
    <circle class="cls-4" cx="505.8" cy="489.3" r="6.7" pointer-events="none"/>
    <path class="cls-2" d="M496.3,438.2l-5.8,38.1" pointer-events="none"/>
    <path class="cls-3" d="M489.7,481.5l-2.4-7.5,3.2,2.3,3.7-1.2-4.5,6.4Z" pointer-events="none"/>
    <path class="cls-2" d="M499.2,438.6l5,37.8" pointer-events="none"/>
    <path class="cls-3" d="M504.9,481.5l-4.4-6.5,3.7,1.3,3.2-2.2-2.5,7.4Z" pointer-events="none"/>
    <circle class="cls-21" cx="861.6" cy="314.4" r="6.7" pointer-events="none"/>
    <path class="cls-2" d="M599.1,320.7l7.1,39.4" pointer-events="none"/>
    <path class="cls-3" d="M607.2,365.3l-4.7-6.3,3.8,1.1,3.1-2.4-2.2,7.5Z" pointer-events="none"/>
    <path class="cls-2" d="M596.9,320.7l-6.4,39.6" pointer-events="none"/>
    <path class="cls-3" d="M589.7,365.5l-2.3-7.5,3.2,2.3,3.7-1.2-4.6,6.4Z" pointer-events="none"/>
    <circle class="cls-21" cx="851.8" cy="373.2" r="6.7" pointer-events="none"/>
    <path class="cls-30" d="M860.6,321l-6.7,39.4" pointer-events="none"/>
    <path class="cls-32" d="M853,365.5l-2.3-7.5,3.2,2.3,3.7-1.1-4.6,6.3Z" pointer-events="none"/>
    <circle class="cls-21" cx="871.6" cy="373.2" r="6.7" pointer-events="none"/>
    <circle class="cls-21" cx="840.7" cy="435.6" r="6.7" pointer-events="none"/>
    <circle class="cls-21" cx="860.9" cy="435.6" r="6.7" pointer-events="none"/>
    <path class="cls-30" d="M862.7,321l6.8,39.4" pointer-events="none"/>
    <path class="cls-32" d="M870.3,365.5l-4.6-6.3,3.8,1.1,3.1-2.3-2.3,7.5Z" pointer-events="none"/>
    <path class="cls-30" d="M850.7,379.8l-7.7,43" pointer-events="none"/>
    <path class="cls-32" d="M842,428l-2.2-7.5,3.1,2.4,3.8-1.1-4.7,6.3Z" pointer-events="none"/>
    <path class="cls-30" d="M852.8,379.8l6.4,42.9" pointer-events="none"/>
    <path class="cls-32" d="M859.9,427.9l-4.5-6.4,3.7,1.2,3.2-2.2-2.4,7.4Z" pointer-events="none"/>
    <circle class="cls-21" cx="861.2" cy="493.3" r="6.7" pointer-events="none"/>
    <circle class="cls-21" cx="840.7" cy="493.3" r="6.7" pointer-events="none"/>
    <circle class="cls-7" cx="706.2" cy="315.1" r="6.7" pointer-events="none"/>
    <path class="cls-30" d="M860.9,442.4l.3,37.9" pointer-events="none"/>
    <path class="cls-32" d="M861.2,485.5l-3.5-7,3.5,1.7,3.5-1.8-3.5,7Z" pointer-events="none"/>
    <path class="cls-30" d="M858.7,442l-13.7,39" pointer-events="none"/>
    <path class="cls-32" d="M843.3,486l-1-7.8,2.7,2.8,3.9-.5-5.6,5.4Z" pointer-events="none"/>
    <circle class="cls-7" cx="716.2" cy="373.2" r="6.7" pointer-events="none"/>
    <path class="cls-40" d="M707.3,321.7l6.8,38.7" pointer-events="none"/>
    <path class="cls-28" d="M714.9,365.5l-4.6-6.3,3.8,1.1,3.1-2.3-2.2,7.5Z" pointer-events="none"/>
    <circle class="cls-7" cx="695.2" cy="373.2" r="6.7" pointer-events="none"/>
    <circle class="cls-7" cx="747.2" cy="315.1" r="6.7" pointer-events="none"/>
    <circle class="cls-7" cx="726.2" cy="315.1" r="6.7" pointer-events="none"/>
    <circle class="cls-7" cx="706.4" cy="435.6" r="6.7" pointer-events="none"/>
    <path class="cls-40" d="M705,321.6l-7.4,38.7" pointer-events="none"/>
    <path class="cls-28" d="M696.6,365.5l-2.1-7.5,3.1,2.4,3.8-1.1-4.8,6.2Z" pointer-events="none"/>
    <path class="cls-40" d="M715.2,379.8l-6.8,42.9" pointer-events="none"/>
    <path class="cls-28" d="M707.6,427.9l-2.4-7.5,3.2,2.3,3.7-1.2-4.5,6.4Z" pointer-events="none"/>
    <circle class="cls-7" cx="706.4" cy="493.3" r="6.7" pointer-events="none"/>
    <circle class="cls-7" cx="726.9" cy="493.3" r="6.7" pointer-events="none"/>
    <circle class="cls-7" cx="685.4" cy="493.3" r="6.7" pointer-events="none"/>
    <circle class="cls-7" cx="769.2" cy="315.1" r="6.7" pointer-events="none"/>
    <path class="cls-40" d="M706.4,442.4v37.9" pointer-events="none"/>
    <path class="cls-28" d="M706.4,485.5l-3.5-7,3.5,1.8,3.5-1.8-3.5,7Z" pointer-events="none"/>
    <path class="cls-40" d="M708.7,442l13.9,39" pointer-events="none"/>
    <path class="cls-28" d="M724.4,486l-5.7-5.4,3.9.5,2.7-2.8-.9,7.8Z" pointer-events="none"/>
    <circle class="cls-7" cx="759.2" cy="373.2" r="6.7" pointer-events="none"/>
    <circle class="cls-7" cx="780.7" cy="373.2" r="6.7" pointer-events="none"/>
    <circle class="cls-7" cx="726.9" cy="435.6" r="6.7" pointer-events="none"/>
    <path class="cls-40" d="M717.3,379.8l7.4,43" pointer-events="none"/>
    <path class="cls-28" d="M725.6,428l-4.6-6.3,3.8,1.1,3.2-2.3-2.3,7.5Z" pointer-events="none"/>
    <circle class="cls-4" cx="345.2" cy="315.1" r="6.7" pointer-events="none"/>
    <path class="cls-40" d="M704.2,442l-14.4,39.1" pointer-events="none"/>
    <path class="cls-28" d="M688,486l-.9-7.8,2.7,2.9,3.9-.4-5.7,5.4Z" pointer-events="none"/>
    <circle class="cls-4" cx="311.2" cy="373" r="6.7" pointer-events="none"/>
    <circle class="cls-4" cx="379.2" cy="314.1" r="6.7" pointer-events="none"/>
    <path class="cls-40" d="M768.1,321.7l-6.8,38.7" pointer-events="none"/>
    <path class="cls-28" d="M760.5,365.5l-2.2-7.5,3.2,2.3,3.8-1.1-4.7,6.3Z" pointer-events="none"/>
    <path class="cls-40" d="M770.4,321.6l7.8,38.7" pointer-events="none"/>
    <path class="cls-28" d="M779.3,365.5l-4.8-6.2,3.8,1,3.1-2.4-2,7.5Z" pointer-events="none"/>
    <circle class="cls-4" cx="330.2" cy="373" r="6.7" pointer-events="none"/>
    <circle class="cls-4" cx="330.2" cy="431.1" r="6.7" pointer-events="none"/>
    <circle class="cls-4" cx="360.2" cy="373" r="6.7" pointer-events="none"/>
    <circle class="cls-4" cx="368.2" cy="431.1" r="6.7" pointer-events="none"/>
    <path class="cls-2" d="M341.8,320.8l-24,40.9" pointer-events="none"/>
    <path class="cls-3" d="M315.1,366.2l.5-7.8,2.1,3.3,3.9.3-6.6,4.3Z" pointer-events="none"/>
    <path class="cls-2" d="M330.2,437.8v38.6" pointer-events="none"/>
    <path class="cls-3" d="M330.2,481.7l-3.5-7,3.5,1.8,3.5-1.8-3.5,7Z" pointer-events="none"/>
    <path class="cls-2" d="M332.2,437.5l12.9,39.6" pointer-events="none"/>
    <path class="cls-3" d="M346.8,482.1l-5.5-5.6,3.9.6,2.8-2.7-1.2,7.7Z" pointer-events="none"/>
    <path class="cls-2" d="M328.2,437.5l-12.9,39.6" pointer-events="none"/>
    <path class="cls-3" d="M313.6,482.1l-1.2-7.7,2.8,2.7,3.9-.6-5.5,5.6Z" pointer-events="none"/>
    <circle class="cls-4" cx="379.2" cy="373" r="6.7" pointer-events="none"/>
    <circle class="cls-4" cx="349.2" cy="489.5" r="6.7" pointer-events="none"/>
    <circle class="cls-4" cx="311.2" cy="489.5" r="6.7" pointer-events="none"/>
    <circle class="cls-4" cx="330.2" cy="489.5" r="6.7" pointer-events="none"/>
    <circle class="cls-4" cx="466.7" cy="314.8" r="6.7" pointer-events="none"/>
    <circle class="cls-4" cx="487.7" cy="314.8" r="6.7" pointer-events="none"/>
    <path class="cls-2" d="M343.5,321.5l-10.1,38.8" pointer-events="none"/>
    <path class="cls-3" d="M332.1,365.4l-1.6-7.7,2.9,2.6,3.8-.8-5.2,5.9Z" pointer-events="none"/>
    <circle class="cls-4" cx="477.2" cy="373" r="6.7" pointer-events="none"/>
    <path class="cls-2" d="M494.8,379.3l-13.5,39.9" pointer-events="none"/>
    <path class="cls-3" d="M479.6,424.2l-1.1-7.8,2.8,2.8,3.9-.5-5.6,5.5Z" pointer-events="none"/>
    <circle class="cls-4" cx="477.2" cy="431.6" r="6.7" pointer-events="none"/>
    <path class="cls-2" d="M330.2,379.7v38.4" pointer-events="none"/>
    <path class="cls-3" d="M330.2,423.3l-3.5-7,3.5,1.8,3.5-1.8-3.5,7Z" pointer-events="none"/>
    <circle class="cls-4" cx="409.2" cy="314.1" r="6.7" pointer-events="none"/>
    <path class="cls-2" d="M377.2,320.5l-13,40.1" pointer-events="none"/>
    <path class="cls-3" d="M362.6,365.5l-1.2-7.7,2.8,2.7,3.9-.6-5.5,5.6Z" pointer-events="none"/>
    <path class="cls-2" d="M379.2,320.8v39.1" pointer-events="none"/>
    <path class="cls-3" d="M379.2,365.2l-3.5-7,3.5,1.8,3.5-1.8-3.5,7Z" pointer-events="none"/>
    <circle class="cls-4" cx="403.7" cy="373.2" r="6.7" pointer-events="none"/>
    <circle class="cls-4" cx="424.2" cy="373" r="6.7" pointer-events="none"/>
    <circle class="cls-4" cx="388.7" cy="431.1" r="6.7" pointer-events="none"/>
    <path class="cls-2" d="M380.3,379.6l6.3,38.7" pointer-events="none"/>
    <path class="cls-3" d="M387.4,423.4l-4.6-6.3,3.7,1.2,3.2-2.3-2.3,7.5Z" pointer-events="none"/>
    <circle class="cls-16" cx="272.2" cy="489.3" r="6.7" pointer-events="none"/>
    <circle class="cls-16" cx="252.2" cy="489.3" r="6.7" pointer-events="none" transform="translate(-271.2 659.8) rotate(-80.8)"/>
    <circle class="cls-21" cx="882" cy="493.3" r="6.7" pointer-events="none"/>
    <circle class="cls-16" cx="155.3" cy="489.3" r="6.7" pointer-events="none"/>
    <circle class="cls-16" cx="173.8" cy="489.3" r="6.7" pointer-events="none"/>
    <circle class="cls-16" cx="200.3" cy="489.3" r="6.7" pointer-events="none"/>
    <circle class="cls-16" cx="219.3" cy="489.3" r="6.7" pointer-events="none"/>
    <circle class="cls-16" cx="241.7" cy="375.8" r="6.7" pointer-events="none"/>
    <path class="cls-2" d="M378,379.6l-7.4,38.7" pointer-events="none"/>
    <path class="cls-3" d="M369.6,423.4l-2.1-7.5,3.1,2.4,3.8-1.1-4.8,6.2Z" pointer-events="none"/>
    <path class="cls-2" d="M488.8,321.4l6.2,38.6" pointer-events="none"/>
    <path class="cls-3" d="M495.8,365.2l-4.6-6.3,3.7,1.2,3.2-2.3-2.3,7.5Z" pointer-events="none"/>
    <path class="cls-2" d="M486.8,321.5l-5.8,39" pointer-events="none"/>
    <path class="cls-3" d="M480.2,365.7l-2.4-7.4,3.2,2.2,3.7-1.2-4.5,6.4Z" pointer-events="none"/>
    <rect class="cls-22" x="6.5" y="285.5" width="192" height="164" pointer-events="none"/>
    <g pointer-events="none">
      <text class="cls-24" transform="translate(8 303)"><tspan x="0" y="0">PROCO</tspan></text>
    </g>
    <circle class="cls-16" cx="241.7" cy="431.6" r="6.7" pointer-events="none"/>
    <circle class="cls-16" cx="260.2" cy="431.6" r="6.7" pointer-events="none"/>
    <circle class="cls-16" cx="220.2" cy="314.8" r="6.7" pointer-events="none"/>
    <path class="cls-2" d="M408.6,320.8l-3.8,39.4" pointer-events="none"/>
    <path class="cls-3" d="M404.3,365.4l-2.8-7.3,3.3,2.1,3.7-1.4-4.2,6.6Z" pointer-events="none"/>
    <circle class="cls-16" cx="187.3" cy="375.8" r="6.7" pointer-events="none"/>
    <path class="cls-2" d="M410.8,320.6l10.2,39.7" pointer-events="none"/>
    <path class="cls-3" d="M422.4,365.4l-5.1-5.9,3.8.8,3-2.6-1.6,7.6Z" pointer-events="none"/>
    <path class="cls-30" d="M863.3,441.9l14.3,39.1" pointer-events="none"/>
    <path class="cls-32" d="M879.4,486l-5.7-5.4,3.9.4,2.7-2.8-.9,7.8Z" pointer-events="none"/>
    <path class="cls-29" d="M241.7,382.5v36" pointer-events="none"/>
    <path class="cls-37" d="M241.7,423.8l-3.5-7,3.5,1.8,3.5-1.8-3.5,7Z" pointer-events="none"/>
    <circle class="cls-16" cx="186.3" cy="431.6" r="6.7" pointer-events="none"/>
    <circle class="cls-16" cx="165.3" cy="431.6" r="6.7" pointer-events="none"/>
    <circle class="cls-16" cx="208.3" cy="431.6" r="6.7" pointer-events="none"/>
    <path class="cls-29" d="M164.2,438.2l-6.7,38.2" pointer-events="none"/>
    <path class="cls-37" d="M156.6,481.6l-2.2-7.5,3.1,2.3,3.8-1.1-4.7,6.3Z" pointer-events="none"/>
    <path class="cls-29" d="M243.7,382.2l12.4,37" pointer-events="none"/>
    <path class="cls-37" d="M257.8,424.2l-5.5-5.5,3.9.5,2.8-2.8-1.1,7.8Z" pointer-events="none"/>
    <path class="cls-29" d="M222.4,321.1l15,42.4" pointer-events="none"/>
    <path class="cls-37" d="M239.1,368.5l-5.6-5.4,3.9.5,2.7-2.8-1,7.8Z" pointer-events="none"/>
    <path class="cls-29" d="M217,320.7l-23.5,43.6" pointer-events="none"/>
    <path class="cls-37" d="M191,368.9l.2-7.8,2.2,3.2h3.9c0,.1-6.4,4.6-6.4,4.6Z" pointer-events="none"/>
    <path class="cls-29" d="M187.3,382.5l-.9,36" pointer-events="none"/>
    <path class="cls-37" d="M186.4,423.8l-3.3-7.1,3.5,1.8,3.5-1.7-3.7,6.9Z" pointer-events="none"/>
    <path class="cls-29" d="M184.9,382.1l-14.9,37.3" pointer-events="none"/>
    <path class="cls-37" d="M168.1,424.3l-.7-7.8,2.6,2.9,3.9-.3-5.8,5.2Z" pointer-events="none"/>
    <circle class="cls-12" cx="69.4" cy="375.8" r="6.7" pointer-events="none"/>
    <path class="cls-29" d="M261.6,438.1l8,38.3" pointer-events="none"/>
    <path class="cls-37" d="M270.6,481.6l-4.9-6.1,3.8,1,3.1-2.4-2,7.6Z" pointer-events="none"/>
    <path class="cls-29" d="M259.3,438.2l-5.4,38.1" pointer-events="none"/>
    <path class="cls-37" d="M253.2,481.5l-2.5-7.4,3.2,2.2,3.7-1.2-4.4,6.4Z" pointer-events="none"/>
    <path class="cls-29" d="M189.6,382.1l14.2,37.2" pointer-events="none"/>
    <path class="cls-37" d="M205.6,424.3l-5.8-5.3,3.9.4,2.6-2.9-.8,7.8Z" pointer-events="none"/>
    <path class="cls-29" d="M166.2,438.2l5.7,38.1" pointer-events="none"/>
    <path class="cls-37" d="M172.7,481.5l-4.5-6.4,3.7,1.2,3.2-2.2-2.4,7.4Z" pointer-events="none"/>
    <path class="cls-29" d="M207.4,438.2l-5.4,38.1" pointer-events="none"/>
    <path class="cls-37" d="M201.3,481.5l-2.5-7.4,3.2,2.2,3.7-1.2-4.4,6.4Z" pointer-events="none"/>
    <path class="cls-29" d="M209.6,438.2l7.4,38.3" pointer-events="none"/>
    <path class="cls-37" d="M217.9,481.6l-4.8-6.2,3.8,1.1,3.1-2.4-2.1,7.5Z" pointer-events="none"/>
    <rect class="cls-9" x="903.5" y="285.5" width="197.8" height="221.2" pointer-events="none"/>
    <text class="cls-24" transform="translate(905 503)"><tspan x="0" y="0">RXNO</tspan></text>
    <circle class="cls-21" cx="892.1" cy="314.8" r="6.6" pointer-events="none"/>
    <circle class="cls-21" cx="930.7" cy="436.4" r="6.7" pointer-events="none"/>
    <circle class="cls-21" cx="911.7" cy="315.1" r="6.7" pointer-events="none"/>
    <circle class="cls-21" cx="903.2" cy="373.9" r="6.7" pointer-events="none"/>
    <path class="cls-30" d="M912.8,321.7l7,39.4" pointer-events="none"/>
    <path class="cls-32" d="M920.6,366.2l-4.7-6.3,3.8,1.1,3.2-2.3-2.2,7.5Z" pointer-events="none"/>
    <path class="cls-30" d="M922.7,380.6l6.2,42.9" pointer-events="none"/>
    <path class="cls-32" d="M929.6,428.6l-4.5-6.4,3.7,1.2,3.2-2.2-2.5,7.4Z" pointer-events="none"/>
    <circle class="cls-21" cx="921.9" cy="373.9" r="6.7" pointer-events="none"/>
    <circle class="cls-21" cx="911.2" cy="436.4" r="6.7" pointer-events="none"/>
    <circle class="cls-10" cx="962.9" cy="493.1" r="6.7" pointer-events="none"/>
    <circle class="cls-10" cx="962.9" cy="436.4" r="6.7" pointer-events="none"/>
    <circle class="cls-10" cx="1121.7" cy="436.5" r="6.7" pointer-events="none"/>
    <circle class="cls-10" cx="1100.7" cy="436.5" r="6.7" pointer-events="none"/>
    <circle class="cls-10" cx="982.7" cy="369.9" r="6.7" pointer-events="none"/>
    <path class="cls-30" d="M910.8,321.7l-5.8,39.3" pointer-events="none"/>
    <path class="cls-32" d="M904.3,366.2l-2.5-7.4,3.2,2.2,3.7-1.2-4.5,6.4Z" pointer-events="none"/>
    <path class="cls-30" d="M920.8,380.5l-7.4,43" pointer-events="none"/>
    <path class="cls-32" d="M912.5,428.7l-2.3-7.5,3.2,2.3,3.8-1.1-4.6,6.3Z" pointer-events="none"/>
    <circle class="cls-10" cx="982.9" cy="436.4" r="6.7" pointer-events="none"/>
    <circle class="cls-10" cx="982.7" cy="493.1" r="6.7" pointer-events="none"/>
    <circle class="cls-10" cx="1025.4" cy="493.3" r="6.7" pointer-events="none"/>
    <circle class="cls-10" cx="1002.8" cy="436.3" r="6.6" pointer-events="none"/>
    <path class="cls-35" d="M984.6,376.3l14.5,47.6" pointer-events="none"/>
    <path class="cls-39" d="M1000.6,428.9l-5.4-5.7,3.9.7,2.8-2.7-1.3,7.7Z" pointer-events="none"/>
    <circle class="cls-10" cx="1025.3" cy="436.5" r="6.6" pointer-events="none"/>
    <circle class="cls-10" cx="1045.1" cy="436.5" r="6.6" pointer-events="none"/>
    <circle class="cls-10" cx="1045.9" cy="493.3" r="6.7" pointer-events="none"/>
    <circle class="cls-10" cx="1065.2" cy="493.3" r="6.7" pointer-events="none"/>
    <path class="cls-35" d="M1043,442.7l-13.3,38.2" pointer-events="none"/>
    <path class="cls-39" d="M1027.9,485.9l-1-7.8,2.7,2.8,3.9-.5-5.6,5.5Z" pointer-events="none"/>
    <path class="cls-35" d="M1045.1,443.1l.7,37.2" pointer-events="none"/>
    <path class="cls-39" d="M1045.9,485.5l-3.6-6.9,3.5,1.7,3.5-1.8-3.4,7.1Z" pointer-events="none"/>
    <path class="cls-35" d="M1047.3,442.7l13.5,38.3" pointer-events="none"/>
    <path class="cls-39" d="M1062.6,486l-5.6-5.4,3.9.5,2.7-2.8-1,7.8Z" pointer-events="none"/>
    <path class="cls-35" d="M980.7,442.7l-13.5,38.1" pointer-events="none"/>
    <path class="cls-39" d="M965.4,485.7l-1-7.8,2.7,2.8,3.9-.5-5.6,5.4Z" pointer-events="none"/>
    <path class="cls-35" d="M980.8,376.3l-14.2,47.5" pointer-events="none"/>
    <path class="cls-39" d="M965.1,428.9l-1.3-7.7,2.8,2.7,3.9-.7-5.4,5.7Z" pointer-events="none"/>
    <path class="cls-35" d="M982.7,376.6l.2,46.7" pointer-events="none"/>
    <path class="cls-39" d="M982.9,428.6l-3.5-7,3.5,1.7,3.5-1.8-3.5,7Z" pointer-events="none"/>
    <path class="cls-35" d="M982.9,443.1l-.2,37" pointer-events="none"/>
    <path class="cls-39" d="M982.7,485.3l-3.5-7,3.5,1.8,3.5-1.7-3.5,7Z" pointer-events="none"/>
    <rect class="cls-22" x="1004.5" y="285.5" width="146" height="116" pointer-events="none"/>
    <g pointer-events="none">
      <text class="cls-24" transform="translate(1055.3 396)"><tspan x="0" y="0">PROCO</tspan></text>
    </g>
    <circle class="cls-10" cx="992.7" cy="312" r="6.7" pointer-events="none"/>
    <circle class="cls-10" cx="1111.2" cy="370.1" r="6.7" pointer-events="none"/>
    <circle class="cls-10" cx="1131.2" cy="370.1" r="6.7" pointer-events="none"/>
    <circle class="cls-10" cx="1090.2" cy="370.1" r="6.7" pointer-events="none"/>
    <circle class="cls-10" cx="1002.7" cy="369.9" r="6.7" pointer-events="none"/>
    <circle class="cls-10" cx="1025.2" cy="370.1" r="6.7" pointer-events="none"/>
    <circle class="cls-10" cx="1045.2" cy="370.1" r="6.7" pointer-events="none"/>
    <path class="cls-35" d="M1112.9,318.5l14,39.3" pointer-events="none"/>
    <path class="cls-39" d="M1128.6,362.7l-5.6-5.4,3.9.5,2.7-2.8-.9,7.8Z" pointer-events="none"/>
    <path class="cls-35" d="M1108.5,318.5l-14,39.3" pointer-events="none"/>
    <path class="cls-39" d="M1092.8,362.7l-.9-7.8,2.7,2.8,3.9-.5-5.6,5.4Z" pointer-events="none"/>
    <path class="cls-35" d="M1110.7,318.9l.4,38.1" pointer-events="none"/>
    <path class="cls-39" d="M1111.2,362.3l-3.6-7,3.5,1.7,3.5-1.8-3.4,7Z" pointer-events="none"/>
    <path class="cls-35" d="M993.8,318.6l6.7,38.4" pointer-events="none"/>
    <path class="cls-39" d="M1001.4,362.2l-4.7-6.3,3.8,1.1,3.1-2.3-2.2,7.5Z" pointer-events="none"/>
    <path class="cls-35" d="M1034.1,318.6l-6.8,38.7" pointer-events="none"/>
    <path class="cls-39" d="M1026.5,362.4l-2.2-7.5,3.2,2.3,3.7-1.1-4.7,6.3Z" pointer-events="none"/>
    <path class="cls-35" d="M1036.3,318.6l6.8,38.7" pointer-events="none"/>
    <path class="cls-39" d="M1043.9,362.4l-4.7-6.3,3.8,1.1,3.1-2.3-2.2,7.5Z" pointer-events="none"/>
    <circle class="cls-10" cx="1110.7" cy="312.2" r="6.7" pointer-events="none"/>
    <circle class="cls-10" cx="1013.7" cy="312" r="6.7" pointer-events="none"/>
    <circle class="cls-10" cx="1035.2" cy="312" r="6.7" pointer-events="none"/>
    <path class="cls-35" d="M1112.2,376.7l7.5,46.8" pointer-events="none"/>
    <path class="cls-39" d="M1120.6,428.8l-4.6-6.4,3.7,1.2,3.2-2.3-2.4,7.5Z" pointer-events="none"/>
    <path class="cls-35" d="M1110.1,376.7l-7.5,46.8" pointer-events="none"/>
    <path class="cls-39" d="M1101.8,428.8l-2.4-7.5,3.2,2.3,3.7-1.2-4.6,6.4Z" pointer-events="none"/>
    <path class="cls-35" d="M1025.2,376.8v46.7" pointer-events="none"/>
    <path class="cls-39" d="M1025.3,428.8l-3.5-7,3.5,1.7,3.5-1.8-3.5,7Z" pointer-events="none"/>
    <path class="cls-35" d="M1027.1,376.5l14.4,47.5" pointer-events="none"/>
    <path class="cls-39" d="M1042.9,429.1l-5.4-5.7,3.9.7,2.8-2.7-1.3,7.7Z" pointer-events="none"/>
    <path class="cls-35" d="M991.6,318.6l-6.8,38.4" pointer-events="none"/>
    <path class="cls-39" d="M984,362.2l-2.2-7.5,3.1,2.3,3.8-1.1-4.7,6.3Z" pointer-events="none"/>
    <path class="cls-35" d="M1016.2,220.8l16.4,78.4" pointer-events="none"/>
    <path class="cls-39" d="M1033.6,304.3l-4.9-6.1,3.8,1,3.1-2.4-2,7.6Z" pointer-events="none"/>
    <path class="cls-31" d="M1061.8,124.6l45.6,174.9" pointer-events="none"/>
    <path class="cls-23" d="M1108.7,304.6l-5.2-5.9,3.8.8,2.9-2.6-1.6,7.7Z" pointer-events="none"/>
    <path class="cls-35" d="M1013.2,221.1l.4,77.8" pointer-events="none"/>
    <path class="cls-39" d="M1013.7,304.1l-3.5-7,3.5,1.7,3.5-1.8-3.5,7Z" pointer-events="none"/>
    <path class="cls-35" d="M1010.5,220.8l-15.3,78.3" pointer-events="none"/>
    <path class="cls-39" d="M994.2,304.3l-2.1-7.5,3.1,2.4,3.8-1.1-4.8,6.2Z" pointer-events="none"/>
    <path class="cls-30" d="M883.3,181.9l-19.5,119.6" pointer-events="none"/>
    <path class="cls-32" d="M862.9,306.6l-2.3-7.5,3.2,2.3,3.7-1.2-4.6,6.4Z" pointer-events="none"/>
    <path class="cls-30" d="M886.2,182.1l5.4,119.7" pointer-events="none"/>
    <path class="cls-32" d="M891.8,307l-3.8-6.8,3.6,1.6,3.4-1.9-3.2,7.1Z" pointer-events="none"/>
    <path class="cls-30" d="M888.2,181.9l21.3,120.3" pointer-events="none"/>
    <path class="cls-32" d="M910.3,307.4l-4.7-6.3,3.8,1.1,3.2-2.3-2.2,7.5Z" pointer-events="none"/>
    <path class="cls-40" d="M733.8,181.8l-25,120.5" pointer-events="none"/>
    <path class="cls-28" d="M707.7,307.4l-2-7.6,3.1,2.4,3.8-1-4.9,6.1Z" pointer-events="none"/>
    <path class="cls-40" d="M735.7,182.1l-8.6,120" pointer-events="none"/>
    <path class="cls-28" d="M726.7,307.3l-3-7.2,3.4,2,3.6-1.5-4,6.7Z" pointer-events="none"/>
    <path class="cls-2" d="M376.3,220.4l-27,82.3" pointer-events="none"/>
    <path class="cls-3" d="M347.6,307.6l-1.1-7.8,2.8,2.8,3.9-.6-5.5,5.6Z" pointer-events="none"/>
    <path class="cls-2" d="M380.7,221.1l-1.3,80" pointer-events="none"/>
    <path class="cls-3" d="M379.3,306.3l-3.4-7.1,3.5,1.8,3.5-1.7-3.6,6.9Z" pointer-events="none"/>
    <path class="cls-2" d="M484.3,239.7l-14.7,62.4" pointer-events="none"/>
    <path class="cls-3" d="M468.4,307.2l-1.8-7.6,3,2.5,3.8-.9-5,6Z" pointer-events="none"/>
    <path class="cls-2" d="M487.6,240.1v61.7" pointer-events="none"/>
    <path class="cls-3" d="M487.7,307l-3.5-7,3.5,1.7,3.5-1.8-3.5,7Z" pointer-events="none"/>
    <path class="cls-2" d="M490.7,239.8l14.1,62.3" pointer-events="none"/>
    <path class="cls-3" d="M506,307.2l-5-6.1,3.8.9,3-2.5-1.9,7.6Z" pointer-events="none"/>
    <path class="cls-2" d="M384.5,220.6l21.3,80.9" pointer-events="none"/>
    <path class="cls-3" d="M407.2,306.6l-5.2-5.9,3.8.8,2.9-2.6-1.6,7.7Z" pointer-events="none"/>
    <path class="cls-2" d="M593.8,218.9l-14.6,82.4" pointer-events="none"/>
    <path class="cls-3" d="M578.3,306.4l-2.2-7.5,3.1,2.3,3.8-1.1-4.7,6.3Z" pointer-events="none"/>
    <path class="cls-40" d="M737.7,182.1l8.6,120" pointer-events="none"/>
    <path class="cls-28" d="M746.7,307.3l-4-6.7,3.6,1.5,3.4-2-3,7.2Z" pointer-events="none"/>
    <path class="cls-40" d="M739.8,181.8l26.6,120.5" pointer-events="none"/>
    <path class="cls-28" d="M767.5,307.4l-4.9-6.1,3.8.9,3-2.5-1.9,7.6Z" pointer-events="none"/>
    <path class="cls-2" d="M599,218.9l15.6,82.4" pointer-events="none"/>
    <path class="cls-3" d="M615.5,306.4l-4.7-6.2,3.8,1.1,3.1-2.4-2.1,7.5Z" pointer-events="none"/>
    <path class="cls-2" d="M596.5,219.1l1.3,82" pointer-events="none"/>
    <path class="cls-3" d="M597.8,306.3l-3.6-6.9,3.5,1.7,3.5-1.8-3.4,7.1Z" pointer-events="none"/>
    <path class="cls-34" d="M138,182.1l75.4,121.6" pointer-events="none"/>
    <path class="cls-36" d="M216.1,308.2l-6.7-4.1,3.9-.4,2.1-3.3.7,7.8Z" pointer-events="none"/>
    <path class="cls-33" d="M138,182.1l-63.6,121.2" pointer-events="none"/>
    <path class="cls-38" d="M72,307.9l.2-7.8,2.3,3.2h3.9c0,0-6.3,4.6-6.3,4.6Z" pointer-events="none"/>
    <path class="cls-41" d="M138.1,780.5v-496" pointer-events="none"/>
    <path class="cls-41" d="M291.7,780.5v-496" pointer-events="none"/>
    <path class="cls-41" d="M791.5,780.5v-496" pointer-events="none"/>
    <path class="cls-41" d="M950,780.5l-.3-496" pointer-events="none"/>
    <circle class="cls-12" cx="25.3" cy="489.3" r="6.7" pointer-events="none"/>
    <circle class="cls-12" cx="44.3" cy="489.3" r="6.7" pointer-events="none"/>
    <circle class="cls-12" cx="92.3" cy="489.3" r="6.7" pointer-events="none"/>
    <circle class="cls-12" cx="111.3" cy="489.3" r="6.7" pointer-events="none"/>
    <circle class="cls-12" cx="68.3" cy="314.8" r="6.7" pointer-events="none"/>
    <circle class="cls-12" cx="48.2" cy="375.6" r="6.7" pointer-events="none"/>
    <path class="cls-33" d="M68.3,321.5l1,41.2" pointer-events="none"/>
    <path class="cls-38" d="M69.4,368l-3.7-6.9,3.5,1.7,3.4-1.8-3.3,7.1Z" pointer-events="none"/>
    <circle class="cls-12" cx="88.4" cy="376.1" r="6.7" pointer-events="none"/>
    <circle class="cls-12" cx="35.8" cy="431.6" r="6.7" pointer-events="none"/>
    <circle class="cls-12" cx="56.8" cy="431.6" r="6.7" pointer-events="none"/>
    <circle class="cls-12" cx="80.8" cy="431.6" r="6.7" pointer-events="none"/>
    <path class="cls-33" d="M89.9,382.6l8.2,36.2" pointer-events="none"/>
    <path class="cls-38" d="M99.2,424l-5-6.1,3.8.9,3-2.5-1.9,7.6Z" pointer-events="none"/>
    <circle class="cls-12" cx="100.8" cy="431.6" r="6.7" pointer-events="none"/>
    <path class="cls-33" d="M66.2,321.2l-13.9,42" pointer-events="none"/>
    <path class="cls-38" d="M50.7,368.2l-1.1-7.7,2.8,2.8,3.9-.6-5.5,5.5Z" pointer-events="none"/>
    <path class="cls-33" d="M70.4,321.2l14,42.5" pointer-events="none"/>
    <path class="cls-38" d="M86,368.6l-5.5-5.6,3.9.6,2.8-2.8-1.1,7.7Z" pointer-events="none"/>
    <path class="cls-33" d="M34.6,438.2l-7,38.2" pointer-events="none"/>
    <path class="cls-38" d="M26.6,481.6l-2.2-7.5,3.1,2.4,3.8-1.1-4.7,6.2Z" pointer-events="none"/>
    <path class="cls-33" d="M36.8,438.2l5.7,38.1" pointer-events="none"/>
    <path class="cls-38" d="M43.2,481.5l-4.5-6.4,3.7,1.2,3.2-2.2-2.4,7.4Z" pointer-events="none"/>
    <path class="cls-33" d="M46.8,382.1l-8.2,36.7" pointer-events="none"/>
    <path class="cls-38" d="M37.5,424l-1.9-7.6,3,2.5,3.8-.9-4.9,6.1Z" pointer-events="none"/>
    <path class="cls-33" d="M49.2,382.2l5.7,36.5" pointer-events="none"/>
    <path class="cls-38" d="M55.7,423.9l-4.5-6.4,3.7,1.2,3.2-2.3-2.4,7.5Z" pointer-events="none"/>
    <path class="cls-33" d="M87.6,382.7l-5.1,35.9" pointer-events="none"/>
    <path class="cls-38" d="M81.8,423.9l-2.5-7.4,3.2,2.2,3.7-1.2-4.4,6.4Z" pointer-events="none"/>
    <path class="cls-33" d="M99.9,438.2l-5.7,38.1" pointer-events="none"/>
    <path class="cls-38" d="M93.4,481.5l-2.4-7.4,3.2,2.2,3.7-1.2-4.5,6.4Z" pointer-events="none"/>
    <path class="cls-33" d="M102.1,438.2l7,38.2" pointer-events="none"/>
    <path class="cls-38" d="M110,481.6l-4.7-6.2,3.8,1.1,3.1-2.4-2.2,7.5Z" pointer-events="none"/>
    <rect class="cls-42" x="1.5" y="254.5" width="1153" height="309" pointer-events="none"/>
    <text class="cls-26" transform="translate(3 279)"><tspan x="0" y="0"> domain ontologies</tspan></text>
  </g>
  <a xlink:href="https://www.diagrams.net/doc/faq/svg-export-text-problems">
    <text class="cls-27" transform="translate(497.1 801.5)"><tspan x="0" y="0">Viewer does not support full SVG 1.1</tspan></text>
  </a>
  <path class="cls-46" d=""/>
</svg>