<?xml version="1.0" encoding="UTF-8" standalone="no"?>
<svg
   xmlns:dc="http://purl.org/dc/elements/1.1/"
   xmlns:cc="http://creativecommons.org/ns#"
   xmlns:rdf="http://www.w3.org/1999/02/22-rdf-syntax-ns#"
   xmlns:svg="http://www.w3.org/2000/svg"
   xmlns="http://www.w3.org/2000/svg"
   version="1.1"
   viewBox="0 0 629.55377 631.92055"
   fill="none"
   stroke="none"
   stroke-linecap="square"
   stroke-miterlimit="10"
   id="svg117"
   width="629.55377"
   height="631.92053">
  <metadata
     id="metadata123">
    <rdf:RDF>
      <cc:Work
         rdf:about="">
        <dc:format>image/svg+xml</dc:format>
        <dc:type
           rdf:resource="http://purl.org/dc/dcmitype/StillImage" />
        <dc:title></dc:title>
      </cc:Work>
    </rdf:RDF>
  </metadata>
  <defs
     id="defs121" />
  <clipPath
     id="g103cd8af09d_0_0.0">
    <path
       d="M 0,0 H 960 V 680.31494 H 0 Z"
       clip-rule="nonzero"
       id="path2" />
  </clipPath>
  <g
     clip-path="url(#g103cd8af09d_0_0.0)"
     id="g115"
     transform="translate(-11.916011)">
    <path
       fill="#000000"
       fill-opacity="0"
       d="m 739.958,-154.61026 h 25.51178 v 42.01575 H 739.958 Z"
       fill-rule="evenodd"
       id="path91" />
    <path
       fill="#ffffff"
       d="m 15.412271,53.570811 v 0 c 0,-27.83223 22.56248,-50.3947102 50.39471,-50.3947102 H 267.37976 v 0 c 13.36551,0 26.18359,5.3094302 35.63443,14.7602702 9.45084,9.45084 14.76029,22.26894 14.76029,35.63444 V 256.97036 c 0,27.83224 -22.5625,50.39471 -50.39472,50.39471 H 65.806981 c -27.83223,0 -50.39471,-22.56247 -50.39471,-50.39471 z"
       fill-rule="evenodd"
       id="path7" />
    <path
       stroke="#4070a0"
       stroke-width="4"
       stroke-linejoin="round"
       stroke-linecap="butt"
       d="m 15.412271,53.570811 v 0 c 0,-27.83223 22.56248,-50.3947102 50.39471,-50.3947102 H 267.37976 v 0 c 13.36551,0 26.18359,5.3094302 35.63443,14.7602702 9.45084,9.45084 14.76029,22.26894 14.76029,35.63444 V 256.97036 c 0,27.83224 -22.5625,50.39471 -50.39472,50.39471 H 65.806981 c -27.83223,0 -50.39471,-22.56247 -50.39471,-50.39471 z"
       fill-rule="evenodd"
       id="path9" />
    <path
       fill="#000000"
       d="m 126.15687,46.096211 v -15.20312 h 2.29688 v 2.125 q 0.71875,-1.10938 1.90624,-1.78125 1.1875,-0.6875 2.70312,-0.6875 1.70313,0 2.78125,0.70312 1.07813,0.6875 1.51563,1.95313 1.8125,-2.65625 4.70312,-2.65625 2.26563,0 3.48438,1.25 1.21875,1.25 1.21875,3.85937 v 10.4375 h -2.5625 v -9.57812 q 0,-1.54688 -0.26563,-2.21875 -0.25,-0.6875 -0.90625,-1.09375 -0.65625,-0.42188 -1.54687,-0.42188 -1.59375,0 -2.65625,1.0625 -1.0625,1.0625 -1.0625,3.42188 v 8.82812 h -2.57813 v -9.875 q 0,-1.71875 -0.64062,-2.57812 -0.625,-0.85938 -2.04688,-0.85938 -1.09375,0 -2.01562,0.57813 -0.92188,0.5625 -1.34374,1.67187 -0.40625,1.09375 -0.40625,3.17188 v 7.89062 z m 23.4618,-7.60937 q 0,-4.21875 2.35937,-6.25 1.95313,-1.6875 4.78125,-1.6875 3.125,0 5.10938,2.0625 2,2.04687 2,5.67187 0,2.92187 -0.875,4.60937 -0.875,1.6875 -2.5625,2.625 -1.6875,0.92188 -3.67188,0.92188 -3.20312,0 -5.17187,-2.04688 -1.96875,-2.04687 -1.96875,-5.90624 z m 2.65625,0 q 0,2.92187 1.26562,4.37499 1.28125,1.45313 3.21875,1.45313 1.92188,0 3.1875,-1.45313 1.28125,-1.46875 1.28125,-4.45312 0,-2.82812 -1.28125,-4.28125 -1.28125,-1.45312 -3.1875,-1.45312 -1.9375,0 -3.21875,1.45312 -1.26562,1.4375 -1.26562,4.35938 z m 14.56091,7.60937 v -21 h 2.57813 v 21 z m 7.18766,0 v -13.20312 h -2.28125 v -2 h 2.28125 v -1.625 q 0,-1.53125 0.28125,-2.28125 0.35937,-1 1.29687,-1.625 0.9375,-0.625 2.64063,-0.625 1.07812,0 2.40625,0.26562 l -0.39063,2.25 q -0.8125,-0.14062 -1.51562,-0.14062 -1.17188,0 -1.67188,0.5 -0.48437,0.5 -0.48437,1.875 v 1.40625 h 2.96875 v 2 h -2.96875 v 13.20312 z m 7.55456,-18.03125 v -2.96875 h 2.57813 v 2.96875 z m 0,18.03125 v -15.20312 h 2.57813 v 15.20312 z m 6.43765,0 v -21 h 2.57813 v 21 z m 16.98453,-4.89063 2.65625,0.32813 q -0.625,2.32812 -2.32812,3.625 -1.70313,1.28125 -4.35938,1.28125 -3.32812,0 -5.28125,-2.04688 -1.95312,-2.0625 -1.95312,-5.76562 0,-3.84375 1.96875,-5.95312 1.98437,-2.125 5.125,-2.125 3.0625,0 4.98437,2.07812 1.9375,2.0625 1.9375,5.84375 0,0.21875 -0.0156,0.67188 h -11.34377 q 0.14062,2.51562 1.42187,3.84374 1.28125,1.32813 3.17188,1.32813 1.42187,0 2.42187,-0.73438 1,-0.75 1.59375,-2.375 z m -8.46875,-4.17187 h 8.5 q -0.17187,-1.92187 -0.96875,-2.875 -1.23437,-1.5 -3.20312,-1.5 -1.76563,0 -2.98438,1.1875 -1.20312,1.1875 -1.34375,3.1875 z"
       fill-rule="nonzero"
       id="path11" />
    <path
       fill="#000000"
       d="m 108.7276,73.416211 v -11.0625 h 1.67188 v 1.54688 q 0.53125,-0.8125 1.39062,-1.29688 0.85938,-0.5 1.96875,-0.5 1.23438,0 2.01563,0.51563 0.78125,0.5 1.10937,1.42187 1.3125,-1.9375 3.40625,-1.9375 1.65625,0 2.53125,0.92188 0.89063,0.90625 0.89063,2.79687 v 7.59375 h -1.85938 v -6.96875 q 0,-1.125 -0.1875,-1.60937 -0.1875,-0.5 -0.67187,-0.79688 -0.46875,-0.3125 -1.10938,-0.3125 -1.17187,0 -1.9375,0.78125 -0.76562,0.76563 -0.76562,2.48438 v 6.42187 h -1.875 v -7.1875 q 0,-1.25 -0.46875,-1.875 -0.45313,-0.625 -1.5,-0.625 -0.78125,0 -1.45313,0.42188 -0.67187,0.40625 -0.98437,1.21875 -0.29688,0.79687 -0.29688,2.3125 v 5.73437 z m 17.06337,-5.53125 q 0,-3.07812 1.71875,-4.54687 1.42188,-1.23438 3.46875,-1.23438 2.28125,0 3.71875,1.5 1.45312,1.48438 1.45312,4.125 0,2.14063 -0.64062,3.35938 -0.625,1.21875 -1.85938,1.90625 -1.21875,0.67187 -2.67187,0.67187 -2.3125,0 -3.75,-1.48437 -1.4375,-1.5 -1.4375,-4.29688 z m 1.9375,0 q 0,2.125 0.92188,3.1875 0.92187,1.04688 2.32812,1.04688 1.40625,0 2.32812,-1.0625 0.92188,-1.0625 0.92188,-3.23438 0,-2.04687 -0.9375,-3.10937 -0.92188,-1.0625 -2.3125,-1.0625 -1.40625,0 -2.32812,1.0625 -0.92188,1.04687 -0.92188,3.17187 z m 10.58044,5.53125 v -15.26562 h 1.875 v 15.26562 z m 12.36344,-3.5625 1.92187,0.23438 q -0.45312,1.70312 -1.6875,2.64062 -1.23437,0.9375 -3.17187,0.9375 -2.42188,0 -3.84375,-1.48437 -1.42188,-1.5 -1.42188,-4.20313 0,-2.79687 1.4375,-4.32812 1.4375,-1.54688 3.73438,-1.54688 2.21875,0 3.60937,1.51563 1.40625,1.5 1.40625,4.25 0,0.15625 0,0.5 h -8.25 q 0.10938,1.8125 1.03125,2.78125 0.92188,0.96875 2.3125,0.96875 1.03125,0 1.75,-0.53125 0.73438,-0.54688 1.17188,-1.73438 z m -6.15625,-3.03125 h 6.17187 q -0.125,-1.39062 -0.70312,-2.09375 -0.90625,-1.07812 -2.32813,-1.07812 -1.29687,0 -2.17187,0.85937 -0.875,0.85938 -0.96875,2.3125 z m 17.65857,2.54688 1.84375,0.23437 q -0.29688,1.90625 -1.54688,2.98438 -1.25,1.07812 -3.0625,1.07812 -2.26562,0 -3.65625,-1.48437 -1.375,-1.48438 -1.375,-4.25 0,-1.79688 0.59375,-3.14063 0.59375,-1.34375 1.8125,-2.01562 1.21875,-0.67188 2.64063,-0.67188 1.79687,0 2.9375,0.92188 1.15625,0.90625 1.48437,2.57812 l -1.82812,0.28125 q -0.26563,-1.10937 -0.92188,-1.67187 -0.65625,-0.5625 -1.59375,-0.5625 -1.42187,0 -2.3125,1.01562 -0.875,1.01563 -0.875,3.20313 0,2.23437 0.84375,3.25 0.85938,1 2.23438,1 1.10937,0 1.84375,-0.67188 0.73437,-0.67187 0.9375,-2.07812 z m 10.69531,4.04687 v -1.625 q -1.29687,1.875 -3.51562,1.875 -0.96875,0 -1.82813,-0.375 -0.84375,-0.375 -1.26562,-0.9375 -0.40625,-0.57812 -0.5625,-1.39062 -0.125,-0.5625 -0.125,-1.75 v -6.85938 h 1.875 v 6.14063 q 0,1.46875 0.125,1.96875 0.17187,0.75 0.73437,1.17187 0.57813,0.42188 1.42188,0.42188 0.84375,0 1.57812,-0.4375 0.75,-0.4375 1.04688,-1.17188 0.3125,-0.75 0.3125,-2.17187 v -5.92188 h 1.875 v 11.0625 z m 4.56482,0 v -15.26562 h 1.875 v 15.26562 z m 12.36343,-3.5625 1.92188,0.23438 q -0.45313,1.70312 -1.6875,2.64062 -1.23438,0.9375 -3.17188,0.9375 -2.42187,0 -3.84375,-1.48437 -1.42187,-1.5 -1.42187,-4.20313 0,-2.79687 1.4375,-4.32812 1.4375,-1.54688 3.73437,-1.54688 2.21875,0 3.60938,1.51563 1.40625,1.5 1.40625,4.25 0,0.15625 0,0.5 h -8.25 q 0.10937,1.8125 1.03125,2.78125 0.92187,0.96875 2.3125,0.96875 1.03125,0 1.75,-0.53125 0.73437,-0.54688 1.17187,-1.73438 z m -6.15625,-3.03125 h 6.17188 q -0.125,-1.39062 -0.70313,-2.09375 -0.90625,-1.07812 -2.32812,-1.07812 -1.29688,0 -2.17188,0.85937 -0.875,0.85938 -0.96875,2.3125 z m 16.81859,6.59375 v -9.60937 h -1.65625 v -1.45313 h 1.65625 v -1.17187 q 0,-1.10938 0.1875,-1.65625 0.28125,-0.73438 0.95313,-1.1875 0.6875,-0.45313 1.92187,-0.45313 0.78125,0 1.75,0.1875 l -0.28125,1.64063 q -0.59375,-0.10938 -1.10937,-0.10938 -0.85938,0 -1.21875,0.375 -0.34375,0.35938 -0.34375,1.35938 v 1.01562 h 2.15625 v 1.45313 h -2.15625 v 9.60937 z m 5.48815,-13.10937 v -2.15625 h 1.875 v 2.15625 z m 0,13.10937 v -11.0625 h 1.875 v 11.0625 z m 4.67593,0 v -15.26562 h 1.875 v 15.26562 z m 12.36343,-3.5625 1.92188,0.23438 q -0.45313,1.70312 -1.6875,2.64062 -1.23438,0.9375 -3.17188,0.9375 -2.42187,0 -3.84375,-1.48437 -1.42187,-1.5 -1.42187,-4.20313 0,-2.79687 1.4375,-4.32812 1.4375,-1.54688 3.73437,-1.54688 2.21875,0 3.60938,1.51563 1.40625,1.5 1.40625,4.25 0,0.15625 0,0.5 h -8.25 q 0.10937,1.8125 1.03125,2.78125 0.92187,0.96875 2.3125,0.96875 1.03125,0 1.75,-0.53125 0.73437,-0.54688 1.17187,-1.73438 z m -6.15625,-3.03125 h 6.17188 q -0.125,-1.39062 -0.70313,-2.09375 -0.90625,-1.07812 -2.32812,-1.07812 -1.29688,0 -2.17188,0.85937 -0.875,0.85938 -0.96875,2.3125 z"
       fill-rule="nonzero"
       id="path13" />
    <path
       fill="#ffffff"
       d="m 334.51463,53.631551 v 0 c 0,-27.83223 22.56247,-50.3947102 50.39471,-50.3947102 h 201.57271 v 0 c 13.3656,0 26.1837,5.3094202 35.6345,14.7602702 9.4509,9.45084 14.7603,22.26893 14.7603,35.63444 V 257.03109 c 0,27.83224 -22.5625,50.39471 -50.3948,50.39471 H 384.90934 c -27.83224,0 -50.39471,-22.56247 -50.39471,-50.39471 z"
       fill-rule="evenodd"
       id="path15" />
    <path
       stroke="#4070a0"
       stroke-width="4"
       stroke-linejoin="round"
       stroke-linecap="butt"
       d="m 334.51463,53.631551 v 0 c 0,-27.83223 22.56247,-50.3947102 50.39471,-50.3947102 h 201.57271 v 0 c 13.3656,0 26.1837,5.3094202 35.6345,14.7602702 9.4509,9.45084 14.7603,22.26893 14.7603,35.63444 V 257.03109 c 0,27.83224 -22.5625,50.39471 -50.3948,50.39471 H 384.90934 c -27.83224,0 -50.39471,-22.56247 -50.39471,-50.39471 z"
       fill-rule="evenodd"
       id="path17" />
    <path
       fill="#000000"
       d="m 448.48586,46.156941 v -15.20312 h 2.3125 v 2.29687 q 0.89062,-1.60937 1.64062,-2.125 0.75,-0.51562 1.65625,-0.51562 1.3125,0 2.65625,0.82812 l -0.89062,2.39063 q -0.95313,-0.5625 -1.89063,-0.5625 -0.84375,0 -1.51562,0.51562 -0.67188,0.5 -0.96875,1.40625 -0.42188,1.375 -0.42188,3 v 7.96875 z m 8.07901,0 5.54687,-7.90625 -5.14062,-7.29687 h 3.23437 l 2.32813,3.5625 q 0.65625,1.01562 1.0625,1.70312 0.625,-0.95312 1.15625,-1.67187 l 2.5625,-3.59375 h 3.07812 l -5.25,7.15625 5.65625,8.04687 h -3.17187 l -3.125,-4.71875 -0.82813,-1.28125 -3.98437,6 z m 16.38281,0 v -15.20312 h 2.3125 v 2.15625 q 1.67188,-2.5 4.84375,-2.5 1.375,0 2.53125,0.5 1.15625,0.48437 1.71875,1.29687 0.57813,0.79688 0.8125,1.89063 0.14063,0.71875 0.14063,2.51562 v 9.34375 h -2.57813 v -9.25 q 0,-1.57812 -0.3125,-2.35937 -0.29687,-0.78125 -1.0625,-1.23438 -0.76562,-0.46875 -1.79687,-0.46875 -1.64063,0 -2.84375,1.04688 -1.1875,1.03125 -1.1875,3.95312 v 8.3125 z m 16.92029,0 v -13.20312 h -2.28125 v -2 h 2.28125 v -1.625 q 0,-1.53125 0.28125,-2.28125 0.35937,-1 1.29687,-1.625 0.9375,-0.625 2.64063,-0.625 1.07812,0 2.40625,0.26562 l -0.39063,2.25 q -0.8125,-0.14062 -1.51562,-0.14062 -1.17188,0 -1.67188,0.5 -0.48437,0.5 -0.48437,1.875 v 1.40625 h 2.96875 v 2 h -2.96875 v 13.20312 z m 7.55453,-18.03125 v -2.96875 h 2.57813 v 2.96875 z m 0,18.03125 v -15.20312 h 2.57813 v 15.20312 z m 6.43766,0 v -21 h 2.57809 v 21 z m 16.98459,-4.89062 2.6562,0.32812 q -0.625,2.32813 -2.3281,3.625 -1.7031,1.28125 -4.3594,1.28125 -3.3281,0 -5.2813,-2.04687 -1.9531,-2.0625 -1.9531,-5.76563 0,-3.84375 1.9688,-5.95312 1.9844,-2.125 5.125,-2.125 3.0625,0 4.9844,2.07812 1.9375,2.0625 1.9375,5.84375 0,0.21875 -0.016,0.67188 h -11.3438 q 0.1406,2.51562 1.4219,3.84375 1.2812,1.32812 3.1719,1.32812 1.4218,0 2.4218,-0.73437 1,-0.75 1.5938,-2.375 z m -8.4688,-4.17188 h 8.5 q -0.1719,-1.92187 -0.9687,-2.875 -1.2344,-1.5 -3.2032,-1.5 -1.7656,0 -2.9843,1.1875 -1.2032,1.1875 -1.3438,3.1875 z"
       fill-rule="nonzero"
       id="path19" />
    <path
       fill="#000000"
       d="m 432.55276,73.476941 v -11.0625 h 1.6875 v 1.67188 q 0.64063,-1.17188 1.1875,-1.54688 0.54688,-0.375 1.20313,-0.375 0.95312,0 1.92187,0.60938 l -0.64062,1.73437 q -0.6875,-0.40625 -1.375,-0.40625 -0.60938,0 -1.10938,0.375 -0.48437,0.35938 -0.6875,1.01563 -0.3125,1 -0.3125,2.1875 v 5.79687 z m 14.6962,-3.5625 1.92187,0.23438 q -0.45312,1.70312 -1.6875,2.64062 -1.23437,0.9375 -3.17187,0.9375 -2.42188,0 -3.84375,-1.48437 -1.42188,-1.5 -1.42188,-4.20313 0,-2.79687 1.4375,-4.32812 1.4375,-1.54688 3.73438,-1.54688 2.21875,0 3.60937,1.51563 1.40625,1.5 1.40625,4.25 0,0.15625 0,0.5 h -8.25 q 0.10938,1.8125 1.03125,2.78125 0.92188,0.96875 2.3125,0.96875 1.03125,0 1.75,-0.53125 0.73438,-0.54688 1.17188,-1.73438 z m -6.15625,-3.03125 h 6.17187 q -0.125,-1.39062 -0.70312,-2.09375 -0.90625,-1.07812 -2.32813,-1.07812 -1.29687,0 -2.17187,0.85937 -0.875,0.85938 -0.96875,2.3125 z m 17.65857,5.23438 q -1.04688,0.875 -2.01563,1.25 -0.95312,0.35937 -2.0625,0.35937 -1.8125,0 -2.79687,-0.89062 -0.98438,-0.89063 -0.98438,-2.28125 0,-0.8125 0.375,-1.48438 0.375,-0.67187 0.96875,-1.07812 0.59375,-0.40625 1.34375,-0.60938 0.5625,-0.14062 1.67188,-0.28125 2.26562,-0.26562 3.34375,-0.64062 0.0156,-0.39063 0.0156,-0.5 0,-1.14063 -0.53125,-1.60938 -0.71875,-0.64062 -2.14062,-0.64062 -1.32813,0 -1.95313,0.46875 -0.625,0.46875 -0.9375,1.64062 l -1.82812,-0.25 q 0.25,-1.17187 0.8125,-1.89062 0.57812,-0.73438 1.65625,-1.125 1.09375,-0.39063 2.51562,-0.39063 1.42188,0 2.29688,0.34375 0.89062,0.32813 1.3125,0.82813 0.42187,0.5 0.57812,1.28125 0.0937,0.46875 0.0937,1.71875 v 2.5 q 0,2.625 0.125,3.3125 0.125,0.6875 0.46875,1.32812 h -1.95312 q -0.29688,-0.57812 -0.375,-1.35937 z m -0.15625,-4.1875 q -1.01563,0.40625 -3.0625,0.70312 -1.15625,0.17188 -1.64063,0.375 -0.46875,0.20313 -0.73437,0.60938 -0.26563,0.40625 -0.26563,0.89062 0,0.75 0.5625,1.25 0.57813,0.5 1.67188,0.5 1.07812,0 1.92187,-0.46875 0.84375,-0.48437 1.25,-1.29687 0.29688,-0.64063 0.29688,-1.875 z m 12.01794,1.5 1.84375,0.23437 q -0.29687,1.90625 -1.54687,2.98438 -1.25,1.07812 -3.0625,1.07812 -2.26563,0 -3.65625,-1.48437 -1.375,-1.48438 -1.375,-4.25 0,-1.79688 0.59375,-3.14063 0.59375,-1.34375 1.8125,-2.01562 1.21875,-0.67188 2.64062,-0.67188 1.79688,0 2.9375,0.92188 1.15625,0.90625 1.48438,2.57812 l -1.82813,0.28125 q -0.26562,-1.10937 -0.92187,-1.67187 -0.65625,-0.5625 -1.59375,-0.5625 -1.42188,0 -2.3125,1.01562 -0.875,1.01563 -0.875,3.20313 0,2.23437 0.84375,3.25 0.85937,1 2.23437,1 1.10938,0 1.84375,-0.67188 0.73438,-0.67187 0.9375,-2.07812 z m 7.53906,2.375 0.26563,1.65625 q -0.78125,0.15625 -1.40625,0.15625 -1.03125,0 -1.59375,-0.3125 -0.5625,-0.32813 -0.79688,-0.84375 -0.21875,-0.53125 -0.21875,-2.21875 v -6.375 h -1.375 v -1.45313 h 1.375 v -2.73437 l 1.85938,-1.125 v 3.85937 h 1.89062 v 1.45313 h -1.89062 v 6.46875 q 0,0.8125 0.0937,1.04687 0.10937,0.21875 0.32812,0.35938 0.23438,0.125 0.64063,0.125 0.3125,0 0.82812,-0.0625 z m 1.84751,-11.4375 v -2.15625 h 1.875 v 2.15625 z m 0,13.10937 v -11.0625 h 1.875 v 11.0625 z m 4.01968,-5.53125 q 0,-3.07812 1.71875,-4.54687 1.42188,-1.23438 3.46875,-1.23438 2.28125,0 3.71875,1.5 1.45313,1.48438 1.45313,4.125 0,2.14063 -0.64063,3.35938 -0.625,1.21875 -1.85937,1.90625 -1.21875,0.67187 -2.67188,0.67187 -2.3125,0 -3.75,-1.48437 -1.4375,-1.5 -1.4375,-4.29688 z m 1.9375,0 q 0,2.125 0.92188,3.1875 0.92187,1.04688 2.32812,1.04688 1.40625,0 2.32813,-1.0625 0.92187,-1.0625 0.92187,-3.23438 0,-2.04687 -0.9375,-3.10937 -0.92187,-1.0625 -2.3125,-1.0625 -1.40625,0 -2.32812,1.0625 -0.92188,1.04687 -0.92188,3.17187 z m 10.62732,5.53125 v -11.0625 h 1.6875 v 1.57813 q 1.21875,-1.82813 3.51563,-1.82813 1,0 1.84375,0.35938 0.84375,0.35937 1.25,0.95312 0.42187,0.57813 0.59375,1.375 0.0937,0.51563 0.0937,1.82813 v 6.79687 h -1.875 v -6.73437 q 0,-1.14063 -0.21875,-1.70313 -0.21875,-0.57812 -0.78125,-0.90625 -0.54688,-0.34375 -1.29688,-0.34375 -1.20312,0 -2.07812,0.76563 -0.85938,0.75 -0.85938,2.875 v 6.04687 z m 18.24051,0 v -9.60937 h -1.6563 v -1.45313 h 1.6563 v -1.17187 q 0,-1.10938 0.1875,-1.65625 0.2812,-0.73438 0.9531,-1.1875 0.6875,-0.45313 1.9219,-0.45313 0.7812,0 1.75,0.1875 l -0.2813,1.64063 q -0.5937,-0.10938 -1.1094,-0.10938 -0.8593,0 -1.2187,0.375 -0.3438,0.35938 -0.3438,1.35938 v 1.01562 h 2.1563 v 1.45313 h -2.1563 v 9.60937 z m 5.4881,-13.10937 v -2.15625 h 1.875 v 2.15625 z m 0,13.10937 v -11.0625 h 1.875 v 11.0625 z m 4.6759,0 v -15.26562 h 1.875 v 15.26562 z m 12.3635,-3.5625 1.9219,0.23438 q -0.4531,1.70312 -1.6875,2.64062 -1.2344,0.9375 -3.1719,0.9375 -2.4219,0 -3.8437,-1.48437 -1.4219,-1.5 -1.4219,-4.20313 0,-2.79687 1.4375,-4.32812 1.4375,-1.54688 3.7344,-1.54688 2.2187,0 3.6093,1.51563 1.4063,1.5 1.4063,4.25 0,0.15625 0,0.5 h -8.25 q 0.1094,1.8125 1.0312,2.78125 0.9219,0.96875 2.3125,0.96875 1.0313,0 1.75,-0.53125 0.7344,-0.54688 1.1719,-1.73438 z m -6.1562,-3.03125 h 6.1718 q -0.125,-1.39062 -0.7031,-2.09375 -0.9062,-1.07812 -2.3281,-1.07812 -1.2969,0 -2.1719,0.85937 -0.875,0.85938 -0.9687,2.3125 z"
       fill-rule="nonzero"
       id="path21" />
    <path
       fill="#ffffff"
       d="M 467.06581,94.715471 H 586.12095 V 203.59736 H 467.06581 Z"
       fill-rule="evenodd"
       id="path23" />
    <path
       stroke="#595959"
       stroke-width="1"
       stroke-linejoin="round"
       stroke-linecap="butt"
       d="M 467.06581,94.715471 H 586.12095 V 203.59736 H 467.06581 Z"
       fill-rule="evenodd"
       id="path25" />
    <path
       fill="#000000"
       d="m 485.19081,124.19547 v -7.51563 q 0,-0.48437 -0.0469,-0.79687 -0.0312,-0.3125 -0.10937,-0.48438 -0.0781,-0.1875 -0.20313,-0.26562 -0.10937,-0.0781 -0.28125,-0.0781 -0.21875,0 -0.39062,0.125 -0.17188,0.125 -0.375,0.40625 -0.20313,0.28125 -0.45313,0.75 -0.25,0.46875 -0.57812,1.14063 v 6.71875 h -1.65625 v -7.3125 q 0,-0.57813 -0.0469,-0.92188 -0.0312,-0.35937 -0.10937,-0.54687 -0.0781,-0.20313 -0.20313,-0.28125 -0.125,-0.0781 -0.29687,-0.0781 -0.1875,0 -0.35938,0.10938 -0.15625,0.10937 -0.35937,0.375 -0.20313,0.26562 -0.45313,0.73437 -0.25,0.46875 -0.59375,1.20313 v 6.71875 h -1.67187 V 113.7424 h 1.39062 l 0.0781,1.98438 q 0.26562,-0.59375 0.51562,-1 0.26563,-0.42188 0.53125,-0.67188 0.28125,-0.26562 0.57813,-0.375 0.3125,-0.125 0.6875,-0.125 0.84375,0 1.28125,0.54688 0.4375,0.54687 0.4375,1.70312 0.25,-0.53125 0.48437,-0.95312 0.25,-0.42188 0.51563,-0.70313 0.28125,-0.29687 0.60937,-0.4375 0.34375,-0.15625 0.78125,-0.15625 1.95313,0 1.95313,3.03125 v 7.60938 z m 13.36694,-5.3125 q 0,1.21875 -0.34375,2.23437 -0.34375,1.01563 -0.98437,1.75 -0.64063,0.71875 -1.57813,1.125 -0.92187,0.39063 -2.09375,0.39063 -1.125,0 -2.01562,-0.34375 -0.89063,-0.35938 -1.51563,-1.03125 -0.625,-0.67188 -0.95312,-1.67188 -0.32813,-1 -0.32813,-2.3125 0,-1.21875 0.34375,-2.21875 0.34375,-1 0.98438,-1.71875 0.65625,-0.73437 1.57812,-1.125 0.9375,-0.40625 2.10938,-0.40625 1.125,0 2.01562,0.34375 0.89063,0.34375 1.5,1.01563 0.625,0.67187 0.95313,1.67187 0.32812,1 0.32812,2.29688 z m -1.84375,0.0781 q 0,-0.96875 -0.21875,-1.6875 -0.21875,-0.71875 -0.60937,-1.20312 -0.39063,-0.48438 -0.96875,-0.73438 -0.5625,-0.25 -1.26563,-0.25 -0.8125,0 -1.39062,0.32813 -0.57813,0.3125 -0.95313,0.84375 -0.35937,0.53125 -0.53125,1.23437 -0.17187,0.70313 -0.17187,1.46875 0,0.96875 0.20312,1.70313 0.21875,0.73437 0.60938,1.21875 0.40625,0.48437 0.96875,0.73437 0.5625,0.23438 1.26562,0.23438 0.8125,0 1.39063,-0.3125 0.57812,-0.32813 0.95312,-0.85938 0.375,-0.53125 0.54688,-1.23437 0.17187,-0.70313 0.17187,-1.48438 z m 8.03879,-7.98437 h -3.09375 v -1.5 h 4.92191 v 13.20312 h 3.1093 v 1.51563 h -8.37496 v -1.51563 h 3.4375 z m 17.42946,0.1875 q -1.4219,-0.29688 -2.4531,-0.29688 -2.4375,0 -2.4375,2.5625 v 1.82813 h 4.5781 v 1.51562 h -4.5781 v 7.42188 h -1.8438 v -7.42188 h -3.375 v -1.51562 h 3.375 v -1.73438 q 0,-4.17187 4.3438,-4.17187 1.0937,0 2.3906,0.25 z m -10.9375,2.57812 z m 16.9607,1.5 h -3.0938 v -1.5 h 4.9219 v 8.9375 h 3.1094 v 1.51563 h -8.375 v -1.51563 h 3.4375 z m 0.625,-5.89062 q 0.3125,0 0.5625,0.10937 0.2656,0.10938 0.4531,0.3125 0.2031,0.20313 0.3125,0.45313 0.1094,0.25 0.1094,0.5625 0,0.28125 -0.1094,0.54687 -0.1094,0.26563 -0.3125,0.46875 -0.1875,0.1875 -0.4531,0.29688 -0.25,0.10937 -0.5625,0.10937 -0.2969,0 -0.5625,-0.10937 -0.25,-0.10938 -0.4532,-0.29688 -0.1875,-0.20312 -0.2968,-0.46875 -0.1094,-0.26562 -0.1094,-0.54687 0,-0.3125 0.1094,-0.5625 0.1093,-0.25 0.2968,-0.45313 0.2032,-0.20312 0.4532,-0.3125 0.2656,-0.10937 0.5625,-0.10937 z m 11.1012,1.625 h -3.0937 v -1.5 h 4.9219 v 13.20312 h 3.1093 v 1.51563 h -8.375 v -1.51563 h 3.4375 z m 16.992,7.4375 q 0,0.39062 -0.016,0.65625 0,0.25 -0.031,0.48437 h -7.3438 q 0,1.59375 0.8907,2.45313 0.9062,0.85937 2.5937,0.85937 0.4531,0 0.9063,-0.0312 0.4687,-0.0312 0.8906,-0.0937 0.4375,-0.0625 0.8281,-0.14062 0.3906,-0.0781 0.7188,-0.17188 v 1.48438 q -0.7344,0.20312 -1.6719,0.32812 -0.9375,0.14063 -1.9375,0.14063 -1.3438,0 -2.3125,-0.35938 -0.9688,-0.375 -1.5938,-1.0625 -0.6093,-0.6875 -0.9062,-1.6875 -0.2969,-1.01562 -0.2969,-2.28125 0,-1.10937 0.3125,-2.09375 0.3281,-0.98437 0.9375,-1.71875 0.6094,-0.75 1.4844,-1.1875 0.8906,-0.4375 2.0156,-0.4375 1.0938,0 1.9375,0.34375 0.8438,0.34375 1.4219,0.96875 0.5781,0.625 0.875,1.53125 0.2969,0.90625 0.2969,2.01563 z m -1.8906,-0.26563 q 0.031,-0.6875 -0.1407,-1.26562 -0.1562,-0.57813 -0.5156,-1 -0.3437,-0.42188 -0.8594,-0.65625 -0.5156,-0.23438 -1.2031,-0.23438 -0.5937,0 -1.0937,0.23438 -0.4844,0.23437 -0.8438,0.65625 -0.3437,0.40625 -0.5625,1 -0.2187,0.57812 -0.2812,1.26562 z"
       fill-rule="nonzero"
       id="path27" />
    <path
       fill="#ffffff"
       d="m 482.49888,148.57636 h 88.18897 v 42.01575 h -88.18897 z"
       fill-rule="evenodd"
       id="path29" />
    <path
       stroke="#595959"
       stroke-width="1"
       stroke-linejoin="round"
       stroke-linecap="butt"
       d="m 482.49888,148.57636 h 88.18897 v 42.01575 h -88.18897 z"
       fill-rule="evenodd"
       id="path31" />
    <path
       fill="#333333"
       d="m 515.14125,175.04324 q -1.4219,0.59375 -3,0.59375 -2.5156,0 -3.875,-1.5 -1.3437,-1.51563 -1.3437,-4.46875 0,-1.42188 0.3593,-2.57813 0.375,-1.15625 1.0625,-1.95312 0.7032,-0.8125 1.6875,-1.25 0.9844,-0.4375 2.2032,-0.4375 0.8281,0 1.5312,0.14062 0.7188,0.14063 1.375,0.42188 v 1.59375 q -0.6406,-0.34375 -1.3437,-0.53125 -0.6875,-0.1875 -1.5,-0.1875 -0.8438,0 -1.5313,0.3125 -0.6719,0.3125 -1.1562,0.90625 -0.4688,0.59375 -0.7188,1.46875 -0.25,0.85937 -0.25,1.95312 0,2.3125 0.9375,3.5 0.9375,1.17188 2.75,1.17188 0.7656,0 1.4688,-0.17188 0.7031,-0.1875 1.3437,-0.51562 z m 10.023,0.32812 q -0.5313,0.14063 -1.1094,0.1875 -0.5781,0.0625 -1.1719,0.0625 -1.7187,0 -2.5625,-0.78125 -0.8437,-0.78125 -0.8437,-2.39062 v -4.76563 h -2.5625 v -1.32812 h 2.5625 v -2.51563 l 1.5781,-0.40625 v 2.92188 h 4.1094 v 1.32812 h -4.1094 v 4.64063 q 0,0.98437 0.5156,1.46875 0.5313,0.48437 1.5469,0.48437 0.4375,0 0.9531,-0.0625 0.5313,-0.0625 1.0938,-0.21875 z m 8.7572,0.125 -0.031,-1.23437 q -0.75,0.75 -1.5156,1.07812 -0.7656,0.3125 -1.625,0.3125 -0.7813,0 -1.3438,-0.1875 -0.5468,-0.20312 -0.9062,-0.54687 -0.3594,-0.35938 -0.5313,-0.82813 -0.1562,-0.48437 -0.1562,-1.03125 0,-1.375 1.0156,-2.15625 1.0313,-0.78125 3.0313,-0.78125 h 1.8906 v -0.79687 q 0,-0.8125 -0.5156,-1.29688 -0.5156,-0.5 -1.5781,-0.5 -0.7813,0 -1.5313,0.1875 -0.75,0.17188 -1.5469,0.48438 v -1.4375 q 0.2969,-0.10938 0.6563,-0.20313 0.375,-0.10937 0.7812,-0.1875 0.4063,-0.0781 0.8594,-0.125 0.4531,-0.0625 0.9063,-0.0625 0.8281,0 1.4843,0.1875 0.6719,0.17188 1.125,0.54688 0.4688,0.375 0.7032,0.95312 0.25,0.5625 0.25,1.32813 v 6.29687 z m -0.1719,-4.15625 h -2.0156 q -0.5781,0 -1.0156,0.125 -0.4219,0.10938 -0.7031,0.32813 -0.2657,0.21875 -0.4063,0.53125 -0.125,0.29687 -0.125,0.67187 0,0.26563 0.078,0.51563 0.078,0.23437 0.2656,0.42187 0.1875,0.1875 0.4688,0.29688 0.2969,0.10937 0.7187,0.10937 0.5469,0 1.25,-0.32812 0.7032,-0.34375 1.4844,-1.0625 z m 12.3824,-0.57812 q 0,1.14062 -0.3281,2.04687 -0.3125,0.89063 -0.8907,1.51563 -0.5781,0.60937 -1.4062,0.95312 -0.8281,0.32813 -1.8594,0.32813 -0.8125,0 -1.6719,-0.15625 -0.8437,-0.15625 -1.6718,-0.48438 v -12.34375 h 1.5937 v 3.54688 l -0.078,1.6875 q 0.6875,-0.90625 1.4531,-1.28125 0.7813,-0.39063 1.6875,-0.39063 0.7813,0 1.375,0.32813 0.5938,0.32812 0.9844,0.9375 0.4063,0.59375 0.6094,1.4375 0.2031,0.82812 0.2031,1.875 z m -1.625,0.0625 q 0,-0.71875 -0.1094,-1.3125 -0.1094,-0.60938 -0.3437,-1.03125 -0.2188,-0.42188 -0.5782,-0.65625 -0.3437,-0.25 -0.8437,-0.25 -0.2969,0 -0.6094,0.0937 -0.3125,0.0937 -0.6406,0.32812 -0.3281,0.21875 -0.7031,0.59375 -0.3594,0.35938 -0.7813,0.90625 v 4.4375 q 0.4531,0.17188 0.9375,0.28125 0.4844,0.10938 0.9219,0.10938 0.5469,0 1.0469,-0.17188 0.5,-0.17187 0.875,-0.57812 0.375,-0.40625 0.5937,-1.07813 0.2344,-0.67187 0.2344,-1.67187 z"
       fill-rule="nonzero"
       id="path33" />
    <path
       fill="#ffffff"
       d="m 427.06581,134.71548 h 119.05514 v 108.8819 H 427.06581 Z"
       fill-rule="evenodd"
       id="path35" />
    <path
       stroke="#595959"
       stroke-width="1"
       stroke-linejoin="round"
       stroke-linecap="butt"
       d="m 427.06581,134.71548 h 119.05514 v 108.8819 H 427.06581 Z"
       fill-rule="evenodd"
       id="path37" />
    <path
       fill="#000000"
       d="m 445.19081,164.19547 v -7.51563 q 0,-0.48437 -0.0469,-0.79687 -0.0312,-0.3125 -0.10937,-0.48438 -0.0781,-0.1875 -0.20313,-0.26562 -0.10937,-0.0781 -0.28125,-0.0781 -0.21875,0 -0.39062,0.125 -0.17188,0.125 -0.375,0.40625 -0.20313,0.28125 -0.45313,0.75 -0.25,0.46875 -0.57812,1.14063 v 6.71875 h -1.65625 v -7.3125 q 0,-0.57813 -0.0469,-0.92188 -0.0312,-0.35937 -0.10937,-0.54687 -0.0781,-0.20313 -0.20313,-0.28125 -0.125,-0.0781 -0.29687,-0.0781 -0.1875,0 -0.35938,0.10938 -0.15625,0.10937 -0.35937,0.375 -0.20313,0.26562 -0.45313,0.73437 -0.25,0.46875 -0.59375,1.20313 v 6.71875 h -1.67187 V 153.7424 h 1.39062 l 0.0781,1.98438 q 0.26562,-0.59375 0.51562,-1 0.26563,-0.42188 0.53125,-0.67188 0.28125,-0.26562 0.57813,-0.375 0.3125,-0.125 0.6875,-0.125 0.84375,0 1.28125,0.54688 0.4375,0.54687 0.4375,1.70312 0.25,-0.53125 0.48437,-0.95312 0.25,-0.42188 0.51563,-0.70313 0.28125,-0.29687 0.60937,-0.4375 0.34375,-0.15625 0.78125,-0.15625 1.95313,0 1.95313,3.03125 v 7.60938 z m 13.36694,-5.3125 q 0,1.21875 -0.34375,2.23437 -0.34375,1.01563 -0.98437,1.75 -0.64063,0.71875 -1.57813,1.125 -0.92187,0.39063 -2.09375,0.39063 -1.125,0 -2.01562,-0.34375 -0.89063,-0.35938 -1.51563,-1.03125 -0.625,-0.67188 -0.95312,-1.67188 -0.32813,-1 -0.32813,-2.3125 0,-1.21875 0.34375,-2.21875 0.34375,-1 0.98438,-1.71875 0.65625,-0.73437 1.57812,-1.125 0.9375,-0.40625 2.10938,-0.40625 1.125,0 2.01562,0.34375 0.89063,0.34375 1.5,1.01563 0.625,0.67187 0.95313,1.67187 0.32812,1 0.32812,2.29688 z m -1.84375,0.0781 q 0,-0.96875 -0.21875,-1.6875 -0.21875,-0.71875 -0.60937,-1.20312 -0.39063,-0.48438 -0.96875,-0.73438 -0.5625,-0.25 -1.26563,-0.25 -0.8125,0 -1.39062,0.32813 -0.57813,0.3125 -0.95313,0.84375 -0.35937,0.53125 -0.53125,1.23437 -0.17187,0.70313 -0.17187,1.46875 0,0.96875 0.20312,1.70313 0.21875,0.73437 0.60938,1.21875 0.40625,0.48437 0.96875,0.73437 0.5625,0.23438 1.26562,0.23438 0.8125,0 1.39063,-0.3125 0.57812,-0.32813 0.95312,-0.85938 0.375,-0.53125 0.54688,-1.23437 0.17187,-0.70313 0.17187,-1.48438 z m 8.03879,-7.98437 h -3.09375 v -1.5 h 4.92188 v 13.20312 h 3.10937 v 1.51563 h -8.375 v -1.51563 h 3.4375 z m 17.42944,0.1875 q -1.42187,-0.29688 -2.45312,-0.29688 -2.4375,0 -2.4375,2.5625 v 1.82813 h 4.57812 v 1.51562 h -4.57812 v 7.42188 h -1.84375 v -7.42188 h -3.375 v -1.51562 h 3.375 v -1.73438 q 0,-4.17187 4.34375,-4.17187 1.09375,0 2.39062,0.25 z m -10.9375,2.57812 z m 16.96067,1.5 h -3.09375 v -1.5 h 4.92187 v 8.9375 h 3.10938 v 1.51563 h -8.375 v -1.51563 h 3.4375 z m 0.625,-5.89062 q 0.3125,0 0.5625,0.10937 0.26562,0.10938 0.45312,0.3125 0.20313,0.20313 0.3125,0.45313 0.10938,0.25 0.10938,0.5625 0,0.28125 -0.10938,0.54687 -0.10937,0.26563 -0.3125,0.46875 -0.1875,0.1875 -0.45312,0.29688 -0.25,0.10937 -0.5625,0.10937 -0.29688,0 -0.5625,-0.10937 -0.25,-0.10938 -0.45313,-0.29688 -0.1875,-0.20312 -0.29687,-0.46875 -0.10938,-0.26562 -0.10938,-0.54687 0,-0.3125 0.10938,-0.5625 0.10937,-0.25 0.29687,-0.45313 0.20313,-0.20312 0.45313,-0.3125 0.26562,-0.10937 0.5625,-0.10937 z m 11.10131,1.625 h -3.09375 v -1.5 h 4.92188 v 13.20312 h 3.10937 v 1.51563 h -8.375 v -1.51563 h 3.4375 z m 16.99194,7.4375 q 0,0.39062 -0.016,0.65625 0,0.25 -0.031,0.48437 h -7.3438 q 0,1.59375 0.8907,2.45313 0.9062,0.85937 2.5937,0.85937 0.4531,0 0.9063,-0.0312 0.4687,-0.0312 0.8906,-0.0937 0.4375,-0.0625 0.8281,-0.14062 0.3906,-0.0781 0.7188,-0.17188 v 1.48438 q -0.7344,0.20312 -1.6719,0.32812 -0.9375,0.14063 -1.9375,0.14063 -1.3438,0 -2.3125,-0.35938 -0.9688,-0.375 -1.5938,-1.0625 -0.6093,-0.6875 -0.9062,-1.6875 -0.2969,-1.01562 -0.2969,-2.28125 0,-1.10937 0.3125,-2.09375 0.3281,-0.98437 0.9375,-1.71875 0.6094,-0.75 1.4844,-1.1875 0.8906,-0.4375 2.0156,-0.4375 1.0938,0 1.9375,0.34375 0.8438,0.34375 1.4219,0.96875 0.5781,0.625 0.875,1.53125 0.2969,0.90625 0.2969,2.01563 z m -1.8907,-0.26563 q 0.031,-0.6875 -0.1406,-1.26562 -0.1562,-0.57813 -0.5156,-1 -0.3438,-0.42188 -0.8594,-0.65625 -0.5156,-0.23438 -1.2031,-0.23438 -0.5938,0 -1.0938,0.23438 -0.4843,0.23437 -0.8437,0.65625 -0.3438,0.40625 -0.5625,1 -0.2188,0.57812 -0.2813,1.26562 z"
       fill-rule="nonzero"
       id="path39" />
    <path
       fill="#ffffff"
       d="m 442.49888,188.57636 h 88.18897 v 42.01575 h -88.18897 z"
       fill-rule="evenodd"
       id="path41" />
    <path
       stroke="#595959"
       stroke-width="1"
       stroke-linejoin="round"
       stroke-linecap="butt"
       d="m 442.49888,188.57636 h 88.18897 v 42.01575 h -88.18897 z"
       fill-rule="evenodd"
       id="path43" />
    <path
       fill="#333333"
       d="m 475.14128,215.04324 q -1.42188,0.59375 -3,0.59375 -2.51563,0 -3.875,-1.5 -1.34375,-1.51563 -1.34375,-4.46875 0,-1.42188 0.35937,-2.57813 0.375,-1.15625 1.0625,-1.95312 0.70313,-0.8125 1.6875,-1.25 0.98438,-0.4375 2.20313,-0.4375 0.82812,0 1.53125,0.14062 0.71875,0.14063 1.375,0.42188 v 1.59375 q -0.64063,-0.34375 -1.34375,-0.53125 -0.6875,-0.1875 -1.5,-0.1875 -0.84375,0 -1.53125,0.3125 -0.67188,0.3125 -1.15625,0.90625 -0.46875,0.59375 -0.71875,1.46875 -0.25,0.85937 -0.25,1.95312 0,2.3125 0.9375,3.5 0.9375,1.17188 2.75,1.17188 0.76562,0 1.46875,-0.17188 0.70312,-0.1875 1.34375,-0.51562 z m 10.02292,0.32812 q -0.53125,0.14063 -1.10938,0.1875 -0.57812,0.0625 -1.17187,0.0625 -1.71875,0 -2.5625,-0.78125 -0.84375,-0.78125 -0.84375,-2.39062 v -4.76563 h -2.5625 v -1.32812 h 2.5625 v -2.51563 l 1.57812,-0.40625 v 2.92188 h 4.10938 v 1.32812 h -4.10938 v 4.64063 q 0,0.98437 0.51563,1.46875 0.53125,0.48437 1.54687,0.48437 0.4375,0 0.95313,-0.0625 0.53125,-0.0625 1.09375,-0.21875 z m 8.75729,0.125 -0.0312,-1.23437 q -0.75,0.75 -1.51562,1.07812 -0.76563,0.3125 -1.625,0.3125 -0.78125,0 -1.34375,-0.1875 -0.54688,-0.20312 -0.90625,-0.54687 -0.35938,-0.35938 -0.53125,-0.82813 -0.15625,-0.48437 -0.15625,-1.03125 0,-1.375 1.01562,-2.15625 1.03125,-0.78125 3.03125,-0.78125 h 1.89063 v -0.79687 q 0,-0.8125 -0.51563,-1.29688 -0.51562,-0.5 -1.57812,-0.5 -0.78125,0 -1.53125,0.1875 -0.75,0.17188 -1.54688,0.48438 v -1.4375 q 0.29688,-0.10938 0.65625,-0.20313 0.375,-0.10937 0.78125,-0.1875 0.40625,-0.0781 0.85938,-0.125 0.45312,-0.0625 0.90625,-0.0625 0.82812,0 1.48437,0.1875 0.67188,0.17188 1.125,0.54688 0.46875,0.375 0.70313,0.95312 0.25,0.5625 0.25,1.32813 v 6.29687 z m -0.17187,-4.15625 h -2.01563 q -0.57812,0 -1.01562,0.125 -0.42188,0.10938 -0.70313,0.32813 -0.26562,0.21875 -0.40625,0.53125 -0.125,0.29687 -0.125,0.67187 0,0.26563 0.0781,0.51563 0.0781,0.23437 0.26562,0.42187 0.1875,0.1875 0.46875,0.29688 0.29688,0.10937 0.71875,0.10937 0.54688,0 1.25,-0.32812 0.70313,-0.34375 1.48438,-1.0625 z m 12.38229,-0.57812 q 0,1.14062 -0.32812,2.04687 -0.3125,0.89063 -0.89063,1.51563 -0.57812,0.60937 -1.40625,0.95312 -0.82812,0.32813 -1.85937,0.32813 -0.8125,0 -1.67188,-0.15625 -0.84375,-0.15625 -1.67187,-0.48438 v -12.34375 h 1.59375 v 3.54688 l -0.0781,1.6875 q 0.6875,-0.90625 1.45313,-1.28125 0.78125,-0.39063 1.6875,-0.39063 0.78125,0 1.375,0.32813 0.59375,0.32812 0.98437,0.9375 0.40625,0.59375 0.60938,1.4375 0.20312,0.82812 0.20312,1.875 z m -1.625,0.0625 q 0,-0.71875 -0.10937,-1.3125 -0.10938,-0.60938 -0.34375,-1.03125 -0.21875,-0.42188 -0.57813,-0.65625 -0.34375,-0.25 -0.84375,-0.25 -0.29687,0 -0.60937,0.0937 -0.3125,0.0937 -0.64063,0.32812 -0.32812,0.21875 -0.70312,0.59375 -0.35938,0.35938 -0.78125,0.90625 v 4.4375 q 0.45312,0.17188 0.9375,0.28125 0.48437,0.10938 0.92187,0.10938 0.54688,0 1.04688,-0.17188 0.5,-0.17187 0.875,-0.57812 0.375,-0.40625 0.59375,-1.07813 0.23437,-0.67187 0.23437,-1.67187 z"
       fill-rule="nonzero"
       id="path45" />
    <path
       fill="#ffffff"
       d="m 387.06581,174.71548 h 119.05511 v 108.8819 H 387.06581 Z"
       fill-rule="evenodd"
       id="path47" />
    <path
       stroke="#595959"
       stroke-width="1"
       stroke-linejoin="round"
       stroke-linecap="butt"
       d="m 387.06581,174.71548 h 119.05511 v 108.8819 H 387.06581 Z"
       fill-rule="evenodd"
       id="path49" />
    <path
       fill="#000000"
       d="m 405.19081,204.19547 v -7.51563 q 0,-0.48437 -0.0469,-0.79687 -0.0312,-0.3125 -0.10937,-0.48438 -0.0781,-0.1875 -0.20313,-0.26562 -0.10937,-0.0781 -0.28125,-0.0781 -0.21875,0 -0.39062,0.125 -0.17188,0.125 -0.375,0.40625 -0.20313,0.28125 -0.45313,0.75 -0.25,0.46875 -0.57812,1.14063 v 6.71875 h -1.65625 v -7.3125 q 0,-0.57813 -0.0469,-0.92188 -0.0312,-0.35937 -0.10937,-0.54687 -0.0781,-0.20313 -0.20313,-0.28125 -0.125,-0.0781 -0.29687,-0.0781 -0.1875,0 -0.35938,0.10938 -0.15625,0.10937 -0.35937,0.375 -0.20313,0.26562 -0.45313,0.73437 -0.25,0.46875 -0.59375,1.20313 v 6.71875 h -1.67187 V 193.7424 h 1.39062 l 0.0781,1.98438 q 0.26562,-0.59375 0.51562,-1 0.26563,-0.42188 0.53125,-0.67188 0.28125,-0.26562 0.57813,-0.375 0.3125,-0.125 0.6875,-0.125 0.84375,0 1.28125,0.54688 0.4375,0.54687 0.4375,1.70312 0.25,-0.53125 0.48437,-0.95312 0.25,-0.42188 0.51563,-0.70313 0.28125,-0.29687 0.60937,-0.4375 0.34375,-0.15625 0.78125,-0.15625 1.95313,0 1.95313,3.03125 v 7.60938 z m 13.36694,-5.3125 q 0,1.21875 -0.34375,2.23437 -0.34375,1.01563 -0.98437,1.75 -0.64063,0.71875 -1.57813,1.125 -0.92187,0.39063 -2.09375,0.39063 -1.125,0 -2.01562,-0.34375 -0.89063,-0.35938 -1.51563,-1.03125 -0.625,-0.67188 -0.95312,-1.67188 -0.32813,-1 -0.32813,-2.3125 0,-1.21875 0.34375,-2.21875 0.34375,-1 0.98438,-1.71875 0.65625,-0.73437 1.57812,-1.125 0.9375,-0.40625 2.10938,-0.40625 1.125,0 2.01562,0.34375 0.89063,0.34375 1.5,1.01563 0.625,0.67187 0.95313,1.67187 0.32812,1 0.32812,2.29688 z m -1.84375,0.0781 q 0,-0.96875 -0.21875,-1.6875 -0.21875,-0.71875 -0.60937,-1.20312 -0.39063,-0.48438 -0.96875,-0.73438 -0.5625,-0.25 -1.26563,-0.25 -0.8125,0 -1.39062,0.32813 -0.57813,0.3125 -0.95313,0.84375 -0.35937,0.53125 -0.53125,1.23437 -0.17187,0.70313 -0.17187,1.46875 0,0.96875 0.20312,1.70313 0.21875,0.73437 0.60938,1.21875 0.40625,0.48437 0.96875,0.73437 0.5625,0.23438 1.26562,0.23438 0.8125,0 1.39063,-0.3125 0.57812,-0.32813 0.95312,-0.85938 0.375,-0.53125 0.54688,-1.23437 0.17187,-0.70313 0.17187,-1.48438 z m 8.03879,-7.98437 h -3.09375 v -1.5 h 4.92188 v 13.20312 h 3.10937 v 1.51563 h -8.375 v -1.51563 h 3.4375 z m 17.42944,0.1875 q -1.42187,-0.29688 -2.45312,-0.29688 -2.4375,0 -2.4375,2.5625 v 1.82813 h 4.57812 v 1.51562 h -4.57812 v 7.42188 h -1.84375 v -7.42188 h -3.375 v -1.51562 h 3.375 v -1.73438 q 0,-4.17187 4.34375,-4.17187 1.09375,0 2.39062,0.25 z m -10.9375,2.57812 z m 16.96067,1.5 h -3.09375 v -1.5 h 4.92187 v 8.9375 h 3.10938 v 1.51563 h -8.375 v -1.51563 h 3.4375 z m 0.625,-5.89062 q 0.3125,0 0.5625,0.10937 0.26562,0.10938 0.45312,0.3125 0.20313,0.20313 0.3125,0.45313 0.10938,0.25 0.10938,0.5625 0,0.28125 -0.10938,0.54687 -0.10937,0.26563 -0.3125,0.46875 -0.1875,0.1875 -0.45312,0.29688 -0.25,0.10937 -0.5625,0.10937 -0.29688,0 -0.5625,-0.10937 -0.25,-0.10938 -0.45313,-0.29688 -0.1875,-0.20312 -0.29687,-0.46875 -0.10938,-0.26562 -0.10938,-0.54687 0,-0.3125 0.10938,-0.5625 0.10937,-0.25 0.29687,-0.45313 0.20313,-0.20312 0.45313,-0.3125 0.26562,-0.10937 0.5625,-0.10937 z m 11.10131,1.625 h -3.09375 v -1.5 h 4.92188 v 13.20312 h 3.10937 v 1.51563 h -8.375 v -1.51563 h 3.4375 z m 16.99192,7.4375 q 0,0.39062 -0.0156,0.65625 0,0.25 -0.0312,0.48437 h -7.34375 q 0,1.59375 0.89063,2.45313 0.90625,0.85937 2.59375,0.85937 0.45312,0 0.90625,-0.0312 0.46875,-0.0312 0.89062,-0.0937 0.4375,-0.0625 0.82813,-0.14062 0.39062,-0.0781 0.71875,-0.17188 v 1.48438 q -0.73438,0.20312 -1.67188,0.32812 -0.9375,0.14063 -1.9375,0.14063 -1.34375,0 -2.3125,-0.35938 -0.96875,-0.375 -1.59375,-1.0625 -0.60937,-0.6875 -0.90625,-1.6875 -0.29687,-1.01562 -0.29687,-2.28125 0,-1.10937 0.3125,-2.09375 0.32812,-0.98437 0.9375,-1.71875 0.60937,-0.75 1.48437,-1.1875 0.89063,-0.4375 2.01563,-0.4375 1.09375,0 1.9375,0.34375 0.84375,0.34375 1.42187,0.96875 0.57813,0.625 0.875,1.53125 0.29688,0.90625 0.29688,2.01563 z m -1.89063,-0.26563 q 0.0312,-0.6875 -0.14062,-1.26562 -0.15625,-0.57813 -0.51563,-1 -0.34375,-0.42188 -0.85937,-0.65625 -0.51563,-0.23438 -1.20313,-0.23438 -0.59375,0 -1.09375,0.23438 -0.48437,0.23437 -0.84375,0.65625 -0.34375,0.40625 -0.5625,1 -0.21875,0.57812 -0.28125,1.26562 z"
       fill-rule="nonzero"
       id="path51" />
    <path
       fill="#ffffff"
       d="m 402.49888,228.57636 h 88.18896 v 42.01576 h -88.18896 z"
       fill-rule="evenodd"
       id="path53" />
    <path
       stroke="#595959"
       stroke-width="1"
       stroke-linejoin="round"
       stroke-linecap="butt"
       d="m 402.49888,228.57636 h 88.18896 v 42.01576 h -88.18896 z"
       fill-rule="evenodd"
       id="path55" />
    <path
       fill="#333333"
       d="m 433.50014,257.54073 q -1.625,0.6875 -3.42188,0.6875 -2.89062,0 -4.4375,-1.71875 -1.54687,-1.73438 -1.54687,-5.10938 0,-1.64062 0.42187,-2.95312 0.4375,-1.32813 1.21875,-2.25 0.79688,-0.92188 1.92188,-1.42188 1.125,-0.5 2.53125,-0.5 0.9375,0 1.75,0.17188 0.8125,0.15625 1.5625,0.48437 v 1.82813 q -0.73438,-0.40625 -1.53125,-0.60938 -0.78125,-0.21875 -1.71875,-0.21875 -0.96875,0 -1.75,0.35938 -0.76563,0.35937 -1.3125,1.04687 -0.53125,0.67188 -0.82813,1.65625 -0.29687,0.98438 -0.29687,2.23438 0,2.65625 1.07812,4 1.07813,1.34375 3.14063,1.34375 0.875,0 1.67187,-0.20313 0.8125,-0.20312 1.54688,-0.57812 z m 11.46069,0.375 q -0.60937,0.15625 -1.26562,0.21875 -0.65625,0.0625 -1.34375,0.0625 -1.96875,0 -2.9375,-0.89063 -0.96875,-0.89062 -0.96875,-2.73437 v -5.45313 h -2.92188 v -1.51562 h 2.92188 v -2.875 l 1.8125,-0.46875 v 3.34375 h 4.70312 v 1.51562 h -4.70312 v 5.3125 q 0,1.125 0.59375,1.6875 0.60937,0.54688 1.78125,0.54688 0.5,0 1.09375,-0.0781 0.59375,-0.0781 1.23437,-0.23437 z m 10.02317,0.14062 -0.0469,-1.40625 q -0.85937,0.84375 -1.73437,1.21875 -0.875,0.375 -1.84375,0.375 -0.90625,0 -1.54688,-0.21875 -0.625,-0.23437 -1.04687,-0.64062 -0.40625,-0.40625 -0.59375,-0.9375 -0.1875,-0.54688 -0.1875,-1.1875 0,-1.5625 1.17187,-2.45313 1.17188,-0.89062 3.45313,-0.89062 h 2.17187 v -0.92188 q 0,-0.92187 -0.59375,-1.48437 -0.59375,-0.5625 -1.8125,-0.5625 -0.89062,0 -1.75,0.20312 -0.85937,0.20313 -1.76562,0.5625 v -1.64062 q 0.34375,-0.125 0.76562,-0.23438 0.42188,-0.125 0.89063,-0.21875 0.46875,-0.0937 0.96875,-0.14062 0.51562,-0.0625 1.03125,-0.0625 0.95312,0 1.70312,0.20312 0.76563,0.20313 1.29688,0.64063 0.53125,0.42187 0.8125,1.07812 0.28125,0.64063 0.28125,1.51563 v 7.20312 z m -0.20313,-4.76562 H 452.484 q -0.6875,0 -1.17188,0.14062 -0.48437,0.14063 -0.79687,0.39063 -0.3125,0.25 -0.46875,0.59375 -0.15625,0.34375 -0.15625,0.78125 0,0.3125 0.0937,0.59375 0.0937,0.26562 0.29687,0.48437 0.21875,0.20313 0.54688,0.32813 0.34375,0.125 0.8125,0.125 0.625,0 1.4375,-0.375 0.8125,-0.375 1.70312,-1.20313 z m 14.14819,-0.65625 q 0,1.3125 -0.35937,2.34375 -0.35938,1.01562 -1.03125,1.73437 -0.65625,0.70313 -1.60938,1.09375 -0.9375,0.375 -2.125,0.375 -0.9375,0 -1.90625,-0.17187 -0.96875,-0.1875 -1.90625,-0.5625 V 243.3376 h 1.8125 v 4.04688 l -0.0937,1.9375 q 0.78125,-1.04688 1.67188,-1.46875 0.89062,-0.4375 1.92187,-0.4375 0.89063,0 1.5625,0.375 0.6875,0.375 1.14063,1.0625 0.45312,0.67187 0.6875,1.64062 0.23437,0.95313 0.23437,2.14063 z m -1.85937,0.0937 q 0,-0.82813 -0.125,-1.51563 -0.10938,-0.6875 -0.375,-1.17187 -0.26563,-0.5 -0.67188,-0.76563 -0.40625,-0.28125 -0.96875,-0.28125 -0.34375,0 -0.70312,0.10938 -0.34375,0.10937 -0.73438,0.375 -0.375,0.25 -0.79687,0.67187 -0.42188,0.42188 -0.89063,1.04688 v 5.0625 q 0.53125,0.21875 1.07813,0.34375 0.54687,0.10937 1.04687,0.10937 0.625,0 1.1875,-0.1875 0.57813,-0.20312 1,-0.67187 0.4375,-0.46875 0.6875,-1.23438 0.26563,-0.76562 0.26563,-1.89062 z"
       fill-rule="nonzero"
       id="path57" />
    <path
       fill="#ffffff"
       d="m 15.412271,374.90734 v 0 c 0,-27.83224 22.56248,-50.39471 50.39471,-50.39471 H 267.37976 v 0 c 13.36551,0 26.18359,5.30941 35.63443,14.76025 9.45084,9.45084 14.76029,22.26895 14.76029,35.63446 v 203.39957 c 0,27.83221 -22.5625,50.39469 -50.39472,50.39469 H 65.806981 c -27.83223,0 -50.39471,-22.56248 -50.39471,-50.39469 z"
       fill-rule="evenodd"
       id="path59" />
    <path
       stroke="#4070a0"
       stroke-width="4"
       stroke-linejoin="round"
       stroke-linecap="butt"
       d="m 15.412271,374.90734 v 0 c 0,-27.83224 22.56248,-50.39471 50.39471,-50.39471 H 267.37976 v 0 c 13.36551,0 26.18359,5.30941 35.63443,14.76025 9.45084,9.45084 14.76029,22.26895 14.76029,35.63446 v 203.39957 c 0,27.83221 -22.5625,50.39469 -50.39472,50.39469 H 65.806981 c -27.83223,0 -50.39471,-22.56248 -50.39471,-50.39469 z"
       fill-rule="evenodd"
       id="path61" />
    <path
       fill="#000000"
       d="m 128.78975,360.68273 2.625,-0.21875 q 0.1875,1.5625 0.85937,2.57812 0.6875,1.01563 2.10938,1.64063 1.4375,0.60937 3.23437,0.60937 1.59375,0 2.79688,-0.46875 1.21875,-0.46875 1.8125,-1.28125 0.59375,-0.82812 0.59375,-1.8125 0,-0.98437 -0.57813,-1.71875 -0.5625,-0.73437 -1.875,-1.23437 -0.84375,-0.34375 -3.73437,-1.03125 -2.89063,-0.6875 -4.0625,-1.3125 -1.5,-0.78125 -2.23438,-1.95313 -0.73437,-1.17187 -0.73437,-2.60937 0,-1.59375 0.89062,-2.96875 0.90625,-1.39063 2.64063,-2.10938 1.73437,-0.71875 3.85937,-0.71875 2.32813,0 4.10938,0.76563 1.78125,0.75 2.73437,2.21875 0.96875,1.45312 1.04688,3.29687 l -2.67188,0.20313 q -0.21875,-2 -1.45312,-3.01563 -1.23438,-1.01562 -3.65625,-1.01562 -2.51563,0 -3.67188,0.92187 -1.15625,0.92188 -1.15625,2.23438 0,1.125 0.8125,1.85937 0.8125,0.73438 4.1875,1.5 3.39063,0.76563 4.65625,1.32813 1.82813,0.85937 2.70313,2.15625 0.875,1.28125 0.875,2.98437 0,1.67188 -0.96875,3.15625 -0.95313,1.48438 -2.75,2.3125 -1.79688,0.8125 -4.04688,0.8125 -2.84375,0 -4.78125,-0.82812 -1.92187,-0.82813 -3.01562,-2.5 -1.09374,-1.67188 -1.15625,-3.78125 z m 20.51475,6.75 v -21 h 7.23438 q 2.43751,0 3.73439,0.3125 1.79687,0.40625 3.07812,1.5 1.65625,1.40625 2.48438,3.59375 0.82812,2.17187 0.82812,4.98437 0,2.39063 -0.5625,4.23438 -0.5625,1.84375 -1.4375,3.0625 -0.875,1.20312 -1.92187,1.90625 -1.03125,0.6875 -2.5,1.04687 -1.45313,0.35938 -3.35939,0.35938 z m 2.78125,-2.48438 h 4.46875 q 2.07814,0 3.26564,-0.375 1.1875,-0.39062 1.89063,-1.09375 0.98437,-0.98437 1.53125,-2.65625 0.54687,-1.67187 0.54687,-4.04687 0,-3.29688 -1.07812,-5.0625 -1.07813,-1.76563 -2.625,-2.375 -1.125,-0.42188 -3.59377,-0.42188 h -4.40625 z m 18.67986,2.48438 V 354.2296 h -2.28125 v -2 h 2.28125 v -1.625 q 0,-1.53125 0.28125,-2.28125 0.35937,-1 1.29687,-1.625 0.9375,-0.625 2.64063,-0.625 1.07812,0 2.40625,0.26563 l -0.39063,2.25 q -0.8125,-0.14063 -1.51562,-0.14063 -1.17188,0 -1.67188,0.5 -0.48437,0.5 -0.48437,1.875 v 1.40625 h 2.96875 v 2 h -2.96875 v 13.20313 z m 7.55453,-18.03125 v -2.96875 h 2.57813 v 2.96875 z m 0,18.03125 V 352.2296 h 2.57813 v 15.20313 z m 6.43766,0 v -21 h 2.57812 v 21 z m 16.98452,-4.89063 2.65625,0.32813 q -0.625,2.32812 -2.32812,3.625 -1.70313,1.28125 -4.35938,1.28125 -3.32812,0 -5.28125,-2.04688 -1.95312,-2.0625 -1.95312,-5.76562 0,-3.84375 1.96875,-5.95313 1.98437,-2.125 5.125,-2.125 3.0625,0 4.98437,2.07813 1.9375,2.0625 1.9375,5.84375 0,0.21875 -0.0156,0.67187 h -11.34375 q 0.14062,2.51563 1.42187,3.84375 1.28125,1.32813 3.17188,1.32813 1.42187,0 2.42187,-0.73438 1,-0.75 1.59375,-2.375 z m -8.46875,-4.17187 h 8.5 q -0.17187,-1.92188 -0.96875,-2.875 -1.23437,-1.5 -3.20312,-1.5 -1.76563,0 -2.98438,1.1875 -1.20312,1.1875 -1.34375,3.1875 z"
       fill-rule="nonzero"
       id="path63" />
    <path
       fill="#000000"
       d="m 84.863441,391.45586 1.85937,-0.29687 q 0.15625,1.10937 0.85938,1.70312 0.71875,0.59375 2,0.59375 1.29687,0 1.92187,-0.51562 0.625,-0.53125 0.625,-1.23438 0,-0.64062 -0.5625,-1 -0.375,-0.25 -1.90625,-0.64062 -2.0625,-0.51563 -2.85937,-0.89063 -0.79688,-0.39062 -1.21875,-1.0625 -0.40625,-0.67187 -0.40625,-1.48437 0,-0.73438 0.32812,-1.35938 0.34375,-0.64062 0.9375,-1.0625 0.4375,-0.3125 1.1875,-0.53125 0.75,-0.23437 1.625,-0.23437 1.29688,0 2.28125,0.375 0.98438,0.375 1.45313,1.01562 0.46875,0.64063 0.64062,1.71875 l -1.82812,0.25 q -0.125,-0.85937 -0.73438,-1.32812 -0.59375,-0.48438 -1.6875,-0.48438 -1.28125,0 -1.84375,0.42188 -0.54687,0.42187 -0.54687,1 0,0.35937 0.23437,0.65625 0.21875,0.29687 0.71875,0.5 0.28125,0.10937 1.65625,0.48437 1.98438,0.53125 2.76563,0.875 0.79687,0.32813 1.23437,0.98438 0.45313,0.64062 0.45313,1.59375 0,0.9375 -0.54688,1.76562 -0.54687,0.82813 -1.57812,1.28125 -1.03125,0.45313 -2.32813,0.45313 -2.15625,0 -3.29687,-0.89063 -1.125,-0.90625 -1.4375,-2.65625 z m 15.507809,1.625 0.26563,1.65625 q -0.78125,0.15625 -1.40625,0.15625 -1.03125,0 -1.593749,-0.3125 -0.5625,-0.32812 -0.79688,-0.84375 -0.21875,-0.53125 -0.21875,-2.21875 v -6.375 h -1.375 v -1.45312 h 1.375 v -2.73438 l 1.859379,-1.125 v 3.85938 h 1.89062 v 1.45312 h -1.89062 v 6.46875 q 0,0.8125 0.0937,1.04688 0.10937,0.21875 0.32812,0.35937 0.23438,0.125 0.64063,0.125 0.3125,0 0.82812,-0.0625 z m 1.81627,1.67188 v -11.0625 h 1.6875 v 1.67187 q 0.64063,-1.17187 1.1875,-1.54687 0.54688,-0.375 1.20313,-0.375 0.95312,0 1.92187,0.60937 l -0.64062,1.73438 q -0.6875,-0.40625 -1.375,-0.40625 -0.60938,0 -1.10938,0.375 -0.48437,0.35937 -0.6875,1.01562 -0.3125,1 -0.3125,2.1875 v 5.79688 z m 14.36806,0 v -1.625 q -1.29688,1.875 -3.51563,1.875 -0.96875,0 -1.82812,-0.375 -0.84375,-0.375 -1.26563,-0.9375 -0.40625,-0.57813 -0.5625,-1.39063 -0.125,-0.5625 -0.125,-1.75 v -6.85937 h 1.875 v 6.14062 q 0,1.46875 0.125,1.96875 0.17188,0.75 0.73438,1.17188 0.57812,0.42187 1.42187,0.42187 0.84375,0 1.57813,-0.4375 0.75,-0.4375 1.04687,-1.17187 0.3125,-0.75 0.3125,-2.17188 v -5.92187 h 1.875 v 11.0625 z m 11.83044,-4.04688 1.84374,0.23438 q -0.29687,1.90625 -1.54686,2.98437 -1.25,1.07813 -3.0625,1.07813 -2.26563,0 -3.65625,-1.48438 -1.375,-1.48437 -1.375,-4.25 0,-1.79687 0.59375,-3.14062 0.59375,-1.34375 1.8125,-2.01563 1.21875,-0.67187 2.64062,-0.67187 1.79688,0 2.9375,0.92187 1.15624,0.90625 1.48437,2.57813 l -1.82812,0.28125 q -0.26562,-1.10938 -0.92187,-1.67188 -0.65625,-0.5625 -1.59375,-0.5625 -1.42188,0 -2.3125,1.01563 -0.875,1.01562 -0.875,3.20312 0,2.23438 0.84375,3.25 0.85937,1 2.23437,1 1.10938,0 1.84375,-0.67187 0.73438,-0.67188 0.9375,-2.07813 z m 7.53906,2.375 0.26562,1.65625 q -0.78125,0.15625 -1.40625,0.15625 -1.03125,0 -1.59375,-0.3125 -0.5625,-0.32812 -0.79687,-0.84375 -0.21875,-0.53125 -0.21875,-2.21875 v -6.375 h -1.375 v -1.45312 h 1.375 v -2.73438 l 1.85937,-1.125 v 3.85938 h 1.89063 v 1.45312 h -1.89063 v 6.46875 q 0,0.8125 0.0937,1.04688 0.10938,0.21875 0.32813,0.35937 0.23437,0.125 0.64062,0.125 0.3125,0 0.82813,-0.0625 z m 9.08189,1.67188 v -1.625 q -1.29687,1.875 -3.51562,1.875 -0.96875,0 -1.82813,-0.375 -0.84375,-0.375 -1.26562,-0.9375 -0.40625,-0.57813 -0.5625,-1.39063 -0.125,-0.5625 -0.125,-1.75 v -6.85937 h 1.875 v 6.14062 q 0,1.46875 0.125,1.96875 0.17187,0.75 0.73437,1.17188 0.57813,0.42187 1.42188,0.42187 0.84375,0 1.57812,-0.4375 0.75,-0.4375 1.04688,-1.17187 0.3125,-0.75 0.3125,-2.17188 v -5.92187 h 1.875 v 11.0625 z m 4.59607,0 v -11.0625 h 1.6875 v 1.67187 q 0.64063,-1.17187 1.1875,-1.54687 0.54688,-0.375 1.20313,-0.375 0.95312,0 1.92187,0.60937 l -0.64062,1.73438 q -0.6875,-0.40625 -1.375,-0.40625 -0.60938,0 -1.10938,0.375 -0.48437,0.35937 -0.6875,1.01562 -0.3125,1 -0.3125,2.1875 v 5.79688 z m 14.6962,-3.5625 1.92187,0.23437 q -0.45312,1.70313 -1.6875,2.64063 -1.23437,0.9375 -3.17187,0.9375 -2.42188,0 -3.84377,-1.48438 -1.42187,-1.5 -1.42187,-4.20312 0,-2.79688 1.4375,-4.32813 1.43751,-1.54687 3.73439,-1.54687 2.21875,0 3.60937,1.51562 1.40625,1.5 1.40625,4.25 0,0.15625 0,0.5 h -8.25001 q 0.10937,1.8125 1.03126,2.78125 0.92188,0.96875 2.3125,0.96875 1.03125,0 1.75,-0.53125 0.73438,-0.54687 1.17188,-1.73437 z m -6.15627,-3.03125 h 6.17189 q -0.125,-1.39063 -0.70312,-2.09375 -0.90625,-1.07813 -2.32813,-1.07813 -1.29687,0 -2.17187,0.85938 -0.875,0.85937 -0.96877,2.3125 z m 9.70546,2.01562 v -1.89062 h 5.76563 v 1.89062 z m 15.00867,4.57813 v -1.39063 q -1.04688,1.64063 -3.09375,1.64063 -1.3125,0 -2.42188,-0.71875 -1.10937,-0.73438 -1.71875,-2.04688 -0.60937,-1.3125 -0.60937,-3 0,-1.65625 0.54687,-3 0.54688,-1.35937 1.65625,-2.07812 1.10938,-0.71875 2.46875,-0.71875 1,0 1.78125,0.42187 0.78125,0.42188 1.26563,1.09375 v -5.46875 h 1.875 v 15.26563 z m -5.92188,-5.51563 q 0,2.125 0.89063,3.17188 0.90625,1.04687 2.125,1.04687 1.21875,0 2.07812,-1 0.85938,-1 0.85938,-3.0625 0,-2.28125 -0.875,-3.34375 -0.875,-1.0625 -2.15625,-1.0625 -1.25,0 -2.09375,1.03125 -0.82813,1.01563 -0.82813,3.21875 z m 17.83045,4.15625 q -1.04688,0.875 -2.01563,1.25 -0.95312,0.35938 -2.0625,0.35938 -1.8125,0 -2.79687,-0.89063 -0.98438,-0.89062 -0.98438,-2.28125 0,-0.8125 0.375,-1.48437 0.375,-0.67188 0.96875,-1.07813 0.59375,-0.40625 1.34375,-0.60937 0.5625,-0.14063 1.67188,-0.28125 2.26562,-0.26563 3.34375,-0.64063 0.0156,-0.39062 0.0156,-0.5 0,-1.14062 -0.53125,-1.60937 -0.71875,-0.64063 -2.14062,-0.64063 -1.32813,0 -1.95313,0.46875 -0.625,0.46875 -0.9375,1.64063 l -1.82812,-0.25 q 0.25,-1.17188 0.8125,-1.89063 0.57812,-0.73437 1.65625,-1.125 1.09375,-0.39062 2.51562,-0.39062 1.42188,0 2.29688,0.34375 0.89062,0.32812 1.3125,0.82812 0.42187,0.5 0.57812,1.28125 0.0937,0.46875 0.0937,1.71875 v 2.5 q 0,2.625 0.125,3.3125 0.125,0.6875 0.46875,1.32813 h -1.95312 q -0.29688,-0.57813 -0.375,-1.35938 z m -0.15625,-4.1875 q -1.01563,0.40625 -3.0625,0.70313 -1.15625,0.17187 -1.64063,0.375 -0.46875,0.20312 -0.73437,0.60937 -0.26563,0.40625 -0.26563,0.89063 0,0.75 0.5625,1.25 0.57813,0.5 1.67188,0.5 1.07812,0 1.92187,-0.46875 0.84375,-0.48438 1.25,-1.29688 0.29688,-0.64062 0.29688,-1.875 z m 8.89294,3.875 0.26563,1.65625 q -0.78125,0.15625 -1.40625,0.15625 -1.03125,0 -1.59375,-0.3125 -0.5625,-0.32812 -0.79688,-0.84375 -0.21875,-0.53125 -0.21875,-2.21875 v -6.375 h -1.375 v -1.45312 h 1.375 v -2.73438 l 1.85938,-1.125 v 3.85938 h 1.89062 v 1.45312 h -1.89062 v 6.46875 q 0,0.8125 0.0937,1.04688 0.10937,0.21875 0.32812,0.35937 0.23438,0.125 0.64063,0.125 0.3125,0 0.82812,-0.0625 z m 9.05066,0.3125 q -1.04687,0.875 -2.01562,1.25 -0.95313,0.35938 -2.0625,0.35938 -1.8125,0 -2.79688,-0.89063 -0.98437,-0.89062 -0.98437,-2.28125 0,-0.8125 0.375,-1.48437 0.375,-0.67188 0.96875,-1.07813 0.59375,-0.40625 1.34375,-0.60937 0.5625,-0.14063 1.67187,-0.28125 2.26563,-0.26563 3.34375,-0.64063 0.0156,-0.39062 0.0156,-0.5 0,-1.14062 -0.53125,-1.60937 -0.71875,-0.64063 -2.14063,-0.64063 -1.32812,0 -1.95312,0.46875 -0.625,0.46875 -0.9375,1.64063 l -1.82813,-0.25 q 0.25,-1.17188 0.8125,-1.89063 0.57813,-0.73437 1.65625,-1.125 1.09375,-0.39062 2.51563,-0.39062 1.42187,0 2.29687,0.34375 0.89063,0.32812 1.3125,0.82812 0.42188,0.5 0.57813,1.28125 0.0937,0.46875 0.0937,1.71875 v 2.5 q 0,2.625 0.125,3.3125 0.125,0.6875 0.46875,1.32813 h -1.95313 q -0.29687,-0.57813 -0.375,-1.35938 z m -0.15625,-4.1875 q -1.01562,0.40625 -3.0625,0.70313 -1.15625,0.17187 -1.64062,0.375 -0.46875,0.20312 -0.73438,0.60937 -0.26562,0.40625 -0.26562,0.89063 0,0.75 0.5625,1.25 0.57812,0.5 1.67187,0.5 1.07813,0 1.92188,-0.46875 0.84375,-0.48438 1.25,-1.29688 0.29687,-0.64062 0.29687,-1.875 z m 11.17795,5.54688 v -9.60938 h -1.65625 v -1.45312 h 1.65625 v -1.17188 q 0,-1.10937 0.1875,-1.65625 0.28125,-0.73437 0.95312,-1.1875 0.6875,-0.45312 1.92188,-0.45312 0.78125,0 1.75,0.1875 l -0.28125,1.64062 q -0.59375,-0.10937 -1.10938,-0.10937 -0.85937,0 -1.21875,0.375 -0.34375,0.35937 -0.34375,1.35937 v 1.01563 h 2.15625 v 1.45312 h -2.15625 v 9.60938 z m 5.48816,-13.10938 v -2.15625 h 1.875 v 2.15625 z m 0,13.10938 v -11.0625 h 1.875 v 11.0625 z m 4.67593,0 v -15.26563 h 1.875 v 15.26563 z m 12.36344,-3.5625 1.92187,0.23437 q -0.45312,1.70313 -1.6875,2.64063 -1.23437,0.9375 -3.17187,0.9375 -2.42188,0 -3.84375,-1.48438 -1.42188,-1.5 -1.42188,-4.20312 0,-2.79688 1.4375,-4.32813 1.4375,-1.54687 3.73438,-1.54687 2.21875,0 3.60937,1.51562 1.40625,1.5 1.40625,4.25 0,0.15625 0,0.5 h -8.25 q 0.10938,1.8125 1.03125,2.78125 0.92188,0.96875 2.3125,0.96875 1.03125,0 1.75,-0.53125 0.73438,-0.54687 1.17188,-1.73437 z m -6.15625,-3.03125 h 6.17187 q -0.125,-1.39063 -0.70312,-2.09375 -0.90625,-1.07813 -2.32813,-1.07813 -1.29687,0 -2.17187,0.85938 -0.875,0.85937 -0.96875,2.3125 z"
       fill-rule="nonzero"
       id="path65" />
    <path
       fill="#ffffff"
       d="m 334.51463,374.90734 v 0 c 0,-27.83224 22.56247,-50.39471 50.39471,-50.39471 h 201.57271 v 0 c 13.3656,0 26.1837,5.30941 35.6345,14.76025 9.4509,9.45084 14.7603,22.26895 14.7603,35.63446 v 203.39957 c 0,27.83221 -22.5625,50.39469 -50.3948,50.39469 H 384.90934 c -27.83224,0 -50.39471,-22.56248 -50.39471,-50.39469 z"
       fill-rule="evenodd"
       id="path67" />
    <path
       stroke="#4070a0"
       stroke-width="4"
       stroke-linejoin="round"
       stroke-linecap="butt"
       d="m 334.51463,374.90734 v 0 c 0,-27.83224 22.56247,-50.39471 50.39471,-50.39471 h 201.57271 v 0 c 13.3656,0 26.1837,5.30941 35.6345,14.76025 9.4509,9.45084 14.7603,22.26895 14.7603,35.63446 v 203.39957 c 0,27.83221 -22.5625,50.39469 -50.3948,50.39469 H 384.90934 c -27.83224,0 -50.39471,-22.56248 -50.39471,-50.39469 z"
       fill-rule="evenodd"
       id="path69" />
    <path
       fill="#000000"
       d="m 448.08302,367.43273 v -21 h 9.29688 q 2.8125,0 4.26562,0.57812 1.46875,0.5625 2.34375,2 0.875,1.42188 0.875,3.15625 0,2.23438 -1.45312,3.76563 -1.4375,1.53125 -4.46875,1.95312 1.10937,0.53125 1.67187,1.04688 1.21875,1.10937 2.3125,2.78125 l 3.65625,5.71875 h -3.5 l -2.78125,-4.375 q -1.21875,-1.89063 -2,-2.89063 -0.78125,-1 -1.40625,-1.39062 -0.625,-0.40625 -1.26562,-0.5625 -0.48438,-0.10938 -1.54688,-0.10938 h -3.23437 v 9.32813 z m 2.76563,-11.73438 h 5.98437 q 1.89063,0 2.96875,-0.39062 1.07813,-0.39063 1.625,-1.25 0.5625,-0.875 0.5625,-1.89063 0,-1.48437 -1.07812,-2.4375 -1.07813,-0.96875 -3.40625,-0.96875 h -6.65625 z m 18.36734,11.73438 v -21 h 7.23437 q 2.4375,0 3.73438,0.3125 1.79687,0.40625 3.07812,1.5 1.65625,1.40625 2.48438,3.59375 0.82812,2.17187 0.82812,4.98437 0,2.39063 -0.5625,4.23438 -0.5625,1.84375 -1.4375,3.0625 -0.875,1.20312 -1.92187,1.90625 -1.03125,0.6875 -2.5,1.04687 -1.45313,0.35938 -3.35938,0.35938 z m 2.78125,-2.48438 h 4.46875 q 2.07812,0 3.26562,-0.375 1.1875,-0.39062 1.89063,-1.09375 0.98437,-0.98437 1.53125,-2.65625 0.54687,-1.67187 0.54687,-4.04687 0,-3.29688 -1.07812,-5.0625 -1.07813,-1.76563 -2.625,-2.375 -1.125,-0.42188 -3.59375,-0.42188 h -4.40625 z m 18.67984,2.48438 V 354.2296 h -2.28125 v -2 h 2.28125 v -1.625 q 0,-1.53125 0.28125,-2.28125 0.35937,-1 1.29687,-1.625 0.9375,-0.625 2.64063,-0.625 1.07812,0 2.40625,0.26563 l -0.39063,2.25 q -0.8125,-0.14063 -1.51562,-0.14063 -1.17188,0 -1.67188,0.5 -0.48437,0.5 -0.48437,1.875 v 1.40625 h 2.96875 v 2 h -2.96875 v 13.20313 z m 7.55453,-18.03125 v -2.96875 h 2.57813 v 2.96875 z m 0,18.03125 V 352.2296 h 2.57813 v 15.20313 z m 6.43765,0 v -21 h 2.57809 v 21 z m 16.98449,-4.89063 2.6563,0.32813 q -0.625,2.32812 -2.3281,3.625 -1.7032,1.28125 -4.3594,1.28125 -3.3281,0 -5.2813,-2.04688 -1.9531,-2.0625 -1.9531,-5.76562 0,-3.84375 1.9688,-5.95313 1.9843,-2.125 5.125,-2.125 3.0625,0 4.9843,2.07813 1.9375,2.0625 1.9375,5.84375 0,0.21875 -0.016,0.67187 h -11.3437 q 0.1406,2.51563 1.4219,3.84375 1.2812,1.32813 3.1718,1.32813 1.4219,0 2.4219,-0.73438 1,-0.75 1.5938,-2.375 z m -8.4687,-4.17187 h 8.5 q -0.1719,-1.92188 -0.9688,-2.875 -1.2343,-1.5 -3.2031,-1.5 -1.7656,0 -2.9844,1.1875 -1.2031,1.1875 -1.3437,3.1875 z"
       fill-rule="nonzero"
       id="path71" />
    <path
       fill="#000000"
       d="m 408.24616,394.75274 v -11.0625 h 1.6875 v 1.67187 q 0.64063,-1.17187 1.1875,-1.54687 0.54688,-0.375 1.20313,-0.375 0.95312,0 1.92187,0.60937 l -0.64062,1.73438 q -0.6875,-0.40625 -1.375,-0.40625 -0.60938,0 -1.10938,0.375 -0.48437,0.35937 -0.6875,1.01562 -0.3125,1 -0.3125,2.1875 v 5.79688 z m 14.6962,-3.5625 1.92187,0.23437 q -0.45312,1.70313 -1.6875,2.64063 -1.23437,0.9375 -3.17187,0.9375 -2.42188,0 -3.84375,-1.48438 -1.42188,-1.5 -1.42188,-4.20312 0,-2.79688 1.4375,-4.32813 1.4375,-1.54687 3.73438,-1.54687 2.21875,0 3.60937,1.51562 1.40625,1.5 1.40625,4.25 0,0.15625 0,0.5 h -8.25 q 0.10938,1.8125 1.03125,2.78125 0.92188,0.96875 2.3125,0.96875 1.03125,0 1.75,-0.53125 0.73438,-0.54687 1.17188,-1.73437 z m -6.15625,-3.03125 h 6.17187 q -0.125,-1.39063 -0.70312,-2.09375 -0.90625,-1.07813 -2.32813,-1.07813 -1.29687,0 -2.17187,0.85938 -0.875,0.85937 -0.96875,2.3125 z m 17.65857,5.23437 q -1.04688,0.875 -2.01563,1.25 -0.95312,0.35938 -2.0625,0.35938 -1.8125,0 -2.79687,-0.89063 -0.98438,-0.89062 -0.98438,-2.28125 0,-0.8125 0.375,-1.48437 0.375,-0.67188 0.96875,-1.07813 0.59375,-0.40625 1.34375,-0.60937 0.5625,-0.14063 1.67188,-0.28125 2.26562,-0.26563 3.34375,-0.64063 0.0156,-0.39062 0.0156,-0.5 0,-1.14062 -0.53125,-1.60937 -0.71875,-0.64063 -2.14062,-0.64063 -1.32813,0 -1.95313,0.46875 -0.625,0.46875 -0.9375,1.64063 l -1.82812,-0.25 q 0.25,-1.17188 0.8125,-1.89063 0.57812,-0.73437 1.65625,-1.125 1.09375,-0.39062 2.51562,-0.39062 1.42188,0 2.29688,0.34375 0.89062,0.32812 1.3125,0.82812 0.42187,0.5 0.57812,1.28125 0.0937,0.46875 0.0937,1.71875 v 2.5 q 0,2.625 0.125,3.3125 0.125,0.6875 0.46875,1.32813 h -1.95312 q -0.29688,-0.57813 -0.375,-1.35938 z m -0.15625,-4.1875 q -1.01563,0.40625 -3.0625,0.70313 -1.15625,0.17187 -1.64063,0.375 -0.46875,0.20312 -0.73437,0.60937 -0.26563,0.40625 -0.26563,0.89063 0,0.75 0.5625,1.25 0.57813,0.5 1.67188,0.5 1.07812,0 1.92187,-0.46875 0.84375,-0.48438 1.25,-1.29688 0.29688,-0.64062 0.29688,-1.875 z m 12.01794,1.5 1.84375,0.23438 q -0.29687,1.90625 -1.54687,2.98437 -1.25,1.07813 -3.0625,1.07813 -2.26563,0 -3.65625,-1.48438 -1.375,-1.48437 -1.375,-4.25 0,-1.79687 0.59375,-3.14062 0.59375,-1.34375 1.8125,-2.01563 1.21875,-0.67187 2.64062,-0.67187 1.79688,0 2.9375,0.92187 1.15625,0.90625 1.48438,2.57813 l -1.82813,0.28125 q -0.26562,-1.10938 -0.92187,-1.67188 -0.65625,-0.5625 -1.59375,-0.5625 -1.42188,0 -2.3125,1.01563 -0.875,1.01562 -0.875,3.20312 0,2.23438 0.84375,3.25 0.85937,1 2.23437,1 1.10938,0 1.84375,-0.67187 0.73438,-0.67188 0.9375,-2.07813 z m 7.53906,2.375 0.26563,1.65625 q -0.78125,0.15625 -1.40625,0.15625 -1.03125,0 -1.59375,-0.3125 -0.5625,-0.32812 -0.79688,-0.84375 -0.21875,-0.53125 -0.21875,-2.21875 v -6.375 h -1.375 v -1.45312 h 1.375 v -2.73438 l 1.85938,-1.125 v 3.85938 h 1.89062 v 1.45312 h -1.89062 v 6.46875 q 0,0.8125 0.0937,1.04688 0.10937,0.21875 0.32812,0.35937 0.23438,0.125 0.64063,0.125 0.3125,0 0.82812,-0.0625 z m 1.84751,-11.4375 v -2.15625 h 1.875 v 2.15625 z m 0,13.10938 v -11.0625 h 1.875 v 11.0625 z m 4.01968,-5.53125 q 0,-3.07813 1.71875,-4.54688 1.42188,-1.23437 3.46875,-1.23437 2.28125,0 3.71875,1.5 1.45313,1.48437 1.45313,4.125 0,2.14062 -0.64063,3.35937 -0.625,1.21875 -1.85937,1.90625 -1.21875,0.67188 -2.67188,0.67188 -2.3125,0 -3.75,-1.48438 -1.4375,-1.5 -1.4375,-4.29687 z m 1.9375,0 q 0,2.125 0.92188,3.1875 0.92187,1.04687 2.32812,1.04687 1.40625,0 2.32813,-1.0625 0.92187,-1.0625 0.92187,-3.23437 0,-2.04688 -0.9375,-3.10938 -0.92187,-1.0625 -2.3125,-1.0625 -1.40625,0 -2.32812,1.0625 -0.92188,1.04688 -0.92188,3.17188 z m 10.62732,5.53125 v -11.0625 h 1.6875 v 1.57812 q 1.21875,-1.82812 3.51563,-1.82812 1,0 1.84375,0.35937 0.84375,0.35938 1.25,0.95313 0.42187,0.57812 0.59375,1.375 0.0937,0.51562 0.0937,1.82812 v 6.79688 h -1.875 v -6.73438 q 0,-1.14062 -0.21875,-1.70312 -0.21875,-0.57813 -0.78125,-0.90625 -0.54688,-0.34375 -1.29688,-0.34375 -1.20312,0 -2.07812,0.76562 -0.85938,0.75 -0.85938,2.875 v 6.04688 z m 11.12732,-4.57813 v -1.89062 h 5.76562 v 1.89062 z m 15.0087,4.57813 v -1.39063 q -1.04688,1.64063 -3.09375,1.64063 -1.3125,0 -2.42188,-0.71875 -1.10937,-0.73438 -1.71875,-2.04688 -0.60937,-1.3125 -0.60937,-3 0,-1.65625 0.54687,-3 0.54688,-1.35937 1.65625,-2.07812 1.10938,-0.71875 2.46875,-0.71875 1,0 1.78125,0.42187 0.78125,0.42188 1.26563,1.09375 v -5.46875 h 1.875 v 15.26563 z m -5.92188,-5.51563 q 0,2.125 0.89063,3.17188 0.90625,1.04687 2.125,1.04687 1.21875,0 2.07812,-1 0.85938,-1 0.85938,-3.0625 0,-2.28125 -0.875,-3.34375 -0.875,-1.0625 -2.15625,-1.0625 -1.25,0 -2.09375,1.03125 -0.82813,1.01563 -0.82813,3.21875 z m 17.83047,4.15625 q -1.0469,0.875 -2.0157,1.25 -0.9531,0.35938 -2.06245,0.35938 -1.8125,0 -2.79687,-0.89063 -0.98438,-0.89062 -0.98438,-2.28125 0,-0.8125 0.375,-1.48437 0.375,-0.67188 0.96875,-1.07813 0.59375,-0.40625 1.34375,-0.60937 0.5625,-0.14063 1.6719,-0.28125 2.2656,-0.26563 3.3437,-0.64063 0.016,-0.39062 0.016,-0.5 0,-1.14062 -0.5312,-1.60937 -0.7188,-0.64063 -2.1406,-0.64063 -1.32817,0 -1.95317,0.46875 -0.625,0.46875 -0.9375,1.64063 l -1.82812,-0.25 q 0.25,-1.17188 0.8125,-1.89063 0.57812,-0.73437 1.65625,-1.125 1.09375,-0.39062 2.51564,-0.39062 1.4219,0 2.2969,0.34375 0.8906,0.32812 1.3125,0.82812 0.4218,0.5 0.5781,1.28125 0.094,0.46875 0.094,1.71875 v 2.5 q 0,2.625 0.125,3.3125 0.125,0.6875 0.4687,1.32813 h -1.9531 q -0.2969,-0.57813 -0.375,-1.35938 z m -0.1563,-4.1875 q -1.0156,0.40625 -3.0625,0.70313 -1.15622,0.17187 -1.6406,0.375 -0.46875,0.20312 -0.73437,0.60937 -0.26563,0.40625 -0.26563,0.89063 0,0.75 0.5625,1.25 0.57813,0.5 1.6719,0.5 1.0781,0 1.9218,-0.46875 0.8438,-0.48438 1.25,-1.29688 0.2969,-0.64062 0.2969,-1.875 z m 8.893,3.875 0.2656,1.65625 q -0.7812,0.15625 -1.4062,0.15625 -1.0313,0 -1.5938,-0.3125 -0.5625,-0.32812 -0.7969,-0.84375 -0.2187,-0.53125 -0.2187,-2.21875 v -6.375 h -1.375 v -1.45312 h 1.375 v -2.73438 l 1.8594,-1.125 v 3.85938 h 1.8906 v 1.45312 h -1.8906 v 6.46875 q 0,0.8125 0.094,1.04688 0.1094,0.21875 0.3281,0.35937 0.2344,0.125 0.6406,0.125 0.3125,0 0.8282,-0.0625 z m 9.0506,0.3125 q -1.0469,0.875 -2.0156,1.25 -0.9532,0.35938 -2.0625,0.35938 -1.8125,0 -2.7969,-0.89063 -0.9844,-0.89062 -0.9844,-2.28125 0,-0.8125 0.375,-1.48437 0.375,-0.67188 0.9688,-1.07813 0.5937,-0.40625 1.3437,-0.60937 0.5625,-0.14063 1.6719,-0.28125 2.2656,-0.26563 3.3437,-0.64063 0.016,-0.39062 0.016,-0.5 0,-1.14062 -0.5312,-1.60937 -0.7188,-0.64063 -2.1406,-0.64063 -1.3282,0 -1.9532,0.46875 -0.625,0.46875 -0.9375,1.64063 l -1.8281,-0.25 q 0.25,-1.17188 0.8125,-1.89063 0.5781,-0.73437 1.6563,-1.125 1.0937,-0.39062 2.5156,-0.39062 1.4219,0 2.2969,0.34375 0.8906,0.32812 1.3125,0.82812 0.4218,0.5 0.5781,1.28125 0.094,0.46875 0.094,1.71875 v 2.5 q 0,2.625 0.125,3.3125 0.125,0.6875 0.4688,1.32813 h -1.9532 q -0.2968,-0.57813 -0.375,-1.35938 z m -0.1563,-4.1875 q -1.0156,0.40625 -3.0625,0.70313 -1.1562,0.17187 -1.6406,0.375 -0.4687,0.20312 -0.7344,0.60937 -0.2656,0.40625 -0.2656,0.89063 0,0.75 0.5625,1.25 0.5781,0.5 1.6719,0.5 1.0781,0 1.9219,-0.46875 0.8437,-0.48438 1.25,-1.29688 0.2968,-0.64062 0.2968,-1.875 z m 11.178,5.54688 v -9.60938 h -1.6562 v -1.45312 h 1.6562 v -1.17188 q 0,-1.10937 0.1875,-1.65625 0.2813,-0.73437 0.9532,-1.1875 0.6875,-0.45312 1.9218,-0.45312 0.7813,0 1.75,0.1875 l -0.2812,1.64062 q -0.5938,-0.10937 -1.1094,-0.10937 -0.8594,0 -1.2187,0.375 -0.3438,0.35937 -0.3438,1.35937 v 1.01563 h 2.1563 v 1.45312 h -2.1563 v 9.60938 z m 5.4882,-13.10938 v -2.15625 h 1.875 v 2.15625 z m 0,13.10938 v -11.0625 h 1.875 v 11.0625 z m 4.6759,0 v -15.26563 h 1.875 v 15.26563 z m 12.3635,-3.5625 1.9218,0.23437 q -0.4531,1.70313 -1.6875,2.64063 -1.2343,0.9375 -3.1718,0.9375 -2.4219,0 -3.8438,-1.48438 -1.4219,-1.5 -1.4219,-4.20312 0,-2.79688 1.4375,-4.32813 1.4375,-1.54687 3.7344,-1.54687 2.2188,0 3.6094,1.51562 1.4062,1.5 1.4062,4.25 0,0.15625 0,0.5 h -8.25 q 0.1094,1.8125 1.0313,2.78125 0.9219,0.96875 2.3125,0.96875 1.0312,0 1.75,-0.53125 0.7344,-0.54687 1.1719,-1.73437 z m -6.1563,-3.03125 h 6.1719 q -0.125,-1.39063 -0.7031,-2.09375 -0.9063,-1.07813 -2.3282,-1.07813 -1.2968,0 -2.1718,0.85938 -0.875,0.85937 -0.9688,2.3125 z"
       fill-rule="nonzero"
       id="path73" />
    <path
       fill="#ffffff"
       d="M 60.359781,134.62885 H 272.67472 V 176.6446 H 60.359781 Z"
       fill-rule="evenodd"
       id="path75" />
    <path
       stroke="#595959"
       stroke-width="1"
       stroke-linejoin="round"
       stroke-linecap="butt"
       d="M 60.359781,134.62885 H 272.67472 V 176.6446 H 60.359781 Z"
       fill-rule="evenodd"
       id="path77" />
    <path
       fill="#333333"
       d="m 153.42402,163.59324 q -1.625,0.6875 -3.42188,0.6875 -2.89062,0 -4.4375,-1.71875 -1.54687,-1.73438 -1.54687,-5.10938 0,-1.64062 0.42187,-2.95312 0.4375,-1.32813 1.21875,-2.25 0.79688,-0.92188 1.92188,-1.42188 1.125,-0.5 2.53125,-0.5 0.9375,0 1.75,0.17188 0.8125,0.15625 1.5625,0.48437 v 1.82813 q -0.73438,-0.40625 -1.53125,-0.60938 -0.78125,-0.21875 -1.71875,-0.21875 -0.96875,0 -1.75,0.35938 -0.76563,0.35937 -1.3125,1.04687 -0.53125,0.67188 -0.82813,1.65625 -0.29687,0.98438 -0.29687,2.23438 0,2.65625 1.07812,4 1.07813,1.34375 3.14063,1.34375 0.875,0 1.67187,-0.20313 0.8125,-0.20312 1.54688,-0.57812 z m 11.46068,0.375 q -0.60938,0.15625 -1.26563,0.21875 -0.65625,0.0625 -1.34375,0.0625 -1.96875,0 -2.9375,-0.89063 -0.96875,-0.89062 -0.96875,-2.73437 v -5.45313 h -2.92187 v -1.51562 h 2.92187 v -2.875 l 1.8125,-0.46875 v 3.34375 h 4.70313 v 1.51562 h -4.70313 v 5.3125 q 0,1.125 0.59375,1.6875 0.60938,0.54688 1.78125,0.54688 0.5,0 1.09375,-0.0781 0.59375,-0.0781 1.23438,-0.23437 z m 10.02318,0.14062 -0.0469,-1.40625 q -0.85937,0.84375 -1.73437,1.21875 -0.875,0.375 -1.84375,0.375 -0.90625,0 -1.54688,-0.21875 -0.625,-0.23437 -1.04687,-0.64062 -0.40625,-0.40625 -0.59375,-0.9375 -0.1875,-0.54688 -0.1875,-1.1875 0,-1.5625 1.17187,-2.45313 1.17188,-0.89062 3.45313,-0.89062 h 2.17187 v -0.92188 q 0,-0.92187 -0.59375,-1.48437 -0.59375,-0.5625 -1.8125,-0.5625 -0.89062,0 -1.75,0.20312 -0.85937,0.20313 -1.76562,0.5625 v -1.64062 q 0.34375,-0.125 0.76562,-0.23438 0.42188,-0.125 0.89063,-0.21875 0.46875,-0.0937 0.96875,-0.14062 0.51562,-0.0625 1.03125,-0.0625 0.95312,0 1.70312,0.20312 0.76563,0.20313 1.29688,0.64063 0.53125,0.42187 0.8125,1.07812 0.28125,0.64063 0.28125,1.51563 v 7.20312 z m -0.20313,-4.76562 h -2.29687 q -0.6875,0 -1.17188,0.14062 -0.48437,0.14063 -0.79687,0.39063 -0.3125,0.25 -0.46875,0.59375 -0.15625,0.34375 -0.15625,0.78125 0,0.3125 0.0937,0.59375 0.0937,0.26562 0.29687,0.48437 0.21875,0.20313 0.54688,0.32813 0.34375,0.125 0.8125,0.125 0.625,0 1.4375,-0.375 0.8125,-0.375 1.70312,-1.20313 z m 14.14818,-0.65625 q 0,1.3125 -0.35938,2.34375 -0.35937,1.01562 -1.03125,1.73437 -0.65625,0.70313 -1.60937,1.09375 -0.9375,0.375 -2.125,0.375 -0.9375,0 -1.90625,-0.17187 -0.96875,-0.1875 -1.90625,-0.5625 v -14.10938 h 1.8125 v 4.04688 l -0.0937,1.9375 q 0.78125,-1.04688 1.67187,-1.46875 0.89063,-0.4375 1.92188,-0.4375 0.89062,0 1.5625,0.375 0.6875,0.375 1.14062,1.0625 0.45313,0.67187 0.6875,1.64062 0.23438,0.95313 0.23438,2.14063 z m -1.85938,0.0937 q 0,-0.82813 -0.125,-1.51563 -0.10937,-0.6875 -0.375,-1.17187 -0.26562,-0.5 -0.67187,-0.76563 -0.40625,-0.28125 -0.96875,-0.28125 -0.34375,0 -0.70313,0.10938 -0.34375,0.10937 -0.73437,0.375 -0.375,0.25 -0.79688,0.67187 -0.42187,0.42188 -0.89062,1.04688 v 5.0625 q 0.53125,0.21875 1.07812,0.34375 0.54688,0.10937 1.04688,0.10937 0.625,0 1.1875,-0.1875 0.57812,-0.20312 1,-0.67187 0.4375,-0.46875 0.6875,-1.23438 0.26562,-0.76562 0.26562,-1.89062 z"
       fill-rule="nonzero"
       id="path79" />
    <path
       fill="#ffffff"
       d="M 60.359781,420.35851 H 272.67472 V 589.30343 H 60.359781 Z"
       fill-rule="evenodd"
       id="path81" />
    <path
       stroke="#595959"
       stroke-width="1"
       stroke-linejoin="round"
       stroke-linecap="butt"
       d="M 60.359781,420.35851 H 272.67472 V 589.30343 H 60.359781 Z"
       fill-rule="evenodd"
       id="path83" />
    <path
       fill="#ffffff"
       d="M 380.35979,420.35851 H 592.67475 V 589.30343 H 380.35979 Z"
       fill-rule="evenodd"
       id="path87" />
    <path
       stroke="#595959"
       stroke-width="1"
       stroke-linejoin="round"
       stroke-linecap="butt"
       d="M 380.35979,420.35851 H 592.67475 V 589.30343 H 380.35979 Z"
       fill-rule="evenodd"
       id="path89" />
    <path
       fill="#ffffff"
       d="m 415.00282,447.59999 h 143.18113 v 45.29132 H 415.00282 Z"
       fill-rule="evenodd"
       id="path91-8" />
    <path
       stroke="#595959"
       stroke-width="1"
       stroke-linejoin="round"
       stroke-linecap="butt"
       d="m 415.00282,447.59999 h 143.18113 v 45.29132 H 415.00282 Z"
       fill-rule="evenodd"
       id="path93" />
    <path
       fill="#000000"
       d="m 447.64506,466.62685 h 1.65625 l 0.0469,1.92187 q 0.9375,-1.10937 1.82813,-1.60937 0.90625,-0.5 1.82812,-0.5 1.625,0 2.45313,1.04687 0.84375,1.04688 0.78125,3.125 h -1.82813 q 0.0312,-1.375 -0.40625,-1.98437 -0.4375,-0.625 -1.26562,-0.625 -0.35938,0 -0.73438,0.125 -0.375,0.125 -0.76562,0.42187 -0.39063,0.28125 -0.82813,0.73438 -0.4375,0.4375 -0.9375,1.07812 v 6.71875 h -1.82812 z m 20.72629,10.45312 h -2.40625 l -2.82813,-3.98437 -2.78125,3.98437 h -2.34375 l 4.04688,-5.25 -3.85938,-5.20312 h 2.3125 l 2.75,4.01562 2.70313,-4.01562 h 2.23437 l -3.92187,5.25 z m 2.30444,-10.45312 h 1.60938 l 0.0781,1.6875 q 0.45313,-0.54688 0.875,-0.90625 0.4375,-0.35938 0.84375,-0.57813 0.40625,-0.21875 0.82813,-0.29687 0.4375,-0.0937 0.89062,-0.0937 1.625,0 2.45313,0.95312 0.82812,0.95313 0.82812,2.85938 v 6.82812 h -1.8125 v -6.67187 q 0,-1.23438 -0.46875,-1.8125 -0.45312,-0.59375 -1.35937,-0.59375 -0.32813,0 -0.65625,0.0937 -0.3125,0.0937 -0.65625,0.34375 -0.34375,0.25 -0.75,0.67187 -0.39063,0.40625 -0.89063,1.03125 v 6.9375 h -1.8125 z m 20.99194,-2.57813 q -1.42187,-0.29687 -2.45312,-0.29687 -2.4375,0 -2.4375,2.5625 v 1.82812 h 4.57812 v 1.51563 h -4.57812 v 7.42187 h -1.84375 v -7.42187 h -3.375 v -1.51563 h 3.375 v -1.73437 q 0,-4.17188 4.34375,-4.17188 1.09375,0 2.39062,0.25 z m -10.9375,2.57813 z m 16.96067,1.5 h -3.09375 v -1.5 h 4.92187 v 8.9375 h 3.10938 v 1.51562 h -8.375 v -1.51562 h 3.4375 z m 0.625,-5.89063 q 0.3125,0 0.5625,0.10938 0.26562,0.10937 0.45312,0.3125 0.20313,0.20312 0.3125,0.45312 0.10938,0.25 0.10938,0.5625 0,0.28125 -0.10938,0.54688 -0.10937,0.26562 -0.3125,0.46875 -0.1875,0.1875 -0.45312,0.29687 -0.25,0.10938 -0.5625,0.10938 -0.29688,0 -0.5625,-0.10938 -0.25,-0.10937 -0.45313,-0.29687 -0.1875,-0.20313 -0.29687,-0.46875 -0.10938,-0.26563 -0.10938,-0.54688 0,-0.3125 0.10938,-0.5625 0.10937,-0.25 0.29687,-0.45312 0.20313,-0.20313 0.45313,-0.3125 0.26562,-0.10938 0.5625,-0.10938 z m 11.10135,1.625 h -3.09378 v -1.5 h 4.92188 v 13.20313 h 3.1094 v 1.51562 h -8.37503 v -1.51562 h 3.43753 z m 16.9919,7.4375 q 0,0.39063 -0.016,0.65625 0,0.25 -0.031,0.48438 h -7.3437 q 0,1.59375 0.8906,2.45312 0.9062,0.85938 2.5937,0.85938 0.4532,0 0.9063,-0.0312 0.4687,-0.0312 0.8906,-0.0937 0.4375,-0.0625 0.8281,-0.14063 0.3907,-0.0781 0.7188,-0.17187 v 1.48437 q -0.7344,0.20313 -1.6719,0.32813 -0.9375,0.14062 -1.9375,0.14062 -1.3437,0 -2.3125,-0.35937 -0.9687,-0.375 -1.5937,-1.0625 -0.6094,-0.6875 -0.9063,-1.6875 -0.2969,-1.01563 -0.2969,-2.28125 0,-1.10938 0.3125,-2.09375 0.3282,-0.98438 0.9375,-1.71875 0.6094,-0.75 1.4844,-1.1875 0.8906,-0.4375 2.0156,-0.4375 1.0938,0 1.9375,0.34375 0.8438,0.34375 1.4219,0.96875 0.5781,0.625 0.875,1.53125 0.2969,0.90625 0.2969,2.01562 z m -1.8906,-0.26562 q 0.031,-0.6875 -0.1406,-1.26563 -0.1563,-0.57812 -0.5157,-1 -0.3437,-0.42187 -0.8593,-0.65625 -0.5157,-0.23437 -1.2032,-0.23437 -0.5937,0 -1.0937,0.23437 -0.4844,0.23438 -0.8438,0.65625 -0.3437,0.40625 -0.5625,1 -0.2187,0.57813 -0.2812,1.26563 z"
       fill-rule="nonzero"
       id="path95" />
    <path
       fill="#ffffff"
       d="m 415.00282,519.59999 h 143.18113 v 45.29132 H 415.00282 Z"
       fill-rule="evenodd"
       id="path97" />
    <path
       stroke="#595959"
       stroke-width="1"
       stroke-linejoin="round"
       stroke-linecap="butt"
       d="m 415.00282,519.59999 h 143.18113 v 45.29132 H 415.00282 Z"
       fill-rule="evenodd"
       id="path99" />
    <path
       fill="#000000"
       d="m 429.10249,544.06435 q 0,-1.32812 0.35937,-2.35937 0.35938,-1.04688 1.03125,-1.75 0.67188,-0.71875 1.60938,-1.07813 0.95312,-0.375 2.10937,-0.375 0.5,0 0.98438,0.0625 0.48437,0.0625 0.95312,0.1875 v -4.39062 h 1.82813 v 14.71875 h -1.625 l -0.0625,-1.98438 q -0.76563,1.10938 -1.65625,1.64063 -0.875,0.53125 -1.90625,0.53125 -0.90625,0 -1.59375,-0.375 -0.67188,-0.375 -1.125,-1.04688 -0.45313,-0.6875 -0.6875,-1.64062 -0.21875,-0.96875 -0.21875,-2.14063 z m 1.84375,-0.10937 q 0,1.89062 0.5625,2.82812 0.5625,0.9375 1.57812,0.9375 0.6875,0 1.45313,-0.60937 0.76562,-0.625 1.60937,-1.82813 v -4.85937 q -0.45312,-0.20313 -1,-0.3125 -0.53125,-0.10938 -1.0625,-0.10938 -1.48437,0 -2.3125,0.95313 -0.82812,0.95312 -0.82812,3 z m 17.13254,5.125 -0.0469,-1.40625 q -0.85937,0.84375 -1.73437,1.21875 -0.875,0.375 -1.84375,0.375 -0.90625,0 -1.54688,-0.21875 -0.625,-0.23438 -1.04687,-0.64063 -0.40625,-0.40625 -0.59375,-0.9375 -0.1875,-0.54687 -0.1875,-1.1875 0,-1.5625 1.17187,-2.45312 1.17188,-0.89063 3.45313,-0.89063 h 2.17187 v -0.92187 q 0,-0.92188 -0.59375,-1.48438 -0.59375,-0.5625 -1.8125,-0.5625 -0.89062,0 -1.75,0.20313 -0.85937,0.20312 -1.76562,0.5625 v -1.64063 q 0.34375,-0.125 0.76562,-0.23437 0.42188,-0.125 0.89063,-0.21875 0.46875,-0.0937 0.96875,-0.14063 0.51562,-0.0625 1.03125,-0.0625 0.95312,0 1.70312,0.20313 0.76563,0.20312 1.29688,0.64062 0.53125,0.42188 0.8125,1.07813 0.28125,0.64062 0.28125,1.51562 v 7.20313 z m -0.20313,-4.76563 h -2.29687 q -0.6875,0 -1.17188,0.14063 -0.48437,0.14062 -0.79687,0.39062 -0.3125,0.25 -0.46875,0.59375 -0.15625,0.34375 -0.15625,0.78125 0,0.3125 0.0937,0.59375 0.0937,0.26563 0.29687,0.48438 0.21875,0.20312 0.54688,0.32812 0.34375,0.125 0.8125,0.125 0.625,0 1.4375,-0.375 0.8125,-0.375 1.70312,-1.20312 z m 13.63257,4.625 q -0.60937,0.15625 -1.26562,0.21875 -0.65625,0.0625 -1.34375,0.0625 -1.96875,0 -2.9375,-0.89062 -0.96875,-0.89063 -0.96875,-2.73438 v -5.45312 h -2.92188 v -1.51563 h 2.92188 v -2.875 l 1.8125,-0.46875 v 3.34375 h 4.70312 v 1.51563 h -4.70312 v 5.3125 q 0,1.125 0.59375,1.6875 0.60937,0.54687 1.78125,0.54687 0.5,0 1.09375,-0.0781 0.59375,-0.0781 1.23437,-0.23438 z m 10.02316,0.14063 -0.0469,-1.40625 q -0.85938,0.84375 -1.73438,1.21875 -0.875,0.375 -1.84375,0.375 -0.90625,0 -1.54687,-0.21875 -0.625,-0.23438 -1.04688,-0.64063 -0.40625,-0.40625 -0.59375,-0.9375 -0.1875,-0.54687 -0.1875,-1.1875 0,-1.5625 1.17188,-2.45312 1.17187,-0.89063 3.45312,-0.89063 h 2.17188 v -0.92187 q 0,-0.92188 -0.59375,-1.48438 -0.59375,-0.5625 -1.8125,-0.5625 -0.89063,0 -1.75,0.20313 -0.85938,0.20312 -1.76563,0.5625 v -1.64063 q 0.34375,-0.125 0.76563,-0.23437 0.42187,-0.125 0.89062,-0.21875 0.46875,-0.0937 0.96875,-0.14063 0.51563,-0.0625 1.03125,-0.0625 0.95313,0 1.70313,0.20313 0.76562,0.20312 1.29687,0.64062 0.53125,0.42188 0.8125,1.07813 0.28125,0.64062 0.28125,1.51562 v 7.20313 z m -0.20312,-4.76563 h -2.29688 q -0.6875,0 -1.17187,0.14063 -0.48438,0.14062 -0.79688,0.39062 -0.3125,0.25 -0.46875,0.59375 -0.15625,0.34375 -0.15625,0.78125 0,0.3125 0.0937,0.59375 0.0937,0.26563 0.29688,0.48438 0.21875,0.20312 0.54687,0.32812 0.34375,0.125 0.8125,0.125 0.625,0 1.4375,-0.375 0.8125,-0.375 1.70313,-1.20312 z m 25.87448,-0.65625 q 0,1.3125 -0.35938,2.34375 -0.35937,1.01563 -1.03125,1.73438 -0.65625,0.70312 -1.60937,1.09375 -0.9375,0.375 -2.125,0.375 -0.9375,0 -1.90625,-0.17188 -0.96875,-0.1875 -1.90625,-0.5625 v -14.10937 h 1.8125 v 4.04687 l -0.0937,1.9375 q 0.78125,-1.04687 1.67187,-1.46875 0.89063,-0.4375 1.92188,-0.4375 0.89062,0 1.5625,0.375 0.6875,0.375 1.14062,1.0625 0.45313,0.67188 0.6875,1.64063 0.23438,0.95312 0.23438,2.14062 z m -1.85938,0.0937 q 0,-0.82812 -0.125,-1.51562 -0.10937,-0.6875 -0.375,-1.17188 -0.26562,-0.5 -0.67187,-0.76562 -0.40625,-0.28125 -0.96875,-0.28125 -0.34375,0 -0.70313,0.10937 -0.34375,0.10938 -0.73437,0.375 -0.375,0.25 -0.79688,0.67188 -0.42187,0.42187 -0.89062,1.04687 v 5.0625 q 0.53125,0.21875 1.07812,0.34375 0.54688,0.10938 1.04688,0.10938 0.625,0 1.1875,-0.1875 0.57812,-0.20313 1,-0.67188 0.4375,-0.46875 0.6875,-1.23437 0.26562,-0.76563 0.26562,-1.89063 z m 8.2107,-7.89062 h -3.09375 v -1.5 h 4.92187 v 13.20312 h 3.10937 v 1.51563 h -8.37499 v -1.51563 h 3.4375 z m 17.25759,7.90625 q 0,1.21875 -0.3438,2.23437 -0.3437,1.01563 -0.9843,1.75 -0.6407,0.71875 -1.5782,1.125 -0.9218,0.39063 -2.0937,0.39063 -1.125,0 -2.0156,-0.34375 -0.8907,-0.35938 -1.5157,-1.03125 -0.625,-0.67188 -0.9531,-1.67188 -0.3281,-1 -0.3281,-2.3125 0,-1.21875 0.3437,-2.21875 0.3438,-1 0.9844,-1.71875 0.6562,-0.73437 1.5781,-1.125 0.9375,-0.40625 2.1094,-0.40625 1.125,0 2.0156,0.34375 0.8907,0.34375 1.5,1.01563 0.625,0.67187 0.9532,1.67187 0.3281,1 0.3281,2.29688 z m -1.8438,0.0781 q 0,-0.96875 -0.2187,-1.6875 -0.2188,-0.71875 -0.6094,-1.20312 -0.3906,-0.48438 -0.9687,-0.73438 -0.5625,-0.25 -1.2657,-0.25 -0.8125,0 -1.3906,0.32813 -0.5781,0.3125 -0.9531,0.84375 -0.3594,0.53125 -0.5313,1.23437 -0.1719,0.70313 -0.1719,1.46875 0,0.96875 0.2032,1.70313 0.2187,0.73437 0.6094,1.21875 0.4062,0.48437 0.9687,0.73437 0.5625,0.23438 1.2656,0.23438 0.8125,0 1.3907,-0.3125 0.5781,-0.32813 0.9531,-0.85938 0.375,-0.53125 0.5469,-1.23437 0.1718,-0.70313 0.1718,-1.48438 z m 12.6013,4.84375 q -0.7188,0.28125 -1.4688,0.40625 -0.7343,0.125 -1.5312,0.125 -2.4688,0 -3.8125,-1.34375 -1.3438,-1.34375 -1.3438,-3.92187 0,-1.23438 0.3907,-2.25 0.3906,-1.01563 1.0781,-1.73438 0.7031,-0.71875 1.6719,-1.10937 0.9687,-0.39063 2.1406,-0.39063 0.8125,0 1.5156,0.125 0.7031,0.10938 1.3594,0.375 v 1.71875 q -0.6875,-0.34375 -1.3906,-0.5 -0.7032,-0.17187 -1.4532,-0.17187 -0.6875,0 -1.3125,0.26562 -0.625,0.26563 -1.0937,0.76563 -0.4688,0.5 -0.7344,1.21875 -0.2656,0.71875 -0.2656,1.625 0,1.89062 0.9219,2.84375 0.9218,0.9375 2.5468,0.9375 0.75,0 1.4375,-0.15625 0.6875,-0.17188 1.3438,-0.51563 z m 12.9919,0.39063 h -2.4843 l -4.875,-5.60938 v 5.60938 h -1.8125 v -14.71875 h 1.8125 v 9.04687 l 4.7031,-4.78125 h 2.3906 l -4.9062,4.8125 z"
       fill-rule="nonzero"
       id="path101" />
    <path
       fill="#ffffff"
       d="M 95.002821,447.59999 H 238.18392 v 45.29132 H 95.002821 Z"
       fill-rule="evenodd"
       id="path103" />
    <path
       stroke="#595959"
       stroke-width="1"
       stroke-linejoin="round"
       stroke-linecap="butt"
       d="M 95.002821,447.59999 H 238.18392 v 45.29132 H 95.002821 Z"
       fill-rule="evenodd"
       id="path105" />
    <path
       fill="#000000"
       d="m 134.67631,477.07999 v -7.51563 q 0,-0.48437 -0.0469,-0.79687 -0.0312,-0.3125 -0.10937,-0.48438 -0.0781,-0.1875 -0.20313,-0.26562 -0.10937,-0.0781 -0.28125,-0.0781 -0.21875,0 -0.39062,0.125 -0.17188,0.125 -0.375,0.40625 -0.20313,0.28125 -0.45313,0.75 -0.25,0.46875 -0.57812,1.14063 v 6.71875 h -1.65625 v -7.3125 q 0,-0.57813 -0.0469,-0.92188 -0.0312,-0.35937 -0.10937,-0.54687 -0.0781,-0.20313 -0.20313,-0.28125 -0.125,-0.0781 -0.29687,-0.0781 -0.1875,0 -0.35938,0.10938 -0.15625,0.10937 -0.35937,0.375 -0.20313,0.26562 -0.45313,0.73437 -0.25,0.46875 -0.59375,1.20313 v 6.71875 h -1.67187 v -10.45313 h 1.39062 l 0.0781,1.98438 q 0.26562,-0.59375 0.51562,-1 0.26563,-0.42188 0.53125,-0.67188 0.28125,-0.26562 0.57813,-0.375 0.3125,-0.125 0.6875,-0.125 0.84375,0 1.28125,0.54688 0.4375,0.54687 0.4375,1.70312 0.25,-0.53125 0.48437,-0.95312 0.25,-0.42188 0.51563,-0.70313 0.28125,-0.29687 0.60937,-0.4375 0.34375,-0.15625 0.78125,-0.15625 1.95313,0 1.95313,3.03125 v 7.60938 z m 13.36693,-5.3125 q 0,1.21875 -0.34375,2.23437 -0.34375,1.01563 -0.98438,1.75 -0.64062,0.71875 -1.57812,1.125 -0.92188,0.39063 -2.09375,0.39063 -1.125,0 -2.01563,-0.34375 -0.89062,-0.35938 -1.51562,-1.03125 -0.625,-0.67188 -0.95313,-1.67188 -0.32812,-1 -0.32812,-2.3125 0,-1.21875 0.34375,-2.21875 0.34375,-1 0.98437,-1.71875 0.65625,-0.73437 1.57813,-1.125 0.9375,-0.40625 2.10937,-0.40625 1.125,0 2.01563,0.34375 0.89062,0.34375 1.5,1.01563 0.625,0.67187 0.95312,1.67187 0.32813,1 0.32813,2.29688 z m -1.84375,0.0781 q 0,-0.96875 -0.21875,-1.6875 -0.21875,-0.71875 -0.60938,-1.20312 -0.39062,-0.48438 -0.96875,-0.73438 -0.5625,-0.25 -1.26562,-0.25 -0.8125,0 -1.39063,0.32813 -0.57812,0.3125 -0.95312,0.84375 -0.35938,0.53125 -0.53125,1.23437 -0.17188,0.70313 -0.17188,1.46875 0,0.96875 0.20313,1.70313 0.21875,0.73437 0.60937,1.21875 0.40625,0.48437 0.96875,0.73437 0.5625,0.23438 1.26563,0.23438 0.8125,0 1.39062,-0.3125 0.57813,-0.32813 0.95313,-0.85938 0.375,-0.53125 0.54687,-1.23437 0.17188,-0.70313 0.17188,-1.48438 z m 8.0388,-7.98437 h -3.09375 v -1.5 h 4.92188 v 13.20312 h 3.10937 v 1.51563 h -8.375 v -1.51563 h 3.4375 z m 17.42943,0.1875 q -1.42188,-0.29688 -2.45313,-0.29688 -2.4375,0 -2.4375,2.5625 v 1.82813 h 4.57813 v 1.51562 h -4.57813 v 7.42188 h -1.84375 v -7.42188 h -3.375 v -1.51562 h 3.375 v -1.73438 q 0,-4.17187 4.34375,-4.17187 1.09375,0 2.39063,0.25 z m -10.9375,2.57812 z m 16.96068,1.5 h -3.09375 v -1.5 h 4.92187 v 8.9375 h 3.10938 v 1.51563 h -8.375 v -1.51563 h 3.4375 z m 0.625,-5.89062 q 0.3125,0 0.5625,0.10937 0.26562,0.10938 0.45312,0.3125 0.20313,0.20313 0.3125,0.45313 0.10938,0.25 0.10938,0.5625 0,0.28125 -0.10938,0.54687 -0.10937,0.26563 -0.3125,0.46875 -0.1875,0.1875 -0.45312,0.29688 -0.25,0.10937 -0.5625,0.10937 -0.29688,0 -0.5625,-0.10937 -0.25,-0.10938 -0.45313,-0.29688 -0.1875,-0.20312 -0.29687,-0.46875 -0.10938,-0.26562 -0.10938,-0.54687 0,-0.3125 0.10938,-0.5625 0.10937,-0.25 0.29687,-0.45313 0.20313,-0.20312 0.45313,-0.3125 0.26562,-0.10937 0.5625,-0.10937 z m 11.1013,1.625 h -3.09375 v -1.5 h 4.92187 v 13.20312 h 3.10938 v 1.51563 h -8.375 v -1.51563 h 3.4375 z m 16.99193,7.4375 q 0,0.39062 -0.0156,0.65625 0,0.25 -0.0312,0.48437 h -7.34375 q 0,1.59375 0.89063,2.45313 0.90625,0.85937 2.59375,0.85937 0.45312,0 0.90625,-0.0312 0.46875,-0.0312 0.89062,-0.0937 0.4375,-0.0625 0.82813,-0.14062 0.39062,-0.0781 0.71875,-0.17188 v 1.48438 q -0.73438,0.20312 -1.67188,0.32812 -0.9375,0.14063 -1.9375,0.14063 -1.34375,0 -2.3125,-0.35938 -0.96875,-0.375 -1.59375,-1.0625 -0.60937,-0.6875 -0.90625,-1.6875 -0.29687,-1.01562 -0.29687,-2.28125 0,-1.10937 0.3125,-2.09375 0.32812,-0.98437 0.9375,-1.71875 0.60937,-0.75 1.48437,-1.1875 0.89063,-0.4375 2.01563,-0.4375 1.09375,0 1.9375,0.34375 0.84375,0.34375 1.42187,0.96875 0.57813,0.625 0.875,1.53125 0.29688,0.90625 0.29688,2.01563 z m -1.89063,-0.26563 q 0.0312,-0.6875 -0.14062,-1.26562 -0.15625,-0.57813 -0.51563,-1 -0.34375,-0.42188 -0.85937,-0.65625 -0.51563,-0.23438 -1.20313,-0.23438 -0.59375,0 -1.09375,0.23438 -0.48437,0.23437 -0.84375,0.65625 -0.34375,0.40625 -0.5625,1 -0.21875,0.57812 -0.28125,1.26562 z"
       fill-rule="nonzero"
       id="path107" />
    <path
       fill="#ffffff"
       d="M 95.002821,519.59999 H 238.18392 v 45.29132 H 95.002821 Z"
       fill-rule="evenodd"
       id="path109" />
    <path
       stroke="#595959"
       stroke-width="1"
       stroke-linejoin="round"
       stroke-linecap="butt"
       d="M 95.002821,519.59999 H 238.18392 v 45.29132 H 95.002821 Z"
       fill-rule="evenodd"
       id="path111" />
    <path
       fill="#000000"
       d="m 109.10248,544.06435 q 0,-1.32812 0.35938,-2.35937 0.35937,-1.04688 1.03125,-1.75 0.67187,-0.71875 1.60937,-1.07813 0.95313,-0.375 2.10938,-0.375 0.5,0 0.98437,0.0625 0.48438,0.0625 0.95313,0.1875 v -4.39062 h 1.82812 v 14.71875 h -1.625 l -0.0625,-1.98438 q -0.76562,1.10938 -1.65625,1.64063 -0.875,0.53125 -1.90625,0.53125 -0.90625,0 -1.59375,-0.375 -0.67187,-0.375 -1.125,-1.04688 -0.45312,-0.6875 -0.6875,-1.64062 -0.21875,-0.96875 -0.21875,-2.14063 z m 1.84375,-0.10937 q 0,1.89062 0.5625,2.82812 0.5625,0.9375 1.57813,0.9375 0.6875,0 1.45312,-0.60937 0.76563,-0.625 1.60938,-1.82813 v -4.85937 q -0.45313,-0.20313 -1,-0.3125 -0.53125,-0.10938 -1.0625,-0.10938 -1.48438,0 -2.3125,0.95313 -0.82813,0.95312 -0.82813,3 z m 17.13256,5.125 -0.0469,-1.40625 q -0.85937,0.84375 -1.73437,1.21875 -0.875,0.375 -1.84375,0.375 -0.90625,0 -1.54688,-0.21875 -0.625,-0.23438 -1.04687,-0.64063 -0.40625,-0.40625 -0.59375,-0.9375 -0.1875,-0.54687 -0.1875,-1.1875 0,-1.5625 1.17187,-2.45312 1.17188,-0.89063 3.45313,-0.89063 h 2.17187 v -0.92187 q 0,-0.92188 -0.59375,-1.48438 -0.59375,-0.5625 -1.8125,-0.5625 -0.89062,0 -1.75,0.20313 -0.85937,0.20312 -1.76562,0.5625 v -1.64063 q 0.34375,-0.125 0.76562,-0.23437 0.42188,-0.125 0.89063,-0.21875 0.46875,-0.0937 0.96875,-0.14063 0.51562,-0.0625 1.03125,-0.0625 0.95312,0 1.70312,0.20313 0.76563,0.20312 1.29688,0.64062 0.53125,0.42188 0.8125,1.07813 0.28124,0.64062 0.28124,1.51562 v 7.20313 z m -0.20313,-4.76563 h -2.29687 q -0.6875,0 -1.17188,0.14063 -0.48437,0.14062 -0.79687,0.39062 -0.3125,0.25 -0.46875,0.59375 -0.15625,0.34375 -0.15625,0.78125 0,0.3125 0.0937,0.59375 0.0937,0.26563 0.29687,0.48438 0.21875,0.20312 0.54688,0.32812 0.34375,0.125 0.8125,0.125 0.625,0 1.4375,-0.375 0.8125,-0.375 1.70312,-1.20312 z m 13.63255,4.625 q -0.60938,0.15625 -1.26563,0.21875 -0.65625,0.0625 -1.34375,0.0625 -1.96875,0 -2.9375,-0.89062 -0.96875,-0.89063 -0.96875,-2.73438 v -5.45312 h -2.92187 v -1.51563 h 2.92187 v -2.875 l 1.8125,-0.46875 v 3.34375 h 4.70313 v 1.51563 h -4.70313 v 5.3125 q 0,1.125 0.59375,1.6875 0.60938,0.54687 1.78125,0.54687 0.5,0 1.09375,-0.0781 0.59375,-0.0781 1.23438,-0.23438 z m 10.02317,0.14063 -0.0469,-1.40625 q -0.85938,0.84375 -1.73438,1.21875 -0.875,0.375 -1.84375,0.375 -0.90625,0 -1.54687,-0.21875 -0.625,-0.23438 -1.04688,-0.64063 -0.40625,-0.40625 -0.59375,-0.9375 -0.1875,-0.54687 -0.1875,-1.1875 0,-1.5625 1.17188,-2.45312 1.17187,-0.89063 3.45312,-0.89063 h 2.17188 v -0.92187 q 0,-0.92188 -0.59375,-1.48438 -0.59375,-0.5625 -1.8125,-0.5625 -0.89063,0 -1.75,0.20313 -0.85938,0.20312 -1.76563,0.5625 v -1.64063 q 0.34375,-0.125 0.76563,-0.23437 0.42187,-0.125 0.89062,-0.21875 0.46875,-0.0937 0.96875,-0.14063 0.51563,-0.0625 1.03125,-0.0625 0.95313,0 1.70313,0.20313 0.76562,0.20312 1.29687,0.64062 0.53125,0.42188 0.8125,1.07813 0.28125,0.64062 0.28125,1.51562 v 7.20313 z m -0.20312,-4.76563 h -2.29688 q -0.6875,0 -1.17187,0.14063 -0.48438,0.14062 -0.79688,0.39062 -0.3125,0.25 -0.46875,0.59375 -0.15625,0.34375 -0.15625,0.78125 0,0.3125 0.0937,0.59375 0.0937,0.26563 0.29688,0.48438 0.21875,0.20312 0.54687,0.32812 0.34375,0.125 0.8125,0.125 0.625,0 1.4375,-0.375 0.8125,-0.375 1.70313,-1.20312 z m 25.87448,-0.65625 q 0,1.3125 -0.35937,2.34375 -0.35938,1.01563 -1.03125,1.73438 -0.65625,0.70312 -1.60938,1.09375 -0.9375,0.375 -2.125,0.375 -0.9375,0 -1.90625,-0.17188 -0.96875,-0.1875 -1.90625,-0.5625 v -14.10937 h 1.8125 v 4.04687 l -0.0937,1.9375 q 0.78125,-1.04687 1.67188,-1.46875 0.89062,-0.4375 1.92187,-0.4375 0.89063,0 1.5625,0.375 0.6875,0.375 1.14063,1.0625 0.45312,0.67188 0.6875,1.64063 0.23437,0.95312 0.23437,2.14062 z m -1.85937,0.0937 q 0,-0.82812 -0.125,-1.51562 -0.10938,-0.6875 -0.375,-1.17188 -0.26563,-0.5 -0.67188,-0.76562 -0.40625,-0.28125 -0.96875,-0.28125 -0.34375,0 -0.70312,0.10937 -0.34375,0.10938 -0.73438,0.375 -0.375,0.25 -0.79687,0.67188 -0.42188,0.42187 -0.89063,1.04687 v 5.0625 q 0.53125,0.21875 1.07813,0.34375 0.54687,0.10938 1.04687,0.10938 0.625,0 1.1875,-0.1875 0.57813,-0.20313 1,-0.67188 0.4375,-0.46875 0.6875,-1.23437 0.26563,-0.76563 0.26563,-1.89063 z m 8.21067,-7.89062 h -3.09375 v -1.5 h 4.92188 v 13.20312 h 3.10937 v 1.51563 h -8.375 v -1.51563 h 3.4375 z m 17.25756,7.90625 q 0,1.21875 -0.34375,2.23437 -0.34375,1.01563 -0.98438,1.75 -0.64062,0.71875 -1.57812,1.125 -0.92188,0.39063 -2.09375,0.39063 -1.125,0 -2.01563,-0.34375 -0.89062,-0.35938 -1.51562,-1.03125 -0.625,-0.67188 -0.95313,-1.67188 -0.32812,-1 -0.32812,-2.3125 0,-1.21875 0.34375,-2.21875 0.34375,-1 0.98437,-1.71875 0.65625,-0.73437 1.57813,-1.125 0.9375,-0.40625 2.10937,-0.40625 1.125,0 2.01563,0.34375 0.89062,0.34375 1.5,1.01563 0.625,0.67187 0.95312,1.67187 0.32813,1 0.32813,2.29688 z m -1.84375,0.0781 q 0,-0.96875 -0.21875,-1.6875 -0.21875,-0.71875 -0.60938,-1.20312 -0.39062,-0.48438 -0.96875,-0.73438 -0.5625,-0.25 -1.26562,-0.25 -0.8125,0 -1.39063,0.32813 -0.57812,0.3125 -0.95312,0.84375 -0.35938,0.53125 -0.53125,1.23437 -0.17188,0.70313 -0.17188,1.46875 0,0.96875 0.20313,1.70313 0.21875,0.73437 0.60937,1.21875 0.40625,0.48437 0.96875,0.73437 0.5625,0.23438 1.26563,0.23438 0.8125,0 1.39062,-0.3125 0.57813,-0.32813 0.95313,-0.85938 0.375,-0.53125 0.54687,-1.23437 0.17188,-0.70313 0.17188,-1.48438 z m 12.6013,4.84375 q -0.71875,0.28125 -1.46875,0.40625 -0.73438,0.125 -1.53125,0.125 -2.46875,0 -3.8125,-1.34375 -1.34375,-1.34375 -1.34375,-3.92187 0,-1.23438 0.39062,-2.25 0.39063,-1.01563 1.07813,-1.73438 0.70312,-0.71875 1.67187,-1.10937 0.96875,-0.39063 2.14063,-0.39063 0.8125,0 1.51562,0.125 0.70313,0.10938 1.35938,0.375 v 1.71875 q -0.6875,-0.34375 -1.39063,-0.5 -0.70312,-0.17187 -1.45312,-0.17187 -0.6875,0 -1.3125,0.26562 -0.625,0.26563 -1.09375,0.76563 -0.46875,0.5 -0.73438,1.21875 -0.26562,0.71875 -0.26562,1.625 0,1.89062 0.92187,2.84375 0.92188,0.9375 2.54688,0.9375 0.75,0 1.4375,-0.15625 0.6875,-0.17188 1.34375,-0.51563 z m 12.99193,0.39063 h -2.48438 l -4.875,-5.60938 v 5.60938 h -1.8125 v -14.71875 h 1.8125 v 9.04687 l 4.70313,-4.78125 h 2.39062 l -4.90625,4.8125 z"
       fill-rule="nonzero"
       id="path113" />
  </g>
</svg>
